G75*
%MOIN*%
%OFA0B0*%
%FSLAX25Y25*%
%IPPOS*%
%LPD*%
%AMOC8*
5,1,8,0,0,1.08239X$1,22.5*
%
%ADD10R,0.03937X0.04331*%
%ADD11C,0.12500*%
%ADD12C,0.07400*%
%ADD13R,0.04331X0.03937*%
%ADD14R,0.05150X0.05150*%
%ADD15C,0.11850*%
%ADD16C,0.02000*%
%ADD17C,0.03962*%
D10*
X0101000Y0027654D03*
X0101000Y0034346D03*
X0101000Y0047654D03*
X0101000Y0054346D03*
X0101000Y0067654D03*
X0101000Y0074346D03*
X0101000Y0087654D03*
X0101000Y0094346D03*
X0161000Y0097654D03*
X0161000Y0104346D03*
X0161000Y0112654D03*
X0161000Y0119346D03*
X0161000Y0089346D03*
X0161000Y0082654D03*
X0161000Y0074346D03*
X0161000Y0067654D03*
X0296000Y0067654D03*
X0296000Y0074346D03*
X0296000Y0087654D03*
X0296000Y0094346D03*
X0296000Y0054346D03*
X0296000Y0047654D03*
X0296000Y0034346D03*
X0296000Y0027654D03*
X0356000Y0067654D03*
X0356000Y0074346D03*
X0356000Y0082654D03*
X0356000Y0089346D03*
X0356000Y0097654D03*
X0356000Y0104346D03*
X0356000Y0112654D03*
X0356000Y0119346D03*
D11*
X0331500Y0201000D03*
X0300500Y0201000D03*
X0136500Y0201000D03*
X0105500Y0201000D03*
D12*
X0016000Y0036000D03*
X0016000Y0046000D03*
X0016000Y0061000D03*
X0016000Y0071000D03*
X0016000Y0086000D03*
X0016000Y0096000D03*
X0016000Y0111000D03*
X0016000Y0121000D03*
X0016000Y0136000D03*
X0016000Y0146000D03*
X0016000Y0156000D03*
X0016000Y0171000D03*
X0016000Y0181000D03*
X0016000Y0191000D03*
X0031000Y0206000D03*
X0041000Y0206000D03*
X0051000Y0206000D03*
X0066000Y0206000D03*
X0076000Y0206000D03*
X0086000Y0206000D03*
X0181000Y0146000D03*
X0181000Y0136000D03*
X0181000Y0121000D03*
X0181000Y0111000D03*
X0181000Y0096000D03*
X0181000Y0086000D03*
X0181000Y0071000D03*
X0181000Y0061000D03*
X0181000Y0046000D03*
X0181000Y0036000D03*
X0161000Y0036000D03*
X0151000Y0036000D03*
X0211000Y0036000D03*
X0211000Y0046000D03*
X0211000Y0061000D03*
X0211000Y0071000D03*
X0211000Y0086000D03*
X0211000Y0096000D03*
X0211000Y0111000D03*
X0211000Y0121000D03*
X0211000Y0136000D03*
X0211000Y0146000D03*
X0211000Y0156000D03*
X0211000Y0171000D03*
X0211000Y0181000D03*
X0211000Y0191000D03*
X0226000Y0206000D03*
X0236000Y0206000D03*
X0246000Y0206000D03*
X0261000Y0206000D03*
X0271000Y0206000D03*
X0281000Y0206000D03*
X0376000Y0146000D03*
X0376000Y0136000D03*
X0376000Y0121000D03*
X0376000Y0111000D03*
X0376000Y0096000D03*
X0376000Y0086000D03*
X0376000Y0071000D03*
X0376000Y0061000D03*
X0376000Y0046000D03*
X0376000Y0036000D03*
X0356000Y0036000D03*
X0346000Y0036000D03*
D13*
X0346000Y0067654D03*
X0346000Y0074346D03*
X0346000Y0082654D03*
X0346000Y0089346D03*
X0346000Y0097654D03*
X0346000Y0104346D03*
X0346000Y0112654D03*
X0346000Y0119346D03*
X0296000Y0132654D03*
X0296000Y0139346D03*
X0296000Y0152654D03*
X0296000Y0159346D03*
X0286000Y0094346D03*
X0286000Y0087654D03*
X0276000Y0087654D03*
X0276000Y0094346D03*
X0276000Y0074346D03*
X0276000Y0067654D03*
X0286000Y0067654D03*
X0286000Y0074346D03*
X0286000Y0054346D03*
X0286000Y0047654D03*
X0276000Y0047654D03*
X0276000Y0054346D03*
X0276000Y0034346D03*
X0276000Y0027654D03*
X0286000Y0027654D03*
X0286000Y0034346D03*
X0151000Y0067654D03*
X0151000Y0074346D03*
X0151000Y0082654D03*
X0151000Y0089346D03*
X0151000Y0097654D03*
X0151000Y0104346D03*
X0151000Y0112654D03*
X0151000Y0119346D03*
X0101000Y0132654D03*
X0101000Y0139346D03*
X0101000Y0152654D03*
X0101000Y0159346D03*
X0091000Y0094346D03*
X0091000Y0087654D03*
X0081000Y0087654D03*
X0081000Y0094346D03*
X0081000Y0074346D03*
X0081000Y0067654D03*
X0091000Y0067654D03*
X0091000Y0074346D03*
X0091000Y0054346D03*
X0091000Y0047654D03*
X0081000Y0047654D03*
X0081000Y0054346D03*
X0081000Y0034346D03*
X0081000Y0027654D03*
X0091000Y0027654D03*
X0091000Y0034346D03*
D14*
X0051000Y0031000D03*
X0051000Y0021000D03*
X0051000Y0041000D03*
X0051000Y0051000D03*
X0051000Y0061000D03*
X0051000Y0071000D03*
X0051000Y0081000D03*
X0051000Y0091000D03*
X0051000Y0101000D03*
X0051000Y0111000D03*
X0051000Y0121000D03*
X0051000Y0131000D03*
X0051000Y0141000D03*
X0051000Y0151000D03*
X0131000Y0151000D03*
X0131000Y0141000D03*
X0131000Y0131000D03*
X0131000Y0121000D03*
X0131000Y0111000D03*
X0131000Y0101000D03*
X0131000Y0091000D03*
X0131000Y0081000D03*
X0131000Y0071000D03*
X0131000Y0061000D03*
X0131000Y0051000D03*
X0131000Y0041000D03*
X0131000Y0031000D03*
X0131000Y0021000D03*
X0246000Y0021000D03*
X0246000Y0031000D03*
X0246000Y0041000D03*
X0246000Y0051000D03*
X0246000Y0061000D03*
X0246000Y0071000D03*
X0246000Y0081000D03*
X0246000Y0091000D03*
X0246000Y0101000D03*
X0246000Y0111000D03*
X0246000Y0121000D03*
X0246000Y0131000D03*
X0246000Y0141000D03*
X0246000Y0151000D03*
X0326000Y0151000D03*
X0326000Y0141000D03*
X0326000Y0131000D03*
X0326000Y0121000D03*
X0326000Y0111000D03*
X0326000Y0101000D03*
X0326000Y0091000D03*
X0326000Y0081000D03*
X0326000Y0071000D03*
X0326000Y0061000D03*
X0326000Y0051000D03*
X0326000Y0041000D03*
X0326000Y0031000D03*
X0326000Y0021000D03*
D15*
X0355075Y0165200D02*
X0366925Y0165200D01*
X0366925Y0181000D02*
X0355075Y0181000D01*
X0355075Y0196800D02*
X0366925Y0196800D01*
X0171925Y0196800D02*
X0160075Y0196800D01*
X0160075Y0181000D02*
X0171925Y0181000D01*
X0171925Y0165200D02*
X0160075Y0165200D01*
D16*
X0166000Y0165200D02*
X0166000Y0166200D01*
X0100200Y0166200D01*
X0100200Y0160600D01*
X0101000Y0159346D01*
X0101000Y0152654D02*
X0101600Y0152200D01*
X0101600Y0139600D01*
X0101000Y0139346D01*
X0101600Y0138200D01*
X0124000Y0138200D01*
X0131000Y0131200D01*
X0131000Y0131000D01*
X0131000Y0121000D02*
X0131000Y0120000D01*
X0150600Y0120000D01*
X0151000Y0119346D01*
X0152000Y0120000D01*
X0160400Y0120000D01*
X0161000Y0119346D01*
X0161800Y0118600D01*
X0168800Y0111600D01*
X0180000Y0111600D01*
X0181000Y0111000D01*
X0161000Y0112654D02*
X0161000Y0113500D01*
X0156000Y0113500D01*
X0151000Y0113500D01*
X0151000Y0112654D01*
X0150600Y0104600D02*
X0151000Y0104346D01*
X0152000Y0104600D01*
X0160400Y0104600D01*
X0161000Y0104346D01*
X0161800Y0104600D01*
X0180000Y0086400D01*
X0181000Y0086000D01*
X0166000Y0085000D02*
X0166000Y0078000D01*
X0180000Y0064000D01*
X0180000Y0061200D01*
X0181000Y0061000D01*
X0166000Y0052800D02*
X0166000Y0069600D01*
X0161800Y0073800D01*
X0161000Y0074346D01*
X0160400Y0073800D01*
X0152000Y0073800D01*
X0151000Y0074346D01*
X0150600Y0075200D01*
X0146400Y0075200D01*
X0131000Y0090600D01*
X0131000Y0091000D01*
X0131000Y0100400D02*
X0131000Y0101000D01*
X0131000Y0100400D02*
X0140800Y0090600D01*
X0150600Y0090600D01*
X0151000Y0089346D01*
X0152000Y0089200D01*
X0160400Y0089200D01*
X0161000Y0089346D01*
X0161800Y0089200D01*
X0166000Y0085000D01*
X0161000Y0083500D02*
X0161000Y0082654D01*
X0161000Y0083500D02*
X0151000Y0083500D01*
X0151000Y0082654D01*
X0151000Y0083500D02*
X0143500Y0083500D01*
X0151000Y0097654D02*
X0151000Y0098500D01*
X0156000Y0098500D01*
X0161000Y0098500D01*
X0161000Y0097654D01*
X0150600Y0104600D02*
X0136600Y0104600D01*
X0131000Y0110200D01*
X0131000Y0111000D01*
X0111000Y0133500D02*
X0101000Y0133500D01*
X0101000Y0132654D01*
X0100200Y0166200D02*
X0100200Y0191400D01*
X0086200Y0205400D01*
X0086000Y0206000D01*
X0084800Y0206800D01*
X0079200Y0212400D01*
X0056800Y0212400D01*
X0051200Y0206800D01*
X0051000Y0206000D01*
X0065200Y0205400D02*
X0066000Y0206000D01*
X0065200Y0205400D02*
X0065200Y0155000D01*
X0051200Y0141000D01*
X0051000Y0141000D01*
X0049800Y0134000D02*
X0031600Y0152200D01*
X0031600Y0205400D01*
X0031000Y0206000D01*
X0016000Y0171000D02*
X0016200Y0170400D01*
X0021800Y0164800D01*
X0021800Y0152200D01*
X0049800Y0124200D01*
X0049800Y0121400D01*
X0051000Y0121000D01*
X0049800Y0111600D02*
X0040000Y0111600D01*
X0016200Y0135400D01*
X0016000Y0136000D01*
X0016000Y0111000D02*
X0016200Y0110200D01*
X0030200Y0096200D01*
X0054000Y0096200D01*
X0062400Y0087800D01*
X0080600Y0087800D01*
X0081000Y0087654D01*
X0081000Y0094346D02*
X0080600Y0094800D01*
X0075000Y0100400D01*
X0051200Y0100400D01*
X0051000Y0101000D01*
X0051000Y0111000D02*
X0049800Y0111600D01*
X0051000Y0131000D02*
X0049800Y0131200D01*
X0049800Y0134000D01*
X0081000Y0094346D02*
X0082000Y0094800D01*
X0090400Y0094800D01*
X0091000Y0094346D01*
X0091800Y0094800D01*
X0100200Y0094800D01*
X0101000Y0094346D01*
X0101000Y0088500D02*
X0101000Y0087654D01*
X0101000Y0081000D01*
X0101000Y0074346D02*
X0100200Y0073800D01*
X0091800Y0073800D01*
X0091000Y0074346D01*
X0090400Y0073800D01*
X0082000Y0073800D01*
X0081000Y0074346D01*
X0080600Y0075200D01*
X0070800Y0075200D01*
X0055400Y0090600D01*
X0051200Y0090600D01*
X0051000Y0091000D01*
X0054000Y0086400D02*
X0016200Y0086400D01*
X0016000Y0086000D01*
X0009200Y0089200D02*
X0009200Y0075200D01*
X0013400Y0071000D01*
X0016000Y0071000D01*
X0014800Y0071000D01*
X0009200Y0065400D01*
X0009200Y0059800D01*
X0014800Y0054200D01*
X0014800Y0047200D01*
X0016000Y0046000D01*
X0016000Y0036000D02*
X0054000Y0036000D01*
X0061000Y0029000D01*
X0080600Y0029000D01*
X0081000Y0027654D01*
X0081000Y0034346D02*
X0080600Y0034600D01*
X0076400Y0038800D01*
X0076400Y0045800D01*
X0051200Y0071000D01*
X0051000Y0071000D01*
X0055400Y0072400D02*
X0055400Y0075200D01*
X0054000Y0076600D01*
X0031600Y0076600D01*
X0016000Y0061000D01*
X0009200Y0089200D02*
X0016000Y0096000D01*
X0051000Y0081000D02*
X0051200Y0080800D01*
X0055400Y0080800D01*
X0080600Y0055600D01*
X0081000Y0054346D01*
X0082000Y0054200D01*
X0090400Y0054200D01*
X0091000Y0054346D01*
X0091800Y0054200D01*
X0100200Y0054200D01*
X0101000Y0054346D01*
X0101000Y0048500D02*
X0101000Y0047654D01*
X0101000Y0041000D01*
X0100200Y0034600D02*
X0101000Y0034346D01*
X0100200Y0034600D02*
X0091800Y0034600D01*
X0091000Y0034346D01*
X0090400Y0034600D01*
X0082000Y0034600D01*
X0081000Y0034346D01*
X0091000Y0028500D02*
X0091000Y0027654D01*
X0091000Y0028500D02*
X0101000Y0028500D01*
X0101000Y0027654D01*
X0101000Y0021000D01*
X0131000Y0021000D02*
X0131000Y0022000D01*
X0146400Y0022000D01*
X0160400Y0036000D01*
X0161000Y0036000D01*
X0166000Y0052800D02*
X0180000Y0038800D01*
X0180000Y0036000D01*
X0181000Y0036000D01*
X0204200Y0059800D02*
X0204200Y0065400D01*
X0209800Y0071000D01*
X0211000Y0071000D01*
X0208400Y0071000D01*
X0204200Y0075200D01*
X0204200Y0089200D01*
X0211000Y0096000D01*
X0211200Y0086400D02*
X0211000Y0086000D01*
X0211200Y0086400D02*
X0249000Y0086400D01*
X0267200Y0068200D01*
X0275600Y0068200D01*
X0276000Y0067654D01*
X0277000Y0073800D02*
X0276000Y0074346D01*
X0275600Y0075200D01*
X0265800Y0075200D01*
X0250400Y0090600D01*
X0246200Y0090600D01*
X0246000Y0091000D01*
X0249000Y0096200D02*
X0225200Y0096200D01*
X0211200Y0110200D01*
X0211000Y0111000D01*
X0235000Y0111600D02*
X0211200Y0135400D01*
X0211000Y0136000D01*
X0216800Y0152200D02*
X0216800Y0164800D01*
X0211200Y0170400D01*
X0211000Y0171000D01*
X0216800Y0152200D02*
X0244800Y0124200D01*
X0244800Y0121400D01*
X0246000Y0121000D01*
X0244800Y0111600D02*
X0235000Y0111600D01*
X0244800Y0111600D02*
X0246000Y0111000D01*
X0246000Y0101000D02*
X0246200Y0100400D01*
X0270000Y0100400D01*
X0275600Y0094800D01*
X0276000Y0094346D01*
X0277000Y0094800D01*
X0285400Y0094800D01*
X0286000Y0094346D01*
X0286800Y0094800D01*
X0295200Y0094800D01*
X0296000Y0094346D01*
X0296000Y0088500D02*
X0296000Y0087654D01*
X0296000Y0081000D01*
X0296000Y0074346D02*
X0295200Y0073800D01*
X0286800Y0073800D01*
X0286000Y0074346D01*
X0285400Y0073800D01*
X0277000Y0073800D01*
X0286000Y0068500D02*
X0286000Y0067654D01*
X0286000Y0068500D02*
X0296000Y0068500D01*
X0296000Y0067654D01*
X0296000Y0061000D01*
X0296000Y0054346D02*
X0295200Y0054200D01*
X0286800Y0054200D01*
X0286000Y0054346D01*
X0285400Y0054200D01*
X0277000Y0054200D01*
X0276000Y0054346D01*
X0275600Y0055600D01*
X0250400Y0080800D01*
X0246200Y0080800D01*
X0246000Y0081000D01*
X0249000Y0076600D02*
X0226600Y0076600D01*
X0211000Y0061000D01*
X0204200Y0059800D02*
X0209800Y0054200D01*
X0209800Y0047200D01*
X0211000Y0046000D01*
X0211000Y0036000D02*
X0249000Y0036000D01*
X0256000Y0029000D01*
X0275600Y0029000D01*
X0276000Y0027654D01*
X0276000Y0034346D02*
X0275600Y0034600D01*
X0271400Y0038800D01*
X0271400Y0045800D01*
X0246200Y0071000D01*
X0246000Y0071000D01*
X0250400Y0072400D02*
X0250400Y0075200D01*
X0249000Y0076600D01*
X0250400Y0072400D02*
X0274200Y0048600D01*
X0275600Y0048600D01*
X0276000Y0047654D01*
X0286000Y0047654D02*
X0286000Y0048500D01*
X0296000Y0048500D01*
X0296000Y0047654D01*
X0296000Y0041000D01*
X0295200Y0034600D02*
X0286800Y0034600D01*
X0286000Y0034346D01*
X0285400Y0034600D01*
X0277000Y0034600D01*
X0276000Y0034346D01*
X0286000Y0028500D02*
X0286000Y0027654D01*
X0286000Y0028500D02*
X0296000Y0028500D01*
X0296000Y0027654D01*
X0296000Y0021000D01*
X0296000Y0034346D02*
X0295200Y0034600D01*
X0326000Y0022000D02*
X0326000Y0021000D01*
X0326000Y0022000D02*
X0341400Y0022000D01*
X0355400Y0036000D01*
X0356000Y0036000D01*
X0361000Y0052800D02*
X0361000Y0069600D01*
X0356800Y0073800D01*
X0356000Y0074346D01*
X0355400Y0073800D01*
X0347000Y0073800D01*
X0346000Y0074346D01*
X0345600Y0075200D01*
X0341400Y0075200D01*
X0326000Y0090600D01*
X0326000Y0091000D01*
X0326000Y0100400D02*
X0326000Y0101000D01*
X0326000Y0100400D02*
X0335800Y0090600D01*
X0345600Y0090600D01*
X0346000Y0089346D01*
X0347000Y0089200D01*
X0355400Y0089200D01*
X0356000Y0089346D01*
X0356800Y0089200D01*
X0361000Y0085000D01*
X0361000Y0078000D01*
X0375000Y0064000D01*
X0375000Y0061200D01*
X0376000Y0061000D01*
X0361000Y0052800D02*
X0375000Y0038800D01*
X0375000Y0036000D01*
X0376000Y0036000D01*
X0356000Y0061000D02*
X0356000Y0067654D01*
X0356000Y0068500D01*
X0346000Y0068500D01*
X0346000Y0067654D01*
X0346000Y0082654D02*
X0346000Y0083500D01*
X0356000Y0083500D01*
X0356000Y0082654D01*
X0346000Y0083500D02*
X0338500Y0083500D01*
X0346000Y0097654D02*
X0346000Y0098500D01*
X0351000Y0098500D01*
X0356000Y0098500D01*
X0356000Y0097654D01*
X0356000Y0104346D02*
X0356800Y0104600D01*
X0375000Y0086400D01*
X0376000Y0086000D01*
X0356000Y0104346D02*
X0355400Y0104600D01*
X0347000Y0104600D01*
X0346000Y0104346D01*
X0345600Y0104600D01*
X0331600Y0104600D01*
X0326000Y0110200D01*
X0326000Y0111000D01*
X0326000Y0120000D02*
X0326000Y0121000D01*
X0326000Y0120000D02*
X0345600Y0120000D01*
X0346000Y0119346D01*
X0347000Y0120000D01*
X0355400Y0120000D01*
X0356000Y0119346D01*
X0356800Y0118600D01*
X0363800Y0111600D01*
X0375000Y0111600D01*
X0376000Y0111000D01*
X0356000Y0112654D02*
X0356000Y0113500D01*
X0351000Y0113500D01*
X0346000Y0113500D01*
X0346000Y0112654D01*
X0326000Y0131000D02*
X0326000Y0131200D01*
X0319000Y0138200D01*
X0296600Y0138200D01*
X0296000Y0139346D01*
X0296600Y0139600D01*
X0296600Y0152200D01*
X0296000Y0152654D01*
X0296000Y0159346D02*
X0295200Y0160600D01*
X0295200Y0166200D01*
X0361000Y0166200D01*
X0361000Y0165200D01*
X0361000Y0164800D01*
X0375000Y0150800D01*
X0375000Y0146600D01*
X0376000Y0146000D01*
X0361000Y0181000D02*
X0361000Y0181600D01*
X0349800Y0181600D01*
X0331600Y0199800D01*
X0331500Y0201000D01*
X0295200Y0191400D02*
X0281200Y0205400D01*
X0281000Y0206000D01*
X0279800Y0206800D01*
X0274200Y0212400D01*
X0251800Y0212400D01*
X0246200Y0206800D01*
X0246000Y0206000D01*
X0260200Y0205400D02*
X0261000Y0206000D01*
X0260200Y0205400D02*
X0260200Y0155000D01*
X0246200Y0141000D01*
X0246000Y0141000D01*
X0244800Y0134000D02*
X0226600Y0152200D01*
X0226600Y0205400D01*
X0226000Y0206000D01*
X0166000Y0181600D02*
X0166000Y0181000D01*
X0166000Y0181600D02*
X0154800Y0181600D01*
X0136600Y0199800D01*
X0136500Y0201000D01*
X0166000Y0165200D02*
X0166000Y0164800D01*
X0180000Y0150800D01*
X0180000Y0146600D01*
X0181000Y0146000D01*
X0244800Y0134000D02*
X0244800Y0131200D01*
X0246000Y0131000D01*
X0249000Y0096200D02*
X0257400Y0087800D01*
X0275600Y0087800D01*
X0276000Y0087654D01*
X0286000Y0087654D02*
X0286000Y0088500D01*
X0296000Y0088500D01*
X0296000Y0132654D02*
X0296000Y0133500D01*
X0306000Y0133500D01*
X0295200Y0166200D02*
X0295200Y0191400D01*
X0161000Y0068500D02*
X0161000Y0067654D01*
X0161000Y0061000D01*
X0161000Y0068500D02*
X0151000Y0068500D01*
X0151000Y0067654D01*
X0101000Y0067654D02*
X0101000Y0061000D01*
X0101000Y0067654D02*
X0101000Y0068500D01*
X0091000Y0068500D01*
X0091000Y0067654D01*
X0081000Y0067654D02*
X0080600Y0068200D01*
X0072200Y0068200D01*
X0054000Y0086400D01*
X0055400Y0072400D02*
X0079200Y0048600D01*
X0080600Y0048600D01*
X0081000Y0047654D01*
X0091000Y0047654D02*
X0091000Y0048500D01*
X0101000Y0048500D01*
X0091000Y0087654D02*
X0091000Y0088500D01*
X0101000Y0088500D01*
D17*
X0101000Y0081000D03*
X0101000Y0061000D03*
X0101000Y0041000D03*
X0101000Y0021000D03*
X0161000Y0061000D03*
X0143500Y0083500D03*
X0156000Y0098500D03*
X0156000Y0113500D03*
X0111000Y0133500D03*
X0296000Y0081000D03*
X0296000Y0061000D03*
X0296000Y0041000D03*
X0296000Y0021000D03*
X0356000Y0061000D03*
X0338500Y0083500D03*
X0351000Y0098500D03*
X0351000Y0113500D03*
X0306000Y0133500D03*
M02*
