%
M48
M72
T01C0.02362
T02C0.03150
T03C0.04000
T04C0.07000
T05C0.07900
T06C0.13000
%
T01
X101000Y21000
X101000Y41000
X101000Y61000
X101000Y81000
X143500Y83500
X156000Y98500
X156000Y113500
X111000Y133500
X161000Y61000
X296000Y61000
X296000Y81000
X296000Y41000
X296000Y21000
X356000Y61000
X338500Y83500
X351000Y98500
X351000Y113500
X306000Y133500
T02
X326000Y131000
X326000Y121000
X326000Y111000
X326000Y101000
X326000Y91000
X326000Y81000
X326000Y71000
X326000Y61000
X326000Y51000
X326000Y41000
X326000Y31000
X326000Y21000
X246000Y21000
X246000Y31000
X246000Y41000
X246000Y51000
X246000Y61000
X246000Y71000
X246000Y81000
X246000Y91000
X246000Y101000
X246000Y111000
X246000Y121000
X246000Y131000
X246000Y141000
X246000Y151000
X326000Y151000
X326000Y141000
X131000Y141000
X131000Y131000
X131000Y121000
X131000Y111000
X131000Y101000
X131000Y91000
X131000Y81000
X131000Y71000
X131000Y61000
X131000Y51000
X131000Y41000
X131000Y31000
X131000Y21000
X51000Y21000
X51000Y31000
X51000Y41000
X51000Y51000
X51000Y61000
X51000Y71000
X51000Y81000
X51000Y91000
X51000Y101000
X51000Y111000
X51000Y121000
X51000Y131000
X51000Y141000
X51000Y151000
X131000Y151000
T03
X181000Y146000
X181000Y136000
X181000Y121000
X181000Y111000
X181000Y96000
X181000Y86000
X181000Y71000
X181000Y61000
X181000Y46000
X181000Y36000
X161000Y36000
X151000Y36000
X211000Y36000
X211000Y46000
X211000Y61000
X211000Y71000
X211000Y86000
X211000Y96000
X211000Y111000
X211000Y121000
X211000Y136000
X211000Y146000
X211000Y156000
X211000Y171000
X211000Y181000
X211000Y191000
X226000Y206000
X236000Y206000
X246000Y206000
X261000Y206000
X271000Y206000
X281000Y206000
X376000Y146000
X376000Y136000
X376000Y121000
X376000Y111000
X376000Y96000
X376000Y86000
X376000Y71000
X376000Y61000
X376000Y46000
X376000Y36000
X356000Y36000
X346000Y36000
X86000Y206000
X76000Y206000
X66000Y206000
X51000Y206000
X41000Y206000
X31000Y206000
X16000Y191000
X16000Y181000
X16000Y171000
X16000Y156000
X16000Y146000
X16000Y136000
X16000Y121000
X16000Y111000
X16000Y96000
X16000Y86000
X16000Y71000
X16000Y61000
X16000Y46000
X16000Y36000
T04
X105500Y201000
X136500Y201000
X300500Y201000
X331500Y201000
T05
X361000Y196800
X361000Y181000
X361000Y165200
X166000Y165200
X166000Y181000
X166000Y196800
T06
X16000Y16000
X161000Y16000
X211000Y16000
X356000Y16000
X366000Y221000
X211000Y221000
X176000Y221000
X16000Y221000
M30
