G75*
%MOIN*%
%OFA0B0*%
%FSLAX25Y25*%
%IPPOS*%
%LPD*%
%AMOC8*
5,1,8,0,0,1.08239X$1,22.5*
%
%ADD10C,0.12500*%
%ADD11R,0.05000X0.35000*%
%ADD12C,0.07400*%
%ADD13R,0.05150X0.05150*%
%ADD14C,0.11850*%
%ADD15C,0.00600*%
%ADD16C,0.03962*%
%ADD17C,0.02000*%
D10*
X0105500Y0201000D03*
X0136500Y0201000D03*
X0300500Y0201000D03*
X0331500Y0201000D03*
D11*
X0331500Y0222000D03*
X0300500Y0222000D03*
X0136500Y0222000D03*
X0105500Y0222000D03*
D12*
X0086000Y0206000D03*
X0076000Y0206000D03*
X0066000Y0206000D03*
X0051000Y0206000D03*
X0041000Y0206000D03*
X0031000Y0206000D03*
X0016000Y0191000D03*
X0016000Y0181000D03*
X0016000Y0171000D03*
X0016000Y0156000D03*
X0016000Y0146000D03*
X0016000Y0136000D03*
X0016000Y0121000D03*
X0016000Y0111000D03*
X0016000Y0096000D03*
X0016000Y0086000D03*
X0016000Y0071000D03*
X0016000Y0061000D03*
X0016000Y0046000D03*
X0016000Y0036000D03*
X0151000Y0036000D03*
X0161000Y0036000D03*
X0181000Y0036000D03*
X0181000Y0046000D03*
X0181000Y0061000D03*
X0181000Y0071000D03*
X0181000Y0086000D03*
X0181000Y0096000D03*
X0181000Y0111000D03*
X0181000Y0121000D03*
X0181000Y0136000D03*
X0181000Y0146000D03*
X0211000Y0146000D03*
X0211000Y0136000D03*
X0211000Y0121000D03*
X0211000Y0111000D03*
X0211000Y0096000D03*
X0211000Y0086000D03*
X0211000Y0071000D03*
X0211000Y0061000D03*
X0211000Y0046000D03*
X0211000Y0036000D03*
X0346000Y0036000D03*
X0356000Y0036000D03*
X0376000Y0036000D03*
X0376000Y0046000D03*
X0376000Y0061000D03*
X0376000Y0071000D03*
X0376000Y0086000D03*
X0376000Y0096000D03*
X0376000Y0111000D03*
X0376000Y0121000D03*
X0376000Y0136000D03*
X0376000Y0146000D03*
X0281000Y0206000D03*
X0271000Y0206000D03*
X0261000Y0206000D03*
X0246000Y0206000D03*
X0236000Y0206000D03*
X0226000Y0206000D03*
X0211000Y0191000D03*
X0211000Y0181000D03*
X0211000Y0171000D03*
X0211000Y0156000D03*
D13*
X0246000Y0151000D03*
X0246000Y0141000D03*
X0246000Y0131000D03*
X0246000Y0121000D03*
X0246000Y0111000D03*
X0246000Y0101000D03*
X0246000Y0091000D03*
X0246000Y0081000D03*
X0246000Y0071000D03*
X0246000Y0061000D03*
X0246000Y0051000D03*
X0246000Y0041000D03*
X0246000Y0031000D03*
X0246000Y0021000D03*
X0326000Y0021000D03*
X0326000Y0031000D03*
X0326000Y0041000D03*
X0326000Y0051000D03*
X0326000Y0061000D03*
X0326000Y0071000D03*
X0326000Y0081000D03*
X0326000Y0091000D03*
X0326000Y0101000D03*
X0326000Y0111000D03*
X0326000Y0121000D03*
X0326000Y0131000D03*
X0326000Y0141000D03*
X0326000Y0151000D03*
X0131000Y0151000D03*
X0131000Y0141000D03*
X0131000Y0131000D03*
X0131000Y0121000D03*
X0131000Y0111000D03*
X0131000Y0101000D03*
X0131000Y0091000D03*
X0131000Y0081000D03*
X0131000Y0071000D03*
X0131000Y0061000D03*
X0131000Y0051000D03*
X0131000Y0041000D03*
X0131000Y0031000D03*
X0131000Y0021000D03*
X0051000Y0021000D03*
X0051000Y0031000D03*
X0051000Y0041000D03*
X0051000Y0051000D03*
X0051000Y0061000D03*
X0051000Y0071000D03*
X0051000Y0081000D03*
X0051000Y0091000D03*
X0051000Y0101000D03*
X0051000Y0111000D03*
X0051000Y0121000D03*
X0051000Y0131000D03*
X0051000Y0141000D03*
X0051000Y0151000D03*
D14*
X0160075Y0165200D02*
X0171925Y0165200D01*
X0171925Y0181000D02*
X0160075Y0181000D01*
X0160075Y0196800D02*
X0171925Y0196800D01*
X0355075Y0196800D02*
X0366925Y0196800D01*
X0366925Y0181000D02*
X0355075Y0181000D01*
X0355075Y0165200D02*
X0366925Y0165200D01*
D15*
X0006000Y0216721D02*
X0006000Y0020279D01*
X0007358Y0022631D01*
X0009369Y0024642D01*
X0011831Y0026064D01*
X0014578Y0026800D01*
X0017422Y0026800D01*
X0020169Y0026064D01*
X0022631Y0024642D01*
X0024642Y0022631D01*
X0026064Y0020169D01*
X0026800Y0017422D01*
X0026800Y0014578D01*
X0026064Y0011831D01*
X0024642Y0009369D01*
X0022631Y0007358D01*
X0020279Y0006000D01*
X0156721Y0006000D01*
X0154369Y0007358D01*
X0152358Y0009369D01*
X0150936Y0011831D01*
X0150200Y0014578D01*
X0150200Y0017422D01*
X0150936Y0020169D01*
X0152358Y0022631D01*
X0154369Y0024642D01*
X0156831Y0026064D01*
X0159578Y0026800D01*
X0162422Y0026800D01*
X0165169Y0026064D01*
X0167631Y0024642D01*
X0169642Y0022631D01*
X0171064Y0020169D01*
X0171800Y0017422D01*
X0171800Y0014578D01*
X0171064Y0011831D01*
X0169642Y0009369D01*
X0167631Y0007358D01*
X0165279Y0006000D01*
X0186000Y0006000D01*
X0186000Y0216721D01*
X0184642Y0214369D01*
X0182631Y0212358D01*
X0180169Y0210936D01*
X0177422Y0210200D01*
X0174578Y0210200D01*
X0171831Y0210936D01*
X0169369Y0212358D01*
X0167358Y0214369D01*
X0165936Y0216831D01*
X0165200Y0219578D01*
X0165200Y0222422D01*
X0165936Y0225169D01*
X0167358Y0227631D01*
X0169369Y0229642D01*
X0171721Y0231000D01*
X0140300Y0231000D01*
X0140300Y0207598D01*
X0140777Y0207401D01*
X0142901Y0205277D01*
X0144050Y0202502D01*
X0144050Y0199498D01*
X0142901Y0196723D01*
X0140777Y0194599D01*
X0138002Y0193450D01*
X0134998Y0193450D01*
X0132223Y0194599D01*
X0130099Y0196723D01*
X0128950Y0199498D01*
X0128950Y0202502D01*
X0130099Y0205277D01*
X0132223Y0207401D01*
X0132700Y0207598D01*
X0132700Y0231000D01*
X0109300Y0231000D01*
X0109300Y0222300D01*
X0105800Y0222300D01*
X0105800Y0221700D01*
X0109300Y0221700D01*
X0109300Y0207524D01*
X0109704Y0207291D01*
X0110489Y0206689D01*
X0111189Y0205989D01*
X0111791Y0205204D01*
X0112286Y0204346D01*
X0112665Y0203432D01*
X0112921Y0202476D01*
X0113050Y0201495D01*
X0113050Y0201300D01*
X0105800Y0201300D01*
X0105200Y0201300D01*
X0105200Y0203200D01*
X0105200Y0203200D01*
X0105200Y0221700D01*
X0105800Y0221700D01*
X0105800Y0203200D01*
X0105800Y0201300D01*
X0105800Y0200700D01*
X0113050Y0200700D01*
X0113050Y0200505D01*
X0112921Y0199524D01*
X0112665Y0198568D01*
X0112286Y0197654D01*
X0111791Y0196796D01*
X0111189Y0196011D01*
X0110489Y0195311D01*
X0109704Y0194709D01*
X0108846Y0194214D01*
X0107932Y0193835D01*
X0106976Y0193579D01*
X0105995Y0193450D01*
X0105800Y0193450D01*
X0105800Y0200700D01*
X0105200Y0200700D01*
X0105200Y0193450D01*
X0105005Y0193450D01*
X0104024Y0193579D01*
X0103068Y0193835D01*
X0102154Y0194214D01*
X0101296Y0194709D01*
X0100511Y0195311D01*
X0099811Y0196011D01*
X0099209Y0196796D01*
X0098714Y0197654D01*
X0098335Y0198568D01*
X0098079Y0199524D01*
X0097950Y0200505D01*
X0097950Y0200700D01*
X0105200Y0200700D01*
X0105200Y0201300D01*
X0097950Y0201300D01*
X0097950Y0201495D01*
X0098079Y0202476D01*
X0098335Y0203432D01*
X0098714Y0204346D01*
X0099209Y0205204D01*
X0099811Y0205989D01*
X0100511Y0206689D01*
X0101296Y0207291D01*
X0101700Y0207524D01*
X0101700Y0221700D01*
X0105200Y0221700D01*
X0105200Y0222300D01*
X0101700Y0222300D01*
X0101700Y0231000D01*
X0020279Y0231000D01*
X0022631Y0229642D01*
X0024642Y0227631D01*
X0026064Y0225169D01*
X0026800Y0222422D01*
X0026800Y0219578D01*
X0026064Y0216831D01*
X0024642Y0214369D01*
X0022631Y0212358D01*
X0020169Y0210936D01*
X0017422Y0210200D01*
X0014578Y0210200D01*
X0011831Y0210936D01*
X0009369Y0212358D01*
X0007358Y0214369D01*
X0006000Y0216721D01*
X0006000Y0216352D02*
X0006213Y0216352D01*
X0006000Y0215754D02*
X0006558Y0215754D01*
X0006904Y0215155D02*
X0006000Y0215155D01*
X0006000Y0214557D02*
X0007249Y0214557D01*
X0007768Y0213958D02*
X0006000Y0213958D01*
X0006000Y0213360D02*
X0008367Y0213360D01*
X0008965Y0212761D02*
X0006000Y0212761D01*
X0006000Y0212163D02*
X0009706Y0212163D01*
X0010743Y0211564D02*
X0006000Y0211564D01*
X0006000Y0210966D02*
X0011780Y0210966D01*
X0013954Y0210367D02*
X0006000Y0210367D01*
X0006000Y0209769D02*
X0027698Y0209769D01*
X0028168Y0210239D02*
X0026761Y0208832D01*
X0026000Y0206995D01*
X0026000Y0205005D01*
X0026761Y0203168D01*
X0028168Y0201761D01*
X0030005Y0201000D01*
X0031995Y0201000D01*
X0033832Y0201761D01*
X0035239Y0203168D01*
X0036000Y0205005D01*
X0036000Y0206995D01*
X0035239Y0208832D01*
X0033832Y0210239D01*
X0031995Y0211000D01*
X0030005Y0211000D01*
X0028168Y0210239D01*
X0028478Y0210367D02*
X0018046Y0210367D01*
X0020220Y0210966D02*
X0029923Y0210966D01*
X0032077Y0210966D02*
X0040391Y0210966D01*
X0040606Y0211000D02*
X0039829Y0210877D01*
X0039081Y0210634D01*
X0038379Y0210276D01*
X0037743Y0209814D01*
X0037186Y0209257D01*
X0036724Y0208621D01*
X0036366Y0207919D01*
X0036123Y0207171D01*
X0036000Y0206394D01*
X0036000Y0206300D01*
X0040700Y0206300D01*
X0040700Y0211000D01*
X0040606Y0211000D01*
X0040700Y0210966D02*
X0041300Y0210966D01*
X0041300Y0211000D02*
X0041300Y0206300D01*
X0040700Y0206300D01*
X0040700Y0205700D01*
X0041300Y0205700D01*
X0041300Y0206300D01*
X0046000Y0206300D01*
X0046000Y0206394D01*
X0045877Y0207171D01*
X0045634Y0207919D01*
X0045276Y0208621D01*
X0044814Y0209257D01*
X0044257Y0209814D01*
X0043621Y0210276D01*
X0042919Y0210634D01*
X0042171Y0210877D01*
X0041394Y0211000D01*
X0041300Y0211000D01*
X0041609Y0210966D02*
X0049923Y0210966D01*
X0050005Y0211000D02*
X0048168Y0210239D01*
X0046761Y0208832D01*
X0046000Y0206995D01*
X0046000Y0205005D01*
X0046045Y0204897D01*
X0045829Y0204682D01*
X0045877Y0204829D01*
X0046000Y0205606D01*
X0046000Y0205700D01*
X0041300Y0205700D01*
X0041300Y0201000D01*
X0041394Y0201000D01*
X0042171Y0201123D01*
X0042318Y0201171D01*
X0029247Y0188100D01*
X0021353Y0188100D01*
X0020545Y0188907D01*
X0021000Y0190005D01*
X0021000Y0191995D01*
X0020239Y0193832D01*
X0018832Y0195239D01*
X0016995Y0196000D01*
X0015005Y0196000D01*
X0013168Y0195239D01*
X0011761Y0193832D01*
X0011000Y0191995D01*
X0011000Y0190005D01*
X0011761Y0188168D01*
X0013168Y0186761D01*
X0015005Y0186000D01*
X0016947Y0186000D01*
X0017052Y0185896D01*
X0016394Y0186000D01*
X0016300Y0186000D01*
X0016300Y0181300D01*
X0015700Y0181300D01*
X0015700Y0186000D01*
X0015606Y0186000D01*
X0014829Y0185877D01*
X0014081Y0185634D01*
X0013379Y0185276D01*
X0012743Y0184814D01*
X0012186Y0184257D01*
X0011724Y0183621D01*
X0011366Y0182919D01*
X0011123Y0182171D01*
X0011000Y0181394D01*
X0011000Y0181300D01*
X0015700Y0181300D01*
X0015700Y0180700D01*
X0016300Y0180700D01*
X0016300Y0176000D01*
X0016394Y0176000D01*
X0017171Y0176123D01*
X0017919Y0176366D01*
X0018621Y0176724D01*
X0019257Y0177186D01*
X0019500Y0177429D01*
X0019500Y0174571D01*
X0018832Y0175239D01*
X0016995Y0176000D01*
X0015005Y0176000D01*
X0013168Y0175239D01*
X0011761Y0173832D01*
X0011000Y0171995D01*
X0011000Y0170005D01*
X0011761Y0168168D01*
X0013168Y0166761D01*
X0015005Y0166000D01*
X0015547Y0166000D01*
X0013900Y0164353D01*
X0013900Y0160542D01*
X0013168Y0160239D01*
X0011761Y0158832D01*
X0011000Y0156995D01*
X0011000Y0155005D01*
X0011761Y0153168D01*
X0013168Y0151761D01*
X0015005Y0151000D01*
X0016995Y0151000D01*
X0018832Y0151761D01*
X0020239Y0153168D01*
X0021000Y0155005D01*
X0021000Y0156995D01*
X0020239Y0158832D01*
X0018832Y0160239D01*
X0018500Y0160376D01*
X0018500Y0162447D01*
X0022753Y0166700D01*
X0024100Y0168047D01*
X0024100Y0183500D01*
X0031153Y0183500D01*
X0032500Y0184847D01*
X0049049Y0201396D01*
X0050005Y0201000D01*
X0051995Y0201000D01*
X0053832Y0201761D01*
X0055239Y0203168D01*
X0056000Y0205005D01*
X0056000Y0206995D01*
X0055239Y0208832D01*
X0053832Y0210239D01*
X0051995Y0211000D01*
X0050005Y0211000D01*
X0048478Y0210367D02*
X0043442Y0210367D01*
X0044302Y0209769D02*
X0047698Y0209769D01*
X0047099Y0209170D02*
X0044877Y0209170D01*
X0045301Y0208572D02*
X0046653Y0208572D01*
X0046405Y0207973D02*
X0045606Y0207973D01*
X0045811Y0207375D02*
X0046157Y0207375D01*
X0046000Y0206776D02*
X0045939Y0206776D01*
X0046000Y0206178D02*
X0041300Y0206178D01*
X0041300Y0206776D02*
X0040700Y0206776D01*
X0040700Y0206178D02*
X0036000Y0206178D01*
X0036000Y0205700D02*
X0036000Y0205606D01*
X0036123Y0204829D01*
X0036366Y0204081D01*
X0036724Y0203379D01*
X0037186Y0202743D01*
X0037743Y0202186D01*
X0038379Y0201724D01*
X0039081Y0201366D01*
X0039829Y0201123D01*
X0040606Y0201000D01*
X0040700Y0201000D01*
X0040700Y0205700D01*
X0036000Y0205700D01*
X0036000Y0205579D02*
X0036004Y0205579D01*
X0035990Y0204981D02*
X0036099Y0204981D01*
X0036268Y0204382D02*
X0035742Y0204382D01*
X0035494Y0203784D02*
X0036518Y0203784D01*
X0036865Y0203185D02*
X0035246Y0203185D01*
X0034658Y0202587D02*
X0037342Y0202587D01*
X0038015Y0201988D02*
X0034059Y0201988D01*
X0032935Y0201390D02*
X0039035Y0201390D01*
X0040700Y0201390D02*
X0041300Y0201390D01*
X0041300Y0201988D02*
X0040700Y0201988D01*
X0040700Y0202587D02*
X0041300Y0202587D01*
X0041300Y0203185D02*
X0040700Y0203185D01*
X0040700Y0203784D02*
X0041300Y0203784D01*
X0041300Y0204382D02*
X0040700Y0204382D01*
X0040700Y0204981D02*
X0041300Y0204981D01*
X0041300Y0205579D02*
X0040700Y0205579D01*
X0040700Y0207375D02*
X0041300Y0207375D01*
X0041300Y0207973D02*
X0040700Y0207973D01*
X0040700Y0208572D02*
X0041300Y0208572D01*
X0041300Y0209170D02*
X0040700Y0209170D01*
X0040700Y0209769D02*
X0041300Y0209769D01*
X0041300Y0210367D02*
X0040700Y0210367D01*
X0038558Y0210367D02*
X0033522Y0210367D01*
X0034302Y0209769D02*
X0037698Y0209769D01*
X0037123Y0209170D02*
X0034901Y0209170D01*
X0035347Y0208572D02*
X0036699Y0208572D01*
X0036394Y0207973D02*
X0035595Y0207973D01*
X0035843Y0207375D02*
X0036189Y0207375D01*
X0036061Y0206776D02*
X0036000Y0206776D01*
X0041938Y0200791D02*
X0006000Y0200791D01*
X0006000Y0200193D02*
X0041340Y0200193D01*
X0040741Y0199594D02*
X0006000Y0199594D01*
X0006000Y0198996D02*
X0040143Y0198996D01*
X0039544Y0198397D02*
X0006000Y0198397D01*
X0006000Y0197799D02*
X0038946Y0197799D01*
X0038347Y0197200D02*
X0006000Y0197200D01*
X0006000Y0196602D02*
X0037749Y0196602D01*
X0037150Y0196003D02*
X0006000Y0196003D01*
X0006000Y0195405D02*
X0013568Y0195405D01*
X0012735Y0194806D02*
X0006000Y0194806D01*
X0006000Y0194208D02*
X0012136Y0194208D01*
X0011669Y0193609D02*
X0006000Y0193609D01*
X0006000Y0193010D02*
X0011421Y0193010D01*
X0011173Y0192412D02*
X0006000Y0192412D01*
X0006000Y0191813D02*
X0011000Y0191813D01*
X0011000Y0191215D02*
X0006000Y0191215D01*
X0006000Y0190616D02*
X0011000Y0190616D01*
X0011000Y0190018D02*
X0006000Y0190018D01*
X0006000Y0189419D02*
X0011243Y0189419D01*
X0011491Y0188821D02*
X0006000Y0188821D01*
X0006000Y0188222D02*
X0011739Y0188222D01*
X0012305Y0187624D02*
X0006000Y0187624D01*
X0006000Y0187025D02*
X0012904Y0187025D01*
X0013975Y0186427D02*
X0006000Y0186427D01*
X0006000Y0185828D02*
X0014680Y0185828D01*
X0015700Y0185828D02*
X0016300Y0185828D01*
X0016300Y0185230D02*
X0015700Y0185230D01*
X0015700Y0184631D02*
X0016300Y0184631D01*
X0016300Y0184033D02*
X0015700Y0184033D01*
X0015700Y0183434D02*
X0016300Y0183434D01*
X0016300Y0182836D02*
X0015700Y0182836D01*
X0015700Y0182237D02*
X0016300Y0182237D01*
X0016300Y0181639D02*
X0015700Y0181639D01*
X0015700Y0181040D02*
X0006000Y0181040D01*
X0006000Y0180442D02*
X0011026Y0180442D01*
X0011000Y0180606D02*
X0011123Y0179829D01*
X0011366Y0179081D01*
X0011724Y0178379D01*
X0012186Y0177743D01*
X0012743Y0177186D01*
X0013379Y0176724D01*
X0014081Y0176366D01*
X0014829Y0176123D01*
X0015606Y0176000D01*
X0015700Y0176000D01*
X0015700Y0180700D01*
X0011000Y0180700D01*
X0011000Y0180606D01*
X0011121Y0179843D02*
X0006000Y0179843D01*
X0006000Y0179245D02*
X0011313Y0179245D01*
X0011588Y0178646D02*
X0006000Y0178646D01*
X0006000Y0178048D02*
X0011965Y0178048D01*
X0012480Y0177449D02*
X0006000Y0177449D01*
X0006000Y0176851D02*
X0013205Y0176851D01*
X0014432Y0176252D02*
X0006000Y0176252D01*
X0006000Y0175654D02*
X0014169Y0175654D01*
X0012984Y0175055D02*
X0006000Y0175055D01*
X0006000Y0174457D02*
X0012386Y0174457D01*
X0011787Y0173858D02*
X0006000Y0173858D01*
X0006000Y0173260D02*
X0011524Y0173260D01*
X0011276Y0172661D02*
X0006000Y0172661D01*
X0006000Y0172063D02*
X0011028Y0172063D01*
X0011000Y0171464D02*
X0006000Y0171464D01*
X0006000Y0170866D02*
X0011000Y0170866D01*
X0011000Y0170267D02*
X0006000Y0170267D01*
X0006000Y0169669D02*
X0011140Y0169669D01*
X0011387Y0169070D02*
X0006000Y0169070D01*
X0006000Y0168472D02*
X0011635Y0168472D01*
X0012056Y0167873D02*
X0006000Y0167873D01*
X0006000Y0167274D02*
X0012654Y0167274D01*
X0013373Y0166676D02*
X0006000Y0166676D01*
X0006000Y0166077D02*
X0014818Y0166077D01*
X0015026Y0165479D02*
X0006000Y0165479D01*
X0006000Y0164880D02*
X0014428Y0164880D01*
X0013900Y0164282D02*
X0006000Y0164282D01*
X0006000Y0163683D02*
X0013900Y0163683D01*
X0013900Y0163085D02*
X0006000Y0163085D01*
X0006000Y0162486D02*
X0013900Y0162486D01*
X0013900Y0161888D02*
X0006000Y0161888D01*
X0006000Y0161289D02*
X0013900Y0161289D01*
X0013900Y0160691D02*
X0006000Y0160691D01*
X0006000Y0160092D02*
X0013021Y0160092D01*
X0012423Y0159494D02*
X0006000Y0159494D01*
X0006000Y0158895D02*
X0011824Y0158895D01*
X0011539Y0158297D02*
X0006000Y0158297D01*
X0006000Y0157698D02*
X0011292Y0157698D01*
X0011044Y0157100D02*
X0006000Y0157100D01*
X0006000Y0156501D02*
X0011000Y0156501D01*
X0011000Y0155903D02*
X0006000Y0155903D01*
X0006000Y0155304D02*
X0011000Y0155304D01*
X0011124Y0154706D02*
X0006000Y0154706D01*
X0006000Y0154107D02*
X0011372Y0154107D01*
X0011620Y0153509D02*
X0006000Y0153509D01*
X0006000Y0152910D02*
X0012019Y0152910D01*
X0012617Y0152312D02*
X0006000Y0152312D01*
X0006000Y0151713D02*
X0013284Y0151713D01*
X0013850Y0150516D02*
X0006000Y0150516D01*
X0006000Y0149918D02*
X0012886Y0149918D01*
X0012743Y0149814D02*
X0012186Y0149257D01*
X0011724Y0148621D01*
X0011366Y0147919D01*
X0011123Y0147171D01*
X0011000Y0146394D01*
X0011000Y0146300D01*
X0015700Y0146300D01*
X0015700Y0151000D01*
X0015606Y0151000D01*
X0014829Y0150877D01*
X0014081Y0150634D01*
X0013379Y0150276D01*
X0012743Y0149814D01*
X0012248Y0149319D02*
X0006000Y0149319D01*
X0006000Y0148721D02*
X0011796Y0148721D01*
X0011470Y0148122D02*
X0006000Y0148122D01*
X0006000Y0147524D02*
X0011238Y0147524D01*
X0011084Y0146925D02*
X0006000Y0146925D01*
X0006000Y0146327D02*
X0011000Y0146327D01*
X0011000Y0145700D02*
X0011000Y0145606D01*
X0011123Y0144829D01*
X0011366Y0144081D01*
X0011724Y0143379D01*
X0012186Y0142743D01*
X0012743Y0142186D01*
X0013379Y0141724D01*
X0014081Y0141366D01*
X0014829Y0141123D01*
X0015606Y0141000D01*
X0015700Y0141000D01*
X0015700Y0145700D01*
X0016300Y0145700D01*
X0016300Y0146300D01*
X0021000Y0146300D01*
X0021000Y0146394D01*
X0020877Y0147171D01*
X0020634Y0147919D01*
X0020276Y0148621D01*
X0019814Y0149257D01*
X0019257Y0149814D01*
X0018621Y0150276D01*
X0017919Y0150634D01*
X0017171Y0150877D01*
X0016394Y0151000D01*
X0016300Y0151000D01*
X0016300Y0146300D01*
X0015700Y0146300D01*
X0015700Y0145700D01*
X0011000Y0145700D01*
X0011076Y0145130D02*
X0006000Y0145130D01*
X0006000Y0145728D02*
X0015700Y0145728D01*
X0015700Y0145130D02*
X0016300Y0145130D01*
X0016300Y0145700D02*
X0016300Y0141000D01*
X0016394Y0141000D01*
X0017171Y0141123D01*
X0017919Y0141366D01*
X0018621Y0141724D01*
X0019257Y0142186D01*
X0019814Y0142743D01*
X0020276Y0143379D01*
X0020634Y0144081D01*
X0020877Y0144829D01*
X0021000Y0145606D01*
X0021000Y0145700D01*
X0016300Y0145700D01*
X0016300Y0145728D02*
X0176000Y0145728D01*
X0176000Y0145130D02*
X0020924Y0145130D01*
X0020780Y0144531D02*
X0047543Y0144531D01*
X0047887Y0144875D02*
X0047125Y0144113D01*
X0047125Y0137887D01*
X0047887Y0137125D01*
X0054113Y0137125D01*
X0054875Y0137887D01*
X0054875Y0144113D01*
X0054113Y0144875D01*
X0047887Y0144875D01*
X0047125Y0143933D02*
X0020558Y0143933D01*
X0020243Y0143334D02*
X0047125Y0143334D01*
X0047125Y0142736D02*
X0019807Y0142736D01*
X0019190Y0142137D02*
X0047125Y0142137D01*
X0047125Y0141539D02*
X0018257Y0141539D01*
X0018584Y0140341D02*
X0047125Y0140341D01*
X0047125Y0139743D02*
X0019328Y0139743D01*
X0018832Y0140239D02*
X0020239Y0138832D01*
X0021000Y0136995D01*
X0021000Y0135005D01*
X0020239Y0133168D01*
X0018832Y0131761D01*
X0016995Y0131000D01*
X0015005Y0131000D01*
X0013168Y0131761D01*
X0011761Y0133168D01*
X0011000Y0135005D01*
X0011000Y0136995D01*
X0011761Y0138832D01*
X0013168Y0140239D01*
X0015005Y0141000D01*
X0016995Y0141000D01*
X0018832Y0140239D01*
X0019927Y0139144D02*
X0047125Y0139144D01*
X0047125Y0138546D02*
X0020357Y0138546D01*
X0020605Y0137947D02*
X0047125Y0137947D01*
X0047663Y0137349D02*
X0020853Y0137349D01*
X0021000Y0136750D02*
X0176057Y0136750D01*
X0176000Y0136394D02*
X0176000Y0136300D01*
X0180700Y0136300D01*
X0180700Y0141000D01*
X0180606Y0141000D01*
X0179829Y0140877D01*
X0179081Y0140634D01*
X0178379Y0140276D01*
X0177743Y0139814D01*
X0177186Y0139257D01*
X0176724Y0138621D01*
X0176366Y0137919D01*
X0176123Y0137171D01*
X0176000Y0136394D01*
X0176000Y0135700D02*
X0176000Y0135606D01*
X0176123Y0134829D01*
X0176366Y0134081D01*
X0176724Y0133379D01*
X0177186Y0132743D01*
X0177743Y0132186D01*
X0178379Y0131724D01*
X0179081Y0131366D01*
X0179829Y0131123D01*
X0180606Y0131000D01*
X0180700Y0131000D01*
X0180700Y0135700D01*
X0181300Y0135700D01*
X0181300Y0136300D01*
X0186000Y0136300D01*
X0186000Y0136394D01*
X0185877Y0137171D01*
X0185634Y0137919D01*
X0185276Y0138621D01*
X0184814Y0139257D01*
X0184257Y0139814D01*
X0183621Y0140276D01*
X0182919Y0140634D01*
X0182171Y0140877D01*
X0181394Y0141000D01*
X0181300Y0141000D01*
X0181300Y0136300D01*
X0180700Y0136300D01*
X0180700Y0135700D01*
X0176000Y0135700D01*
X0176008Y0135553D02*
X0021000Y0135553D01*
X0020979Y0134955D02*
X0176103Y0134955D01*
X0176277Y0134356D02*
X0134632Y0134356D01*
X0134875Y0134113D02*
X0134113Y0134875D01*
X0127887Y0134875D01*
X0127125Y0134113D01*
X0127125Y0127887D01*
X0127887Y0127125D01*
X0134113Y0127125D01*
X0134875Y0127887D01*
X0134875Y0134113D01*
X0134875Y0133758D02*
X0176531Y0133758D01*
X0176883Y0133159D02*
X0134875Y0133159D01*
X0134875Y0132561D02*
X0177368Y0132561D01*
X0178051Y0131962D02*
X0134875Y0131962D01*
X0134875Y0131364D02*
X0179088Y0131364D01*
X0180700Y0131364D02*
X0181300Y0131364D01*
X0181300Y0131000D02*
X0181394Y0131000D01*
X0182171Y0131123D01*
X0182919Y0131366D01*
X0183621Y0131724D01*
X0184257Y0132186D01*
X0184814Y0132743D01*
X0185276Y0133379D01*
X0185634Y0134081D01*
X0185877Y0134829D01*
X0186000Y0135606D01*
X0186000Y0135700D01*
X0181300Y0135700D01*
X0181300Y0131000D01*
X0181300Y0131962D02*
X0180700Y0131962D01*
X0180700Y0132561D02*
X0181300Y0132561D01*
X0181300Y0133159D02*
X0180700Y0133159D01*
X0180700Y0133758D02*
X0181300Y0133758D01*
X0181300Y0134356D02*
X0180700Y0134356D01*
X0180700Y0134955D02*
X0181300Y0134955D01*
X0181300Y0135553D02*
X0180700Y0135553D01*
X0180700Y0136152D02*
X0021000Y0136152D01*
X0020731Y0134356D02*
X0047368Y0134356D01*
X0047125Y0134113D02*
X0047125Y0127887D01*
X0047887Y0127125D01*
X0054113Y0127125D01*
X0054875Y0127887D01*
X0054875Y0134113D01*
X0054113Y0134875D01*
X0047887Y0134875D01*
X0047125Y0134113D01*
X0047125Y0133758D02*
X0020483Y0133758D01*
X0020230Y0133159D02*
X0047125Y0133159D01*
X0047125Y0132561D02*
X0019632Y0132561D01*
X0019033Y0131962D02*
X0047125Y0131962D01*
X0047125Y0131364D02*
X0017873Y0131364D01*
X0014127Y0131364D02*
X0006000Y0131364D01*
X0006000Y0131962D02*
X0012967Y0131962D01*
X0012368Y0132561D02*
X0006000Y0132561D01*
X0006000Y0133159D02*
X0011770Y0133159D01*
X0011517Y0133758D02*
X0006000Y0133758D01*
X0006000Y0134356D02*
X0011269Y0134356D01*
X0011021Y0134955D02*
X0006000Y0134955D01*
X0006000Y0135553D02*
X0011000Y0135553D01*
X0011000Y0136152D02*
X0006000Y0136152D01*
X0006000Y0136750D02*
X0011000Y0136750D01*
X0011147Y0137349D02*
X0006000Y0137349D01*
X0006000Y0137947D02*
X0011395Y0137947D01*
X0011643Y0138546D02*
X0006000Y0138546D01*
X0006000Y0139144D02*
X0012073Y0139144D01*
X0012672Y0139743D02*
X0006000Y0139743D01*
X0006000Y0140341D02*
X0013416Y0140341D01*
X0013743Y0141539D02*
X0006000Y0141539D01*
X0006000Y0142137D02*
X0012810Y0142137D01*
X0012193Y0142736D02*
X0006000Y0142736D01*
X0006000Y0143334D02*
X0011757Y0143334D01*
X0011442Y0143933D02*
X0006000Y0143933D01*
X0006000Y0144531D02*
X0011220Y0144531D01*
X0014861Y0140940D02*
X0006000Y0140940D01*
X0015700Y0141539D02*
X0016300Y0141539D01*
X0016300Y0142137D02*
X0015700Y0142137D01*
X0015700Y0142736D02*
X0016300Y0142736D01*
X0016300Y0143334D02*
X0015700Y0143334D01*
X0015700Y0143933D02*
X0016300Y0143933D01*
X0016300Y0144531D02*
X0015700Y0144531D01*
X0015700Y0146327D02*
X0016300Y0146327D01*
X0016300Y0146925D02*
X0015700Y0146925D01*
X0015700Y0147524D02*
X0016300Y0147524D01*
X0016300Y0148122D02*
X0015700Y0148122D01*
X0015700Y0148721D02*
X0016300Y0148721D01*
X0016300Y0149319D02*
X0015700Y0149319D01*
X0015700Y0149918D02*
X0016300Y0149918D01*
X0016300Y0150516D02*
X0015700Y0150516D01*
X0014729Y0151115D02*
X0006000Y0151115D01*
X0017271Y0151115D02*
X0047125Y0151115D01*
X0047125Y0151713D02*
X0018716Y0151713D01*
X0019383Y0152312D02*
X0047125Y0152312D01*
X0047125Y0152910D02*
X0019981Y0152910D01*
X0020380Y0153509D02*
X0047125Y0153509D01*
X0047125Y0154107D02*
X0020628Y0154107D01*
X0020876Y0154706D02*
X0047718Y0154706D01*
X0047887Y0154875D02*
X0047125Y0154113D01*
X0047125Y0147887D01*
X0047887Y0147125D01*
X0054113Y0147125D01*
X0054875Y0147887D01*
X0054875Y0154113D01*
X0054113Y0154875D01*
X0047887Y0154875D01*
X0047125Y0150516D02*
X0018150Y0150516D01*
X0019114Y0149918D02*
X0047125Y0149918D01*
X0047125Y0149319D02*
X0019752Y0149319D01*
X0020204Y0148721D02*
X0047125Y0148721D01*
X0047125Y0148122D02*
X0020530Y0148122D01*
X0020762Y0147524D02*
X0047488Y0147524D01*
X0047125Y0140940D02*
X0017139Y0140940D01*
X0021000Y0146327D02*
X0176000Y0146327D01*
X0176000Y0146925D02*
X0020916Y0146925D01*
X0021000Y0155304D02*
X0186000Y0155304D01*
X0186000Y0154706D02*
X0134282Y0154706D01*
X0134113Y0154875D02*
X0127887Y0154875D01*
X0127125Y0154113D01*
X0127125Y0147887D01*
X0127887Y0147125D01*
X0134113Y0147125D01*
X0134875Y0147887D01*
X0134875Y0154113D01*
X0134113Y0154875D01*
X0134875Y0154107D02*
X0186000Y0154107D01*
X0186000Y0153509D02*
X0134875Y0153509D01*
X0134875Y0152910D02*
X0186000Y0152910D01*
X0186000Y0152312D02*
X0134875Y0152312D01*
X0134875Y0151713D02*
X0186000Y0151713D01*
X0186000Y0151115D02*
X0134875Y0151115D01*
X0134875Y0150516D02*
X0178837Y0150516D01*
X0178168Y0150239D02*
X0176761Y0148832D01*
X0176000Y0146995D01*
X0176000Y0145005D01*
X0176761Y0143168D01*
X0178168Y0141761D01*
X0180005Y0141000D01*
X0181995Y0141000D01*
X0183832Y0141761D01*
X0185239Y0143168D01*
X0186000Y0145005D01*
X0186000Y0146995D01*
X0185239Y0148832D01*
X0183832Y0150239D01*
X0181995Y0151000D01*
X0180005Y0151000D01*
X0178168Y0150239D01*
X0177847Y0149918D02*
X0134875Y0149918D01*
X0134875Y0149319D02*
X0177248Y0149319D01*
X0176715Y0148721D02*
X0134875Y0148721D01*
X0134875Y0148122D02*
X0176467Y0148122D01*
X0176219Y0147524D02*
X0134512Y0147524D01*
X0134113Y0144875D02*
X0127887Y0144875D01*
X0127125Y0144113D01*
X0127125Y0137887D01*
X0127887Y0137125D01*
X0134113Y0137125D01*
X0134875Y0137887D01*
X0134875Y0144113D01*
X0134113Y0144875D01*
X0134457Y0144531D02*
X0176196Y0144531D01*
X0176444Y0143933D02*
X0134875Y0143933D01*
X0134875Y0143334D02*
X0176692Y0143334D01*
X0177193Y0142736D02*
X0134875Y0142736D01*
X0134875Y0142137D02*
X0177792Y0142137D01*
X0178705Y0141539D02*
X0134875Y0141539D01*
X0134875Y0140940D02*
X0180228Y0140940D01*
X0180700Y0140940D02*
X0181300Y0140940D01*
X0181772Y0140940D02*
X0186000Y0140940D01*
X0186000Y0141539D02*
X0183295Y0141539D01*
X0184208Y0142137D02*
X0186000Y0142137D01*
X0186000Y0142736D02*
X0184807Y0142736D01*
X0185308Y0143334D02*
X0186000Y0143334D01*
X0186000Y0143933D02*
X0185556Y0143933D01*
X0185803Y0144531D02*
X0186000Y0144531D01*
X0186000Y0145130D02*
X0186000Y0145130D01*
X0186000Y0145728D02*
X0186000Y0145728D01*
X0186000Y0146327D02*
X0186000Y0146327D01*
X0186000Y0146925D02*
X0186000Y0146925D01*
X0186000Y0147524D02*
X0185781Y0147524D01*
X0186000Y0148122D02*
X0185533Y0148122D01*
X0185285Y0148721D02*
X0186000Y0148721D01*
X0186000Y0149319D02*
X0184752Y0149319D01*
X0184153Y0149918D02*
X0186000Y0149918D01*
X0186000Y0150516D02*
X0183163Y0150516D01*
X0186000Y0155903D02*
X0021000Y0155903D01*
X0021000Y0156501D02*
X0186000Y0156501D01*
X0186000Y0157100D02*
X0020956Y0157100D01*
X0020708Y0157698D02*
X0186000Y0157698D01*
X0186000Y0158297D02*
X0174139Y0158297D01*
X0173362Y0157975D02*
X0176018Y0159075D01*
X0178050Y0161107D01*
X0179150Y0163763D01*
X0179150Y0166637D01*
X0178050Y0169293D01*
X0176018Y0171325D01*
X0173362Y0172425D01*
X0158638Y0172425D01*
X0155982Y0171325D01*
X0153950Y0169293D01*
X0152850Y0166637D01*
X0152850Y0163763D01*
X0153950Y0161107D01*
X0155982Y0159075D01*
X0158638Y0157975D01*
X0173362Y0157975D01*
X0175584Y0158895D02*
X0186000Y0158895D01*
X0186000Y0159494D02*
X0176437Y0159494D01*
X0177035Y0160092D02*
X0186000Y0160092D01*
X0186000Y0160691D02*
X0177634Y0160691D01*
X0178125Y0161289D02*
X0186000Y0161289D01*
X0186000Y0161888D02*
X0178373Y0161888D01*
X0178621Y0162486D02*
X0186000Y0162486D01*
X0186000Y0163085D02*
X0178869Y0163085D01*
X0179117Y0163683D02*
X0186000Y0163683D01*
X0186000Y0164282D02*
X0179150Y0164282D01*
X0179150Y0164880D02*
X0186000Y0164880D01*
X0186000Y0165479D02*
X0179150Y0165479D01*
X0179150Y0166077D02*
X0186000Y0166077D01*
X0186000Y0166676D02*
X0179134Y0166676D01*
X0178886Y0167274D02*
X0186000Y0167274D01*
X0186000Y0167873D02*
X0178638Y0167873D01*
X0178390Y0168472D02*
X0186000Y0168472D01*
X0186000Y0169070D02*
X0178142Y0169070D01*
X0177674Y0169669D02*
X0186000Y0169669D01*
X0186000Y0170267D02*
X0177076Y0170267D01*
X0176477Y0170866D02*
X0186000Y0170866D01*
X0186000Y0171464D02*
X0175682Y0171464D01*
X0174237Y0172063D02*
X0186000Y0172063D01*
X0186000Y0172661D02*
X0024100Y0172661D01*
X0024100Y0172063D02*
X0157763Y0172063D01*
X0156318Y0171464D02*
X0024100Y0171464D01*
X0024100Y0170866D02*
X0155523Y0170866D01*
X0154924Y0170267D02*
X0024100Y0170267D01*
X0024100Y0169669D02*
X0154326Y0169669D01*
X0153858Y0169070D02*
X0024100Y0169070D01*
X0024100Y0168472D02*
X0153610Y0168472D01*
X0153362Y0167873D02*
X0023926Y0167873D01*
X0023327Y0167274D02*
X0153114Y0167274D01*
X0152866Y0166676D02*
X0022729Y0166676D01*
X0022130Y0166077D02*
X0152850Y0166077D01*
X0152850Y0165479D02*
X0021532Y0165479D01*
X0020933Y0164880D02*
X0152850Y0164880D01*
X0152850Y0164282D02*
X0020335Y0164282D01*
X0019736Y0163683D02*
X0152883Y0163683D01*
X0153131Y0163085D02*
X0019138Y0163085D01*
X0018539Y0162486D02*
X0153379Y0162486D01*
X0153627Y0161888D02*
X0018500Y0161888D01*
X0018500Y0161289D02*
X0153875Y0161289D01*
X0154366Y0160691D02*
X0018500Y0160691D01*
X0018979Y0160092D02*
X0154965Y0160092D01*
X0155563Y0159494D02*
X0019577Y0159494D01*
X0020176Y0158895D02*
X0156416Y0158895D01*
X0157861Y0158297D02*
X0020461Y0158297D01*
X0024100Y0173260D02*
X0186000Y0173260D01*
X0186000Y0173858D02*
X0173563Y0173858D01*
X0173362Y0173775D02*
X0176018Y0174875D01*
X0178050Y0176907D01*
X0179150Y0179563D01*
X0179150Y0182437D01*
X0178050Y0185093D01*
X0176018Y0187125D01*
X0173362Y0188225D01*
X0158638Y0188225D01*
X0155982Y0187125D01*
X0153950Y0185093D01*
X0152850Y0182437D01*
X0152850Y0179563D01*
X0153950Y0176907D01*
X0155982Y0174875D01*
X0158638Y0173775D01*
X0173362Y0173775D01*
X0175008Y0174457D02*
X0186000Y0174457D01*
X0186000Y0175055D02*
X0176198Y0175055D01*
X0176796Y0175654D02*
X0186000Y0175654D01*
X0186000Y0176252D02*
X0177395Y0176252D01*
X0177993Y0176851D02*
X0186000Y0176851D01*
X0186000Y0177449D02*
X0178274Y0177449D01*
X0178522Y0178048D02*
X0186000Y0178048D01*
X0186000Y0178646D02*
X0178770Y0178646D01*
X0179018Y0179245D02*
X0186000Y0179245D01*
X0186000Y0179843D02*
X0179150Y0179843D01*
X0179150Y0180442D02*
X0186000Y0180442D01*
X0186000Y0181040D02*
X0179150Y0181040D01*
X0179150Y0181639D02*
X0186000Y0181639D01*
X0186000Y0182237D02*
X0179150Y0182237D01*
X0178985Y0182836D02*
X0186000Y0182836D01*
X0186000Y0183434D02*
X0178737Y0183434D01*
X0178489Y0184033D02*
X0186000Y0184033D01*
X0186000Y0184631D02*
X0178241Y0184631D01*
X0177913Y0185230D02*
X0186000Y0185230D01*
X0186000Y0185828D02*
X0177314Y0185828D01*
X0176716Y0186427D02*
X0186000Y0186427D01*
X0186000Y0187025D02*
X0176117Y0187025D01*
X0174813Y0187624D02*
X0186000Y0187624D01*
X0186000Y0188222D02*
X0173368Y0188222D01*
X0173362Y0189575D02*
X0176018Y0190675D01*
X0178050Y0192707D01*
X0179150Y0195363D01*
X0179150Y0198237D01*
X0178050Y0200893D01*
X0176018Y0202925D01*
X0173362Y0204025D01*
X0158638Y0204025D01*
X0155982Y0202925D01*
X0153950Y0200893D01*
X0152850Y0198237D01*
X0152850Y0195363D01*
X0153950Y0192707D01*
X0155982Y0190675D01*
X0158638Y0189575D01*
X0173362Y0189575D01*
X0174431Y0190018D02*
X0186000Y0190018D01*
X0186000Y0190616D02*
X0175876Y0190616D01*
X0176558Y0191215D02*
X0186000Y0191215D01*
X0186000Y0191813D02*
X0177156Y0191813D01*
X0177755Y0192412D02*
X0186000Y0192412D01*
X0186000Y0193010D02*
X0178176Y0193010D01*
X0178424Y0193609D02*
X0186000Y0193609D01*
X0186000Y0194208D02*
X0178671Y0194208D01*
X0178919Y0194806D02*
X0186000Y0194806D01*
X0186000Y0195405D02*
X0179150Y0195405D01*
X0179150Y0196003D02*
X0186000Y0196003D01*
X0186000Y0196602D02*
X0179150Y0196602D01*
X0179150Y0197200D02*
X0186000Y0197200D01*
X0186000Y0197799D02*
X0179150Y0197799D01*
X0179084Y0198397D02*
X0186000Y0198397D01*
X0186000Y0198996D02*
X0178836Y0198996D01*
X0178588Y0199594D02*
X0186000Y0199594D01*
X0186000Y0200193D02*
X0178340Y0200193D01*
X0178092Y0200791D02*
X0186000Y0200791D01*
X0186000Y0201390D02*
X0177553Y0201390D01*
X0176955Y0201988D02*
X0186000Y0201988D01*
X0186000Y0202587D02*
X0176356Y0202587D01*
X0175390Y0203185D02*
X0186000Y0203185D01*
X0186000Y0203784D02*
X0173945Y0203784D01*
X0173954Y0210367D02*
X0140300Y0210367D01*
X0140300Y0209769D02*
X0186000Y0209769D01*
X0186000Y0210367D02*
X0178046Y0210367D01*
X0180220Y0210966D02*
X0186000Y0210966D01*
X0186000Y0211564D02*
X0181257Y0211564D01*
X0182294Y0212163D02*
X0186000Y0212163D01*
X0186000Y0212761D02*
X0183035Y0212761D01*
X0183633Y0213360D02*
X0186000Y0213360D01*
X0186000Y0213958D02*
X0184232Y0213958D01*
X0184751Y0214557D02*
X0186000Y0214557D01*
X0186000Y0215155D02*
X0185096Y0215155D01*
X0185442Y0215754D02*
X0186000Y0215754D01*
X0186000Y0216352D02*
X0185787Y0216352D01*
X0186000Y0209170D02*
X0140300Y0209170D01*
X0140300Y0208572D02*
X0186000Y0208572D01*
X0186000Y0207973D02*
X0140300Y0207973D01*
X0140803Y0207375D02*
X0186000Y0207375D01*
X0186000Y0206776D02*
X0141401Y0206776D01*
X0142000Y0206178D02*
X0186000Y0206178D01*
X0186000Y0205579D02*
X0142598Y0205579D01*
X0143023Y0204981D02*
X0186000Y0204981D01*
X0186000Y0204382D02*
X0143271Y0204382D01*
X0143519Y0203784D02*
X0158055Y0203784D01*
X0156610Y0203185D02*
X0143767Y0203185D01*
X0144015Y0202587D02*
X0155644Y0202587D01*
X0155045Y0201988D02*
X0144050Y0201988D01*
X0144050Y0201390D02*
X0154447Y0201390D01*
X0153908Y0200791D02*
X0144050Y0200791D01*
X0144050Y0200193D02*
X0153660Y0200193D01*
X0153412Y0199594D02*
X0144050Y0199594D01*
X0143842Y0198996D02*
X0153164Y0198996D01*
X0152916Y0198397D02*
X0143594Y0198397D01*
X0143346Y0197799D02*
X0152850Y0197799D01*
X0152850Y0197200D02*
X0143098Y0197200D01*
X0142779Y0196602D02*
X0152850Y0196602D01*
X0152850Y0196003D02*
X0142180Y0196003D01*
X0141582Y0195405D02*
X0152850Y0195405D01*
X0153081Y0194806D02*
X0140983Y0194806D01*
X0139831Y0194208D02*
X0153329Y0194208D01*
X0153576Y0193609D02*
X0138386Y0193609D01*
X0134614Y0193609D02*
X0107087Y0193609D01*
X0105800Y0193609D02*
X0105200Y0193609D01*
X0105200Y0194208D02*
X0105800Y0194208D01*
X0105800Y0194806D02*
X0105200Y0194806D01*
X0105200Y0195405D02*
X0105800Y0195405D01*
X0105800Y0196003D02*
X0105200Y0196003D01*
X0105200Y0196602D02*
X0105800Y0196602D01*
X0105800Y0197200D02*
X0105200Y0197200D01*
X0105200Y0197799D02*
X0105800Y0197799D01*
X0105800Y0198397D02*
X0105200Y0198397D01*
X0105200Y0198996D02*
X0105800Y0198996D01*
X0105800Y0199594D02*
X0105200Y0199594D01*
X0105200Y0200193D02*
X0105800Y0200193D01*
X0105800Y0200791D02*
X0128950Y0200791D01*
X0128950Y0200193D02*
X0113009Y0200193D01*
X0112930Y0199594D02*
X0128950Y0199594D01*
X0129158Y0198996D02*
X0112779Y0198996D01*
X0112594Y0198397D02*
X0129406Y0198397D01*
X0129654Y0197799D02*
X0112346Y0197799D01*
X0112024Y0197200D02*
X0129902Y0197200D01*
X0130221Y0196602D02*
X0111641Y0196602D01*
X0111180Y0196003D02*
X0130820Y0196003D01*
X0131418Y0195405D02*
X0110582Y0195405D01*
X0109830Y0194806D02*
X0132017Y0194806D01*
X0133169Y0194208D02*
X0108831Y0194208D01*
X0103913Y0193609D02*
X0041262Y0193609D01*
X0041860Y0194208D02*
X0102169Y0194208D01*
X0101170Y0194806D02*
X0042459Y0194806D01*
X0043057Y0195405D02*
X0100418Y0195405D01*
X0099820Y0196003D02*
X0043656Y0196003D01*
X0044254Y0196602D02*
X0099358Y0196602D01*
X0098976Y0197200D02*
X0044853Y0197200D01*
X0045451Y0197799D02*
X0098654Y0197799D01*
X0098406Y0198397D02*
X0046050Y0198397D01*
X0046648Y0198996D02*
X0098221Y0198996D01*
X0098070Y0199594D02*
X0047247Y0199594D01*
X0047845Y0200193D02*
X0097991Y0200193D01*
X0097950Y0201390D02*
X0087935Y0201390D01*
X0088832Y0201761D02*
X0086995Y0201000D01*
X0085005Y0201000D01*
X0083168Y0201761D01*
X0081761Y0203168D01*
X0081000Y0205005D01*
X0081000Y0206995D01*
X0081761Y0208832D01*
X0083168Y0210239D01*
X0085005Y0211000D01*
X0086995Y0211000D01*
X0088832Y0210239D01*
X0090239Y0208832D01*
X0091000Y0206995D01*
X0091000Y0205005D01*
X0090239Y0203168D01*
X0088832Y0201761D01*
X0089059Y0201988D02*
X0098015Y0201988D01*
X0098109Y0202587D02*
X0089658Y0202587D01*
X0090246Y0203185D02*
X0098269Y0203185D01*
X0098481Y0203784D02*
X0090494Y0203784D01*
X0090742Y0204382D02*
X0098735Y0204382D01*
X0099080Y0204981D02*
X0090990Y0204981D01*
X0091000Y0205579D02*
X0099497Y0205579D01*
X0100000Y0206178D02*
X0091000Y0206178D01*
X0091000Y0206776D02*
X0100626Y0206776D01*
X0101441Y0207375D02*
X0090843Y0207375D01*
X0090595Y0207973D02*
X0101700Y0207973D01*
X0101700Y0208572D02*
X0090347Y0208572D01*
X0089901Y0209170D02*
X0101700Y0209170D01*
X0101700Y0209769D02*
X0089302Y0209769D01*
X0088522Y0210367D02*
X0101700Y0210367D01*
X0101700Y0210966D02*
X0087077Y0210966D01*
X0084923Y0210966D02*
X0076609Y0210966D01*
X0076394Y0211000D02*
X0076300Y0211000D01*
X0076300Y0206300D01*
X0075700Y0206300D01*
X0075700Y0211000D01*
X0075606Y0211000D01*
X0074829Y0210877D01*
X0074081Y0210634D01*
X0073379Y0210276D01*
X0072743Y0209814D01*
X0072186Y0209257D01*
X0071724Y0208621D01*
X0071366Y0207919D01*
X0071123Y0207171D01*
X0071000Y0206394D01*
X0071000Y0206300D01*
X0075700Y0206300D01*
X0075700Y0205700D01*
X0071000Y0205700D01*
X0071000Y0205606D01*
X0071123Y0204829D01*
X0071366Y0204081D01*
X0071724Y0203379D01*
X0072186Y0202743D01*
X0072743Y0202186D01*
X0073379Y0201724D01*
X0074081Y0201366D01*
X0074829Y0201123D01*
X0075606Y0201000D01*
X0075700Y0201000D01*
X0075700Y0205700D01*
X0076300Y0205700D01*
X0076300Y0206300D01*
X0081000Y0206300D01*
X0081000Y0206394D01*
X0080877Y0207171D01*
X0080634Y0207919D01*
X0080276Y0208621D01*
X0079814Y0209257D01*
X0079257Y0209814D01*
X0078621Y0210276D01*
X0077919Y0210634D01*
X0077171Y0210877D01*
X0076394Y0211000D01*
X0076300Y0210966D02*
X0075700Y0210966D01*
X0075391Y0210966D02*
X0067077Y0210966D01*
X0066995Y0211000D02*
X0065005Y0211000D01*
X0063168Y0210239D01*
X0061761Y0208832D01*
X0061000Y0206995D01*
X0061000Y0205005D01*
X0061761Y0203168D01*
X0063168Y0201761D01*
X0065005Y0201000D01*
X0066995Y0201000D01*
X0068832Y0201761D01*
X0070239Y0203168D01*
X0071000Y0205005D01*
X0071000Y0206995D01*
X0070239Y0208832D01*
X0068832Y0210239D01*
X0066995Y0211000D01*
X0068522Y0210367D02*
X0073558Y0210367D01*
X0072698Y0209769D02*
X0069302Y0209769D01*
X0069901Y0209170D02*
X0072123Y0209170D01*
X0071699Y0208572D02*
X0070347Y0208572D01*
X0070595Y0207973D02*
X0071394Y0207973D01*
X0071189Y0207375D02*
X0070843Y0207375D01*
X0071000Y0206776D02*
X0071061Y0206776D01*
X0071000Y0206178D02*
X0075700Y0206178D01*
X0075700Y0206776D02*
X0076300Y0206776D01*
X0076300Y0206178D02*
X0081000Y0206178D01*
X0081000Y0205700D02*
X0076300Y0205700D01*
X0076300Y0201000D01*
X0076394Y0201000D01*
X0077171Y0201123D01*
X0077919Y0201366D01*
X0078621Y0201724D01*
X0079257Y0202186D01*
X0079814Y0202743D01*
X0080276Y0203379D01*
X0080634Y0204081D01*
X0080877Y0204829D01*
X0081000Y0205606D01*
X0081000Y0205700D01*
X0080996Y0205579D02*
X0081000Y0205579D01*
X0081010Y0204981D02*
X0080901Y0204981D01*
X0080732Y0204382D02*
X0081258Y0204382D01*
X0081506Y0203784D02*
X0080482Y0203784D01*
X0080135Y0203185D02*
X0081754Y0203185D01*
X0082342Y0202587D02*
X0079658Y0202587D01*
X0078985Y0201988D02*
X0082941Y0201988D01*
X0084065Y0201390D02*
X0077965Y0201390D01*
X0076300Y0201390D02*
X0075700Y0201390D01*
X0075700Y0201988D02*
X0076300Y0201988D01*
X0076300Y0202587D02*
X0075700Y0202587D01*
X0075700Y0203185D02*
X0076300Y0203185D01*
X0076300Y0203784D02*
X0075700Y0203784D01*
X0075700Y0204382D02*
X0076300Y0204382D01*
X0076300Y0204981D02*
X0075700Y0204981D01*
X0075700Y0205579D02*
X0076300Y0205579D01*
X0076300Y0207375D02*
X0075700Y0207375D01*
X0075700Y0207973D02*
X0076300Y0207973D01*
X0076300Y0208572D02*
X0075700Y0208572D01*
X0075700Y0209170D02*
X0076300Y0209170D01*
X0076300Y0209769D02*
X0075700Y0209769D01*
X0075700Y0210367D02*
X0076300Y0210367D01*
X0078442Y0210367D02*
X0083478Y0210367D01*
X0082698Y0209769D02*
X0079302Y0209769D01*
X0079877Y0209170D02*
X0082099Y0209170D01*
X0081653Y0208572D02*
X0080301Y0208572D01*
X0080606Y0207973D02*
X0081405Y0207973D01*
X0081157Y0207375D02*
X0080811Y0207375D01*
X0080939Y0206776D02*
X0081000Y0206776D01*
X0074035Y0201390D02*
X0067935Y0201390D01*
X0069059Y0201988D02*
X0073015Y0201988D01*
X0072342Y0202587D02*
X0069658Y0202587D01*
X0070246Y0203185D02*
X0071865Y0203185D01*
X0071518Y0203784D02*
X0070494Y0203784D01*
X0070742Y0204382D02*
X0071268Y0204382D01*
X0071099Y0204981D02*
X0070990Y0204981D01*
X0071000Y0205579D02*
X0071004Y0205579D01*
X0064065Y0201390D02*
X0052935Y0201390D01*
X0054059Y0201988D02*
X0062941Y0201988D01*
X0062342Y0202587D02*
X0054658Y0202587D01*
X0055246Y0203185D02*
X0061754Y0203185D01*
X0061506Y0203784D02*
X0055494Y0203784D01*
X0055742Y0204382D02*
X0061258Y0204382D01*
X0061010Y0204981D02*
X0055990Y0204981D01*
X0056000Y0205579D02*
X0061000Y0205579D01*
X0061000Y0206178D02*
X0056000Y0206178D01*
X0056000Y0206776D02*
X0061000Y0206776D01*
X0061157Y0207375D02*
X0055843Y0207375D01*
X0055595Y0207973D02*
X0061405Y0207973D01*
X0061653Y0208572D02*
X0055347Y0208572D01*
X0054901Y0209170D02*
X0062099Y0209170D01*
X0062698Y0209769D02*
X0054302Y0209769D01*
X0053522Y0210367D02*
X0063478Y0210367D01*
X0064923Y0210966D02*
X0052077Y0210966D01*
X0046000Y0205579D02*
X0045996Y0205579D01*
X0046010Y0204981D02*
X0045901Y0204981D01*
X0049042Y0201390D02*
X0049065Y0201390D01*
X0048444Y0200791D02*
X0105200Y0200791D01*
X0105200Y0201390D02*
X0105800Y0201390D01*
X0105800Y0201988D02*
X0105200Y0201988D01*
X0105200Y0202587D02*
X0105800Y0202587D01*
X0105800Y0203185D02*
X0105200Y0203185D01*
X0105200Y0203784D02*
X0105800Y0203784D01*
X0105800Y0203200D02*
X0105800Y0203200D01*
X0105800Y0204382D02*
X0105200Y0204382D01*
X0105200Y0204981D02*
X0105800Y0204981D01*
X0105800Y0205579D02*
X0105200Y0205579D01*
X0105200Y0206178D02*
X0105800Y0206178D01*
X0105800Y0206776D02*
X0105200Y0206776D01*
X0105200Y0207375D02*
X0105800Y0207375D01*
X0105800Y0207973D02*
X0105200Y0207973D01*
X0105200Y0208572D02*
X0105800Y0208572D01*
X0105800Y0209170D02*
X0105200Y0209170D01*
X0105200Y0209769D02*
X0105800Y0209769D01*
X0105800Y0210367D02*
X0105200Y0210367D01*
X0105200Y0210966D02*
X0105800Y0210966D01*
X0105800Y0211564D02*
X0105200Y0211564D01*
X0105200Y0212163D02*
X0105800Y0212163D01*
X0105800Y0212761D02*
X0105200Y0212761D01*
X0105200Y0213360D02*
X0105800Y0213360D01*
X0105800Y0213958D02*
X0105200Y0213958D01*
X0105200Y0214557D02*
X0105800Y0214557D01*
X0105800Y0215155D02*
X0105200Y0215155D01*
X0105200Y0215754D02*
X0105800Y0215754D01*
X0105800Y0216352D02*
X0105200Y0216352D01*
X0105200Y0216951D02*
X0105800Y0216951D01*
X0105800Y0217549D02*
X0105200Y0217549D01*
X0105200Y0218148D02*
X0105800Y0218148D01*
X0105800Y0218746D02*
X0105200Y0218746D01*
X0105200Y0219345D02*
X0105800Y0219345D01*
X0105800Y0219943D02*
X0105200Y0219943D01*
X0105200Y0220542D02*
X0105800Y0220542D01*
X0105800Y0221141D02*
X0105200Y0221141D01*
X0105200Y0221739D02*
X0026800Y0221739D01*
X0026800Y0221141D02*
X0101700Y0221141D01*
X0101700Y0220542D02*
X0026800Y0220542D01*
X0026800Y0219943D02*
X0101700Y0219943D01*
X0101700Y0219345D02*
X0026738Y0219345D01*
X0026577Y0218746D02*
X0101700Y0218746D01*
X0101700Y0218148D02*
X0026417Y0218148D01*
X0026256Y0217549D02*
X0101700Y0217549D01*
X0101700Y0216951D02*
X0026096Y0216951D01*
X0025787Y0216352D02*
X0101700Y0216352D01*
X0101700Y0215754D02*
X0025442Y0215754D01*
X0025096Y0215155D02*
X0101700Y0215155D01*
X0101700Y0214557D02*
X0024751Y0214557D01*
X0024232Y0213958D02*
X0101700Y0213958D01*
X0101700Y0213360D02*
X0023633Y0213360D01*
X0023035Y0212761D02*
X0101700Y0212761D01*
X0101700Y0212163D02*
X0022294Y0212163D01*
X0021257Y0211564D02*
X0101700Y0211564D01*
X0109300Y0211564D02*
X0132700Y0211564D01*
X0132700Y0210966D02*
X0109300Y0210966D01*
X0109300Y0210367D02*
X0132700Y0210367D01*
X0132700Y0209769D02*
X0109300Y0209769D01*
X0109300Y0209170D02*
X0132700Y0209170D01*
X0132700Y0208572D02*
X0109300Y0208572D01*
X0109300Y0207973D02*
X0132700Y0207973D01*
X0132197Y0207375D02*
X0109559Y0207375D01*
X0110374Y0206776D02*
X0131599Y0206776D01*
X0131000Y0206178D02*
X0111000Y0206178D01*
X0111503Y0205579D02*
X0130402Y0205579D01*
X0129977Y0204981D02*
X0111920Y0204981D01*
X0112265Y0204382D02*
X0129729Y0204382D01*
X0129481Y0203784D02*
X0112519Y0203784D01*
X0112731Y0203185D02*
X0129233Y0203185D01*
X0128985Y0202587D02*
X0112891Y0202587D01*
X0112985Y0201988D02*
X0128950Y0201988D01*
X0128950Y0201390D02*
X0113050Y0201390D01*
X0109300Y0212163D02*
X0132700Y0212163D01*
X0132700Y0212761D02*
X0109300Y0212761D01*
X0109300Y0213360D02*
X0132700Y0213360D01*
X0132700Y0213958D02*
X0109300Y0213958D01*
X0109300Y0214557D02*
X0132700Y0214557D01*
X0132700Y0215155D02*
X0109300Y0215155D01*
X0109300Y0215754D02*
X0132700Y0215754D01*
X0132700Y0216352D02*
X0109300Y0216352D01*
X0109300Y0216951D02*
X0132700Y0216951D01*
X0132700Y0217549D02*
X0109300Y0217549D01*
X0109300Y0218148D02*
X0132700Y0218148D01*
X0132700Y0218746D02*
X0109300Y0218746D01*
X0109300Y0219345D02*
X0132700Y0219345D01*
X0132700Y0219943D02*
X0109300Y0219943D01*
X0109300Y0220542D02*
X0132700Y0220542D01*
X0132700Y0221141D02*
X0109300Y0221141D01*
X0109300Y0222338D02*
X0132700Y0222338D01*
X0132700Y0222936D02*
X0109300Y0222936D01*
X0109300Y0223535D02*
X0132700Y0223535D01*
X0132700Y0224133D02*
X0109300Y0224133D01*
X0109300Y0224732D02*
X0132700Y0224732D01*
X0132700Y0225330D02*
X0109300Y0225330D01*
X0109300Y0225929D02*
X0132700Y0225929D01*
X0132700Y0226527D02*
X0109300Y0226527D01*
X0109300Y0227126D02*
X0132700Y0227126D01*
X0132700Y0227724D02*
X0109300Y0227724D01*
X0109300Y0228323D02*
X0132700Y0228323D01*
X0132700Y0228921D02*
X0109300Y0228921D01*
X0109300Y0229520D02*
X0132700Y0229520D01*
X0132700Y0230118D02*
X0109300Y0230118D01*
X0109300Y0230717D02*
X0132700Y0230717D01*
X0140300Y0230717D02*
X0171230Y0230717D01*
X0170193Y0230118D02*
X0140300Y0230118D01*
X0140300Y0229520D02*
X0169246Y0229520D01*
X0168648Y0228921D02*
X0140300Y0228921D01*
X0140300Y0228323D02*
X0168049Y0228323D01*
X0167451Y0227724D02*
X0140300Y0227724D01*
X0140300Y0227126D02*
X0167066Y0227126D01*
X0166720Y0226527D02*
X0140300Y0226527D01*
X0140300Y0225929D02*
X0166375Y0225929D01*
X0166029Y0225330D02*
X0140300Y0225330D01*
X0140300Y0224732D02*
X0165819Y0224732D01*
X0165659Y0224133D02*
X0140300Y0224133D01*
X0140300Y0223535D02*
X0165498Y0223535D01*
X0165338Y0222936D02*
X0140300Y0222936D01*
X0140300Y0222338D02*
X0165200Y0222338D01*
X0165200Y0221739D02*
X0140300Y0221739D01*
X0140300Y0221141D02*
X0165200Y0221141D01*
X0165200Y0220542D02*
X0140300Y0220542D01*
X0140300Y0219943D02*
X0165200Y0219943D01*
X0165262Y0219345D02*
X0140300Y0219345D01*
X0140300Y0218746D02*
X0165423Y0218746D01*
X0165583Y0218148D02*
X0140300Y0218148D01*
X0140300Y0217549D02*
X0165744Y0217549D01*
X0165904Y0216951D02*
X0140300Y0216951D01*
X0140300Y0216352D02*
X0166213Y0216352D01*
X0166558Y0215754D02*
X0140300Y0215754D01*
X0140300Y0215155D02*
X0166904Y0215155D01*
X0167249Y0214557D02*
X0140300Y0214557D01*
X0140300Y0213958D02*
X0167768Y0213958D01*
X0168367Y0213360D02*
X0140300Y0213360D01*
X0140300Y0212761D02*
X0168965Y0212761D01*
X0169706Y0212163D02*
X0140300Y0212163D01*
X0140300Y0211564D02*
X0170743Y0211564D01*
X0171780Y0210966D02*
X0140300Y0210966D01*
X0132700Y0221739D02*
X0105800Y0221739D01*
X0101700Y0222338D02*
X0026800Y0222338D01*
X0026662Y0222936D02*
X0101700Y0222936D01*
X0101700Y0223535D02*
X0026502Y0223535D01*
X0026341Y0224133D02*
X0101700Y0224133D01*
X0101700Y0224732D02*
X0026181Y0224732D01*
X0025971Y0225330D02*
X0101700Y0225330D01*
X0101700Y0225929D02*
X0025625Y0225929D01*
X0025280Y0226527D02*
X0101700Y0226527D01*
X0101700Y0227126D02*
X0024934Y0227126D01*
X0024549Y0227724D02*
X0101700Y0227724D01*
X0101700Y0228323D02*
X0023951Y0228323D01*
X0023352Y0228921D02*
X0101700Y0228921D01*
X0101700Y0229520D02*
X0022754Y0229520D01*
X0021807Y0230118D02*
X0101700Y0230118D01*
X0101700Y0230717D02*
X0020770Y0230717D01*
X0027099Y0209170D02*
X0006000Y0209170D01*
X0006000Y0208572D02*
X0026653Y0208572D01*
X0026405Y0207973D02*
X0006000Y0207973D01*
X0006000Y0207375D02*
X0026157Y0207375D01*
X0026000Y0206776D02*
X0006000Y0206776D01*
X0006000Y0206178D02*
X0026000Y0206178D01*
X0026000Y0205579D02*
X0006000Y0205579D01*
X0006000Y0204981D02*
X0026010Y0204981D01*
X0026258Y0204382D02*
X0006000Y0204382D01*
X0006000Y0203784D02*
X0026506Y0203784D01*
X0026754Y0203185D02*
X0006000Y0203185D01*
X0006000Y0202587D02*
X0027342Y0202587D01*
X0027941Y0201988D02*
X0006000Y0201988D01*
X0006000Y0201390D02*
X0029065Y0201390D01*
X0035953Y0194806D02*
X0019265Y0194806D01*
X0019864Y0194208D02*
X0035355Y0194208D01*
X0034756Y0193609D02*
X0020331Y0193609D01*
X0020579Y0193010D02*
X0034158Y0193010D01*
X0033559Y0192412D02*
X0020827Y0192412D01*
X0021000Y0191813D02*
X0032961Y0191813D01*
X0032362Y0191215D02*
X0021000Y0191215D01*
X0021000Y0190616D02*
X0031764Y0190616D01*
X0031165Y0190018D02*
X0021000Y0190018D01*
X0020757Y0189419D02*
X0030567Y0189419D01*
X0029968Y0188821D02*
X0020632Y0188821D01*
X0021230Y0188222D02*
X0029370Y0188222D01*
X0032883Y0185230D02*
X0154087Y0185230D01*
X0153759Y0184631D02*
X0032284Y0184631D01*
X0031685Y0184033D02*
X0153511Y0184033D01*
X0153263Y0183434D02*
X0024100Y0183434D01*
X0024100Y0182836D02*
X0153015Y0182836D01*
X0152850Y0182237D02*
X0024100Y0182237D01*
X0024100Y0181639D02*
X0152850Y0181639D01*
X0152850Y0181040D02*
X0024100Y0181040D01*
X0024100Y0180442D02*
X0152850Y0180442D01*
X0152850Y0179843D02*
X0024100Y0179843D01*
X0024100Y0179245D02*
X0152982Y0179245D01*
X0153230Y0178646D02*
X0024100Y0178646D01*
X0024100Y0178048D02*
X0153478Y0178048D01*
X0153726Y0177449D02*
X0024100Y0177449D01*
X0024100Y0176851D02*
X0154007Y0176851D01*
X0154605Y0176252D02*
X0024100Y0176252D01*
X0024100Y0175654D02*
X0155204Y0175654D01*
X0155802Y0175055D02*
X0024100Y0175055D01*
X0024100Y0174457D02*
X0156992Y0174457D01*
X0158437Y0173858D02*
X0024100Y0173858D01*
X0019500Y0175055D02*
X0019016Y0175055D01*
X0019500Y0175654D02*
X0017831Y0175654D01*
X0017568Y0176252D02*
X0019500Y0176252D01*
X0019500Y0176851D02*
X0018795Y0176851D01*
X0016300Y0176851D02*
X0015700Y0176851D01*
X0015700Y0177449D02*
X0016300Y0177449D01*
X0016300Y0178048D02*
X0015700Y0178048D01*
X0015700Y0178646D02*
X0016300Y0178646D01*
X0016300Y0179245D02*
X0015700Y0179245D01*
X0015700Y0179843D02*
X0016300Y0179843D01*
X0016300Y0180442D02*
X0015700Y0180442D01*
X0015700Y0176252D02*
X0016300Y0176252D01*
X0011039Y0181639D02*
X0006000Y0181639D01*
X0006000Y0182237D02*
X0011145Y0182237D01*
X0011339Y0182836D02*
X0006000Y0182836D01*
X0006000Y0183434D02*
X0011629Y0183434D01*
X0012023Y0184033D02*
X0006000Y0184033D01*
X0006000Y0184631D02*
X0012560Y0184631D01*
X0013315Y0185230D02*
X0006000Y0185230D01*
X0018432Y0195405D02*
X0036552Y0195405D01*
X0040065Y0192412D02*
X0154245Y0192412D01*
X0153824Y0193010D02*
X0040663Y0193010D01*
X0039466Y0191813D02*
X0154844Y0191813D01*
X0155442Y0191215D02*
X0038868Y0191215D01*
X0038269Y0190616D02*
X0156124Y0190616D01*
X0157569Y0190018D02*
X0037671Y0190018D01*
X0037072Y0189419D02*
X0186000Y0189419D01*
X0186000Y0188821D02*
X0036474Y0188821D01*
X0035875Y0188222D02*
X0158632Y0188222D01*
X0157187Y0187624D02*
X0035277Y0187624D01*
X0034678Y0187025D02*
X0155883Y0187025D01*
X0155284Y0186427D02*
X0034080Y0186427D01*
X0033481Y0185828D02*
X0154686Y0185828D01*
X0127718Y0154706D02*
X0054282Y0154706D01*
X0054875Y0154107D02*
X0127125Y0154107D01*
X0127125Y0153509D02*
X0054875Y0153509D01*
X0054875Y0152910D02*
X0127125Y0152910D01*
X0127125Y0152312D02*
X0054875Y0152312D01*
X0054875Y0151713D02*
X0127125Y0151713D01*
X0127125Y0151115D02*
X0054875Y0151115D01*
X0054875Y0150516D02*
X0127125Y0150516D01*
X0127125Y0149918D02*
X0054875Y0149918D01*
X0054875Y0149319D02*
X0127125Y0149319D01*
X0127125Y0148721D02*
X0054875Y0148721D01*
X0054875Y0148122D02*
X0127125Y0148122D01*
X0127488Y0147524D02*
X0054512Y0147524D01*
X0054457Y0144531D02*
X0127543Y0144531D01*
X0127125Y0143933D02*
X0054875Y0143933D01*
X0054875Y0143334D02*
X0127125Y0143334D01*
X0127125Y0142736D02*
X0054875Y0142736D01*
X0054875Y0142137D02*
X0127125Y0142137D01*
X0127125Y0141539D02*
X0054875Y0141539D01*
X0054875Y0140940D02*
X0127125Y0140940D01*
X0127125Y0140341D02*
X0054875Y0140341D01*
X0054875Y0139743D02*
X0127125Y0139743D01*
X0127125Y0139144D02*
X0054875Y0139144D01*
X0054875Y0138546D02*
X0127125Y0138546D01*
X0127125Y0137947D02*
X0054875Y0137947D01*
X0054337Y0137349D02*
X0127663Y0137349D01*
X0127368Y0134356D02*
X0054632Y0134356D01*
X0054875Y0133758D02*
X0127125Y0133758D01*
X0127125Y0133159D02*
X0054875Y0133159D01*
X0054875Y0132561D02*
X0127125Y0132561D01*
X0127125Y0131962D02*
X0054875Y0131962D01*
X0054875Y0131364D02*
X0127125Y0131364D01*
X0127125Y0130765D02*
X0054875Y0130765D01*
X0054875Y0130167D02*
X0127125Y0130167D01*
X0127125Y0129568D02*
X0054875Y0129568D01*
X0054875Y0128970D02*
X0127125Y0128970D01*
X0127125Y0128371D02*
X0054875Y0128371D01*
X0054761Y0127773D02*
X0127239Y0127773D01*
X0127838Y0127174D02*
X0054162Y0127174D01*
X0054113Y0124875D02*
X0047887Y0124875D01*
X0047125Y0124113D01*
X0047125Y0117887D01*
X0047887Y0117125D01*
X0054113Y0117125D01*
X0054875Y0117887D01*
X0054875Y0124113D01*
X0054113Y0124875D01*
X0054208Y0124780D02*
X0127792Y0124780D01*
X0127887Y0124875D02*
X0127125Y0124113D01*
X0127125Y0117887D01*
X0127887Y0117125D01*
X0134113Y0117125D01*
X0134875Y0117887D01*
X0134875Y0124113D01*
X0134113Y0124875D01*
X0127887Y0124875D01*
X0127194Y0124182D02*
X0054806Y0124182D01*
X0054875Y0123583D02*
X0127125Y0123583D01*
X0127125Y0122985D02*
X0054875Y0122985D01*
X0054875Y0122386D02*
X0127125Y0122386D01*
X0127125Y0121788D02*
X0054875Y0121788D01*
X0054875Y0121189D02*
X0127125Y0121189D01*
X0127125Y0120591D02*
X0054875Y0120591D01*
X0054875Y0119992D02*
X0127125Y0119992D01*
X0127125Y0119394D02*
X0054875Y0119394D01*
X0054875Y0118795D02*
X0127125Y0118795D01*
X0127125Y0118197D02*
X0054875Y0118197D01*
X0054586Y0117598D02*
X0127414Y0117598D01*
X0127887Y0114875D02*
X0127125Y0114113D01*
X0127125Y0107887D01*
X0127887Y0107125D01*
X0134113Y0107125D01*
X0134875Y0107887D01*
X0134875Y0114113D01*
X0134113Y0114875D01*
X0127887Y0114875D01*
X0127617Y0114605D02*
X0054383Y0114605D01*
X0054113Y0114875D02*
X0047887Y0114875D01*
X0047125Y0114113D01*
X0047125Y0107887D01*
X0047887Y0107125D01*
X0054113Y0107125D01*
X0054875Y0107887D01*
X0054875Y0114113D01*
X0054113Y0114875D01*
X0054875Y0114007D02*
X0127125Y0114007D01*
X0127125Y0113408D02*
X0054875Y0113408D01*
X0054875Y0112810D02*
X0127125Y0112810D01*
X0127125Y0112211D02*
X0054875Y0112211D01*
X0054875Y0111613D02*
X0127125Y0111613D01*
X0127125Y0111014D02*
X0054875Y0111014D01*
X0054875Y0110416D02*
X0127125Y0110416D01*
X0127125Y0109817D02*
X0054875Y0109817D01*
X0054875Y0109219D02*
X0127125Y0109219D01*
X0127125Y0108620D02*
X0054875Y0108620D01*
X0054875Y0108022D02*
X0127125Y0108022D01*
X0127589Y0107423D02*
X0054411Y0107423D01*
X0054113Y0104875D02*
X0047887Y0104875D01*
X0047125Y0104113D01*
X0047125Y0097887D01*
X0047887Y0097125D01*
X0054113Y0097125D01*
X0054875Y0097887D01*
X0054875Y0104113D01*
X0054113Y0104875D01*
X0054557Y0104431D02*
X0127443Y0104431D01*
X0127125Y0104113D02*
X0127887Y0104875D01*
X0134113Y0104875D01*
X0134875Y0104113D01*
X0134875Y0097887D01*
X0134113Y0097125D01*
X0127887Y0097125D01*
X0127125Y0097887D01*
X0127125Y0104113D01*
X0127125Y0103832D02*
X0054875Y0103832D01*
X0054875Y0103234D02*
X0127125Y0103234D01*
X0127125Y0102635D02*
X0054875Y0102635D01*
X0054875Y0102037D02*
X0127125Y0102037D01*
X0127125Y0101438D02*
X0054875Y0101438D01*
X0054875Y0100840D02*
X0127125Y0100840D01*
X0127125Y0100241D02*
X0054875Y0100241D01*
X0054875Y0099643D02*
X0127125Y0099643D01*
X0127125Y0099044D02*
X0054875Y0099044D01*
X0054875Y0098446D02*
X0127125Y0098446D01*
X0127165Y0097847D02*
X0054835Y0097847D01*
X0054237Y0097249D02*
X0127763Y0097249D01*
X0127887Y0094875D02*
X0127125Y0094113D01*
X0127125Y0087887D01*
X0127887Y0087125D01*
X0134113Y0087125D01*
X0134875Y0087887D01*
X0134875Y0094113D01*
X0134113Y0094875D01*
X0127887Y0094875D01*
X0127867Y0094855D02*
X0054133Y0094855D01*
X0054113Y0094875D02*
X0047887Y0094875D01*
X0047125Y0094113D01*
X0047125Y0087887D01*
X0047887Y0087125D01*
X0054113Y0087125D01*
X0054875Y0087887D01*
X0054875Y0094113D01*
X0054113Y0094875D01*
X0054732Y0094256D02*
X0127268Y0094256D01*
X0127125Y0093658D02*
X0054875Y0093658D01*
X0054875Y0093059D02*
X0127125Y0093059D01*
X0127125Y0092461D02*
X0054875Y0092461D01*
X0054875Y0091862D02*
X0127125Y0091862D01*
X0127125Y0091264D02*
X0054875Y0091264D01*
X0054875Y0090665D02*
X0127125Y0090665D01*
X0127125Y0090067D02*
X0054875Y0090067D01*
X0054875Y0089468D02*
X0127125Y0089468D01*
X0127125Y0088870D02*
X0054875Y0088870D01*
X0054875Y0088271D02*
X0127125Y0088271D01*
X0127339Y0087672D02*
X0054661Y0087672D01*
X0054113Y0084875D02*
X0047887Y0084875D01*
X0047125Y0084113D01*
X0047125Y0077887D01*
X0047887Y0077125D01*
X0054113Y0077125D01*
X0054875Y0077887D01*
X0054875Y0084113D01*
X0054113Y0084875D01*
X0054308Y0084680D02*
X0127692Y0084680D01*
X0127887Y0084875D02*
X0127125Y0084113D01*
X0127125Y0077887D01*
X0127887Y0077125D01*
X0134113Y0077125D01*
X0134875Y0077887D01*
X0134875Y0084113D01*
X0134113Y0084875D01*
X0127887Y0084875D01*
X0127125Y0084081D02*
X0054875Y0084081D01*
X0054875Y0083483D02*
X0127125Y0083483D01*
X0127125Y0082884D02*
X0054875Y0082884D01*
X0054875Y0082286D02*
X0127125Y0082286D01*
X0127125Y0081687D02*
X0054875Y0081687D01*
X0054875Y0081089D02*
X0127125Y0081089D01*
X0127125Y0080490D02*
X0054875Y0080490D01*
X0054875Y0079892D02*
X0127125Y0079892D01*
X0127125Y0079293D02*
X0054875Y0079293D01*
X0054875Y0078695D02*
X0127125Y0078695D01*
X0127125Y0078096D02*
X0054875Y0078096D01*
X0054486Y0077498D02*
X0127514Y0077498D01*
X0127887Y0074875D02*
X0127125Y0074113D01*
X0127125Y0067887D01*
X0127887Y0067125D01*
X0134113Y0067125D01*
X0134875Y0067887D01*
X0134875Y0074113D01*
X0134113Y0074875D01*
X0127887Y0074875D01*
X0127517Y0074505D02*
X0054483Y0074505D01*
X0054113Y0074875D02*
X0047887Y0074875D01*
X0047125Y0074113D01*
X0047125Y0067887D01*
X0047887Y0067125D01*
X0054113Y0067125D01*
X0054875Y0067887D01*
X0054875Y0074113D01*
X0054113Y0074875D01*
X0054875Y0073907D02*
X0127125Y0073907D01*
X0127125Y0073308D02*
X0054875Y0073308D01*
X0054875Y0072710D02*
X0127125Y0072710D01*
X0127125Y0072111D02*
X0054875Y0072111D01*
X0054875Y0071513D02*
X0127125Y0071513D01*
X0127125Y0070914D02*
X0054875Y0070914D01*
X0054875Y0070316D02*
X0127125Y0070316D01*
X0127125Y0069717D02*
X0054875Y0069717D01*
X0054875Y0069119D02*
X0127125Y0069119D01*
X0127125Y0068520D02*
X0054875Y0068520D01*
X0054875Y0067922D02*
X0127125Y0067922D01*
X0127689Y0067323D02*
X0054311Y0067323D01*
X0054113Y0064875D02*
X0047887Y0064875D01*
X0047125Y0064113D01*
X0047125Y0057887D01*
X0047887Y0057125D01*
X0054113Y0057125D01*
X0054875Y0057887D01*
X0054875Y0064113D01*
X0054113Y0064875D01*
X0054658Y0064331D02*
X0127342Y0064331D01*
X0127125Y0064113D02*
X0127887Y0064875D01*
X0134113Y0064875D01*
X0134875Y0064113D01*
X0134875Y0057887D01*
X0134113Y0057125D01*
X0127887Y0057125D01*
X0127125Y0057887D01*
X0127125Y0064113D01*
X0127125Y0063732D02*
X0054875Y0063732D01*
X0054875Y0063134D02*
X0127125Y0063134D01*
X0127125Y0062535D02*
X0054875Y0062535D01*
X0054875Y0061937D02*
X0127125Y0061937D01*
X0127125Y0061338D02*
X0054875Y0061338D01*
X0054875Y0060739D02*
X0127125Y0060739D01*
X0127125Y0060141D02*
X0054875Y0060141D01*
X0054875Y0059542D02*
X0127125Y0059542D01*
X0127125Y0058944D02*
X0054875Y0058944D01*
X0054875Y0058345D02*
X0127125Y0058345D01*
X0127265Y0057747D02*
X0054735Y0057747D01*
X0054136Y0057148D02*
X0127863Y0057148D01*
X0127887Y0054875D02*
X0127125Y0054113D01*
X0127125Y0049378D01*
X0125847Y0048100D01*
X0054875Y0048100D01*
X0054875Y0054113D01*
X0054113Y0054875D01*
X0047887Y0054875D01*
X0047125Y0054113D01*
X0047125Y0048100D01*
X0020542Y0048100D01*
X0020239Y0048832D01*
X0018832Y0050239D01*
X0016995Y0051000D01*
X0015005Y0051000D01*
X0013168Y0050239D01*
X0011761Y0048832D01*
X0011000Y0046995D01*
X0011000Y0045005D01*
X0011761Y0043168D01*
X0013168Y0041761D01*
X0015005Y0041000D01*
X0016995Y0041000D01*
X0018832Y0041761D01*
X0020239Y0043168D01*
X0020376Y0043500D01*
X0047125Y0043500D01*
X0047125Y0037887D01*
X0047887Y0037125D01*
X0054113Y0037125D01*
X0054875Y0037887D01*
X0054875Y0043500D01*
X0127125Y0043500D01*
X0127125Y0037887D01*
X0127887Y0037125D01*
X0134113Y0037125D01*
X0134875Y0037887D01*
X0134875Y0044113D01*
X0134113Y0044875D01*
X0129127Y0044875D01*
X0131378Y0047125D01*
X0134113Y0047125D01*
X0134688Y0047700D01*
X0176247Y0047700D01*
X0176279Y0047668D01*
X0176000Y0046995D01*
X0176000Y0045005D01*
X0176761Y0043168D01*
X0178168Y0041761D01*
X0180005Y0041000D01*
X0181995Y0041000D01*
X0183832Y0041761D01*
X0185239Y0043168D01*
X0186000Y0045005D01*
X0186000Y0046995D01*
X0185239Y0048832D01*
X0183832Y0050239D01*
X0181995Y0051000D01*
X0180005Y0051000D01*
X0179615Y0050838D01*
X0178153Y0052300D01*
X0176700Y0052300D01*
X0176700Y0058316D01*
X0176761Y0058168D01*
X0178168Y0056761D01*
X0180005Y0056000D01*
X0181995Y0056000D01*
X0183832Y0056761D01*
X0185239Y0058168D01*
X0186000Y0060005D01*
X0186000Y0061995D01*
X0185239Y0063832D01*
X0183832Y0065239D01*
X0181995Y0066000D01*
X0183832Y0066761D01*
X0185239Y0068168D01*
X0186000Y0070005D01*
X0186000Y0071995D01*
X0185239Y0073832D01*
X0183832Y0075239D01*
X0181995Y0076000D01*
X0180005Y0076000D01*
X0178766Y0075487D01*
X0176700Y0077553D01*
X0176700Y0083316D01*
X0176761Y0083168D01*
X0178168Y0081761D01*
X0180005Y0081000D01*
X0181995Y0081000D01*
X0183832Y0081761D01*
X0185239Y0083168D01*
X0186000Y0085005D01*
X0186000Y0086995D01*
X0185239Y0088832D01*
X0183832Y0090239D01*
X0181995Y0091000D01*
X0183832Y0091761D01*
X0185239Y0093168D01*
X0186000Y0095005D01*
X0186000Y0096995D01*
X0185239Y0098832D01*
X0183832Y0100239D01*
X0181995Y0101000D01*
X0180005Y0101000D01*
X0178907Y0100545D01*
X0176700Y0102753D01*
X0176700Y0108316D01*
X0176761Y0108168D01*
X0178168Y0106761D01*
X0180005Y0106000D01*
X0181995Y0106000D01*
X0183832Y0106761D01*
X0185239Y0108168D01*
X0186000Y0110005D01*
X0186000Y0111995D01*
X0185239Y0113832D01*
X0183832Y0115239D01*
X0181995Y0116000D01*
X0183832Y0116761D01*
X0185239Y0118168D01*
X0186000Y0120005D01*
X0186000Y0121995D01*
X0185239Y0123832D01*
X0183832Y0125239D01*
X0181995Y0126000D01*
X0180005Y0126000D01*
X0178168Y0125239D01*
X0176761Y0123832D01*
X0176000Y0121995D01*
X0176000Y0120005D01*
X0176220Y0119473D01*
X0173447Y0116700D01*
X0172100Y0115353D01*
X0172100Y0100847D01*
X0176000Y0096947D01*
X0176000Y0095005D01*
X0176279Y0094332D01*
X0173447Y0091500D01*
X0172100Y0090153D01*
X0172100Y0075647D01*
X0176000Y0071747D01*
X0176000Y0070005D01*
X0176748Y0068200D01*
X0173447Y0064900D01*
X0172100Y0063553D01*
X0172100Y0052300D01*
X0134875Y0052300D01*
X0134875Y0054113D01*
X0134113Y0054875D01*
X0127887Y0054875D01*
X0127766Y0054754D02*
X0054234Y0054754D01*
X0054832Y0054156D02*
X0127168Y0054156D01*
X0127125Y0053557D02*
X0054875Y0053557D01*
X0054875Y0052959D02*
X0127125Y0052959D01*
X0127125Y0052360D02*
X0054875Y0052360D01*
X0054875Y0051762D02*
X0127125Y0051762D01*
X0127125Y0051163D02*
X0054875Y0051163D01*
X0054875Y0050565D02*
X0127125Y0050565D01*
X0127125Y0049966D02*
X0054875Y0049966D01*
X0054875Y0049368D02*
X0127115Y0049368D01*
X0126517Y0048769D02*
X0054875Y0048769D01*
X0054875Y0048171D02*
X0125918Y0048171D01*
X0129431Y0045178D02*
X0176000Y0045178D01*
X0176000Y0045777D02*
X0130029Y0045777D01*
X0130628Y0046375D02*
X0176000Y0046375D01*
X0176000Y0046974D02*
X0131226Y0046974D01*
X0134560Y0047572D02*
X0176239Y0047572D01*
X0176176Y0044580D02*
X0134408Y0044580D01*
X0134875Y0043981D02*
X0176424Y0043981D01*
X0176672Y0043383D02*
X0134875Y0043383D01*
X0134875Y0042784D02*
X0177145Y0042784D01*
X0177743Y0042186D02*
X0134875Y0042186D01*
X0134875Y0041587D02*
X0178588Y0041587D01*
X0178533Y0040390D02*
X0163467Y0040390D01*
X0163832Y0040239D02*
X0161995Y0041000D01*
X0160005Y0041000D01*
X0158168Y0040239D01*
X0156761Y0038832D01*
X0156000Y0036995D01*
X0156000Y0035005D01*
X0156761Y0033168D01*
X0158168Y0031761D01*
X0160005Y0031000D01*
X0161995Y0031000D01*
X0163832Y0031761D01*
X0165239Y0033168D01*
X0166000Y0035005D01*
X0166000Y0036995D01*
X0165239Y0038832D01*
X0163832Y0040239D01*
X0164279Y0039792D02*
X0177721Y0039792D01*
X0178168Y0040239D02*
X0176761Y0038832D01*
X0176000Y0036995D01*
X0176000Y0035005D01*
X0176761Y0033168D01*
X0178168Y0031761D01*
X0180005Y0031000D01*
X0181995Y0031000D01*
X0183832Y0031761D01*
X0185239Y0033168D01*
X0186000Y0035005D01*
X0186000Y0036995D01*
X0185239Y0038832D01*
X0183832Y0040239D01*
X0181995Y0041000D01*
X0180005Y0041000D01*
X0178168Y0040239D01*
X0177122Y0039193D02*
X0164878Y0039193D01*
X0165337Y0038595D02*
X0176663Y0038595D01*
X0176415Y0037996D02*
X0165585Y0037996D01*
X0165833Y0037398D02*
X0176167Y0037398D01*
X0176000Y0036799D02*
X0166000Y0036799D01*
X0166000Y0036201D02*
X0176000Y0036201D01*
X0176000Y0035602D02*
X0166000Y0035602D01*
X0165999Y0035003D02*
X0176001Y0035003D01*
X0176249Y0034405D02*
X0165751Y0034405D01*
X0165503Y0033806D02*
X0176497Y0033806D01*
X0176745Y0033208D02*
X0165255Y0033208D01*
X0164681Y0032609D02*
X0177319Y0032609D01*
X0177918Y0032011D02*
X0164082Y0032011D01*
X0162990Y0031412D02*
X0179010Y0031412D01*
X0182990Y0031412D02*
X0186000Y0031412D01*
X0186000Y0030814D02*
X0131300Y0030814D01*
X0131300Y0030700D02*
X0131300Y0031300D01*
X0134875Y0031300D01*
X0134875Y0033746D01*
X0134786Y0034077D01*
X0134615Y0034373D01*
X0134373Y0034615D01*
X0134077Y0034786D01*
X0133746Y0034875D01*
X0131300Y0034875D01*
X0131300Y0031300D01*
X0130700Y0031300D01*
X0130700Y0034875D01*
X0128254Y0034875D01*
X0127923Y0034786D01*
X0127627Y0034615D01*
X0127385Y0034373D01*
X0127214Y0034077D01*
X0127125Y0033746D01*
X0127125Y0031300D01*
X0130700Y0031300D01*
X0130700Y0030700D01*
X0131300Y0030700D01*
X0134875Y0030700D01*
X0134875Y0028254D01*
X0134786Y0027923D01*
X0134615Y0027627D01*
X0134373Y0027385D01*
X0134077Y0027214D01*
X0133746Y0027125D01*
X0131300Y0027125D01*
X0131300Y0030700D01*
X0131300Y0030215D02*
X0130700Y0030215D01*
X0130700Y0030700D02*
X0130700Y0027125D01*
X0128254Y0027125D01*
X0127923Y0027214D01*
X0127627Y0027385D01*
X0127385Y0027627D01*
X0127214Y0027923D01*
X0127125Y0028254D01*
X0127125Y0030700D01*
X0130700Y0030700D01*
X0130700Y0030814D02*
X0054875Y0030814D01*
X0054875Y0031412D02*
X0127125Y0031412D01*
X0127125Y0032011D02*
X0054875Y0032011D01*
X0054875Y0032609D02*
X0127125Y0032609D01*
X0127125Y0033208D02*
X0054875Y0033208D01*
X0054875Y0033806D02*
X0127141Y0033806D01*
X0127417Y0034405D02*
X0054583Y0034405D01*
X0054875Y0034113D02*
X0054113Y0034875D01*
X0047887Y0034875D01*
X0047125Y0034113D01*
X0047125Y0027887D01*
X0047887Y0027125D01*
X0054113Y0027125D01*
X0054875Y0027887D01*
X0054875Y0034113D01*
X0054386Y0037398D02*
X0127614Y0037398D01*
X0127125Y0037996D02*
X0054875Y0037996D01*
X0054875Y0038595D02*
X0127125Y0038595D01*
X0127125Y0039193D02*
X0054875Y0039193D01*
X0054875Y0039792D02*
X0127125Y0039792D01*
X0127125Y0040390D02*
X0054875Y0040390D01*
X0054875Y0040989D02*
X0127125Y0040989D01*
X0127125Y0041587D02*
X0054875Y0041587D01*
X0054875Y0042186D02*
X0127125Y0042186D01*
X0127125Y0042784D02*
X0054875Y0042784D01*
X0054875Y0043383D02*
X0127125Y0043383D01*
X0134875Y0040989D02*
X0150535Y0040989D01*
X0150606Y0041000D02*
X0149829Y0040877D01*
X0149081Y0040634D01*
X0148379Y0040276D01*
X0147743Y0039814D01*
X0147186Y0039257D01*
X0146724Y0038621D01*
X0146366Y0037919D01*
X0146123Y0037171D01*
X0146000Y0036394D01*
X0146000Y0036300D01*
X0150700Y0036300D01*
X0150700Y0041000D01*
X0150606Y0041000D01*
X0150700Y0040989D02*
X0151300Y0040989D01*
X0151300Y0041000D02*
X0151300Y0036300D01*
X0150700Y0036300D01*
X0150700Y0035700D01*
X0146000Y0035700D01*
X0146000Y0035606D01*
X0146123Y0034829D01*
X0146366Y0034081D01*
X0146724Y0033379D01*
X0147186Y0032743D01*
X0147743Y0032186D01*
X0148379Y0031724D01*
X0149081Y0031366D01*
X0149829Y0031123D01*
X0150606Y0031000D01*
X0150700Y0031000D01*
X0150700Y0035700D01*
X0151300Y0035700D01*
X0151300Y0036300D01*
X0156000Y0036300D01*
X0156000Y0036394D01*
X0155877Y0037171D01*
X0155634Y0037919D01*
X0155276Y0038621D01*
X0154814Y0039257D01*
X0154257Y0039814D01*
X0153621Y0040276D01*
X0152919Y0040634D01*
X0152171Y0040877D01*
X0151394Y0041000D01*
X0151300Y0041000D01*
X0151465Y0040989D02*
X0159978Y0040989D01*
X0158533Y0040390D02*
X0153397Y0040390D01*
X0154279Y0039792D02*
X0157721Y0039792D01*
X0157122Y0039193D02*
X0154860Y0039193D01*
X0155290Y0038595D02*
X0156663Y0038595D01*
X0156415Y0037996D02*
X0155595Y0037996D01*
X0155803Y0037398D02*
X0156167Y0037398D01*
X0156000Y0036799D02*
X0155936Y0036799D01*
X0156000Y0036201D02*
X0151300Y0036201D01*
X0151300Y0035700D02*
X0156000Y0035700D01*
X0156000Y0035606D01*
X0155877Y0034829D01*
X0155634Y0034081D01*
X0155276Y0033379D01*
X0154814Y0032743D01*
X0154257Y0032186D01*
X0153621Y0031724D01*
X0152919Y0031366D01*
X0152171Y0031123D01*
X0151394Y0031000D01*
X0151300Y0031000D01*
X0151300Y0035700D01*
X0151300Y0035602D02*
X0150700Y0035602D01*
X0150700Y0036201D02*
X0021000Y0036201D01*
X0021000Y0036799D02*
X0146064Y0036799D01*
X0146197Y0037398D02*
X0134386Y0037398D01*
X0134875Y0037996D02*
X0146405Y0037996D01*
X0146710Y0038595D02*
X0134875Y0038595D01*
X0134875Y0039193D02*
X0147140Y0039193D01*
X0147721Y0039792D02*
X0134875Y0039792D01*
X0134875Y0040390D02*
X0148603Y0040390D01*
X0150700Y0040390D02*
X0151300Y0040390D01*
X0151300Y0039792D02*
X0150700Y0039792D01*
X0150700Y0039193D02*
X0151300Y0039193D01*
X0151300Y0038595D02*
X0150700Y0038595D01*
X0150700Y0037996D02*
X0151300Y0037996D01*
X0151300Y0037398D02*
X0150700Y0037398D01*
X0150700Y0036799D02*
X0151300Y0036799D01*
X0151300Y0035003D02*
X0150700Y0035003D01*
X0150700Y0034405D02*
X0151300Y0034405D01*
X0151300Y0033806D02*
X0150700Y0033806D01*
X0150700Y0033208D02*
X0151300Y0033208D01*
X0151300Y0032609D02*
X0150700Y0032609D01*
X0150700Y0032011D02*
X0151300Y0032011D01*
X0151300Y0031412D02*
X0150700Y0031412D01*
X0148990Y0031412D02*
X0134875Y0031412D01*
X0134875Y0032011D02*
X0147984Y0032011D01*
X0147319Y0032609D02*
X0134875Y0032609D01*
X0134875Y0033208D02*
X0146848Y0033208D01*
X0146506Y0033806D02*
X0134859Y0033806D01*
X0134583Y0034405D02*
X0146261Y0034405D01*
X0146095Y0035003D02*
X0020999Y0035003D01*
X0021000Y0035005D02*
X0020239Y0033168D01*
X0018832Y0031761D01*
X0016995Y0031000D01*
X0015005Y0031000D01*
X0013168Y0031761D01*
X0011761Y0033168D01*
X0011000Y0035005D01*
X0011000Y0036995D01*
X0011761Y0038832D01*
X0013168Y0040239D01*
X0015005Y0041000D01*
X0016995Y0041000D01*
X0018832Y0040239D01*
X0020239Y0038832D01*
X0021000Y0036995D01*
X0021000Y0035005D01*
X0021000Y0035602D02*
X0146001Y0035602D01*
X0153010Y0031412D02*
X0159010Y0031412D01*
X0157918Y0032011D02*
X0154016Y0032011D01*
X0154681Y0032609D02*
X0157319Y0032609D01*
X0156745Y0033208D02*
X0155152Y0033208D01*
X0155494Y0033806D02*
X0156497Y0033806D01*
X0156249Y0034405D02*
X0155739Y0034405D01*
X0155904Y0035003D02*
X0156001Y0035003D01*
X0155999Y0035602D02*
X0156000Y0035602D01*
X0162022Y0040989D02*
X0179978Y0040989D01*
X0182022Y0040989D02*
X0186000Y0040989D01*
X0186000Y0041587D02*
X0183412Y0041587D01*
X0184257Y0042186D02*
X0186000Y0042186D01*
X0186000Y0042784D02*
X0184855Y0042784D01*
X0185328Y0043383D02*
X0186000Y0043383D01*
X0186000Y0043981D02*
X0185576Y0043981D01*
X0185824Y0044580D02*
X0186000Y0044580D01*
X0186000Y0045178D02*
X0186000Y0045178D01*
X0186000Y0045777D02*
X0186000Y0045777D01*
X0186000Y0046375D02*
X0186000Y0046375D01*
X0186000Y0046974D02*
X0186000Y0046974D01*
X0186000Y0047572D02*
X0185761Y0047572D01*
X0186000Y0048171D02*
X0185513Y0048171D01*
X0185265Y0048769D02*
X0186000Y0048769D01*
X0186000Y0049368D02*
X0184703Y0049368D01*
X0184105Y0049966D02*
X0186000Y0049966D01*
X0186000Y0050565D02*
X0183045Y0050565D01*
X0186000Y0051163D02*
X0179289Y0051163D01*
X0178691Y0051762D02*
X0186000Y0051762D01*
X0186000Y0052360D02*
X0176700Y0052360D01*
X0176700Y0052959D02*
X0186000Y0052959D01*
X0186000Y0053557D02*
X0176700Y0053557D01*
X0176700Y0054156D02*
X0186000Y0054156D01*
X0186000Y0054754D02*
X0176700Y0054754D01*
X0176700Y0055353D02*
X0186000Y0055353D01*
X0186000Y0055951D02*
X0176700Y0055951D01*
X0176700Y0056550D02*
X0178678Y0056550D01*
X0177781Y0057148D02*
X0176700Y0057148D01*
X0176700Y0057747D02*
X0177182Y0057747D01*
X0172100Y0057747D02*
X0134735Y0057747D01*
X0134875Y0058345D02*
X0172100Y0058345D01*
X0172100Y0058944D02*
X0134875Y0058944D01*
X0134875Y0059542D02*
X0172100Y0059542D01*
X0172100Y0060141D02*
X0134875Y0060141D01*
X0134875Y0060739D02*
X0172100Y0060739D01*
X0172100Y0061338D02*
X0134875Y0061338D01*
X0134875Y0061937D02*
X0172100Y0061937D01*
X0172100Y0062535D02*
X0134875Y0062535D01*
X0134875Y0063134D02*
X0172100Y0063134D01*
X0172279Y0063732D02*
X0134875Y0063732D01*
X0134658Y0064331D02*
X0172878Y0064331D01*
X0173476Y0064929D02*
X0019142Y0064929D01*
X0018832Y0065239D02*
X0016995Y0066000D01*
X0015005Y0066000D01*
X0013168Y0065239D01*
X0011761Y0063832D01*
X0011000Y0061995D01*
X0011000Y0060005D01*
X0011761Y0058168D01*
X0013168Y0056761D01*
X0015005Y0056000D01*
X0016995Y0056000D01*
X0018832Y0056761D01*
X0020239Y0058168D01*
X0021000Y0060005D01*
X0021000Y0061995D01*
X0020239Y0063832D01*
X0018832Y0065239D01*
X0018135Y0065528D02*
X0174075Y0065528D01*
X0174673Y0066126D02*
X0017299Y0066126D01*
X0016995Y0066000D02*
X0018832Y0066761D01*
X0020239Y0068168D01*
X0021000Y0070005D01*
X0021000Y0071995D01*
X0020239Y0073832D01*
X0018832Y0075239D01*
X0016995Y0076000D01*
X0015005Y0076000D01*
X0013168Y0075239D01*
X0011761Y0073832D01*
X0011000Y0071995D01*
X0011000Y0070005D01*
X0011761Y0068168D01*
X0013168Y0066761D01*
X0015005Y0066000D01*
X0016995Y0066000D01*
X0018744Y0066725D02*
X0175272Y0066725D01*
X0175870Y0067323D02*
X0134311Y0067323D01*
X0134875Y0067922D02*
X0176469Y0067922D01*
X0176615Y0068520D02*
X0134875Y0068520D01*
X0134875Y0069119D02*
X0176367Y0069119D01*
X0176119Y0069717D02*
X0134875Y0069717D01*
X0134875Y0070316D02*
X0176000Y0070316D01*
X0176000Y0070914D02*
X0134875Y0070914D01*
X0134875Y0071513D02*
X0176000Y0071513D01*
X0175636Y0072111D02*
X0134875Y0072111D01*
X0134875Y0072710D02*
X0175038Y0072710D01*
X0174439Y0073308D02*
X0134875Y0073308D01*
X0134875Y0073907D02*
X0173841Y0073907D01*
X0173242Y0074505D02*
X0134483Y0074505D01*
X0134486Y0077498D02*
X0172100Y0077498D01*
X0172100Y0078096D02*
X0134875Y0078096D01*
X0134875Y0078695D02*
X0172100Y0078695D01*
X0172100Y0079293D02*
X0134875Y0079293D01*
X0134875Y0079892D02*
X0172100Y0079892D01*
X0172100Y0080490D02*
X0134875Y0080490D01*
X0134875Y0081089D02*
X0172100Y0081089D01*
X0172100Y0081687D02*
X0134875Y0081687D01*
X0134875Y0082286D02*
X0172100Y0082286D01*
X0172100Y0082884D02*
X0134875Y0082884D01*
X0134875Y0083483D02*
X0172100Y0083483D01*
X0172100Y0084081D02*
X0134875Y0084081D01*
X0134308Y0084680D02*
X0172100Y0084680D01*
X0172100Y0085278D02*
X0021000Y0085278D01*
X0021000Y0085005D02*
X0020239Y0083168D01*
X0018832Y0081761D01*
X0016995Y0081000D01*
X0015005Y0081000D01*
X0013168Y0081761D01*
X0011761Y0083168D01*
X0011000Y0085005D01*
X0011000Y0086995D01*
X0011761Y0088832D01*
X0013168Y0090239D01*
X0015005Y0091000D01*
X0016995Y0091000D01*
X0018832Y0090239D01*
X0020239Y0088832D01*
X0021000Y0086995D01*
X0021000Y0085005D01*
X0020865Y0084680D02*
X0047692Y0084680D01*
X0047125Y0084081D02*
X0020617Y0084081D01*
X0020369Y0083483D02*
X0047125Y0083483D01*
X0047125Y0082884D02*
X0019955Y0082884D01*
X0019357Y0082286D02*
X0047125Y0082286D01*
X0047125Y0081687D02*
X0018654Y0081687D01*
X0017209Y0081089D02*
X0047125Y0081089D01*
X0047125Y0080490D02*
X0006000Y0080490D01*
X0006000Y0079892D02*
X0047125Y0079892D01*
X0047125Y0079293D02*
X0006000Y0079293D01*
X0006000Y0078695D02*
X0047125Y0078695D01*
X0047125Y0078096D02*
X0006000Y0078096D01*
X0006000Y0077498D02*
X0047514Y0077498D01*
X0047517Y0074505D02*
X0019566Y0074505D01*
X0020164Y0073907D02*
X0047125Y0073907D01*
X0047125Y0073308D02*
X0020456Y0073308D01*
X0020704Y0072710D02*
X0047125Y0072710D01*
X0047125Y0072111D02*
X0020952Y0072111D01*
X0021000Y0071513D02*
X0047125Y0071513D01*
X0047125Y0070914D02*
X0021000Y0070914D01*
X0021000Y0070316D02*
X0047125Y0070316D01*
X0047125Y0069717D02*
X0020881Y0069717D01*
X0020633Y0069119D02*
X0047125Y0069119D01*
X0047125Y0068520D02*
X0020385Y0068520D01*
X0019993Y0067922D02*
X0047125Y0067922D01*
X0047689Y0067323D02*
X0019394Y0067323D01*
X0019741Y0064331D02*
X0047342Y0064331D01*
X0047125Y0063732D02*
X0020280Y0063732D01*
X0020528Y0063134D02*
X0047125Y0063134D01*
X0047125Y0062535D02*
X0020776Y0062535D01*
X0021000Y0061937D02*
X0047125Y0061937D01*
X0047125Y0061338D02*
X0021000Y0061338D01*
X0021000Y0060739D02*
X0047125Y0060739D01*
X0047125Y0060141D02*
X0021000Y0060141D01*
X0020808Y0059542D02*
X0047125Y0059542D01*
X0047125Y0058944D02*
X0020560Y0058944D01*
X0020312Y0058345D02*
X0047125Y0058345D01*
X0047265Y0057747D02*
X0019818Y0057747D01*
X0019219Y0057148D02*
X0047863Y0057148D01*
X0047766Y0054754D02*
X0006000Y0054754D01*
X0006000Y0054156D02*
X0047168Y0054156D01*
X0047125Y0053557D02*
X0006000Y0053557D01*
X0006000Y0052959D02*
X0047125Y0052959D01*
X0047125Y0052360D02*
X0006000Y0052360D01*
X0006000Y0051762D02*
X0047125Y0051762D01*
X0047125Y0051163D02*
X0006000Y0051163D01*
X0006000Y0050565D02*
X0013955Y0050565D01*
X0012895Y0049966D02*
X0006000Y0049966D01*
X0006000Y0049368D02*
X0012297Y0049368D01*
X0011735Y0048769D02*
X0006000Y0048769D01*
X0006000Y0048171D02*
X0011487Y0048171D01*
X0011239Y0047572D02*
X0006000Y0047572D01*
X0006000Y0046974D02*
X0011000Y0046974D01*
X0011000Y0046375D02*
X0006000Y0046375D01*
X0006000Y0045777D02*
X0011000Y0045777D01*
X0011000Y0045178D02*
X0006000Y0045178D01*
X0006000Y0044580D02*
X0011176Y0044580D01*
X0011424Y0043981D02*
X0006000Y0043981D01*
X0006000Y0043383D02*
X0011672Y0043383D01*
X0012145Y0042784D02*
X0006000Y0042784D01*
X0006000Y0042186D02*
X0012743Y0042186D01*
X0013588Y0041587D02*
X0006000Y0041587D01*
X0006000Y0040989D02*
X0014978Y0040989D01*
X0013533Y0040390D02*
X0006000Y0040390D01*
X0006000Y0039792D02*
X0012721Y0039792D01*
X0012122Y0039193D02*
X0006000Y0039193D01*
X0006000Y0038595D02*
X0011663Y0038595D01*
X0011415Y0037996D02*
X0006000Y0037996D01*
X0006000Y0037398D02*
X0011167Y0037398D01*
X0011000Y0036799D02*
X0006000Y0036799D01*
X0006000Y0036201D02*
X0011000Y0036201D01*
X0011000Y0035602D02*
X0006000Y0035602D01*
X0006000Y0035003D02*
X0011001Y0035003D01*
X0011249Y0034405D02*
X0006000Y0034405D01*
X0006000Y0033806D02*
X0011497Y0033806D01*
X0011745Y0033208D02*
X0006000Y0033208D01*
X0006000Y0032609D02*
X0012319Y0032609D01*
X0012918Y0032011D02*
X0006000Y0032011D01*
X0006000Y0031412D02*
X0014010Y0031412D01*
X0017990Y0031412D02*
X0047125Y0031412D01*
X0047125Y0030814D02*
X0006000Y0030814D01*
X0006000Y0030215D02*
X0047125Y0030215D01*
X0047125Y0029617D02*
X0006000Y0029617D01*
X0006000Y0029018D02*
X0047125Y0029018D01*
X0047125Y0028420D02*
X0006000Y0028420D01*
X0006000Y0027821D02*
X0047191Y0027821D01*
X0047789Y0027223D02*
X0006000Y0027223D01*
X0006000Y0026624D02*
X0013923Y0026624D01*
X0011765Y0026026D02*
X0006000Y0026026D01*
X0006000Y0025427D02*
X0010729Y0025427D01*
X0009692Y0024829D02*
X0006000Y0024829D01*
X0006000Y0024230D02*
X0008957Y0024230D01*
X0008358Y0023632D02*
X0006000Y0023632D01*
X0006000Y0023033D02*
X0007760Y0023033D01*
X0007244Y0022435D02*
X0006000Y0022435D01*
X0006000Y0021836D02*
X0006899Y0021836D01*
X0006553Y0021238D02*
X0006000Y0021238D01*
X0006000Y0020639D02*
X0006208Y0020639D01*
X0018077Y0026624D02*
X0158923Y0026624D01*
X0156765Y0026026D02*
X0020235Y0026026D01*
X0021271Y0025427D02*
X0155729Y0025427D01*
X0154692Y0024829D02*
X0134159Y0024829D01*
X0134113Y0024875D02*
X0127887Y0024875D01*
X0127125Y0024113D01*
X0127125Y0017887D01*
X0127887Y0017125D01*
X0134113Y0017125D01*
X0134875Y0017887D01*
X0134875Y0024113D01*
X0134113Y0024875D01*
X0134758Y0024230D02*
X0153957Y0024230D01*
X0153358Y0023632D02*
X0134875Y0023632D01*
X0134875Y0023033D02*
X0152760Y0023033D01*
X0152244Y0022435D02*
X0134875Y0022435D01*
X0134875Y0021836D02*
X0151899Y0021836D01*
X0151553Y0021238D02*
X0134875Y0021238D01*
X0134875Y0020639D02*
X0151208Y0020639D01*
X0150902Y0020041D02*
X0134875Y0020041D01*
X0134875Y0019442D02*
X0150741Y0019442D01*
X0150581Y0018844D02*
X0134875Y0018844D01*
X0134875Y0018245D02*
X0150421Y0018245D01*
X0150260Y0017647D02*
X0134635Y0017647D01*
X0127365Y0017647D02*
X0054635Y0017647D01*
X0054875Y0017887D02*
X0054113Y0017125D01*
X0047887Y0017125D01*
X0047125Y0017887D01*
X0047125Y0024113D01*
X0047887Y0024875D01*
X0054113Y0024875D01*
X0054875Y0024113D01*
X0054875Y0017887D01*
X0054875Y0018245D02*
X0127125Y0018245D01*
X0127125Y0018844D02*
X0054875Y0018844D01*
X0054875Y0019442D02*
X0127125Y0019442D01*
X0127125Y0020041D02*
X0054875Y0020041D01*
X0054875Y0020639D02*
X0127125Y0020639D01*
X0127125Y0021238D02*
X0054875Y0021238D01*
X0054875Y0021836D02*
X0127125Y0021836D01*
X0127125Y0022435D02*
X0054875Y0022435D01*
X0054875Y0023033D02*
X0127125Y0023033D01*
X0127125Y0023632D02*
X0054875Y0023632D01*
X0054758Y0024230D02*
X0127242Y0024230D01*
X0127841Y0024829D02*
X0054159Y0024829D01*
X0054211Y0027223D02*
X0127908Y0027223D01*
X0127273Y0027821D02*
X0054809Y0027821D01*
X0054875Y0028420D02*
X0127125Y0028420D01*
X0127125Y0029018D02*
X0054875Y0029018D01*
X0054875Y0029617D02*
X0127125Y0029617D01*
X0127125Y0030215D02*
X0054875Y0030215D01*
X0047125Y0032011D02*
X0019082Y0032011D01*
X0019681Y0032609D02*
X0047125Y0032609D01*
X0047125Y0033208D02*
X0020255Y0033208D01*
X0020503Y0033806D02*
X0047125Y0033806D01*
X0047417Y0034405D02*
X0020751Y0034405D01*
X0020833Y0037398D02*
X0047614Y0037398D01*
X0047125Y0037996D02*
X0020585Y0037996D01*
X0020337Y0038595D02*
X0047125Y0038595D01*
X0047125Y0039193D02*
X0019878Y0039193D01*
X0019279Y0039792D02*
X0047125Y0039792D01*
X0047125Y0040390D02*
X0018467Y0040390D01*
X0018412Y0041587D02*
X0047125Y0041587D01*
X0047125Y0040989D02*
X0017022Y0040989D01*
X0019257Y0042186D02*
X0047125Y0042186D01*
X0047125Y0042784D02*
X0019855Y0042784D01*
X0020328Y0043383D02*
X0047125Y0043383D01*
X0047125Y0048171D02*
X0020513Y0048171D01*
X0020265Y0048769D02*
X0047125Y0048769D01*
X0047125Y0049368D02*
X0019703Y0049368D01*
X0019105Y0049966D02*
X0047125Y0049966D01*
X0047125Y0050565D02*
X0018045Y0050565D01*
X0018322Y0056550D02*
X0172100Y0056550D01*
X0172100Y0057148D02*
X0134136Y0057148D01*
X0134234Y0054754D02*
X0172100Y0054754D01*
X0172100Y0054156D02*
X0134832Y0054156D01*
X0134875Y0053557D02*
X0172100Y0053557D01*
X0172100Y0052959D02*
X0134875Y0052959D01*
X0134875Y0052360D02*
X0172100Y0052360D01*
X0172100Y0055353D02*
X0006000Y0055353D01*
X0006000Y0055951D02*
X0172100Y0055951D01*
X0183322Y0056550D02*
X0186000Y0056550D01*
X0186000Y0057148D02*
X0184219Y0057148D01*
X0184818Y0057747D02*
X0186000Y0057747D01*
X0186000Y0058345D02*
X0185312Y0058345D01*
X0185560Y0058944D02*
X0186000Y0058944D01*
X0186000Y0059542D02*
X0185808Y0059542D01*
X0186000Y0060141D02*
X0186000Y0060141D01*
X0186000Y0060739D02*
X0186000Y0060739D01*
X0186000Y0061338D02*
X0186000Y0061338D01*
X0186000Y0061937D02*
X0186000Y0061937D01*
X0186000Y0062535D02*
X0185776Y0062535D01*
X0186000Y0063134D02*
X0185528Y0063134D01*
X0185280Y0063732D02*
X0186000Y0063732D01*
X0186000Y0064331D02*
X0184741Y0064331D01*
X0184142Y0064929D02*
X0186000Y0064929D01*
X0186000Y0065528D02*
X0183135Y0065528D01*
X0182299Y0066126D02*
X0186000Y0066126D01*
X0186000Y0066725D02*
X0183744Y0066725D01*
X0184394Y0067323D02*
X0186000Y0067323D01*
X0186000Y0067922D02*
X0184993Y0067922D01*
X0185385Y0068520D02*
X0186000Y0068520D01*
X0186000Y0069119D02*
X0185633Y0069119D01*
X0185881Y0069717D02*
X0186000Y0069717D01*
X0186000Y0070316D02*
X0186000Y0070316D01*
X0186000Y0070914D02*
X0186000Y0070914D01*
X0186000Y0071513D02*
X0186000Y0071513D01*
X0186000Y0072111D02*
X0185952Y0072111D01*
X0186000Y0072710D02*
X0185704Y0072710D01*
X0185456Y0073308D02*
X0186000Y0073308D01*
X0186000Y0073907D02*
X0185164Y0073907D01*
X0184566Y0074505D02*
X0186000Y0074505D01*
X0186000Y0075104D02*
X0183967Y0075104D01*
X0182713Y0075702D02*
X0186000Y0075702D01*
X0186000Y0076301D02*
X0177952Y0076301D01*
X0177353Y0076899D02*
X0186000Y0076899D01*
X0186000Y0077498D02*
X0176755Y0077498D01*
X0176700Y0078096D02*
X0186000Y0078096D01*
X0186000Y0078695D02*
X0176700Y0078695D01*
X0176700Y0079293D02*
X0186000Y0079293D01*
X0186000Y0079892D02*
X0176700Y0079892D01*
X0176700Y0080490D02*
X0186000Y0080490D01*
X0186000Y0081089D02*
X0182209Y0081089D01*
X0183654Y0081687D02*
X0186000Y0081687D01*
X0186000Y0082286D02*
X0184357Y0082286D01*
X0184955Y0082884D02*
X0186000Y0082884D01*
X0186000Y0083483D02*
X0185369Y0083483D01*
X0185617Y0084081D02*
X0186000Y0084081D01*
X0186000Y0084680D02*
X0185865Y0084680D01*
X0186000Y0085278D02*
X0186000Y0085278D01*
X0186000Y0085877D02*
X0186000Y0085877D01*
X0186000Y0086475D02*
X0186000Y0086475D01*
X0185967Y0087074D02*
X0186000Y0087074D01*
X0186000Y0087672D02*
X0185719Y0087672D01*
X0185471Y0088271D02*
X0186000Y0088271D01*
X0186000Y0088870D02*
X0185202Y0088870D01*
X0184603Y0089468D02*
X0186000Y0089468D01*
X0186000Y0090067D02*
X0184005Y0090067D01*
X0182803Y0090665D02*
X0186000Y0090665D01*
X0186000Y0091264D02*
X0182631Y0091264D01*
X0181995Y0091000D02*
X0180005Y0091000D01*
X0179615Y0091162D01*
X0179062Y0090609D01*
X0180005Y0091000D01*
X0181995Y0091000D01*
X0183933Y0091862D02*
X0186000Y0091862D01*
X0186000Y0092461D02*
X0184532Y0092461D01*
X0185130Y0093059D02*
X0186000Y0093059D01*
X0186000Y0093658D02*
X0185442Y0093658D01*
X0185690Y0094256D02*
X0186000Y0094256D01*
X0186000Y0094855D02*
X0185938Y0094855D01*
X0186000Y0095453D02*
X0186000Y0095453D01*
X0186000Y0096052D02*
X0186000Y0096052D01*
X0186000Y0096650D02*
X0186000Y0096650D01*
X0186000Y0097249D02*
X0185895Y0097249D01*
X0186000Y0097847D02*
X0185647Y0097847D01*
X0185399Y0098446D02*
X0186000Y0098446D01*
X0186000Y0099044D02*
X0185027Y0099044D01*
X0184428Y0099643D02*
X0186000Y0099643D01*
X0186000Y0100241D02*
X0183826Y0100241D01*
X0182381Y0100840D02*
X0186000Y0100840D01*
X0186000Y0101438D02*
X0178014Y0101438D01*
X0177416Y0102037D02*
X0186000Y0102037D01*
X0186000Y0102635D02*
X0176817Y0102635D01*
X0176700Y0103234D02*
X0186000Y0103234D01*
X0186000Y0103832D02*
X0176700Y0103832D01*
X0176700Y0104431D02*
X0186000Y0104431D01*
X0186000Y0105029D02*
X0176700Y0105029D01*
X0176700Y0105628D02*
X0186000Y0105628D01*
X0186000Y0106226D02*
X0182541Y0106226D01*
X0183896Y0106825D02*
X0186000Y0106825D01*
X0186000Y0107423D02*
X0184494Y0107423D01*
X0185093Y0108022D02*
X0186000Y0108022D01*
X0186000Y0108620D02*
X0185426Y0108620D01*
X0185674Y0109219D02*
X0186000Y0109219D01*
X0186000Y0109817D02*
X0185922Y0109817D01*
X0186000Y0110416D02*
X0186000Y0110416D01*
X0186000Y0111014D02*
X0186000Y0111014D01*
X0186000Y0111613D02*
X0186000Y0111613D01*
X0186000Y0112211D02*
X0185910Y0112211D01*
X0186000Y0112810D02*
X0185662Y0112810D01*
X0185414Y0113408D02*
X0186000Y0113408D01*
X0186000Y0114007D02*
X0185064Y0114007D01*
X0184466Y0114605D02*
X0186000Y0114605D01*
X0186000Y0115204D02*
X0183867Y0115204D01*
X0182963Y0116401D02*
X0186000Y0116401D01*
X0186000Y0115803D02*
X0182471Y0115803D01*
X0181995Y0116000D02*
X0180005Y0116000D01*
X0179473Y0116220D01*
X0178720Y0115468D01*
X0180005Y0116000D01*
X0181995Y0116000D01*
X0184071Y0117000D02*
X0186000Y0117000D01*
X0186000Y0117598D02*
X0184669Y0117598D01*
X0185251Y0118197D02*
X0186000Y0118197D01*
X0186000Y0118795D02*
X0185499Y0118795D01*
X0185747Y0119394D02*
X0186000Y0119394D01*
X0185994Y0119992D02*
X0186000Y0119992D01*
X0186000Y0120591D02*
X0186000Y0120591D01*
X0186000Y0121189D02*
X0186000Y0121189D01*
X0186000Y0121788D02*
X0186000Y0121788D01*
X0186000Y0122386D02*
X0185838Y0122386D01*
X0186000Y0122985D02*
X0185590Y0122985D01*
X0185342Y0123583D02*
X0186000Y0123583D01*
X0186000Y0124182D02*
X0184889Y0124182D01*
X0184291Y0124780D02*
X0186000Y0124780D01*
X0186000Y0125379D02*
X0183494Y0125379D01*
X0182050Y0125977D02*
X0186000Y0125977D01*
X0186000Y0126576D02*
X0006000Y0126576D01*
X0006000Y0127174D02*
X0047838Y0127174D01*
X0047239Y0127773D02*
X0006000Y0127773D01*
X0006000Y0128371D02*
X0047125Y0128371D01*
X0047125Y0128970D02*
X0006000Y0128970D01*
X0006000Y0129568D02*
X0047125Y0129568D01*
X0047125Y0130167D02*
X0006000Y0130167D01*
X0006000Y0130765D02*
X0047125Y0130765D01*
X0047792Y0124780D02*
X0019291Y0124780D01*
X0018832Y0125239D02*
X0020239Y0123832D01*
X0021000Y0121995D01*
X0021000Y0120005D01*
X0020545Y0118907D01*
X0022753Y0116700D01*
X0024100Y0115353D01*
X0024100Y0100847D01*
X0020780Y0097527D01*
X0021000Y0096995D01*
X0021000Y0095005D01*
X0020239Y0093168D01*
X0018832Y0091761D01*
X0016995Y0091000D01*
X0015005Y0091000D01*
X0013168Y0091761D01*
X0011761Y0093168D01*
X0011000Y0095005D01*
X0011000Y0096995D01*
X0011761Y0098832D01*
X0013168Y0100239D01*
X0015005Y0101000D01*
X0016995Y0101000D01*
X0017527Y0100780D01*
X0019500Y0102753D01*
X0019500Y0107429D01*
X0018832Y0106761D01*
X0016995Y0106000D01*
X0015005Y0106000D01*
X0013168Y0106761D01*
X0011761Y0108168D01*
X0011000Y0110005D01*
X0011000Y0111995D01*
X0011761Y0113832D01*
X0013168Y0115239D01*
X0015005Y0116000D01*
X0016947Y0116000D01*
X0016947Y0116000D01*
X0015005Y0116000D01*
X0013168Y0116761D01*
X0011761Y0118168D01*
X0011000Y0120005D01*
X0011000Y0121995D01*
X0011761Y0123832D01*
X0013168Y0125239D01*
X0015005Y0126000D01*
X0016995Y0126000D01*
X0018832Y0125239D01*
X0018494Y0125379D02*
X0178506Y0125379D01*
X0177709Y0124780D02*
X0134208Y0124780D01*
X0134806Y0124182D02*
X0177111Y0124182D01*
X0176658Y0123583D02*
X0134875Y0123583D01*
X0134875Y0122985D02*
X0176410Y0122985D01*
X0176162Y0122386D02*
X0134875Y0122386D01*
X0134875Y0121788D02*
X0176000Y0121788D01*
X0176000Y0121189D02*
X0134875Y0121189D01*
X0134875Y0120591D02*
X0176000Y0120591D01*
X0176006Y0119992D02*
X0134875Y0119992D01*
X0134875Y0119394D02*
X0176141Y0119394D01*
X0175542Y0118795D02*
X0134875Y0118795D01*
X0134875Y0118197D02*
X0174944Y0118197D01*
X0174345Y0117598D02*
X0134586Y0117598D01*
X0134383Y0114605D02*
X0172100Y0114605D01*
X0172100Y0114007D02*
X0134875Y0114007D01*
X0134875Y0113408D02*
X0172100Y0113408D01*
X0172100Y0112810D02*
X0134875Y0112810D01*
X0134875Y0112211D02*
X0172100Y0112211D01*
X0172100Y0111613D02*
X0134875Y0111613D01*
X0134875Y0111014D02*
X0172100Y0111014D01*
X0172100Y0110416D02*
X0134875Y0110416D01*
X0134875Y0109817D02*
X0172100Y0109817D01*
X0172100Y0109219D02*
X0134875Y0109219D01*
X0134875Y0108620D02*
X0172100Y0108620D01*
X0172100Y0108022D02*
X0134875Y0108022D01*
X0134411Y0107423D02*
X0172100Y0107423D01*
X0172100Y0106825D02*
X0024100Y0106825D01*
X0024100Y0107423D02*
X0047589Y0107423D01*
X0047125Y0108022D02*
X0024100Y0108022D01*
X0024100Y0108620D02*
X0047125Y0108620D01*
X0047125Y0109219D02*
X0024100Y0109219D01*
X0024100Y0109817D02*
X0047125Y0109817D01*
X0047125Y0110416D02*
X0024100Y0110416D01*
X0024100Y0111014D02*
X0047125Y0111014D01*
X0047125Y0111613D02*
X0024100Y0111613D01*
X0024100Y0112211D02*
X0047125Y0112211D01*
X0047125Y0112810D02*
X0024100Y0112810D01*
X0024100Y0113408D02*
X0047125Y0113408D01*
X0047125Y0114007D02*
X0024100Y0114007D01*
X0024100Y0114605D02*
X0047617Y0114605D01*
X0047414Y0117598D02*
X0021855Y0117598D01*
X0022453Y0117000D02*
X0173747Y0117000D01*
X0173148Y0116401D02*
X0023052Y0116401D01*
X0023650Y0115803D02*
X0172550Y0115803D01*
X0172100Y0115204D02*
X0024100Y0115204D01*
X0021256Y0118197D02*
X0047125Y0118197D01*
X0047125Y0118795D02*
X0020658Y0118795D01*
X0020747Y0119394D02*
X0047125Y0119394D01*
X0047125Y0119992D02*
X0020994Y0119992D01*
X0021000Y0120591D02*
X0047125Y0120591D01*
X0047125Y0121189D02*
X0021000Y0121189D01*
X0021000Y0121788D02*
X0047125Y0121788D01*
X0047125Y0122386D02*
X0020838Y0122386D01*
X0020590Y0122985D02*
X0047125Y0122985D01*
X0047125Y0123583D02*
X0020342Y0123583D01*
X0019889Y0124182D02*
X0047194Y0124182D01*
X0047443Y0104431D02*
X0024100Y0104431D01*
X0024100Y0105029D02*
X0172100Y0105029D01*
X0172100Y0104431D02*
X0134557Y0104431D01*
X0134875Y0103832D02*
X0172100Y0103832D01*
X0172100Y0103234D02*
X0134875Y0103234D01*
X0134875Y0102635D02*
X0172100Y0102635D01*
X0172100Y0102037D02*
X0134875Y0102037D01*
X0134875Y0101438D02*
X0172100Y0101438D01*
X0172108Y0100840D02*
X0134875Y0100840D01*
X0134875Y0100241D02*
X0172706Y0100241D01*
X0173305Y0099643D02*
X0134875Y0099643D01*
X0134875Y0099044D02*
X0173903Y0099044D01*
X0174502Y0098446D02*
X0134875Y0098446D01*
X0134835Y0097847D02*
X0175100Y0097847D01*
X0175699Y0097249D02*
X0134237Y0097249D01*
X0134133Y0094855D02*
X0176062Y0094855D01*
X0176000Y0095453D02*
X0021000Y0095453D01*
X0021000Y0096052D02*
X0176000Y0096052D01*
X0176000Y0096650D02*
X0021000Y0096650D01*
X0020895Y0097249D02*
X0047763Y0097249D01*
X0047165Y0097847D02*
X0021100Y0097847D01*
X0021698Y0098446D02*
X0047125Y0098446D01*
X0047125Y0099044D02*
X0022297Y0099044D01*
X0022895Y0099643D02*
X0047125Y0099643D01*
X0047125Y0100241D02*
X0023494Y0100241D01*
X0024092Y0100840D02*
X0047125Y0100840D01*
X0047125Y0101438D02*
X0024100Y0101438D01*
X0024100Y0102037D02*
X0047125Y0102037D01*
X0047125Y0102635D02*
X0024100Y0102635D01*
X0024100Y0103234D02*
X0047125Y0103234D01*
X0047125Y0103832D02*
X0024100Y0103832D01*
X0024100Y0105628D02*
X0172100Y0105628D01*
X0172100Y0106226D02*
X0024100Y0106226D01*
X0019500Y0106226D02*
X0017541Y0106226D01*
X0018896Y0106825D02*
X0019500Y0106825D01*
X0019494Y0107423D02*
X0019500Y0107423D01*
X0019500Y0105628D02*
X0006000Y0105628D01*
X0006000Y0106226D02*
X0014459Y0106226D01*
X0013104Y0106825D02*
X0006000Y0106825D01*
X0006000Y0107423D02*
X0012506Y0107423D01*
X0011907Y0108022D02*
X0006000Y0108022D01*
X0006000Y0108620D02*
X0011574Y0108620D01*
X0011326Y0109219D02*
X0006000Y0109219D01*
X0006000Y0109817D02*
X0011078Y0109817D01*
X0011000Y0110416D02*
X0006000Y0110416D01*
X0006000Y0111014D02*
X0011000Y0111014D01*
X0011000Y0111613D02*
X0006000Y0111613D01*
X0006000Y0112211D02*
X0011090Y0112211D01*
X0011338Y0112810D02*
X0006000Y0112810D01*
X0006000Y0113408D02*
X0011586Y0113408D01*
X0011936Y0114007D02*
X0006000Y0114007D01*
X0006000Y0114605D02*
X0012534Y0114605D01*
X0013133Y0115204D02*
X0006000Y0115204D01*
X0006000Y0115803D02*
X0014529Y0115803D01*
X0014037Y0116401D02*
X0006000Y0116401D01*
X0006000Y0117000D02*
X0012929Y0117000D01*
X0012331Y0117598D02*
X0006000Y0117598D01*
X0006000Y0118197D02*
X0011749Y0118197D01*
X0011501Y0118795D02*
X0006000Y0118795D01*
X0006000Y0119394D02*
X0011253Y0119394D01*
X0011006Y0119992D02*
X0006000Y0119992D01*
X0006000Y0120591D02*
X0011000Y0120591D01*
X0011000Y0121189D02*
X0006000Y0121189D01*
X0006000Y0121788D02*
X0011000Y0121788D01*
X0011162Y0122386D02*
X0006000Y0122386D01*
X0006000Y0122985D02*
X0011410Y0122985D01*
X0011658Y0123583D02*
X0006000Y0123583D01*
X0006000Y0124182D02*
X0012111Y0124182D01*
X0012709Y0124780D02*
X0006000Y0124780D01*
X0006000Y0125379D02*
X0013506Y0125379D01*
X0014950Y0125977D02*
X0006000Y0125977D01*
X0017050Y0125977D02*
X0179950Y0125977D01*
X0182912Y0131364D02*
X0186000Y0131364D01*
X0186000Y0131962D02*
X0183949Y0131962D01*
X0184632Y0132561D02*
X0186000Y0132561D01*
X0186000Y0133159D02*
X0185116Y0133159D01*
X0185469Y0133758D02*
X0186000Y0133758D01*
X0186000Y0134356D02*
X0185723Y0134356D01*
X0185897Y0134955D02*
X0186000Y0134955D01*
X0185992Y0135553D02*
X0186000Y0135553D01*
X0186000Y0136152D02*
X0181300Y0136152D01*
X0181300Y0136750D02*
X0180700Y0136750D01*
X0180700Y0137349D02*
X0181300Y0137349D01*
X0181300Y0137947D02*
X0180700Y0137947D01*
X0180700Y0138546D02*
X0181300Y0138546D01*
X0181300Y0139144D02*
X0180700Y0139144D01*
X0180700Y0139743D02*
X0181300Y0139743D01*
X0181300Y0140341D02*
X0180700Y0140341D01*
X0178507Y0140341D02*
X0134875Y0140341D01*
X0134875Y0139743D02*
X0177672Y0139743D01*
X0177104Y0139144D02*
X0134875Y0139144D01*
X0134875Y0138546D02*
X0176686Y0138546D01*
X0176381Y0137947D02*
X0134875Y0137947D01*
X0134337Y0137349D02*
X0176181Y0137349D01*
X0183493Y0140341D02*
X0186000Y0140341D01*
X0186000Y0139743D02*
X0184328Y0139743D01*
X0184896Y0139144D02*
X0186000Y0139144D01*
X0186000Y0138546D02*
X0185314Y0138546D01*
X0185619Y0137947D02*
X0186000Y0137947D01*
X0186000Y0137349D02*
X0185819Y0137349D01*
X0185943Y0136750D02*
X0186000Y0136750D01*
X0186000Y0130765D02*
X0134875Y0130765D01*
X0134875Y0130167D02*
X0186000Y0130167D01*
X0186000Y0129568D02*
X0134875Y0129568D01*
X0134875Y0128970D02*
X0186000Y0128970D01*
X0186000Y0128371D02*
X0134875Y0128371D01*
X0134761Y0127773D02*
X0186000Y0127773D01*
X0186000Y0127174D02*
X0134162Y0127174D01*
X0134732Y0094256D02*
X0176203Y0094256D01*
X0175605Y0093658D02*
X0134875Y0093658D01*
X0134875Y0093059D02*
X0175006Y0093059D01*
X0174408Y0092461D02*
X0134875Y0092461D01*
X0134875Y0091862D02*
X0173809Y0091862D01*
X0173211Y0091264D02*
X0134875Y0091264D01*
X0134875Y0090665D02*
X0172612Y0090665D01*
X0172100Y0090067D02*
X0134875Y0090067D01*
X0134875Y0089468D02*
X0172100Y0089468D01*
X0172100Y0088870D02*
X0134875Y0088870D01*
X0134875Y0088271D02*
X0172100Y0088271D01*
X0172100Y0087672D02*
X0134661Y0087672D01*
X0172100Y0087074D02*
X0020967Y0087074D01*
X0021000Y0086475D02*
X0172100Y0086475D01*
X0172100Y0085877D02*
X0021000Y0085877D01*
X0020719Y0087672D02*
X0047339Y0087672D01*
X0047125Y0088271D02*
X0020471Y0088271D01*
X0020202Y0088870D02*
X0047125Y0088870D01*
X0047125Y0089468D02*
X0019603Y0089468D01*
X0019005Y0090067D02*
X0047125Y0090067D01*
X0047125Y0090665D02*
X0017803Y0090665D01*
X0017631Y0091264D02*
X0047125Y0091264D01*
X0047125Y0091862D02*
X0018933Y0091862D01*
X0019532Y0092461D02*
X0047125Y0092461D01*
X0047125Y0093059D02*
X0020130Y0093059D01*
X0020442Y0093658D02*
X0047125Y0093658D01*
X0047268Y0094256D02*
X0020690Y0094256D01*
X0020938Y0094855D02*
X0047867Y0094855D01*
X0019383Y0102635D02*
X0006000Y0102635D01*
X0006000Y0102037D02*
X0018784Y0102037D01*
X0018186Y0101438D02*
X0006000Y0101438D01*
X0006000Y0100840D02*
X0014619Y0100840D01*
X0013174Y0100241D02*
X0006000Y0100241D01*
X0006000Y0099643D02*
X0012572Y0099643D01*
X0011973Y0099044D02*
X0006000Y0099044D01*
X0006000Y0098446D02*
X0011601Y0098446D01*
X0011353Y0097847D02*
X0006000Y0097847D01*
X0006000Y0097249D02*
X0011105Y0097249D01*
X0011000Y0096650D02*
X0006000Y0096650D01*
X0006000Y0096052D02*
X0011000Y0096052D01*
X0011000Y0095453D02*
X0006000Y0095453D01*
X0006000Y0094855D02*
X0011062Y0094855D01*
X0011310Y0094256D02*
X0006000Y0094256D01*
X0006000Y0093658D02*
X0011558Y0093658D01*
X0011870Y0093059D02*
X0006000Y0093059D01*
X0006000Y0092461D02*
X0012468Y0092461D01*
X0013067Y0091862D02*
X0006000Y0091862D01*
X0006000Y0091264D02*
X0014369Y0091264D01*
X0014197Y0090665D02*
X0006000Y0090665D01*
X0006000Y0090067D02*
X0012995Y0090067D01*
X0012397Y0089468D02*
X0006000Y0089468D01*
X0006000Y0088870D02*
X0011798Y0088870D01*
X0011529Y0088271D02*
X0006000Y0088271D01*
X0006000Y0087672D02*
X0011281Y0087672D01*
X0011033Y0087074D02*
X0006000Y0087074D01*
X0006000Y0086475D02*
X0011000Y0086475D01*
X0011000Y0085877D02*
X0006000Y0085877D01*
X0006000Y0085278D02*
X0011000Y0085278D01*
X0011135Y0084680D02*
X0006000Y0084680D01*
X0006000Y0084081D02*
X0011383Y0084081D01*
X0011631Y0083483D02*
X0006000Y0083483D01*
X0006000Y0082884D02*
X0012045Y0082884D01*
X0012643Y0082286D02*
X0006000Y0082286D01*
X0006000Y0081687D02*
X0013346Y0081687D01*
X0014791Y0081089D02*
X0006000Y0081089D01*
X0006000Y0076899D02*
X0172100Y0076899D01*
X0172100Y0076301D02*
X0006000Y0076301D01*
X0006000Y0075702D02*
X0014287Y0075702D01*
X0013033Y0075104D02*
X0006000Y0075104D01*
X0006000Y0074505D02*
X0012434Y0074505D01*
X0011836Y0073907D02*
X0006000Y0073907D01*
X0006000Y0073308D02*
X0011544Y0073308D01*
X0011296Y0072710D02*
X0006000Y0072710D01*
X0006000Y0072111D02*
X0011048Y0072111D01*
X0011000Y0071513D02*
X0006000Y0071513D01*
X0006000Y0070914D02*
X0011000Y0070914D01*
X0011000Y0070316D02*
X0006000Y0070316D01*
X0006000Y0069717D02*
X0011119Y0069717D01*
X0011367Y0069119D02*
X0006000Y0069119D01*
X0006000Y0068520D02*
X0011615Y0068520D01*
X0012007Y0067922D02*
X0006000Y0067922D01*
X0006000Y0067323D02*
X0012606Y0067323D01*
X0013256Y0066725D02*
X0006000Y0066725D01*
X0006000Y0066126D02*
X0014701Y0066126D01*
X0013865Y0065528D02*
X0006000Y0065528D01*
X0006000Y0064929D02*
X0012858Y0064929D01*
X0012259Y0064331D02*
X0006000Y0064331D01*
X0006000Y0063732D02*
X0011720Y0063732D01*
X0011472Y0063134D02*
X0006000Y0063134D01*
X0006000Y0062535D02*
X0011224Y0062535D01*
X0011000Y0061937D02*
X0006000Y0061937D01*
X0006000Y0061338D02*
X0011000Y0061338D01*
X0011000Y0060739D02*
X0006000Y0060739D01*
X0006000Y0060141D02*
X0011000Y0060141D01*
X0011192Y0059542D02*
X0006000Y0059542D01*
X0006000Y0058944D02*
X0011440Y0058944D01*
X0011688Y0058345D02*
X0006000Y0058345D01*
X0006000Y0057747D02*
X0012182Y0057747D01*
X0012781Y0057148D02*
X0006000Y0057148D01*
X0006000Y0056550D02*
X0013678Y0056550D01*
X0018967Y0075104D02*
X0172644Y0075104D01*
X0172100Y0075702D02*
X0017713Y0075702D01*
X0017587Y0100840D02*
X0017381Y0100840D01*
X0019500Y0103234D02*
X0006000Y0103234D01*
X0006000Y0103832D02*
X0019500Y0103832D01*
X0019500Y0104431D02*
X0006000Y0104431D01*
X0006000Y0105029D02*
X0019500Y0105029D01*
X0022308Y0024829D02*
X0047841Y0024829D01*
X0047242Y0024230D02*
X0023043Y0024230D01*
X0023642Y0023632D02*
X0047125Y0023632D01*
X0047125Y0023033D02*
X0024240Y0023033D01*
X0024756Y0022435D02*
X0047125Y0022435D01*
X0047125Y0021836D02*
X0025101Y0021836D01*
X0025447Y0021238D02*
X0047125Y0021238D01*
X0047125Y0020639D02*
X0025792Y0020639D01*
X0026098Y0020041D02*
X0047125Y0020041D01*
X0047125Y0019442D02*
X0026259Y0019442D01*
X0026419Y0018844D02*
X0047125Y0018844D01*
X0047125Y0018245D02*
X0026579Y0018245D01*
X0026740Y0017647D02*
X0047365Y0017647D01*
X0026800Y0017048D02*
X0150200Y0017048D01*
X0150200Y0016450D02*
X0026800Y0016450D01*
X0026800Y0015851D02*
X0150200Y0015851D01*
X0150200Y0015253D02*
X0026800Y0015253D01*
X0026800Y0014654D02*
X0150200Y0014654D01*
X0150340Y0014056D02*
X0026660Y0014056D01*
X0026500Y0013457D02*
X0150500Y0013457D01*
X0150661Y0012859D02*
X0026339Y0012859D01*
X0026179Y0012260D02*
X0150821Y0012260D01*
X0151034Y0011662D02*
X0025966Y0011662D01*
X0025620Y0011063D02*
X0151380Y0011063D01*
X0151725Y0010465D02*
X0025275Y0010465D01*
X0024929Y0009866D02*
X0152071Y0009866D01*
X0152459Y0009268D02*
X0024541Y0009268D01*
X0023942Y0008669D02*
X0153057Y0008669D01*
X0153656Y0008070D02*
X0023344Y0008070D01*
X0022745Y0007472D02*
X0154255Y0007472D01*
X0155208Y0006873D02*
X0021792Y0006873D01*
X0020756Y0006275D02*
X0156244Y0006275D01*
X0165756Y0006275D02*
X0186000Y0006275D01*
X0186000Y0006873D02*
X0166792Y0006873D01*
X0167745Y0007472D02*
X0186000Y0007472D01*
X0186000Y0008070D02*
X0168344Y0008070D01*
X0168942Y0008669D02*
X0186000Y0008669D01*
X0186000Y0009268D02*
X0169541Y0009268D01*
X0169929Y0009866D02*
X0186000Y0009866D01*
X0186000Y0010465D02*
X0170275Y0010465D01*
X0170620Y0011063D02*
X0186000Y0011063D01*
X0186000Y0011662D02*
X0170966Y0011662D01*
X0171179Y0012260D02*
X0186000Y0012260D01*
X0186000Y0012859D02*
X0171339Y0012859D01*
X0171500Y0013457D02*
X0186000Y0013457D01*
X0186000Y0014056D02*
X0171660Y0014056D01*
X0171800Y0014654D02*
X0186000Y0014654D01*
X0186000Y0015253D02*
X0171800Y0015253D01*
X0171800Y0015851D02*
X0186000Y0015851D01*
X0186000Y0016450D02*
X0171800Y0016450D01*
X0171800Y0017048D02*
X0186000Y0017048D01*
X0186000Y0017647D02*
X0171740Y0017647D01*
X0171579Y0018245D02*
X0186000Y0018245D01*
X0186000Y0018844D02*
X0171419Y0018844D01*
X0171259Y0019442D02*
X0186000Y0019442D01*
X0186000Y0020041D02*
X0171098Y0020041D01*
X0170792Y0020639D02*
X0186000Y0020639D01*
X0186000Y0021238D02*
X0170447Y0021238D01*
X0170101Y0021836D02*
X0186000Y0021836D01*
X0186000Y0022435D02*
X0169756Y0022435D01*
X0169240Y0023033D02*
X0186000Y0023033D01*
X0186000Y0023632D02*
X0168642Y0023632D01*
X0168043Y0024230D02*
X0186000Y0024230D01*
X0186000Y0024829D02*
X0167308Y0024829D01*
X0166271Y0025427D02*
X0186000Y0025427D01*
X0186000Y0026026D02*
X0165235Y0026026D01*
X0163077Y0026624D02*
X0186000Y0026624D01*
X0186000Y0027223D02*
X0134092Y0027223D01*
X0134727Y0027821D02*
X0186000Y0027821D01*
X0186000Y0028420D02*
X0134875Y0028420D01*
X0134875Y0029018D02*
X0186000Y0029018D01*
X0186000Y0029617D02*
X0134875Y0029617D01*
X0134875Y0030215D02*
X0186000Y0030215D01*
X0186000Y0032011D02*
X0184082Y0032011D01*
X0184681Y0032609D02*
X0186000Y0032609D01*
X0186000Y0033208D02*
X0185255Y0033208D01*
X0185503Y0033806D02*
X0186000Y0033806D01*
X0186000Y0034405D02*
X0185751Y0034405D01*
X0185999Y0035003D02*
X0186000Y0035003D01*
X0186000Y0035602D02*
X0186000Y0035602D01*
X0186000Y0036201D02*
X0186000Y0036201D01*
X0186000Y0036799D02*
X0186000Y0036799D01*
X0186000Y0037398D02*
X0185833Y0037398D01*
X0186000Y0037996D02*
X0185585Y0037996D01*
X0185337Y0038595D02*
X0186000Y0038595D01*
X0186000Y0039193D02*
X0184878Y0039193D01*
X0184279Y0039792D02*
X0186000Y0039792D01*
X0186000Y0040390D02*
X0183467Y0040390D01*
X0201000Y0040390D02*
X0208533Y0040390D01*
X0208168Y0040239D02*
X0210005Y0041000D01*
X0211995Y0041000D01*
X0213832Y0040239D01*
X0215239Y0038832D01*
X0216000Y0036995D01*
X0216000Y0035005D01*
X0215239Y0033168D01*
X0213832Y0031761D01*
X0211995Y0031000D01*
X0210005Y0031000D01*
X0208168Y0031761D01*
X0206761Y0033168D01*
X0206000Y0035005D01*
X0206000Y0036995D01*
X0206761Y0038832D01*
X0208168Y0040239D01*
X0207721Y0039792D02*
X0201000Y0039792D01*
X0201000Y0039193D02*
X0207122Y0039193D01*
X0206663Y0038595D02*
X0201000Y0038595D01*
X0201000Y0037996D02*
X0206415Y0037996D01*
X0206167Y0037398D02*
X0201000Y0037398D01*
X0201000Y0036799D02*
X0206000Y0036799D01*
X0206000Y0036201D02*
X0201000Y0036201D01*
X0201000Y0035602D02*
X0206000Y0035602D01*
X0206001Y0035003D02*
X0201000Y0035003D01*
X0201000Y0034405D02*
X0206249Y0034405D01*
X0206497Y0033806D02*
X0201000Y0033806D01*
X0201000Y0033208D02*
X0206745Y0033208D01*
X0207319Y0032609D02*
X0201000Y0032609D01*
X0201000Y0032011D02*
X0207918Y0032011D01*
X0209010Y0031412D02*
X0201000Y0031412D01*
X0201000Y0030814D02*
X0242125Y0030814D01*
X0242125Y0031412D02*
X0212990Y0031412D01*
X0214082Y0032011D02*
X0242125Y0032011D01*
X0242125Y0032609D02*
X0214681Y0032609D01*
X0215255Y0033208D02*
X0242125Y0033208D01*
X0242125Y0033806D02*
X0215503Y0033806D01*
X0215751Y0034405D02*
X0242417Y0034405D01*
X0242125Y0034113D02*
X0242125Y0027887D01*
X0242887Y0027125D01*
X0249113Y0027125D01*
X0249875Y0027887D01*
X0249875Y0034113D01*
X0249113Y0034875D01*
X0242887Y0034875D01*
X0242125Y0034113D01*
X0242887Y0037125D02*
X0249113Y0037125D01*
X0249875Y0037887D01*
X0249875Y0043500D01*
X0322125Y0043500D01*
X0322125Y0037887D01*
X0322887Y0037125D01*
X0329113Y0037125D01*
X0329875Y0037887D01*
X0329875Y0044113D01*
X0329113Y0044875D01*
X0324127Y0044875D01*
X0326378Y0047125D01*
X0329113Y0047125D01*
X0329688Y0047700D01*
X0371247Y0047700D01*
X0371279Y0047668D01*
X0371000Y0046995D01*
X0371000Y0045005D01*
X0371761Y0043168D01*
X0373168Y0041761D01*
X0375005Y0041000D01*
X0373168Y0040239D01*
X0371761Y0038832D01*
X0371000Y0036995D01*
X0371000Y0035005D01*
X0371761Y0033168D01*
X0373168Y0031761D01*
X0375005Y0031000D01*
X0376995Y0031000D01*
X0378832Y0031761D01*
X0380239Y0033168D01*
X0380401Y0033559D01*
X0380401Y0006000D01*
X0360279Y0006000D01*
X0362631Y0007358D01*
X0364642Y0009369D01*
X0366064Y0011831D01*
X0366800Y0014578D01*
X0366800Y0017422D01*
X0366064Y0020169D01*
X0364642Y0022631D01*
X0362631Y0024642D01*
X0360169Y0026064D01*
X0357422Y0026800D01*
X0354578Y0026800D01*
X0351831Y0026064D01*
X0349369Y0024642D01*
X0347358Y0022631D01*
X0345936Y0020169D01*
X0345200Y0017422D01*
X0345200Y0014578D01*
X0345936Y0011831D01*
X0347358Y0009369D01*
X0349369Y0007358D01*
X0351721Y0006000D01*
X0215279Y0006000D01*
X0217631Y0007358D01*
X0219642Y0009369D01*
X0221064Y0011831D01*
X0221800Y0014578D01*
X0221800Y0017422D01*
X0221064Y0020169D01*
X0219642Y0022631D01*
X0217631Y0024642D01*
X0215169Y0026064D01*
X0212422Y0026800D01*
X0209578Y0026800D01*
X0206831Y0026064D01*
X0204369Y0024642D01*
X0202358Y0022631D01*
X0201000Y0020279D01*
X0201000Y0216721D01*
X0202358Y0214369D01*
X0204369Y0212358D01*
X0206831Y0210936D01*
X0209578Y0210200D01*
X0212422Y0210200D01*
X0215169Y0210936D01*
X0217631Y0212358D01*
X0219642Y0214369D01*
X0221064Y0216831D01*
X0221800Y0219578D01*
X0221800Y0222422D01*
X0221064Y0225169D01*
X0219642Y0227631D01*
X0217631Y0229642D01*
X0215279Y0231000D01*
X0296700Y0231000D01*
X0296700Y0222300D01*
X0300200Y0222300D01*
X0300200Y0221700D01*
X0300800Y0221700D01*
X0300800Y0222300D01*
X0304300Y0222300D01*
X0304300Y0231000D01*
X0327700Y0231000D01*
X0327700Y0207598D01*
X0327223Y0207401D01*
X0325099Y0205277D01*
X0323950Y0202502D01*
X0323950Y0199498D01*
X0325099Y0196723D01*
X0327223Y0194599D01*
X0329998Y0193450D01*
X0333002Y0193450D01*
X0335777Y0194599D01*
X0337901Y0196723D01*
X0339050Y0199498D01*
X0339050Y0202502D01*
X0337901Y0205277D01*
X0335777Y0207401D01*
X0335300Y0207598D01*
X0335300Y0231000D01*
X0361721Y0231000D01*
X0359369Y0229642D01*
X0357358Y0227631D01*
X0355936Y0225169D01*
X0355200Y0222422D01*
X0355200Y0219578D01*
X0355936Y0216831D01*
X0357358Y0214369D01*
X0359369Y0212358D01*
X0361831Y0210936D01*
X0364578Y0210200D01*
X0367422Y0210200D01*
X0370169Y0210936D01*
X0372631Y0212358D01*
X0374642Y0214369D01*
X0376064Y0216831D01*
X0376800Y0219578D01*
X0376800Y0222422D01*
X0376064Y0225169D01*
X0374642Y0227631D01*
X0372631Y0229642D01*
X0370279Y0231000D01*
X0380401Y0231000D01*
X0380401Y0148441D01*
X0380239Y0148832D01*
X0378832Y0150239D01*
X0376995Y0151000D01*
X0375005Y0151000D01*
X0373168Y0150239D01*
X0371761Y0148832D01*
X0371000Y0146995D01*
X0371000Y0145005D01*
X0371761Y0143168D01*
X0373168Y0141761D01*
X0375005Y0141000D01*
X0376995Y0141000D01*
X0378832Y0141761D01*
X0380239Y0143168D01*
X0380401Y0143559D01*
X0380401Y0138376D01*
X0380276Y0138621D01*
X0379814Y0139257D01*
X0379257Y0139814D01*
X0378621Y0140276D01*
X0377919Y0140634D01*
X0377171Y0140877D01*
X0376394Y0141000D01*
X0376300Y0141000D01*
X0376300Y0136300D01*
X0375700Y0136300D01*
X0375700Y0141000D01*
X0375606Y0141000D01*
X0374829Y0140877D01*
X0374081Y0140634D01*
X0373379Y0140276D01*
X0372743Y0139814D01*
X0372186Y0139257D01*
X0371724Y0138621D01*
X0371366Y0137919D01*
X0371123Y0137171D01*
X0371000Y0136394D01*
X0371000Y0136300D01*
X0375700Y0136300D01*
X0375700Y0135700D01*
X0376300Y0135700D01*
X0376300Y0131000D01*
X0376394Y0131000D01*
X0377171Y0131123D01*
X0377919Y0131366D01*
X0378621Y0131724D01*
X0379257Y0132186D01*
X0379814Y0132743D01*
X0380276Y0133379D01*
X0380401Y0133624D01*
X0380401Y0123441D01*
X0380239Y0123832D01*
X0378832Y0125239D01*
X0376995Y0126000D01*
X0375005Y0126000D01*
X0373168Y0125239D01*
X0371761Y0123832D01*
X0371000Y0121995D01*
X0371000Y0120005D01*
X0371220Y0119473D01*
X0368447Y0116700D01*
X0367100Y0115353D01*
X0367100Y0100847D01*
X0371000Y0096947D01*
X0371000Y0095005D01*
X0371279Y0094332D01*
X0367100Y0090153D01*
X0367100Y0075647D01*
X0371000Y0071747D01*
X0371000Y0070005D01*
X0371748Y0068200D01*
X0368447Y0064900D01*
X0367100Y0063553D01*
X0367100Y0052300D01*
X0329875Y0052300D01*
X0329875Y0054113D01*
X0329113Y0054875D01*
X0322887Y0054875D01*
X0322125Y0054113D01*
X0322125Y0049378D01*
X0320847Y0048100D01*
X0249875Y0048100D01*
X0249875Y0054113D01*
X0249113Y0054875D01*
X0242887Y0054875D01*
X0242125Y0054113D01*
X0242125Y0048100D01*
X0215542Y0048100D01*
X0215239Y0048832D01*
X0213832Y0050239D01*
X0211995Y0051000D01*
X0210005Y0051000D01*
X0208168Y0050239D01*
X0206761Y0048832D01*
X0206000Y0046995D01*
X0206000Y0045005D01*
X0206761Y0043168D01*
X0208168Y0041761D01*
X0210005Y0041000D01*
X0211995Y0041000D01*
X0213832Y0041761D01*
X0215239Y0043168D01*
X0215376Y0043500D01*
X0242125Y0043500D01*
X0242125Y0037887D01*
X0242887Y0037125D01*
X0242614Y0037398D02*
X0215833Y0037398D01*
X0216000Y0036799D02*
X0341064Y0036799D01*
X0341123Y0037171D02*
X0341000Y0036394D01*
X0341000Y0036300D01*
X0345700Y0036300D01*
X0345700Y0041000D01*
X0345606Y0041000D01*
X0344829Y0040877D01*
X0344081Y0040634D01*
X0343379Y0040276D01*
X0342743Y0039814D01*
X0342186Y0039257D01*
X0341724Y0038621D01*
X0341366Y0037919D01*
X0341123Y0037171D01*
X0341197Y0037398D02*
X0329386Y0037398D01*
X0329875Y0037996D02*
X0341405Y0037996D01*
X0341710Y0038595D02*
X0329875Y0038595D01*
X0329875Y0039193D02*
X0342140Y0039193D01*
X0342721Y0039792D02*
X0329875Y0039792D01*
X0329875Y0040390D02*
X0343603Y0040390D01*
X0345535Y0040989D02*
X0329875Y0040989D01*
X0329875Y0041587D02*
X0373588Y0041587D01*
X0372743Y0042186D02*
X0329875Y0042186D01*
X0329875Y0042784D02*
X0372145Y0042784D01*
X0371672Y0043383D02*
X0329875Y0043383D01*
X0329875Y0043981D02*
X0371424Y0043981D01*
X0371176Y0044580D02*
X0329408Y0044580D01*
X0329560Y0047572D02*
X0371239Y0047572D01*
X0371000Y0046974D02*
X0326226Y0046974D01*
X0325628Y0046375D02*
X0371000Y0046375D01*
X0371000Y0045777D02*
X0325029Y0045777D01*
X0324431Y0045178D02*
X0371000Y0045178D01*
X0374978Y0040989D02*
X0357022Y0040989D01*
X0356995Y0041000D02*
X0355005Y0041000D01*
X0353168Y0040239D01*
X0351761Y0038832D01*
X0351000Y0036995D01*
X0351000Y0035005D01*
X0351761Y0033168D01*
X0353168Y0031761D01*
X0355005Y0031000D01*
X0356995Y0031000D01*
X0358832Y0031761D01*
X0360239Y0033168D01*
X0361000Y0035005D01*
X0361000Y0036995D01*
X0360239Y0038832D01*
X0358832Y0040239D01*
X0356995Y0041000D01*
X0358467Y0040390D02*
X0373533Y0040390D01*
X0372721Y0039792D02*
X0359279Y0039792D01*
X0359878Y0039193D02*
X0372122Y0039193D01*
X0371663Y0038595D02*
X0360337Y0038595D01*
X0360585Y0037996D02*
X0371415Y0037996D01*
X0371167Y0037398D02*
X0360833Y0037398D01*
X0361000Y0036799D02*
X0371000Y0036799D01*
X0371000Y0036201D02*
X0361000Y0036201D01*
X0361000Y0035602D02*
X0371000Y0035602D01*
X0371001Y0035003D02*
X0360999Y0035003D01*
X0360751Y0034405D02*
X0371249Y0034405D01*
X0371497Y0033806D02*
X0360503Y0033806D01*
X0360255Y0033208D02*
X0371745Y0033208D01*
X0372319Y0032609D02*
X0359681Y0032609D01*
X0359082Y0032011D02*
X0372918Y0032011D01*
X0374010Y0031412D02*
X0357990Y0031412D01*
X0354010Y0031412D02*
X0348010Y0031412D01*
X0347919Y0031366D02*
X0348621Y0031724D01*
X0349257Y0032186D01*
X0349814Y0032743D01*
X0350276Y0033379D01*
X0350634Y0034081D01*
X0350877Y0034829D01*
X0351000Y0035606D01*
X0351000Y0035700D01*
X0346300Y0035700D01*
X0346300Y0036300D01*
X0345700Y0036300D01*
X0345700Y0035700D01*
X0341000Y0035700D01*
X0341000Y0035606D01*
X0341123Y0034829D01*
X0341366Y0034081D01*
X0341724Y0033379D01*
X0342186Y0032743D01*
X0342743Y0032186D01*
X0343379Y0031724D01*
X0344081Y0031366D01*
X0344829Y0031123D01*
X0345606Y0031000D01*
X0345700Y0031000D01*
X0345700Y0035700D01*
X0346300Y0035700D01*
X0346300Y0031000D01*
X0346394Y0031000D01*
X0347171Y0031123D01*
X0347919Y0031366D01*
X0349016Y0032011D02*
X0352918Y0032011D01*
X0352319Y0032609D02*
X0349681Y0032609D01*
X0350152Y0033208D02*
X0351745Y0033208D01*
X0351497Y0033806D02*
X0350494Y0033806D01*
X0350739Y0034405D02*
X0351249Y0034405D01*
X0351001Y0035003D02*
X0350904Y0035003D01*
X0350999Y0035602D02*
X0351000Y0035602D01*
X0351000Y0036201D02*
X0346300Y0036201D01*
X0346300Y0036300D02*
X0351000Y0036300D01*
X0351000Y0036394D01*
X0350877Y0037171D01*
X0350634Y0037919D01*
X0350276Y0038621D01*
X0349814Y0039257D01*
X0349257Y0039814D01*
X0348621Y0040276D01*
X0347919Y0040634D01*
X0347171Y0040877D01*
X0346394Y0041000D01*
X0346300Y0041000D01*
X0346300Y0036300D01*
X0346300Y0036799D02*
X0345700Y0036799D01*
X0345700Y0036201D02*
X0216000Y0036201D01*
X0216000Y0035602D02*
X0341001Y0035602D01*
X0341095Y0035003D02*
X0215999Y0035003D01*
X0215585Y0037996D02*
X0242125Y0037996D01*
X0242125Y0038595D02*
X0215337Y0038595D01*
X0214878Y0039193D02*
X0242125Y0039193D01*
X0242125Y0039792D02*
X0214279Y0039792D01*
X0213467Y0040390D02*
X0242125Y0040390D01*
X0242125Y0040989D02*
X0212022Y0040989D01*
X0213412Y0041587D02*
X0242125Y0041587D01*
X0242125Y0042186D02*
X0214257Y0042186D01*
X0214855Y0042784D02*
X0242125Y0042784D01*
X0242125Y0043383D02*
X0215328Y0043383D01*
X0209978Y0040989D02*
X0201000Y0040989D01*
X0201000Y0041587D02*
X0208588Y0041587D01*
X0207743Y0042186D02*
X0201000Y0042186D01*
X0201000Y0042784D02*
X0207145Y0042784D01*
X0206672Y0043383D02*
X0201000Y0043383D01*
X0201000Y0043981D02*
X0206424Y0043981D01*
X0206176Y0044580D02*
X0201000Y0044580D01*
X0201000Y0045178D02*
X0206000Y0045178D01*
X0206000Y0045777D02*
X0201000Y0045777D01*
X0201000Y0046375D02*
X0206000Y0046375D01*
X0206000Y0046974D02*
X0201000Y0046974D01*
X0201000Y0047572D02*
X0206239Y0047572D01*
X0206487Y0048171D02*
X0201000Y0048171D01*
X0201000Y0048769D02*
X0206735Y0048769D01*
X0207297Y0049368D02*
X0201000Y0049368D01*
X0201000Y0049966D02*
X0207895Y0049966D01*
X0208955Y0050565D02*
X0201000Y0050565D01*
X0201000Y0051163D02*
X0242125Y0051163D01*
X0242125Y0050565D02*
X0213045Y0050565D01*
X0214105Y0049966D02*
X0242125Y0049966D01*
X0242125Y0049368D02*
X0214703Y0049368D01*
X0215265Y0048769D02*
X0242125Y0048769D01*
X0242125Y0048171D02*
X0215513Y0048171D01*
X0211995Y0056000D02*
X0213832Y0056761D01*
X0215239Y0058168D01*
X0216000Y0060005D01*
X0216000Y0061995D01*
X0215239Y0063832D01*
X0213832Y0065239D01*
X0211995Y0066000D01*
X0213832Y0066761D01*
X0215239Y0068168D01*
X0216000Y0070005D01*
X0216000Y0071995D01*
X0215239Y0073832D01*
X0213832Y0075239D01*
X0211995Y0076000D01*
X0210005Y0076000D01*
X0208168Y0075239D01*
X0206761Y0073832D01*
X0206000Y0071995D01*
X0206000Y0070005D01*
X0206761Y0068168D01*
X0208168Y0066761D01*
X0210005Y0066000D01*
X0211995Y0066000D01*
X0210005Y0066000D01*
X0208168Y0065239D01*
X0206761Y0063832D01*
X0206000Y0061995D01*
X0206000Y0060005D01*
X0206761Y0058168D01*
X0208168Y0056761D01*
X0210005Y0056000D01*
X0211995Y0056000D01*
X0213322Y0056550D02*
X0367100Y0056550D01*
X0367100Y0057148D02*
X0329136Y0057148D01*
X0329113Y0057125D02*
X0329875Y0057887D01*
X0329875Y0064113D01*
X0329113Y0064875D01*
X0322887Y0064875D01*
X0322125Y0064113D01*
X0322125Y0057887D01*
X0322887Y0057125D01*
X0329113Y0057125D01*
X0329735Y0057747D02*
X0367100Y0057747D01*
X0367100Y0058345D02*
X0329875Y0058345D01*
X0329875Y0058944D02*
X0367100Y0058944D01*
X0367100Y0059542D02*
X0329875Y0059542D01*
X0329875Y0060141D02*
X0367100Y0060141D01*
X0367100Y0060739D02*
X0329875Y0060739D01*
X0329875Y0061338D02*
X0367100Y0061338D01*
X0367100Y0061937D02*
X0329875Y0061937D01*
X0329875Y0062535D02*
X0367100Y0062535D01*
X0367100Y0063134D02*
X0329875Y0063134D01*
X0329875Y0063732D02*
X0367279Y0063732D01*
X0367878Y0064331D02*
X0329658Y0064331D01*
X0329113Y0067125D02*
X0329875Y0067887D01*
X0329875Y0074113D01*
X0329113Y0074875D01*
X0322887Y0074875D01*
X0322125Y0074113D01*
X0322125Y0067887D01*
X0322887Y0067125D01*
X0329113Y0067125D01*
X0329311Y0067323D02*
X0370870Y0067323D01*
X0370272Y0066725D02*
X0213744Y0066725D01*
X0214394Y0067323D02*
X0242689Y0067323D01*
X0242887Y0067125D02*
X0249113Y0067125D01*
X0249875Y0067887D01*
X0249875Y0074113D01*
X0249113Y0074875D01*
X0242887Y0074875D01*
X0242125Y0074113D01*
X0242125Y0067887D01*
X0242887Y0067125D01*
X0242125Y0067922D02*
X0214993Y0067922D01*
X0215385Y0068520D02*
X0242125Y0068520D01*
X0242125Y0069119D02*
X0215633Y0069119D01*
X0215881Y0069717D02*
X0242125Y0069717D01*
X0242125Y0070316D02*
X0216000Y0070316D01*
X0216000Y0070914D02*
X0242125Y0070914D01*
X0242125Y0071513D02*
X0216000Y0071513D01*
X0215952Y0072111D02*
X0242125Y0072111D01*
X0242125Y0072710D02*
X0215704Y0072710D01*
X0215456Y0073308D02*
X0242125Y0073308D01*
X0242125Y0073907D02*
X0215164Y0073907D01*
X0214566Y0074505D02*
X0242517Y0074505D01*
X0242887Y0077125D02*
X0249113Y0077125D01*
X0249875Y0077887D01*
X0249875Y0084113D01*
X0249113Y0084875D01*
X0242887Y0084875D01*
X0242125Y0084113D01*
X0242125Y0077887D01*
X0242887Y0077125D01*
X0242514Y0077498D02*
X0201000Y0077498D01*
X0201000Y0078096D02*
X0242125Y0078096D01*
X0242125Y0078695D02*
X0201000Y0078695D01*
X0201000Y0079293D02*
X0242125Y0079293D01*
X0242125Y0079892D02*
X0201000Y0079892D01*
X0201000Y0080490D02*
X0242125Y0080490D01*
X0242125Y0081089D02*
X0212209Y0081089D01*
X0211995Y0081000D02*
X0213832Y0081761D01*
X0215239Y0083168D01*
X0216000Y0085005D01*
X0216000Y0086995D01*
X0215239Y0088832D01*
X0213832Y0090239D01*
X0211995Y0091000D01*
X0213832Y0091761D01*
X0215239Y0093168D01*
X0216000Y0095005D01*
X0216000Y0096995D01*
X0215780Y0097527D01*
X0219100Y0100847D01*
X0219100Y0115353D01*
X0217753Y0116700D01*
X0215545Y0118907D01*
X0216000Y0120005D01*
X0216000Y0121995D01*
X0215239Y0123832D01*
X0213832Y0125239D01*
X0211995Y0126000D01*
X0210005Y0126000D01*
X0208168Y0125239D01*
X0206761Y0123832D01*
X0206000Y0121995D01*
X0206000Y0120005D01*
X0206761Y0118168D01*
X0208168Y0116761D01*
X0210005Y0116000D01*
X0208168Y0115239D01*
X0206761Y0113832D01*
X0206000Y0111995D01*
X0206000Y0110005D01*
X0206761Y0108168D01*
X0208168Y0106761D01*
X0210005Y0106000D01*
X0211995Y0106000D01*
X0213832Y0106761D01*
X0214500Y0107429D01*
X0214500Y0102753D01*
X0212527Y0100780D01*
X0211995Y0101000D01*
X0210005Y0101000D01*
X0208168Y0100239D01*
X0206761Y0098832D01*
X0206000Y0096995D01*
X0206000Y0095005D01*
X0206761Y0093168D01*
X0208168Y0091761D01*
X0210005Y0091000D01*
X0211995Y0091000D01*
X0210005Y0091000D01*
X0208168Y0090239D01*
X0206761Y0088832D01*
X0206000Y0086995D01*
X0206000Y0085005D01*
X0206761Y0083168D01*
X0208168Y0081761D01*
X0210005Y0081000D01*
X0211995Y0081000D01*
X0213654Y0081687D02*
X0242125Y0081687D01*
X0242125Y0082286D02*
X0214357Y0082286D01*
X0214955Y0082884D02*
X0242125Y0082884D01*
X0242125Y0083483D02*
X0215369Y0083483D01*
X0215617Y0084081D02*
X0242125Y0084081D01*
X0242692Y0084680D02*
X0215865Y0084680D01*
X0216000Y0085278D02*
X0367100Y0085278D01*
X0367100Y0084680D02*
X0329308Y0084680D01*
X0329113Y0084875D02*
X0322887Y0084875D01*
X0322125Y0084113D01*
X0322125Y0077887D01*
X0322887Y0077125D01*
X0329113Y0077125D01*
X0329875Y0077887D01*
X0329875Y0084113D01*
X0329113Y0084875D01*
X0329875Y0084081D02*
X0367100Y0084081D01*
X0367100Y0083483D02*
X0329875Y0083483D01*
X0329875Y0082884D02*
X0367100Y0082884D01*
X0367100Y0082286D02*
X0329875Y0082286D01*
X0329875Y0081687D02*
X0367100Y0081687D01*
X0367100Y0081089D02*
X0329875Y0081089D01*
X0329875Y0080490D02*
X0367100Y0080490D01*
X0367100Y0079892D02*
X0329875Y0079892D01*
X0329875Y0079293D02*
X0367100Y0079293D01*
X0367100Y0078695D02*
X0329875Y0078695D01*
X0329875Y0078096D02*
X0367100Y0078096D01*
X0367100Y0077498D02*
X0329486Y0077498D01*
X0329483Y0074505D02*
X0368242Y0074505D01*
X0368841Y0073907D02*
X0329875Y0073907D01*
X0329875Y0073308D02*
X0369439Y0073308D01*
X0370038Y0072710D02*
X0329875Y0072710D01*
X0329875Y0072111D02*
X0370636Y0072111D01*
X0371000Y0071513D02*
X0329875Y0071513D01*
X0329875Y0070914D02*
X0371000Y0070914D01*
X0371000Y0070316D02*
X0329875Y0070316D01*
X0329875Y0069717D02*
X0371119Y0069717D01*
X0371367Y0069119D02*
X0329875Y0069119D01*
X0329875Y0068520D02*
X0371615Y0068520D01*
X0371469Y0067922D02*
X0329875Y0067922D01*
X0322689Y0067323D02*
X0249311Y0067323D01*
X0249875Y0067922D02*
X0322125Y0067922D01*
X0322125Y0068520D02*
X0249875Y0068520D01*
X0249875Y0069119D02*
X0322125Y0069119D01*
X0322125Y0069717D02*
X0249875Y0069717D01*
X0249875Y0070316D02*
X0322125Y0070316D01*
X0322125Y0070914D02*
X0249875Y0070914D01*
X0249875Y0071513D02*
X0322125Y0071513D01*
X0322125Y0072111D02*
X0249875Y0072111D01*
X0249875Y0072710D02*
X0322125Y0072710D01*
X0322125Y0073308D02*
X0249875Y0073308D01*
X0249875Y0073907D02*
X0322125Y0073907D01*
X0322517Y0074505D02*
X0249483Y0074505D01*
X0249486Y0077498D02*
X0322514Y0077498D01*
X0322125Y0078096D02*
X0249875Y0078096D01*
X0249875Y0078695D02*
X0322125Y0078695D01*
X0322125Y0079293D02*
X0249875Y0079293D01*
X0249875Y0079892D02*
X0322125Y0079892D01*
X0322125Y0080490D02*
X0249875Y0080490D01*
X0249875Y0081089D02*
X0322125Y0081089D01*
X0322125Y0081687D02*
X0249875Y0081687D01*
X0249875Y0082286D02*
X0322125Y0082286D01*
X0322125Y0082884D02*
X0249875Y0082884D01*
X0249875Y0083483D02*
X0322125Y0083483D01*
X0322125Y0084081D02*
X0249875Y0084081D01*
X0249308Y0084680D02*
X0322692Y0084680D01*
X0322887Y0087125D02*
X0329113Y0087125D01*
X0329875Y0087887D01*
X0329875Y0094113D01*
X0329113Y0094875D01*
X0322887Y0094875D01*
X0322125Y0094113D01*
X0322125Y0087887D01*
X0322887Y0087125D01*
X0322339Y0087672D02*
X0249661Y0087672D01*
X0249875Y0087887D02*
X0249113Y0087125D01*
X0242887Y0087125D01*
X0242125Y0087887D01*
X0242125Y0094113D01*
X0242887Y0094875D01*
X0249113Y0094875D01*
X0249875Y0094113D01*
X0249875Y0087887D01*
X0249875Y0088271D02*
X0322125Y0088271D01*
X0322125Y0088870D02*
X0249875Y0088870D01*
X0249875Y0089468D02*
X0322125Y0089468D01*
X0322125Y0090067D02*
X0249875Y0090067D01*
X0249875Y0090665D02*
X0322125Y0090665D01*
X0322125Y0091264D02*
X0249875Y0091264D01*
X0249875Y0091862D02*
X0322125Y0091862D01*
X0322125Y0092461D02*
X0249875Y0092461D01*
X0249875Y0093059D02*
X0322125Y0093059D01*
X0322125Y0093658D02*
X0249875Y0093658D01*
X0249732Y0094256D02*
X0322268Y0094256D01*
X0322867Y0094855D02*
X0249133Y0094855D01*
X0249113Y0097125D02*
X0249875Y0097887D01*
X0249875Y0104113D01*
X0249113Y0104875D01*
X0242887Y0104875D01*
X0242125Y0104113D01*
X0242125Y0097887D01*
X0242887Y0097125D01*
X0249113Y0097125D01*
X0249237Y0097249D02*
X0322763Y0097249D01*
X0322887Y0097125D02*
X0329113Y0097125D01*
X0329875Y0097887D01*
X0329875Y0104113D01*
X0329113Y0104875D01*
X0322887Y0104875D01*
X0322125Y0104113D01*
X0322125Y0097887D01*
X0322887Y0097125D01*
X0322165Y0097847D02*
X0249835Y0097847D01*
X0249875Y0098446D02*
X0322125Y0098446D01*
X0322125Y0099044D02*
X0249875Y0099044D01*
X0249875Y0099643D02*
X0322125Y0099643D01*
X0322125Y0100241D02*
X0249875Y0100241D01*
X0249875Y0100840D02*
X0322125Y0100840D01*
X0322125Y0101438D02*
X0249875Y0101438D01*
X0249875Y0102037D02*
X0322125Y0102037D01*
X0322125Y0102635D02*
X0249875Y0102635D01*
X0249875Y0103234D02*
X0322125Y0103234D01*
X0322125Y0103832D02*
X0249875Y0103832D01*
X0249557Y0104431D02*
X0322443Y0104431D01*
X0322887Y0107125D02*
X0329113Y0107125D01*
X0329875Y0107887D01*
X0329875Y0114113D01*
X0329113Y0114875D01*
X0322887Y0114875D01*
X0322125Y0114113D01*
X0322125Y0107887D01*
X0322887Y0107125D01*
X0322589Y0107423D02*
X0249411Y0107423D01*
X0249113Y0107125D02*
X0249875Y0107887D01*
X0249875Y0114113D01*
X0249113Y0114875D01*
X0242887Y0114875D01*
X0242125Y0114113D01*
X0242125Y0107887D01*
X0242887Y0107125D01*
X0249113Y0107125D01*
X0249875Y0108022D02*
X0322125Y0108022D01*
X0322125Y0108620D02*
X0249875Y0108620D01*
X0249875Y0109219D02*
X0322125Y0109219D01*
X0322125Y0109817D02*
X0249875Y0109817D01*
X0249875Y0110416D02*
X0322125Y0110416D01*
X0322125Y0111014D02*
X0249875Y0111014D01*
X0249875Y0111613D02*
X0322125Y0111613D01*
X0322125Y0112211D02*
X0249875Y0112211D01*
X0249875Y0112810D02*
X0322125Y0112810D01*
X0322125Y0113408D02*
X0249875Y0113408D01*
X0249875Y0114007D02*
X0322125Y0114007D01*
X0322617Y0114605D02*
X0249383Y0114605D01*
X0249113Y0117125D02*
X0249875Y0117887D01*
X0249875Y0124113D01*
X0249113Y0124875D01*
X0242887Y0124875D01*
X0242125Y0124113D01*
X0242125Y0117887D01*
X0242887Y0117125D01*
X0249113Y0117125D01*
X0249586Y0117598D02*
X0322414Y0117598D01*
X0322125Y0117887D02*
X0322887Y0117125D01*
X0329113Y0117125D01*
X0329875Y0117887D01*
X0329875Y0124113D01*
X0329113Y0124875D01*
X0322887Y0124875D01*
X0322125Y0124113D01*
X0322125Y0117887D01*
X0322125Y0118197D02*
X0249875Y0118197D01*
X0249875Y0118795D02*
X0322125Y0118795D01*
X0322125Y0119394D02*
X0249875Y0119394D01*
X0249875Y0119992D02*
X0322125Y0119992D01*
X0322125Y0120591D02*
X0249875Y0120591D01*
X0249875Y0121189D02*
X0322125Y0121189D01*
X0322125Y0121788D02*
X0249875Y0121788D01*
X0249875Y0122386D02*
X0322125Y0122386D01*
X0322125Y0122985D02*
X0249875Y0122985D01*
X0249875Y0123583D02*
X0322125Y0123583D01*
X0322194Y0124182D02*
X0249806Y0124182D01*
X0249208Y0124780D02*
X0322792Y0124780D01*
X0322887Y0127125D02*
X0329113Y0127125D01*
X0329875Y0127887D01*
X0329875Y0134113D01*
X0329113Y0134875D01*
X0322887Y0134875D01*
X0322125Y0134113D01*
X0322125Y0127887D01*
X0322887Y0127125D01*
X0322838Y0127174D02*
X0249162Y0127174D01*
X0249113Y0127125D02*
X0249875Y0127887D01*
X0249875Y0134113D01*
X0249113Y0134875D01*
X0242887Y0134875D01*
X0242125Y0134113D01*
X0242125Y0127887D01*
X0242887Y0127125D01*
X0249113Y0127125D01*
X0249761Y0127773D02*
X0322239Y0127773D01*
X0322125Y0128371D02*
X0249875Y0128371D01*
X0249875Y0128970D02*
X0322125Y0128970D01*
X0322125Y0129568D02*
X0249875Y0129568D01*
X0249875Y0130167D02*
X0322125Y0130167D01*
X0322125Y0130765D02*
X0249875Y0130765D01*
X0249875Y0131364D02*
X0322125Y0131364D01*
X0322125Y0131962D02*
X0249875Y0131962D01*
X0249875Y0132561D02*
X0322125Y0132561D01*
X0322125Y0133159D02*
X0249875Y0133159D01*
X0249875Y0133758D02*
X0322125Y0133758D01*
X0322368Y0134356D02*
X0249632Y0134356D01*
X0249113Y0137125D02*
X0249875Y0137887D01*
X0249875Y0144113D01*
X0249113Y0144875D01*
X0242887Y0144875D01*
X0242125Y0144113D01*
X0242125Y0137887D01*
X0242887Y0137125D01*
X0249113Y0137125D01*
X0249337Y0137349D02*
X0322663Y0137349D01*
X0322887Y0137125D02*
X0329113Y0137125D01*
X0329875Y0137887D01*
X0329875Y0144113D01*
X0329113Y0144875D01*
X0322887Y0144875D01*
X0322125Y0144113D01*
X0322125Y0137887D01*
X0322887Y0137125D01*
X0322125Y0137947D02*
X0249875Y0137947D01*
X0249875Y0138546D02*
X0322125Y0138546D01*
X0322125Y0139144D02*
X0249875Y0139144D01*
X0249875Y0139743D02*
X0322125Y0139743D01*
X0322125Y0140341D02*
X0249875Y0140341D01*
X0249875Y0140940D02*
X0322125Y0140940D01*
X0322125Y0141539D02*
X0249875Y0141539D01*
X0249875Y0142137D02*
X0322125Y0142137D01*
X0322125Y0142736D02*
X0249875Y0142736D01*
X0249875Y0143334D02*
X0322125Y0143334D01*
X0322125Y0143933D02*
X0249875Y0143933D01*
X0249457Y0144531D02*
X0322543Y0144531D01*
X0322887Y0147125D02*
X0329113Y0147125D01*
X0329875Y0147887D01*
X0329875Y0154113D01*
X0329113Y0154875D01*
X0322887Y0154875D01*
X0322125Y0154113D01*
X0322125Y0147887D01*
X0322887Y0147125D01*
X0322488Y0147524D02*
X0249512Y0147524D01*
X0249875Y0147887D02*
X0249113Y0147125D01*
X0242887Y0147125D01*
X0242125Y0147887D01*
X0242125Y0154113D01*
X0242887Y0154875D01*
X0249113Y0154875D01*
X0249875Y0154113D01*
X0249875Y0147887D01*
X0249875Y0148122D02*
X0322125Y0148122D01*
X0322125Y0148721D02*
X0249875Y0148721D01*
X0249875Y0149319D02*
X0322125Y0149319D01*
X0322125Y0149918D02*
X0249875Y0149918D01*
X0249875Y0150516D02*
X0322125Y0150516D01*
X0322125Y0151115D02*
X0249875Y0151115D01*
X0249875Y0151713D02*
X0322125Y0151713D01*
X0322125Y0152312D02*
X0249875Y0152312D01*
X0249875Y0152910D02*
X0322125Y0152910D01*
X0322125Y0153509D02*
X0249875Y0153509D01*
X0249875Y0154107D02*
X0322125Y0154107D01*
X0322718Y0154706D02*
X0249282Y0154706D01*
X0242718Y0154706D02*
X0215876Y0154706D01*
X0216000Y0155005D02*
X0215239Y0153168D01*
X0213832Y0151761D01*
X0211995Y0151000D01*
X0210005Y0151000D01*
X0208168Y0151761D01*
X0206761Y0153168D01*
X0206000Y0155005D01*
X0206000Y0156995D01*
X0206761Y0158832D01*
X0208168Y0160239D01*
X0208900Y0160542D01*
X0208900Y0164353D01*
X0210547Y0166000D01*
X0210005Y0166000D01*
X0208168Y0166761D01*
X0206761Y0168168D01*
X0206000Y0170005D01*
X0206000Y0171995D01*
X0206761Y0173832D01*
X0208168Y0175239D01*
X0210005Y0176000D01*
X0211995Y0176000D01*
X0213832Y0175239D01*
X0214500Y0174571D01*
X0214500Y0177429D01*
X0214257Y0177186D01*
X0213621Y0176724D01*
X0212919Y0176366D01*
X0212171Y0176123D01*
X0211394Y0176000D01*
X0211300Y0176000D01*
X0211300Y0180700D01*
X0210700Y0180700D01*
X0210700Y0176000D01*
X0210606Y0176000D01*
X0209829Y0176123D01*
X0209081Y0176366D01*
X0208379Y0176724D01*
X0207743Y0177186D01*
X0207186Y0177743D01*
X0206724Y0178379D01*
X0206366Y0179081D01*
X0206123Y0179829D01*
X0206000Y0180606D01*
X0206000Y0180700D01*
X0210700Y0180700D01*
X0210700Y0181300D01*
X0210700Y0186000D01*
X0210606Y0186000D01*
X0209829Y0185877D01*
X0209081Y0185634D01*
X0208379Y0185276D01*
X0207743Y0184814D01*
X0207186Y0184257D01*
X0206724Y0183621D01*
X0206366Y0182919D01*
X0206123Y0182171D01*
X0206000Y0181394D01*
X0206000Y0181300D01*
X0210700Y0181300D01*
X0211300Y0181300D01*
X0211300Y0186000D01*
X0211394Y0186000D01*
X0212052Y0185896D01*
X0211947Y0186000D01*
X0210005Y0186000D01*
X0208168Y0186761D01*
X0206761Y0188168D01*
X0206000Y0190005D01*
X0206000Y0191995D01*
X0206761Y0193832D01*
X0208168Y0195239D01*
X0210005Y0196000D01*
X0211995Y0196000D01*
X0213832Y0195239D01*
X0215239Y0193832D01*
X0216000Y0191995D01*
X0216000Y0190005D01*
X0215545Y0188907D01*
X0216353Y0188100D01*
X0224247Y0188100D01*
X0237318Y0201171D01*
X0237171Y0201123D01*
X0236394Y0201000D01*
X0236300Y0201000D01*
X0236300Y0205700D01*
X0236300Y0206300D01*
X0235700Y0206300D01*
X0235700Y0211000D01*
X0235606Y0211000D01*
X0234829Y0210877D01*
X0234081Y0210634D01*
X0233379Y0210276D01*
X0232743Y0209814D01*
X0232186Y0209257D01*
X0231724Y0208621D01*
X0231366Y0207919D01*
X0231123Y0207171D01*
X0231000Y0206394D01*
X0231000Y0206300D01*
X0235700Y0206300D01*
X0235700Y0205700D01*
X0236300Y0205700D01*
X0241000Y0205700D01*
X0241000Y0205606D01*
X0240877Y0204829D01*
X0240829Y0204682D01*
X0241045Y0204897D01*
X0241000Y0205005D01*
X0241000Y0206995D01*
X0241761Y0208832D01*
X0243168Y0210239D01*
X0245005Y0211000D01*
X0246995Y0211000D01*
X0248832Y0210239D01*
X0250239Y0208832D01*
X0251000Y0206995D01*
X0251000Y0205005D01*
X0250239Y0203168D01*
X0248832Y0201761D01*
X0246995Y0201000D01*
X0245005Y0201000D01*
X0244049Y0201396D01*
X0227500Y0184847D01*
X0226153Y0183500D01*
X0219100Y0183500D01*
X0219100Y0168047D01*
X0217753Y0166700D01*
X0213500Y0162447D01*
X0213500Y0160376D01*
X0213832Y0160239D01*
X0215239Y0158832D01*
X0216000Y0156995D01*
X0216000Y0155005D01*
X0216000Y0155304D02*
X0380401Y0155304D01*
X0380401Y0154706D02*
X0329282Y0154706D01*
X0329875Y0154107D02*
X0380401Y0154107D01*
X0380401Y0153509D02*
X0329875Y0153509D01*
X0329875Y0152910D02*
X0380401Y0152910D01*
X0380401Y0152312D02*
X0329875Y0152312D01*
X0329875Y0151713D02*
X0380401Y0151713D01*
X0380401Y0151115D02*
X0329875Y0151115D01*
X0329875Y0150516D02*
X0373837Y0150516D01*
X0372847Y0149918D02*
X0329875Y0149918D01*
X0329875Y0149319D02*
X0372248Y0149319D01*
X0371715Y0148721D02*
X0329875Y0148721D01*
X0329875Y0148122D02*
X0371467Y0148122D01*
X0371219Y0147524D02*
X0329512Y0147524D01*
X0329457Y0144531D02*
X0371196Y0144531D01*
X0371000Y0145130D02*
X0215924Y0145130D01*
X0215877Y0144829D02*
X0216000Y0145606D01*
X0216000Y0145700D01*
X0211300Y0145700D01*
X0211300Y0146300D01*
X0216000Y0146300D01*
X0216000Y0146394D01*
X0215877Y0147171D01*
X0215634Y0147919D01*
X0215276Y0148621D01*
X0214814Y0149257D01*
X0214257Y0149814D01*
X0213621Y0150276D01*
X0212919Y0150634D01*
X0212171Y0150877D01*
X0211394Y0151000D01*
X0211300Y0151000D01*
X0211300Y0146300D01*
X0210700Y0146300D01*
X0210700Y0151000D01*
X0210606Y0151000D01*
X0209829Y0150877D01*
X0209081Y0150634D01*
X0208379Y0150276D01*
X0207743Y0149814D01*
X0207186Y0149257D01*
X0206724Y0148621D01*
X0206366Y0147919D01*
X0206123Y0147171D01*
X0206000Y0146394D01*
X0206000Y0146300D01*
X0210700Y0146300D01*
X0210700Y0145700D01*
X0211300Y0145700D01*
X0211300Y0141000D01*
X0211394Y0141000D01*
X0212171Y0141123D01*
X0212919Y0141366D01*
X0213621Y0141724D01*
X0214257Y0142186D01*
X0214814Y0142743D01*
X0215276Y0143379D01*
X0215634Y0144081D01*
X0215877Y0144829D01*
X0215780Y0144531D02*
X0242543Y0144531D01*
X0242125Y0143933D02*
X0215558Y0143933D01*
X0215243Y0143334D02*
X0242125Y0143334D01*
X0242125Y0142736D02*
X0214807Y0142736D01*
X0214190Y0142137D02*
X0242125Y0142137D01*
X0242125Y0141539D02*
X0213257Y0141539D01*
X0213584Y0140341D02*
X0242125Y0140341D01*
X0242125Y0139743D02*
X0214328Y0139743D01*
X0213832Y0140239D02*
X0211995Y0141000D01*
X0210005Y0141000D01*
X0208168Y0140239D01*
X0206761Y0138832D01*
X0206000Y0136995D01*
X0206000Y0135005D01*
X0206761Y0133168D01*
X0208168Y0131761D01*
X0210005Y0131000D01*
X0211995Y0131000D01*
X0213832Y0131761D01*
X0215239Y0133168D01*
X0216000Y0135005D01*
X0216000Y0136995D01*
X0215239Y0138832D01*
X0213832Y0140239D01*
X0214927Y0139144D02*
X0242125Y0139144D01*
X0242125Y0138546D02*
X0215357Y0138546D01*
X0215605Y0137947D02*
X0242125Y0137947D01*
X0242663Y0137349D02*
X0215853Y0137349D01*
X0216000Y0136750D02*
X0371057Y0136750D01*
X0371181Y0137349D02*
X0329337Y0137349D01*
X0329875Y0137947D02*
X0371381Y0137947D01*
X0371686Y0138546D02*
X0329875Y0138546D01*
X0329875Y0139144D02*
X0372104Y0139144D01*
X0372672Y0139743D02*
X0329875Y0139743D01*
X0329875Y0140341D02*
X0373507Y0140341D01*
X0373705Y0141539D02*
X0329875Y0141539D01*
X0329875Y0142137D02*
X0372792Y0142137D01*
X0372193Y0142736D02*
X0329875Y0142736D01*
X0329875Y0143334D02*
X0371692Y0143334D01*
X0371444Y0143933D02*
X0329875Y0143933D01*
X0329875Y0140940D02*
X0375228Y0140940D01*
X0375700Y0140940D02*
X0376300Y0140940D01*
X0376772Y0140940D02*
X0380401Y0140940D01*
X0380401Y0141539D02*
X0378295Y0141539D01*
X0379208Y0142137D02*
X0380401Y0142137D01*
X0380401Y0142736D02*
X0379807Y0142736D01*
X0380308Y0143334D02*
X0380401Y0143334D01*
X0380401Y0140341D02*
X0378493Y0140341D01*
X0379328Y0139743D02*
X0380401Y0139743D01*
X0380401Y0139144D02*
X0379896Y0139144D01*
X0380314Y0138546D02*
X0380401Y0138546D01*
X0376300Y0138546D02*
X0375700Y0138546D01*
X0375700Y0139144D02*
X0376300Y0139144D01*
X0376300Y0139743D02*
X0375700Y0139743D01*
X0375700Y0140341D02*
X0376300Y0140341D01*
X0376300Y0137947D02*
X0375700Y0137947D01*
X0375700Y0137349D02*
X0376300Y0137349D01*
X0376300Y0136750D02*
X0375700Y0136750D01*
X0375700Y0136152D02*
X0216000Y0136152D01*
X0216000Y0135553D02*
X0371008Y0135553D01*
X0371000Y0135606D02*
X0371123Y0134829D01*
X0371366Y0134081D01*
X0371724Y0133379D01*
X0372186Y0132743D01*
X0372743Y0132186D01*
X0373379Y0131724D01*
X0374081Y0131366D01*
X0374829Y0131123D01*
X0375606Y0131000D01*
X0375700Y0131000D01*
X0375700Y0135700D01*
X0371000Y0135700D01*
X0371000Y0135606D01*
X0371103Y0134955D02*
X0215979Y0134955D01*
X0215731Y0134356D02*
X0242368Y0134356D01*
X0242125Y0133758D02*
X0215483Y0133758D01*
X0215230Y0133159D02*
X0242125Y0133159D01*
X0242125Y0132561D02*
X0214632Y0132561D01*
X0214033Y0131962D02*
X0242125Y0131962D01*
X0242125Y0131364D02*
X0212873Y0131364D01*
X0209127Y0131364D02*
X0201000Y0131364D01*
X0201000Y0131962D02*
X0207967Y0131962D01*
X0207368Y0132561D02*
X0201000Y0132561D01*
X0201000Y0133159D02*
X0206770Y0133159D01*
X0206517Y0133758D02*
X0201000Y0133758D01*
X0201000Y0134356D02*
X0206269Y0134356D01*
X0206021Y0134955D02*
X0201000Y0134955D01*
X0201000Y0135553D02*
X0206000Y0135553D01*
X0206000Y0136152D02*
X0201000Y0136152D01*
X0201000Y0136750D02*
X0206000Y0136750D01*
X0206147Y0137349D02*
X0201000Y0137349D01*
X0201000Y0137947D02*
X0206395Y0137947D01*
X0206643Y0138546D02*
X0201000Y0138546D01*
X0201000Y0139144D02*
X0207073Y0139144D01*
X0207672Y0139743D02*
X0201000Y0139743D01*
X0201000Y0140341D02*
X0208416Y0140341D01*
X0209081Y0141366D02*
X0209829Y0141123D01*
X0210606Y0141000D01*
X0210700Y0141000D01*
X0210700Y0145700D01*
X0206000Y0145700D01*
X0206000Y0145606D01*
X0206123Y0144829D01*
X0206366Y0144081D01*
X0206724Y0143379D01*
X0207186Y0142743D01*
X0207743Y0142186D01*
X0208379Y0141724D01*
X0209081Y0141366D01*
X0208743Y0141539D02*
X0201000Y0141539D01*
X0201000Y0142137D02*
X0207810Y0142137D01*
X0207193Y0142736D02*
X0201000Y0142736D01*
X0201000Y0143334D02*
X0206757Y0143334D01*
X0206442Y0143933D02*
X0201000Y0143933D01*
X0201000Y0144531D02*
X0206220Y0144531D01*
X0206076Y0145130D02*
X0201000Y0145130D01*
X0201000Y0145728D02*
X0210700Y0145728D01*
X0210700Y0145130D02*
X0211300Y0145130D01*
X0211300Y0145728D02*
X0371000Y0145728D01*
X0371000Y0146327D02*
X0216000Y0146327D01*
X0215916Y0146925D02*
X0371000Y0146925D01*
X0378163Y0150516D02*
X0380401Y0150516D01*
X0380401Y0149918D02*
X0379153Y0149918D01*
X0379752Y0149319D02*
X0380401Y0149319D01*
X0380401Y0148721D02*
X0380285Y0148721D01*
X0380401Y0155903D02*
X0216000Y0155903D01*
X0216000Y0156501D02*
X0380401Y0156501D01*
X0380401Y0157100D02*
X0215956Y0157100D01*
X0215708Y0157698D02*
X0380401Y0157698D01*
X0380401Y0158297D02*
X0369139Y0158297D01*
X0368362Y0157975D02*
X0371018Y0159075D01*
X0373050Y0161107D01*
X0374150Y0163763D01*
X0374150Y0166637D01*
X0373050Y0169293D01*
X0371018Y0171325D01*
X0368362Y0172425D01*
X0353638Y0172425D01*
X0350982Y0171325D01*
X0348950Y0169293D01*
X0347850Y0166637D01*
X0347850Y0163763D01*
X0348950Y0161107D01*
X0350982Y0159075D01*
X0353638Y0157975D01*
X0368362Y0157975D01*
X0370584Y0158895D02*
X0380401Y0158895D01*
X0380401Y0159494D02*
X0371437Y0159494D01*
X0372035Y0160092D02*
X0380401Y0160092D01*
X0380401Y0160691D02*
X0372634Y0160691D01*
X0373125Y0161289D02*
X0380401Y0161289D01*
X0380401Y0161888D02*
X0373373Y0161888D01*
X0373621Y0162486D02*
X0380401Y0162486D01*
X0380401Y0163085D02*
X0373869Y0163085D01*
X0374117Y0163683D02*
X0380401Y0163683D01*
X0380401Y0164282D02*
X0374150Y0164282D01*
X0374150Y0164880D02*
X0380401Y0164880D01*
X0380401Y0165479D02*
X0374150Y0165479D01*
X0374150Y0166077D02*
X0380401Y0166077D01*
X0380401Y0166676D02*
X0374134Y0166676D01*
X0373886Y0167274D02*
X0380401Y0167274D01*
X0380401Y0167873D02*
X0373638Y0167873D01*
X0373390Y0168472D02*
X0380401Y0168472D01*
X0380401Y0169070D02*
X0373142Y0169070D01*
X0372674Y0169669D02*
X0380401Y0169669D01*
X0380401Y0170267D02*
X0372076Y0170267D01*
X0371477Y0170866D02*
X0380401Y0170866D01*
X0380401Y0171464D02*
X0370682Y0171464D01*
X0369237Y0172063D02*
X0380401Y0172063D01*
X0380401Y0172661D02*
X0219100Y0172661D01*
X0219100Y0172063D02*
X0352763Y0172063D01*
X0351318Y0171464D02*
X0219100Y0171464D01*
X0219100Y0170866D02*
X0350523Y0170866D01*
X0349924Y0170267D02*
X0219100Y0170267D01*
X0219100Y0169669D02*
X0349326Y0169669D01*
X0348858Y0169070D02*
X0219100Y0169070D01*
X0219100Y0168472D02*
X0348610Y0168472D01*
X0348362Y0167873D02*
X0218926Y0167873D01*
X0218327Y0167274D02*
X0348114Y0167274D01*
X0347866Y0166676D02*
X0217729Y0166676D01*
X0217130Y0166077D02*
X0347850Y0166077D01*
X0347850Y0165479D02*
X0216532Y0165479D01*
X0215933Y0164880D02*
X0347850Y0164880D01*
X0347850Y0164282D02*
X0215335Y0164282D01*
X0214736Y0163683D02*
X0347883Y0163683D01*
X0348131Y0163085D02*
X0214138Y0163085D01*
X0213539Y0162486D02*
X0348379Y0162486D01*
X0348627Y0161888D02*
X0213500Y0161888D01*
X0213500Y0161289D02*
X0348875Y0161289D01*
X0349366Y0160691D02*
X0213500Y0160691D01*
X0213979Y0160092D02*
X0349965Y0160092D01*
X0350563Y0159494D02*
X0214577Y0159494D01*
X0215176Y0158895D02*
X0351416Y0158895D01*
X0352861Y0158297D02*
X0215461Y0158297D01*
X0215628Y0154107D02*
X0242125Y0154107D01*
X0242125Y0153509D02*
X0215380Y0153509D01*
X0214981Y0152910D02*
X0242125Y0152910D01*
X0242125Y0152312D02*
X0214383Y0152312D01*
X0213716Y0151713D02*
X0242125Y0151713D01*
X0242125Y0151115D02*
X0212271Y0151115D01*
X0213150Y0150516D02*
X0242125Y0150516D01*
X0242125Y0149918D02*
X0214114Y0149918D01*
X0214752Y0149319D02*
X0242125Y0149319D01*
X0242125Y0148721D02*
X0215204Y0148721D01*
X0215530Y0148122D02*
X0242125Y0148122D01*
X0242488Y0147524D02*
X0215762Y0147524D01*
X0211300Y0147524D02*
X0210700Y0147524D01*
X0210700Y0148122D02*
X0211300Y0148122D01*
X0211300Y0148721D02*
X0210700Y0148721D01*
X0210700Y0149319D02*
X0211300Y0149319D01*
X0211300Y0149918D02*
X0210700Y0149918D01*
X0210700Y0150516D02*
X0211300Y0150516D01*
X0209729Y0151115D02*
X0201000Y0151115D01*
X0201000Y0151713D02*
X0208284Y0151713D01*
X0207617Y0152312D02*
X0201000Y0152312D01*
X0201000Y0152910D02*
X0207019Y0152910D01*
X0206620Y0153509D02*
X0201000Y0153509D01*
X0201000Y0154107D02*
X0206372Y0154107D01*
X0206124Y0154706D02*
X0201000Y0154706D01*
X0201000Y0155304D02*
X0206000Y0155304D01*
X0206000Y0155903D02*
X0201000Y0155903D01*
X0201000Y0156501D02*
X0206000Y0156501D01*
X0206044Y0157100D02*
X0201000Y0157100D01*
X0201000Y0157698D02*
X0206292Y0157698D01*
X0206539Y0158297D02*
X0201000Y0158297D01*
X0201000Y0158895D02*
X0206824Y0158895D01*
X0207423Y0159494D02*
X0201000Y0159494D01*
X0201000Y0160092D02*
X0208021Y0160092D01*
X0208900Y0160691D02*
X0201000Y0160691D01*
X0201000Y0161289D02*
X0208900Y0161289D01*
X0208900Y0161888D02*
X0201000Y0161888D01*
X0201000Y0162486D02*
X0208900Y0162486D01*
X0208900Y0163085D02*
X0201000Y0163085D01*
X0201000Y0163683D02*
X0208900Y0163683D01*
X0208900Y0164282D02*
X0201000Y0164282D01*
X0201000Y0164880D02*
X0209428Y0164880D01*
X0210026Y0165479D02*
X0201000Y0165479D01*
X0201000Y0166077D02*
X0209818Y0166077D01*
X0208373Y0166676D02*
X0201000Y0166676D01*
X0201000Y0167274D02*
X0207654Y0167274D01*
X0207056Y0167873D02*
X0201000Y0167873D01*
X0201000Y0168472D02*
X0206635Y0168472D01*
X0206387Y0169070D02*
X0201000Y0169070D01*
X0201000Y0169669D02*
X0206140Y0169669D01*
X0206000Y0170267D02*
X0201000Y0170267D01*
X0201000Y0170866D02*
X0206000Y0170866D01*
X0206000Y0171464D02*
X0201000Y0171464D01*
X0201000Y0172063D02*
X0206028Y0172063D01*
X0206276Y0172661D02*
X0201000Y0172661D01*
X0201000Y0173260D02*
X0206524Y0173260D01*
X0206787Y0173858D02*
X0201000Y0173858D01*
X0201000Y0174457D02*
X0207386Y0174457D01*
X0207984Y0175055D02*
X0201000Y0175055D01*
X0201000Y0175654D02*
X0209169Y0175654D01*
X0209432Y0176252D02*
X0201000Y0176252D01*
X0201000Y0176851D02*
X0208205Y0176851D01*
X0207480Y0177449D02*
X0201000Y0177449D01*
X0201000Y0178048D02*
X0206965Y0178048D01*
X0206588Y0178646D02*
X0201000Y0178646D01*
X0201000Y0179245D02*
X0206313Y0179245D01*
X0206121Y0179843D02*
X0201000Y0179843D01*
X0201000Y0180442D02*
X0206026Y0180442D01*
X0206039Y0181639D02*
X0201000Y0181639D01*
X0201000Y0182237D02*
X0206145Y0182237D01*
X0206339Y0182836D02*
X0201000Y0182836D01*
X0201000Y0183434D02*
X0206629Y0183434D01*
X0207023Y0184033D02*
X0201000Y0184033D01*
X0201000Y0184631D02*
X0207560Y0184631D01*
X0208315Y0185230D02*
X0201000Y0185230D01*
X0201000Y0185828D02*
X0209680Y0185828D01*
X0208975Y0186427D02*
X0201000Y0186427D01*
X0201000Y0187025D02*
X0207904Y0187025D01*
X0207305Y0187624D02*
X0201000Y0187624D01*
X0201000Y0188222D02*
X0206739Y0188222D01*
X0206491Y0188821D02*
X0201000Y0188821D01*
X0201000Y0189419D02*
X0206243Y0189419D01*
X0206000Y0190018D02*
X0201000Y0190018D01*
X0201000Y0190616D02*
X0206000Y0190616D01*
X0206000Y0191215D02*
X0201000Y0191215D01*
X0201000Y0191813D02*
X0206000Y0191813D01*
X0206173Y0192412D02*
X0201000Y0192412D01*
X0201000Y0193010D02*
X0206421Y0193010D01*
X0206669Y0193609D02*
X0201000Y0193609D01*
X0201000Y0194208D02*
X0207136Y0194208D01*
X0207735Y0194806D02*
X0201000Y0194806D01*
X0201000Y0195405D02*
X0208568Y0195405D01*
X0213432Y0195405D02*
X0231552Y0195405D01*
X0232150Y0196003D02*
X0201000Y0196003D01*
X0201000Y0196602D02*
X0232749Y0196602D01*
X0233347Y0197200D02*
X0201000Y0197200D01*
X0201000Y0197799D02*
X0233946Y0197799D01*
X0234544Y0198397D02*
X0201000Y0198397D01*
X0201000Y0198996D02*
X0235143Y0198996D01*
X0235741Y0199594D02*
X0201000Y0199594D01*
X0201000Y0200193D02*
X0236340Y0200193D01*
X0236938Y0200791D02*
X0201000Y0200791D01*
X0201000Y0201390D02*
X0224065Y0201390D01*
X0223168Y0201761D02*
X0225005Y0201000D01*
X0226995Y0201000D01*
X0228832Y0201761D01*
X0230239Y0203168D01*
X0231000Y0205005D01*
X0231000Y0206995D01*
X0230239Y0208832D01*
X0228832Y0210239D01*
X0226995Y0211000D01*
X0225005Y0211000D01*
X0223168Y0210239D01*
X0221761Y0208832D01*
X0221000Y0206995D01*
X0221000Y0205005D01*
X0221761Y0203168D01*
X0223168Y0201761D01*
X0222941Y0201988D02*
X0201000Y0201988D01*
X0201000Y0202587D02*
X0222342Y0202587D01*
X0221754Y0203185D02*
X0201000Y0203185D01*
X0201000Y0203784D02*
X0221506Y0203784D01*
X0221258Y0204382D02*
X0201000Y0204382D01*
X0201000Y0204981D02*
X0221010Y0204981D01*
X0221000Y0205579D02*
X0201000Y0205579D01*
X0201000Y0206178D02*
X0221000Y0206178D01*
X0221000Y0206776D02*
X0201000Y0206776D01*
X0201000Y0207375D02*
X0221157Y0207375D01*
X0221405Y0207973D02*
X0201000Y0207973D01*
X0201000Y0208572D02*
X0221653Y0208572D01*
X0222099Y0209170D02*
X0201000Y0209170D01*
X0201000Y0209769D02*
X0222698Y0209769D01*
X0223478Y0210367D02*
X0213046Y0210367D01*
X0215220Y0210966D02*
X0224923Y0210966D01*
X0227077Y0210966D02*
X0235391Y0210966D01*
X0235700Y0210966D02*
X0236300Y0210966D01*
X0236300Y0211000D02*
X0236300Y0206300D01*
X0241000Y0206300D01*
X0241000Y0206394D01*
X0240877Y0207171D01*
X0240634Y0207919D01*
X0240276Y0208621D01*
X0239814Y0209257D01*
X0239257Y0209814D01*
X0238621Y0210276D01*
X0237919Y0210634D01*
X0237171Y0210877D01*
X0236394Y0211000D01*
X0236300Y0211000D01*
X0236609Y0210966D02*
X0244923Y0210966D01*
X0243478Y0210367D02*
X0238442Y0210367D01*
X0239302Y0209769D02*
X0242698Y0209769D01*
X0242099Y0209170D02*
X0239877Y0209170D01*
X0240301Y0208572D02*
X0241653Y0208572D01*
X0241405Y0207973D02*
X0240606Y0207973D01*
X0240811Y0207375D02*
X0241157Y0207375D01*
X0241000Y0206776D02*
X0240939Y0206776D01*
X0241000Y0206178D02*
X0236300Y0206178D01*
X0236300Y0206776D02*
X0235700Y0206776D01*
X0235700Y0206178D02*
X0231000Y0206178D01*
X0231000Y0205700D02*
X0231000Y0205606D01*
X0231123Y0204829D01*
X0231366Y0204081D01*
X0231724Y0203379D01*
X0232186Y0202743D01*
X0232743Y0202186D01*
X0233379Y0201724D01*
X0234081Y0201366D01*
X0234829Y0201123D01*
X0235606Y0201000D01*
X0235700Y0201000D01*
X0235700Y0205700D01*
X0231000Y0205700D01*
X0231000Y0205579D02*
X0231004Y0205579D01*
X0230990Y0204981D02*
X0231099Y0204981D01*
X0231268Y0204382D02*
X0230742Y0204382D01*
X0230494Y0203784D02*
X0231518Y0203784D01*
X0231865Y0203185D02*
X0230246Y0203185D01*
X0229658Y0202587D02*
X0232342Y0202587D01*
X0233015Y0201988D02*
X0229059Y0201988D01*
X0227935Y0201390D02*
X0234035Y0201390D01*
X0235700Y0201390D02*
X0236300Y0201390D01*
X0236300Y0201988D02*
X0235700Y0201988D01*
X0235700Y0202587D02*
X0236300Y0202587D01*
X0236300Y0203185D02*
X0235700Y0203185D01*
X0235700Y0203784D02*
X0236300Y0203784D01*
X0236300Y0204382D02*
X0235700Y0204382D01*
X0235700Y0204981D02*
X0236300Y0204981D01*
X0236300Y0205579D02*
X0235700Y0205579D01*
X0235700Y0207375D02*
X0236300Y0207375D01*
X0236300Y0207973D02*
X0235700Y0207973D01*
X0235700Y0208572D02*
X0236300Y0208572D01*
X0236300Y0209170D02*
X0235700Y0209170D01*
X0235700Y0209769D02*
X0236300Y0209769D01*
X0236300Y0210367D02*
X0235700Y0210367D01*
X0233558Y0210367D02*
X0228522Y0210367D01*
X0229302Y0209769D02*
X0232698Y0209769D01*
X0232123Y0209170D02*
X0229901Y0209170D01*
X0230347Y0208572D02*
X0231699Y0208572D01*
X0231394Y0207973D02*
X0230595Y0207973D01*
X0230843Y0207375D02*
X0231189Y0207375D01*
X0231061Y0206776D02*
X0231000Y0206776D01*
X0220096Y0215155D02*
X0296700Y0215155D01*
X0296700Y0214557D02*
X0219751Y0214557D01*
X0219232Y0213958D02*
X0296700Y0213958D01*
X0296700Y0213360D02*
X0218633Y0213360D01*
X0218035Y0212761D02*
X0296700Y0212761D01*
X0296700Y0212163D02*
X0217294Y0212163D01*
X0216257Y0211564D02*
X0296700Y0211564D01*
X0296700Y0210966D02*
X0282077Y0210966D01*
X0281995Y0211000D02*
X0280005Y0211000D01*
X0278168Y0210239D01*
X0276761Y0208832D01*
X0276000Y0206995D01*
X0276000Y0205005D01*
X0276761Y0203168D01*
X0278168Y0201761D01*
X0280005Y0201000D01*
X0281995Y0201000D01*
X0283832Y0201761D01*
X0285239Y0203168D01*
X0286000Y0205005D01*
X0286000Y0206995D01*
X0285239Y0208832D01*
X0283832Y0210239D01*
X0281995Y0211000D01*
X0283522Y0210367D02*
X0296700Y0210367D01*
X0296700Y0209769D02*
X0284302Y0209769D01*
X0284901Y0209170D02*
X0296700Y0209170D01*
X0296700Y0208572D02*
X0285347Y0208572D01*
X0285595Y0207973D02*
X0296700Y0207973D01*
X0296700Y0207524D02*
X0296296Y0207291D01*
X0295511Y0206689D01*
X0294811Y0205989D01*
X0294209Y0205204D01*
X0293714Y0204346D01*
X0293335Y0203432D01*
X0293079Y0202476D01*
X0292950Y0201495D01*
X0292950Y0201300D01*
X0300200Y0201300D01*
X0300200Y0203200D01*
X0300200Y0203200D01*
X0300200Y0221700D01*
X0296700Y0221700D01*
X0296700Y0207524D01*
X0296441Y0207375D02*
X0285843Y0207375D01*
X0286000Y0206776D02*
X0295626Y0206776D01*
X0295000Y0206178D02*
X0286000Y0206178D01*
X0286000Y0205579D02*
X0294497Y0205579D01*
X0294080Y0204981D02*
X0285990Y0204981D01*
X0285742Y0204382D02*
X0293735Y0204382D01*
X0293481Y0203784D02*
X0285494Y0203784D01*
X0285246Y0203185D02*
X0293269Y0203185D01*
X0293109Y0202587D02*
X0284658Y0202587D01*
X0284059Y0201988D02*
X0293015Y0201988D01*
X0292950Y0201390D02*
X0282935Y0201390D01*
X0279065Y0201390D02*
X0272965Y0201390D01*
X0272919Y0201366D02*
X0273621Y0201724D01*
X0274257Y0202186D01*
X0274814Y0202743D01*
X0275276Y0203379D01*
X0275634Y0204081D01*
X0275877Y0204829D01*
X0276000Y0205606D01*
X0276000Y0205700D01*
X0271300Y0205700D01*
X0271300Y0206300D01*
X0270700Y0206300D01*
X0270700Y0211000D01*
X0270606Y0211000D01*
X0269829Y0210877D01*
X0269081Y0210634D01*
X0268379Y0210276D01*
X0267743Y0209814D01*
X0267186Y0209257D01*
X0266724Y0208621D01*
X0266366Y0207919D01*
X0266123Y0207171D01*
X0266000Y0206394D01*
X0266000Y0206300D01*
X0270700Y0206300D01*
X0270700Y0205700D01*
X0266000Y0205700D01*
X0266000Y0205606D01*
X0266123Y0204829D01*
X0266366Y0204081D01*
X0266724Y0203379D01*
X0267186Y0202743D01*
X0267743Y0202186D01*
X0268379Y0201724D01*
X0269081Y0201366D01*
X0269829Y0201123D01*
X0270606Y0201000D01*
X0270700Y0201000D01*
X0270700Y0205700D01*
X0271300Y0205700D01*
X0271300Y0201000D01*
X0271394Y0201000D01*
X0272171Y0201123D01*
X0272919Y0201366D01*
X0273985Y0201988D02*
X0277941Y0201988D01*
X0277342Y0202587D02*
X0274658Y0202587D01*
X0275135Y0203185D02*
X0276754Y0203185D01*
X0276506Y0203784D02*
X0275482Y0203784D01*
X0275732Y0204382D02*
X0276258Y0204382D01*
X0276010Y0204981D02*
X0275901Y0204981D01*
X0275996Y0205579D02*
X0276000Y0205579D01*
X0276000Y0206178D02*
X0271300Y0206178D01*
X0271300Y0206300D02*
X0276000Y0206300D01*
X0276000Y0206394D01*
X0275877Y0207171D01*
X0275634Y0207919D01*
X0275276Y0208621D01*
X0274814Y0209257D01*
X0274257Y0209814D01*
X0273621Y0210276D01*
X0272919Y0210634D01*
X0272171Y0210877D01*
X0271394Y0211000D01*
X0271300Y0211000D01*
X0271300Y0206300D01*
X0271300Y0206776D02*
X0270700Y0206776D01*
X0270700Y0206178D02*
X0266000Y0206178D01*
X0266000Y0206776D02*
X0266061Y0206776D01*
X0266000Y0206995D02*
X0265239Y0208832D01*
X0263832Y0210239D01*
X0261995Y0211000D01*
X0260005Y0211000D01*
X0258168Y0210239D01*
X0256761Y0208832D01*
X0256000Y0206995D01*
X0256000Y0205005D01*
X0256761Y0203168D01*
X0258168Y0201761D01*
X0260005Y0201000D01*
X0261995Y0201000D01*
X0263832Y0201761D01*
X0265239Y0203168D01*
X0266000Y0205005D01*
X0266000Y0206995D01*
X0265843Y0207375D02*
X0266189Y0207375D01*
X0266394Y0207973D02*
X0265595Y0207973D01*
X0265347Y0208572D02*
X0266699Y0208572D01*
X0267123Y0209170D02*
X0264901Y0209170D01*
X0264302Y0209769D02*
X0267698Y0209769D01*
X0268558Y0210367D02*
X0263522Y0210367D01*
X0262077Y0210966D02*
X0270391Y0210966D01*
X0270700Y0210966D02*
X0271300Y0210966D01*
X0271609Y0210966D02*
X0279923Y0210966D01*
X0278478Y0210367D02*
X0273442Y0210367D01*
X0274302Y0209769D02*
X0277698Y0209769D01*
X0277099Y0209170D02*
X0274877Y0209170D01*
X0275301Y0208572D02*
X0276653Y0208572D01*
X0276405Y0207973D02*
X0275606Y0207973D01*
X0275811Y0207375D02*
X0276157Y0207375D01*
X0276000Y0206776D02*
X0275939Y0206776D01*
X0271300Y0207375D02*
X0270700Y0207375D01*
X0270700Y0207973D02*
X0271300Y0207973D01*
X0271300Y0208572D02*
X0270700Y0208572D01*
X0270700Y0209170D02*
X0271300Y0209170D01*
X0271300Y0209769D02*
X0270700Y0209769D01*
X0270700Y0210367D02*
X0271300Y0210367D01*
X0271300Y0205579D02*
X0270700Y0205579D01*
X0270700Y0204981D02*
X0271300Y0204981D01*
X0271300Y0204382D02*
X0270700Y0204382D01*
X0270700Y0203784D02*
X0271300Y0203784D01*
X0271300Y0203185D02*
X0270700Y0203185D01*
X0270700Y0202587D02*
X0271300Y0202587D01*
X0271300Y0201988D02*
X0270700Y0201988D01*
X0270700Y0201390D02*
X0271300Y0201390D01*
X0269035Y0201390D02*
X0262935Y0201390D01*
X0264059Y0201988D02*
X0268015Y0201988D01*
X0267342Y0202587D02*
X0264658Y0202587D01*
X0265246Y0203185D02*
X0266865Y0203185D01*
X0266518Y0203784D02*
X0265494Y0203784D01*
X0265742Y0204382D02*
X0266268Y0204382D01*
X0266099Y0204981D02*
X0265990Y0204981D01*
X0266000Y0205579D02*
X0266004Y0205579D01*
X0259065Y0201390D02*
X0247935Y0201390D01*
X0249059Y0201988D02*
X0257941Y0201988D01*
X0257342Y0202587D02*
X0249658Y0202587D01*
X0250246Y0203185D02*
X0256754Y0203185D01*
X0256506Y0203784D02*
X0250494Y0203784D01*
X0250742Y0204382D02*
X0256258Y0204382D01*
X0256010Y0204981D02*
X0250990Y0204981D01*
X0251000Y0205579D02*
X0256000Y0205579D01*
X0256000Y0206178D02*
X0251000Y0206178D01*
X0251000Y0206776D02*
X0256000Y0206776D01*
X0256157Y0207375D02*
X0250843Y0207375D01*
X0250595Y0207973D02*
X0256405Y0207973D01*
X0256653Y0208572D02*
X0250347Y0208572D01*
X0249901Y0209170D02*
X0257099Y0209170D01*
X0257698Y0209769D02*
X0249302Y0209769D01*
X0248522Y0210367D02*
X0258478Y0210367D01*
X0259923Y0210966D02*
X0247077Y0210966D01*
X0241000Y0205579D02*
X0240996Y0205579D01*
X0241010Y0204981D02*
X0240901Y0204981D01*
X0244042Y0201390D02*
X0244065Y0201390D01*
X0243444Y0200791D02*
X0300200Y0200791D01*
X0300200Y0200700D02*
X0292950Y0200700D01*
X0292950Y0200505D01*
X0293079Y0199524D01*
X0293335Y0198568D01*
X0293714Y0197654D01*
X0294209Y0196796D01*
X0294811Y0196011D01*
X0295511Y0195311D01*
X0296296Y0194709D01*
X0297154Y0194214D01*
X0298068Y0193835D01*
X0299024Y0193579D01*
X0300005Y0193450D01*
X0300200Y0193450D01*
X0300200Y0200700D01*
X0300800Y0200700D01*
X0300800Y0201300D01*
X0300200Y0201300D01*
X0300200Y0200700D01*
X0300200Y0200193D02*
X0300800Y0200193D01*
X0300800Y0200700D02*
X0300800Y0193450D01*
X0300995Y0193450D01*
X0301976Y0193579D01*
X0302932Y0193835D01*
X0303846Y0194214D01*
X0304704Y0194709D01*
X0305489Y0195311D01*
X0306189Y0196011D01*
X0306791Y0196796D01*
X0307286Y0197654D01*
X0307665Y0198568D01*
X0307921Y0199524D01*
X0308050Y0200505D01*
X0308050Y0200700D01*
X0300800Y0200700D01*
X0300800Y0200791D02*
X0323950Y0200791D01*
X0323950Y0200193D02*
X0308009Y0200193D01*
X0307930Y0199594D02*
X0323950Y0199594D01*
X0324158Y0198996D02*
X0307779Y0198996D01*
X0307594Y0198397D02*
X0324406Y0198397D01*
X0324654Y0197799D02*
X0307346Y0197799D01*
X0307024Y0197200D02*
X0324902Y0197200D01*
X0325221Y0196602D02*
X0306641Y0196602D01*
X0306180Y0196003D02*
X0325820Y0196003D01*
X0326418Y0195405D02*
X0305582Y0195405D01*
X0304830Y0194806D02*
X0327017Y0194806D01*
X0328169Y0194208D02*
X0303831Y0194208D01*
X0302087Y0193609D02*
X0329614Y0193609D01*
X0333386Y0193609D02*
X0348576Y0193609D01*
X0348329Y0194208D02*
X0334831Y0194208D01*
X0335983Y0194806D02*
X0348081Y0194806D01*
X0347850Y0195363D02*
X0348950Y0192707D01*
X0350982Y0190675D01*
X0353638Y0189575D01*
X0368362Y0189575D01*
X0371018Y0190675D01*
X0373050Y0192707D01*
X0374150Y0195363D01*
X0374150Y0198237D01*
X0373050Y0200893D01*
X0371018Y0202925D01*
X0368362Y0204025D01*
X0353638Y0204025D01*
X0350982Y0202925D01*
X0348950Y0200893D01*
X0347850Y0198237D01*
X0347850Y0195363D01*
X0347850Y0195405D02*
X0336582Y0195405D01*
X0337180Y0196003D02*
X0347850Y0196003D01*
X0347850Y0196602D02*
X0337779Y0196602D01*
X0338098Y0197200D02*
X0347850Y0197200D01*
X0347850Y0197799D02*
X0338346Y0197799D01*
X0338594Y0198397D02*
X0347916Y0198397D01*
X0348164Y0198996D02*
X0338842Y0198996D01*
X0339050Y0199594D02*
X0348412Y0199594D01*
X0348660Y0200193D02*
X0339050Y0200193D01*
X0339050Y0200791D02*
X0348908Y0200791D01*
X0349447Y0201390D02*
X0339050Y0201390D01*
X0339050Y0201988D02*
X0350045Y0201988D01*
X0350644Y0202587D02*
X0339015Y0202587D01*
X0338767Y0203185D02*
X0351610Y0203185D01*
X0353055Y0203784D02*
X0338519Y0203784D01*
X0338271Y0204382D02*
X0380401Y0204382D01*
X0380401Y0203784D02*
X0368945Y0203784D01*
X0370390Y0203185D02*
X0380401Y0203185D01*
X0380401Y0202587D02*
X0371356Y0202587D01*
X0371955Y0201988D02*
X0380401Y0201988D01*
X0380401Y0201390D02*
X0372553Y0201390D01*
X0373092Y0200791D02*
X0380401Y0200791D01*
X0380401Y0200193D02*
X0373340Y0200193D01*
X0373588Y0199594D02*
X0380401Y0199594D01*
X0380401Y0198996D02*
X0373836Y0198996D01*
X0374084Y0198397D02*
X0380401Y0198397D01*
X0380401Y0197799D02*
X0374150Y0197799D01*
X0374150Y0197200D02*
X0380401Y0197200D01*
X0380401Y0196602D02*
X0374150Y0196602D01*
X0374150Y0196003D02*
X0380401Y0196003D01*
X0380401Y0195405D02*
X0374150Y0195405D01*
X0373919Y0194806D02*
X0380401Y0194806D01*
X0380401Y0194208D02*
X0373671Y0194208D01*
X0373424Y0193609D02*
X0380401Y0193609D01*
X0380401Y0193010D02*
X0373176Y0193010D01*
X0372755Y0192412D02*
X0380401Y0192412D01*
X0380401Y0191813D02*
X0372156Y0191813D01*
X0371558Y0191215D02*
X0380401Y0191215D01*
X0380401Y0190616D02*
X0370876Y0190616D01*
X0369431Y0190018D02*
X0380401Y0190018D01*
X0380401Y0189419D02*
X0232072Y0189419D01*
X0231474Y0188821D02*
X0380401Y0188821D01*
X0380401Y0188222D02*
X0368368Y0188222D01*
X0368362Y0188225D02*
X0353638Y0188225D01*
X0350982Y0187125D01*
X0348950Y0185093D01*
X0347850Y0182437D01*
X0347850Y0179563D01*
X0348950Y0176907D01*
X0350982Y0174875D01*
X0353638Y0173775D01*
X0368362Y0173775D01*
X0371018Y0174875D01*
X0373050Y0176907D01*
X0374150Y0179563D01*
X0374150Y0182437D01*
X0373050Y0185093D01*
X0371018Y0187125D01*
X0368362Y0188225D01*
X0369813Y0187624D02*
X0380401Y0187624D01*
X0380401Y0187025D02*
X0371117Y0187025D01*
X0371716Y0186427D02*
X0380401Y0186427D01*
X0380401Y0185828D02*
X0372314Y0185828D01*
X0372913Y0185230D02*
X0380401Y0185230D01*
X0380401Y0184631D02*
X0373241Y0184631D01*
X0373489Y0184033D02*
X0380401Y0184033D01*
X0380401Y0183434D02*
X0373737Y0183434D01*
X0373985Y0182836D02*
X0380401Y0182836D01*
X0380401Y0182237D02*
X0374150Y0182237D01*
X0374150Y0181639D02*
X0380401Y0181639D01*
X0380401Y0181040D02*
X0374150Y0181040D01*
X0374150Y0180442D02*
X0380401Y0180442D01*
X0380401Y0179843D02*
X0374150Y0179843D01*
X0374018Y0179245D02*
X0380401Y0179245D01*
X0380401Y0178646D02*
X0373770Y0178646D01*
X0373522Y0178048D02*
X0380401Y0178048D01*
X0380401Y0177449D02*
X0373274Y0177449D01*
X0372993Y0176851D02*
X0380401Y0176851D01*
X0380401Y0176252D02*
X0372395Y0176252D01*
X0371796Y0175654D02*
X0380401Y0175654D01*
X0380401Y0175055D02*
X0371198Y0175055D01*
X0370008Y0174457D02*
X0380401Y0174457D01*
X0380401Y0173858D02*
X0368563Y0173858D01*
X0380401Y0173260D02*
X0219100Y0173260D01*
X0219100Y0173858D02*
X0353437Y0173858D01*
X0351992Y0174457D02*
X0219100Y0174457D01*
X0219100Y0175055D02*
X0350802Y0175055D01*
X0350204Y0175654D02*
X0219100Y0175654D01*
X0219100Y0176252D02*
X0349605Y0176252D01*
X0349007Y0176851D02*
X0219100Y0176851D01*
X0219100Y0177449D02*
X0348726Y0177449D01*
X0348478Y0178048D02*
X0219100Y0178048D01*
X0219100Y0178646D02*
X0348230Y0178646D01*
X0347982Y0179245D02*
X0219100Y0179245D01*
X0219100Y0179843D02*
X0347850Y0179843D01*
X0347850Y0180442D02*
X0219100Y0180442D01*
X0219100Y0181040D02*
X0347850Y0181040D01*
X0347850Y0181639D02*
X0219100Y0181639D01*
X0219100Y0182237D02*
X0347850Y0182237D01*
X0348015Y0182836D02*
X0219100Y0182836D01*
X0219100Y0183434D02*
X0348263Y0183434D01*
X0348511Y0184033D02*
X0226685Y0184033D01*
X0227284Y0184631D02*
X0348759Y0184631D01*
X0349087Y0185230D02*
X0227883Y0185230D01*
X0228481Y0185828D02*
X0349686Y0185828D01*
X0350284Y0186427D02*
X0229080Y0186427D01*
X0229678Y0187025D02*
X0350883Y0187025D01*
X0352187Y0187624D02*
X0230277Y0187624D01*
X0230875Y0188222D02*
X0353632Y0188222D01*
X0352569Y0190018D02*
X0232671Y0190018D01*
X0233269Y0190616D02*
X0351124Y0190616D01*
X0350442Y0191215D02*
X0233868Y0191215D01*
X0234466Y0191813D02*
X0349844Y0191813D01*
X0349245Y0192412D02*
X0235065Y0192412D01*
X0235663Y0193010D02*
X0348824Y0193010D01*
X0338023Y0204981D02*
X0380401Y0204981D01*
X0380401Y0205579D02*
X0337598Y0205579D01*
X0337000Y0206178D02*
X0380401Y0206178D01*
X0380401Y0206776D02*
X0336401Y0206776D01*
X0335803Y0207375D02*
X0380401Y0207375D01*
X0380401Y0207973D02*
X0335300Y0207973D01*
X0335300Y0208572D02*
X0380401Y0208572D01*
X0380401Y0209170D02*
X0335300Y0209170D01*
X0335300Y0209769D02*
X0380401Y0209769D01*
X0380401Y0210367D02*
X0368046Y0210367D01*
X0370220Y0210966D02*
X0380401Y0210966D01*
X0380401Y0211564D02*
X0371257Y0211564D01*
X0372294Y0212163D02*
X0380401Y0212163D01*
X0380401Y0212761D02*
X0373035Y0212761D01*
X0373633Y0213360D02*
X0380401Y0213360D01*
X0380401Y0213958D02*
X0374232Y0213958D01*
X0374751Y0214557D02*
X0380401Y0214557D01*
X0380401Y0215155D02*
X0375096Y0215155D01*
X0375442Y0215754D02*
X0380401Y0215754D01*
X0380401Y0216352D02*
X0375787Y0216352D01*
X0376096Y0216951D02*
X0380401Y0216951D01*
X0380401Y0217549D02*
X0376256Y0217549D01*
X0376417Y0218148D02*
X0380401Y0218148D01*
X0380401Y0218746D02*
X0376577Y0218746D01*
X0376738Y0219345D02*
X0380401Y0219345D01*
X0380401Y0219943D02*
X0376800Y0219943D01*
X0376800Y0220542D02*
X0380401Y0220542D01*
X0380401Y0221141D02*
X0376800Y0221141D01*
X0376800Y0221739D02*
X0380401Y0221739D01*
X0380401Y0222338D02*
X0376800Y0222338D01*
X0376662Y0222936D02*
X0380401Y0222936D01*
X0380401Y0223535D02*
X0376502Y0223535D01*
X0376341Y0224133D02*
X0380401Y0224133D01*
X0380401Y0224732D02*
X0376181Y0224732D01*
X0375971Y0225330D02*
X0380401Y0225330D01*
X0380401Y0225929D02*
X0375625Y0225929D01*
X0375280Y0226527D02*
X0380401Y0226527D01*
X0380401Y0227126D02*
X0374934Y0227126D01*
X0374549Y0227724D02*
X0380401Y0227724D01*
X0380401Y0228323D02*
X0373951Y0228323D01*
X0373352Y0228921D02*
X0380401Y0228921D01*
X0380401Y0229520D02*
X0372754Y0229520D01*
X0371807Y0230118D02*
X0380401Y0230118D01*
X0380401Y0230717D02*
X0370770Y0230717D01*
X0361230Y0230717D02*
X0335300Y0230717D01*
X0335300Y0230118D02*
X0360193Y0230118D01*
X0359246Y0229520D02*
X0335300Y0229520D01*
X0335300Y0228921D02*
X0358648Y0228921D01*
X0358049Y0228323D02*
X0335300Y0228323D01*
X0335300Y0227724D02*
X0357451Y0227724D01*
X0357066Y0227126D02*
X0335300Y0227126D01*
X0335300Y0226527D02*
X0356720Y0226527D01*
X0356375Y0225929D02*
X0335300Y0225929D01*
X0335300Y0225330D02*
X0356029Y0225330D01*
X0355819Y0224732D02*
X0335300Y0224732D01*
X0335300Y0224133D02*
X0355659Y0224133D01*
X0355498Y0223535D02*
X0335300Y0223535D01*
X0335300Y0222936D02*
X0355338Y0222936D01*
X0355200Y0222338D02*
X0335300Y0222338D01*
X0335300Y0221739D02*
X0355200Y0221739D01*
X0355200Y0221141D02*
X0335300Y0221141D01*
X0335300Y0220542D02*
X0355200Y0220542D01*
X0355200Y0219943D02*
X0335300Y0219943D01*
X0335300Y0219345D02*
X0355262Y0219345D01*
X0355423Y0218746D02*
X0335300Y0218746D01*
X0335300Y0218148D02*
X0355583Y0218148D01*
X0355744Y0217549D02*
X0335300Y0217549D01*
X0335300Y0216951D02*
X0355904Y0216951D01*
X0356212Y0216352D02*
X0335300Y0216352D01*
X0335300Y0215754D02*
X0356558Y0215754D01*
X0356904Y0215155D02*
X0335300Y0215155D01*
X0335300Y0214557D02*
X0357249Y0214557D01*
X0357768Y0213958D02*
X0335300Y0213958D01*
X0335300Y0213360D02*
X0358367Y0213360D01*
X0358965Y0212761D02*
X0335300Y0212761D01*
X0335300Y0212163D02*
X0359706Y0212163D01*
X0360743Y0211564D02*
X0335300Y0211564D01*
X0335300Y0210966D02*
X0361780Y0210966D01*
X0363954Y0210367D02*
X0335300Y0210367D01*
X0327700Y0210367D02*
X0304300Y0210367D01*
X0304300Y0209769D02*
X0327700Y0209769D01*
X0327700Y0209170D02*
X0304300Y0209170D01*
X0304300Y0208572D02*
X0327700Y0208572D01*
X0327700Y0207973D02*
X0304300Y0207973D01*
X0304300Y0207524D02*
X0304300Y0221700D01*
X0300800Y0221700D01*
X0300800Y0203200D01*
X0300800Y0201300D01*
X0308050Y0201300D01*
X0308050Y0201495D01*
X0307921Y0202476D01*
X0307665Y0203432D01*
X0307286Y0204346D01*
X0306791Y0205204D01*
X0306189Y0205989D01*
X0305489Y0206689D01*
X0304704Y0207291D01*
X0304300Y0207524D01*
X0304559Y0207375D02*
X0327197Y0207375D01*
X0326599Y0206776D02*
X0305374Y0206776D01*
X0306000Y0206178D02*
X0326000Y0206178D01*
X0325402Y0205579D02*
X0306503Y0205579D01*
X0306920Y0204981D02*
X0324977Y0204981D01*
X0324729Y0204382D02*
X0307265Y0204382D01*
X0307519Y0203784D02*
X0324481Y0203784D01*
X0324233Y0203185D02*
X0307731Y0203185D01*
X0307891Y0202587D02*
X0323985Y0202587D01*
X0323950Y0201988D02*
X0307985Y0201988D01*
X0308050Y0201390D02*
X0323950Y0201390D01*
X0327700Y0210966D02*
X0304300Y0210966D01*
X0304300Y0211564D02*
X0327700Y0211564D01*
X0327700Y0212163D02*
X0304300Y0212163D01*
X0304300Y0212761D02*
X0327700Y0212761D01*
X0327700Y0213360D02*
X0304300Y0213360D01*
X0304300Y0213958D02*
X0327700Y0213958D01*
X0327700Y0214557D02*
X0304300Y0214557D01*
X0304300Y0215155D02*
X0327700Y0215155D01*
X0327700Y0215754D02*
X0304300Y0215754D01*
X0304300Y0216352D02*
X0327700Y0216352D01*
X0327700Y0216951D02*
X0304300Y0216951D01*
X0304300Y0217549D02*
X0327700Y0217549D01*
X0327700Y0218148D02*
X0304300Y0218148D01*
X0304300Y0218746D02*
X0327700Y0218746D01*
X0327700Y0219345D02*
X0304300Y0219345D01*
X0304300Y0219943D02*
X0327700Y0219943D01*
X0327700Y0220542D02*
X0304300Y0220542D01*
X0304300Y0221141D02*
X0327700Y0221141D01*
X0327700Y0221739D02*
X0300800Y0221739D01*
X0300800Y0221141D02*
X0300200Y0221141D01*
X0300200Y0221739D02*
X0221800Y0221739D01*
X0221800Y0221141D02*
X0296700Y0221141D01*
X0296700Y0220542D02*
X0221800Y0220542D01*
X0221800Y0219943D02*
X0296700Y0219943D01*
X0296700Y0219345D02*
X0221738Y0219345D01*
X0221577Y0218746D02*
X0296700Y0218746D01*
X0296700Y0218148D02*
X0221417Y0218148D01*
X0221256Y0217549D02*
X0296700Y0217549D01*
X0296700Y0216951D02*
X0221096Y0216951D01*
X0220787Y0216352D02*
X0296700Y0216352D01*
X0296700Y0215754D02*
X0220442Y0215754D01*
X0221800Y0222338D02*
X0296700Y0222338D01*
X0296700Y0222936D02*
X0221662Y0222936D01*
X0221502Y0223535D02*
X0296700Y0223535D01*
X0296700Y0224133D02*
X0221341Y0224133D01*
X0221181Y0224732D02*
X0296700Y0224732D01*
X0296700Y0225330D02*
X0220971Y0225330D01*
X0220625Y0225929D02*
X0296700Y0225929D01*
X0296700Y0226527D02*
X0220280Y0226527D01*
X0219934Y0227126D02*
X0296700Y0227126D01*
X0296700Y0227724D02*
X0219549Y0227724D01*
X0218951Y0228323D02*
X0296700Y0228323D01*
X0296700Y0228921D02*
X0218352Y0228921D01*
X0217754Y0229520D02*
X0296700Y0229520D01*
X0296700Y0230118D02*
X0216807Y0230118D01*
X0215770Y0230717D02*
X0296700Y0230717D01*
X0304300Y0230717D02*
X0327700Y0230717D01*
X0327700Y0230118D02*
X0304300Y0230118D01*
X0304300Y0229520D02*
X0327700Y0229520D01*
X0327700Y0228921D02*
X0304300Y0228921D01*
X0304300Y0228323D02*
X0327700Y0228323D01*
X0327700Y0227724D02*
X0304300Y0227724D01*
X0304300Y0227126D02*
X0327700Y0227126D01*
X0327700Y0226527D02*
X0304300Y0226527D01*
X0304300Y0225929D02*
X0327700Y0225929D01*
X0327700Y0225330D02*
X0304300Y0225330D01*
X0304300Y0224732D02*
X0327700Y0224732D01*
X0327700Y0224133D02*
X0304300Y0224133D01*
X0304300Y0223535D02*
X0327700Y0223535D01*
X0327700Y0222936D02*
X0304300Y0222936D01*
X0304300Y0222338D02*
X0327700Y0222338D01*
X0300800Y0220542D02*
X0300200Y0220542D01*
X0300200Y0219943D02*
X0300800Y0219943D01*
X0300800Y0219345D02*
X0300200Y0219345D01*
X0300200Y0218746D02*
X0300800Y0218746D01*
X0300800Y0218148D02*
X0300200Y0218148D01*
X0300200Y0217549D02*
X0300800Y0217549D01*
X0300800Y0216951D02*
X0300200Y0216951D01*
X0300200Y0216352D02*
X0300800Y0216352D01*
X0300800Y0215754D02*
X0300200Y0215754D01*
X0300200Y0215155D02*
X0300800Y0215155D01*
X0300800Y0214557D02*
X0300200Y0214557D01*
X0300200Y0213958D02*
X0300800Y0213958D01*
X0300800Y0213360D02*
X0300200Y0213360D01*
X0300200Y0212761D02*
X0300800Y0212761D01*
X0300800Y0212163D02*
X0300200Y0212163D01*
X0300200Y0211564D02*
X0300800Y0211564D01*
X0300800Y0210966D02*
X0300200Y0210966D01*
X0300200Y0210367D02*
X0300800Y0210367D01*
X0300800Y0209769D02*
X0300200Y0209769D01*
X0300200Y0209170D02*
X0300800Y0209170D01*
X0300800Y0208572D02*
X0300200Y0208572D01*
X0300200Y0207973D02*
X0300800Y0207973D01*
X0300800Y0207375D02*
X0300200Y0207375D01*
X0300200Y0206776D02*
X0300800Y0206776D01*
X0300800Y0206178D02*
X0300200Y0206178D01*
X0300200Y0205579D02*
X0300800Y0205579D01*
X0300800Y0204981D02*
X0300200Y0204981D01*
X0300200Y0204382D02*
X0300800Y0204382D01*
X0300800Y0203784D02*
X0300200Y0203784D01*
X0300200Y0203185D02*
X0300800Y0203185D01*
X0300800Y0203200D02*
X0300800Y0203200D01*
X0300800Y0202587D02*
X0300200Y0202587D01*
X0300200Y0201988D02*
X0300800Y0201988D01*
X0300800Y0201390D02*
X0300200Y0201390D01*
X0300200Y0199594D02*
X0300800Y0199594D01*
X0300800Y0198996D02*
X0300200Y0198996D01*
X0300200Y0198397D02*
X0300800Y0198397D01*
X0300800Y0197799D02*
X0300200Y0197799D01*
X0300200Y0197200D02*
X0300800Y0197200D01*
X0300800Y0196602D02*
X0300200Y0196602D01*
X0300200Y0196003D02*
X0300800Y0196003D01*
X0300800Y0195405D02*
X0300200Y0195405D01*
X0300200Y0194806D02*
X0300800Y0194806D01*
X0300800Y0194208D02*
X0300200Y0194208D01*
X0300200Y0193609D02*
X0300800Y0193609D01*
X0298913Y0193609D02*
X0236262Y0193609D01*
X0236860Y0194208D02*
X0297169Y0194208D01*
X0296170Y0194806D02*
X0237459Y0194806D01*
X0238057Y0195405D02*
X0295418Y0195405D01*
X0294820Y0196003D02*
X0238656Y0196003D01*
X0239254Y0196602D02*
X0294358Y0196602D01*
X0293976Y0197200D02*
X0239853Y0197200D01*
X0240451Y0197799D02*
X0293654Y0197799D01*
X0293406Y0198397D02*
X0241050Y0198397D01*
X0241648Y0198996D02*
X0293221Y0198996D01*
X0293070Y0199594D02*
X0242247Y0199594D01*
X0242845Y0200193D02*
X0292991Y0200193D01*
X0230953Y0194806D02*
X0214265Y0194806D01*
X0214864Y0194208D02*
X0230355Y0194208D01*
X0229756Y0193609D02*
X0215331Y0193609D01*
X0215579Y0193010D02*
X0229158Y0193010D01*
X0228559Y0192412D02*
X0215827Y0192412D01*
X0216000Y0191813D02*
X0227961Y0191813D01*
X0227362Y0191215D02*
X0216000Y0191215D01*
X0216000Y0190616D02*
X0226764Y0190616D01*
X0226165Y0190018D02*
X0216000Y0190018D01*
X0215757Y0189419D02*
X0225567Y0189419D01*
X0224968Y0188821D02*
X0215632Y0188821D01*
X0216230Y0188222D02*
X0224370Y0188222D01*
X0214500Y0176851D02*
X0213795Y0176851D01*
X0214500Y0176252D02*
X0212568Y0176252D01*
X0212831Y0175654D02*
X0214500Y0175654D01*
X0214500Y0175055D02*
X0214016Y0175055D01*
X0211300Y0176252D02*
X0210700Y0176252D01*
X0210700Y0176851D02*
X0211300Y0176851D01*
X0211300Y0177449D02*
X0210700Y0177449D01*
X0210700Y0178048D02*
X0211300Y0178048D01*
X0211300Y0178646D02*
X0210700Y0178646D01*
X0210700Y0179245D02*
X0211300Y0179245D01*
X0211300Y0179843D02*
X0210700Y0179843D01*
X0210700Y0180442D02*
X0211300Y0180442D01*
X0210700Y0181040D02*
X0201000Y0181040D01*
X0210700Y0181639D02*
X0211300Y0181639D01*
X0211300Y0182237D02*
X0210700Y0182237D01*
X0210700Y0182836D02*
X0211300Y0182836D01*
X0211300Y0183434D02*
X0210700Y0183434D01*
X0210700Y0184033D02*
X0211300Y0184033D01*
X0211300Y0184631D02*
X0210700Y0184631D01*
X0210700Y0185230D02*
X0211300Y0185230D01*
X0211300Y0185828D02*
X0210700Y0185828D01*
X0208954Y0210367D02*
X0201000Y0210367D01*
X0201000Y0210966D02*
X0206780Y0210966D01*
X0205743Y0211564D02*
X0201000Y0211564D01*
X0201000Y0212163D02*
X0204706Y0212163D01*
X0203965Y0212761D02*
X0201000Y0212761D01*
X0201000Y0213360D02*
X0203367Y0213360D01*
X0202768Y0213958D02*
X0201000Y0213958D01*
X0201000Y0214557D02*
X0202249Y0214557D01*
X0201904Y0215155D02*
X0201000Y0215155D01*
X0201000Y0215754D02*
X0201558Y0215754D01*
X0201213Y0216352D02*
X0201000Y0216352D01*
X0201000Y0150516D02*
X0208850Y0150516D01*
X0207886Y0149918D02*
X0201000Y0149918D01*
X0201000Y0149319D02*
X0207248Y0149319D01*
X0206796Y0148721D02*
X0201000Y0148721D01*
X0201000Y0148122D02*
X0206470Y0148122D01*
X0206238Y0147524D02*
X0201000Y0147524D01*
X0201000Y0146925D02*
X0206084Y0146925D01*
X0206000Y0146327D02*
X0201000Y0146327D01*
X0201000Y0140940D02*
X0209861Y0140940D01*
X0210700Y0141539D02*
X0211300Y0141539D01*
X0211300Y0142137D02*
X0210700Y0142137D01*
X0210700Y0142736D02*
X0211300Y0142736D01*
X0211300Y0143334D02*
X0210700Y0143334D01*
X0210700Y0143933D02*
X0211300Y0143933D01*
X0211300Y0144531D02*
X0210700Y0144531D01*
X0210700Y0146327D02*
X0211300Y0146327D01*
X0211300Y0146925D02*
X0210700Y0146925D01*
X0212139Y0140940D02*
X0242125Y0140940D01*
X0242125Y0130765D02*
X0201000Y0130765D01*
X0201000Y0130167D02*
X0242125Y0130167D01*
X0242125Y0129568D02*
X0201000Y0129568D01*
X0201000Y0128970D02*
X0242125Y0128970D01*
X0242125Y0128371D02*
X0201000Y0128371D01*
X0201000Y0127773D02*
X0242239Y0127773D01*
X0242838Y0127174D02*
X0201000Y0127174D01*
X0201000Y0126576D02*
X0380401Y0126576D01*
X0380401Y0127174D02*
X0329162Y0127174D01*
X0329761Y0127773D02*
X0380401Y0127773D01*
X0380401Y0128371D02*
X0329875Y0128371D01*
X0329875Y0128970D02*
X0380401Y0128970D01*
X0380401Y0129568D02*
X0329875Y0129568D01*
X0329875Y0130167D02*
X0380401Y0130167D01*
X0380401Y0130765D02*
X0329875Y0130765D01*
X0329875Y0131364D02*
X0374088Y0131364D01*
X0373051Y0131962D02*
X0329875Y0131962D01*
X0329875Y0132561D02*
X0372368Y0132561D01*
X0371883Y0133159D02*
X0329875Y0133159D01*
X0329875Y0133758D02*
X0371531Y0133758D01*
X0371277Y0134356D02*
X0329632Y0134356D01*
X0329208Y0124780D02*
X0372709Y0124780D01*
X0372111Y0124182D02*
X0329806Y0124182D01*
X0329875Y0123583D02*
X0371658Y0123583D01*
X0371410Y0122985D02*
X0329875Y0122985D01*
X0329875Y0122386D02*
X0371162Y0122386D01*
X0371000Y0121788D02*
X0329875Y0121788D01*
X0329875Y0121189D02*
X0371000Y0121189D01*
X0371000Y0120591D02*
X0329875Y0120591D01*
X0329875Y0119992D02*
X0371006Y0119992D01*
X0371141Y0119394D02*
X0329875Y0119394D01*
X0329875Y0118795D02*
X0370542Y0118795D01*
X0369944Y0118197D02*
X0329875Y0118197D01*
X0329586Y0117598D02*
X0369345Y0117598D01*
X0368747Y0117000D02*
X0217453Y0117000D01*
X0216855Y0117598D02*
X0242414Y0117598D01*
X0242125Y0118197D02*
X0216256Y0118197D01*
X0215658Y0118795D02*
X0242125Y0118795D01*
X0242125Y0119394D02*
X0215747Y0119394D01*
X0215994Y0119992D02*
X0242125Y0119992D01*
X0242125Y0120591D02*
X0216000Y0120591D01*
X0216000Y0121189D02*
X0242125Y0121189D01*
X0242125Y0121788D02*
X0216000Y0121788D01*
X0215838Y0122386D02*
X0242125Y0122386D01*
X0242125Y0122985D02*
X0215590Y0122985D01*
X0215342Y0123583D02*
X0242125Y0123583D01*
X0242194Y0124182D02*
X0214889Y0124182D01*
X0214291Y0124780D02*
X0242792Y0124780D01*
X0242617Y0114605D02*
X0219100Y0114605D01*
X0219100Y0114007D02*
X0242125Y0114007D01*
X0242125Y0113408D02*
X0219100Y0113408D01*
X0219100Y0112810D02*
X0242125Y0112810D01*
X0242125Y0112211D02*
X0219100Y0112211D01*
X0219100Y0111613D02*
X0242125Y0111613D01*
X0242125Y0111014D02*
X0219100Y0111014D01*
X0219100Y0110416D02*
X0242125Y0110416D01*
X0242125Y0109817D02*
X0219100Y0109817D01*
X0219100Y0109219D02*
X0242125Y0109219D01*
X0242125Y0108620D02*
X0219100Y0108620D01*
X0219100Y0108022D02*
X0242125Y0108022D01*
X0242589Y0107423D02*
X0219100Y0107423D01*
X0219100Y0106825D02*
X0367100Y0106825D01*
X0367100Y0107423D02*
X0329411Y0107423D01*
X0329875Y0108022D02*
X0367100Y0108022D01*
X0367100Y0108620D02*
X0329875Y0108620D01*
X0329875Y0109219D02*
X0367100Y0109219D01*
X0367100Y0109817D02*
X0329875Y0109817D01*
X0329875Y0110416D02*
X0367100Y0110416D01*
X0367100Y0111014D02*
X0329875Y0111014D01*
X0329875Y0111613D02*
X0367100Y0111613D01*
X0367100Y0112211D02*
X0329875Y0112211D01*
X0329875Y0112810D02*
X0367100Y0112810D01*
X0367100Y0113408D02*
X0329875Y0113408D01*
X0329875Y0114007D02*
X0367100Y0114007D01*
X0367100Y0114605D02*
X0329383Y0114605D01*
X0329557Y0104431D02*
X0367100Y0104431D01*
X0367100Y0105029D02*
X0219100Y0105029D01*
X0219100Y0104431D02*
X0242443Y0104431D01*
X0242125Y0103832D02*
X0219100Y0103832D01*
X0219100Y0103234D02*
X0242125Y0103234D01*
X0242125Y0102635D02*
X0219100Y0102635D01*
X0219100Y0102037D02*
X0242125Y0102037D01*
X0242125Y0101438D02*
X0219100Y0101438D01*
X0219092Y0100840D02*
X0242125Y0100840D01*
X0242125Y0100241D02*
X0218494Y0100241D01*
X0217895Y0099643D02*
X0242125Y0099643D01*
X0242125Y0099044D02*
X0217297Y0099044D01*
X0216698Y0098446D02*
X0242125Y0098446D01*
X0242165Y0097847D02*
X0216100Y0097847D01*
X0215895Y0097249D02*
X0242763Y0097249D01*
X0242867Y0094855D02*
X0215938Y0094855D01*
X0216000Y0095453D02*
X0371000Y0095453D01*
X0371000Y0096052D02*
X0216000Y0096052D01*
X0216000Y0096650D02*
X0371000Y0096650D01*
X0370699Y0097249D02*
X0329237Y0097249D01*
X0329835Y0097847D02*
X0370100Y0097847D01*
X0369502Y0098446D02*
X0329875Y0098446D01*
X0329875Y0099044D02*
X0368903Y0099044D01*
X0368305Y0099643D02*
X0329875Y0099643D01*
X0329875Y0100241D02*
X0367706Y0100241D01*
X0367108Y0100840D02*
X0329875Y0100840D01*
X0329875Y0101438D02*
X0367100Y0101438D01*
X0367100Y0102037D02*
X0329875Y0102037D01*
X0329875Y0102635D02*
X0367100Y0102635D01*
X0367100Y0103234D02*
X0329875Y0103234D01*
X0329875Y0103832D02*
X0367100Y0103832D01*
X0367100Y0105628D02*
X0219100Y0105628D01*
X0219100Y0106226D02*
X0367100Y0106226D01*
X0367100Y0115204D02*
X0219100Y0115204D01*
X0218650Y0115803D02*
X0367550Y0115803D01*
X0368148Y0116401D02*
X0218052Y0116401D01*
X0211947Y0116000D02*
X0210005Y0116000D01*
X0211947Y0116000D01*
X0211947Y0116000D01*
X0209529Y0115803D02*
X0201000Y0115803D01*
X0201000Y0116401D02*
X0209037Y0116401D01*
X0207929Y0117000D02*
X0201000Y0117000D01*
X0201000Y0117598D02*
X0207331Y0117598D01*
X0206749Y0118197D02*
X0201000Y0118197D01*
X0201000Y0118795D02*
X0206501Y0118795D01*
X0206253Y0119394D02*
X0201000Y0119394D01*
X0201000Y0119992D02*
X0206006Y0119992D01*
X0206000Y0120591D02*
X0201000Y0120591D01*
X0201000Y0121189D02*
X0206000Y0121189D01*
X0206000Y0121788D02*
X0201000Y0121788D01*
X0201000Y0122386D02*
X0206162Y0122386D01*
X0206410Y0122985D02*
X0201000Y0122985D01*
X0201000Y0123583D02*
X0206658Y0123583D01*
X0207111Y0124182D02*
X0201000Y0124182D01*
X0201000Y0124780D02*
X0207709Y0124780D01*
X0208506Y0125379D02*
X0201000Y0125379D01*
X0201000Y0125977D02*
X0209950Y0125977D01*
X0212050Y0125977D02*
X0374950Y0125977D01*
X0373506Y0125379D02*
X0213494Y0125379D01*
X0208133Y0115204D02*
X0201000Y0115204D01*
X0201000Y0114605D02*
X0207534Y0114605D01*
X0206936Y0114007D02*
X0201000Y0114007D01*
X0201000Y0113408D02*
X0206586Y0113408D01*
X0206338Y0112810D02*
X0201000Y0112810D01*
X0201000Y0112211D02*
X0206090Y0112211D01*
X0206000Y0111613D02*
X0201000Y0111613D01*
X0201000Y0111014D02*
X0206000Y0111014D01*
X0206000Y0110416D02*
X0201000Y0110416D01*
X0201000Y0109817D02*
X0206078Y0109817D01*
X0206326Y0109219D02*
X0201000Y0109219D01*
X0201000Y0108620D02*
X0206574Y0108620D01*
X0206907Y0108022D02*
X0201000Y0108022D01*
X0201000Y0107423D02*
X0207506Y0107423D01*
X0208104Y0106825D02*
X0201000Y0106825D01*
X0201000Y0106226D02*
X0209459Y0106226D01*
X0212541Y0106226D02*
X0214500Y0106226D01*
X0214500Y0105628D02*
X0201000Y0105628D01*
X0201000Y0105029D02*
X0214500Y0105029D01*
X0214500Y0104431D02*
X0201000Y0104431D01*
X0201000Y0103832D02*
X0214500Y0103832D01*
X0214500Y0103234D02*
X0201000Y0103234D01*
X0201000Y0102635D02*
X0214383Y0102635D01*
X0213784Y0102037D02*
X0201000Y0102037D01*
X0201000Y0101438D02*
X0213186Y0101438D01*
X0212587Y0100840D02*
X0212381Y0100840D01*
X0209619Y0100840D02*
X0201000Y0100840D01*
X0201000Y0100241D02*
X0208174Y0100241D01*
X0207572Y0099643D02*
X0201000Y0099643D01*
X0201000Y0099044D02*
X0206973Y0099044D01*
X0206601Y0098446D02*
X0201000Y0098446D01*
X0201000Y0097847D02*
X0206353Y0097847D01*
X0206105Y0097249D02*
X0201000Y0097249D01*
X0201000Y0096650D02*
X0206000Y0096650D01*
X0206000Y0096052D02*
X0201000Y0096052D01*
X0201000Y0095453D02*
X0206000Y0095453D01*
X0206062Y0094855D02*
X0201000Y0094855D01*
X0201000Y0094256D02*
X0206310Y0094256D01*
X0206558Y0093658D02*
X0201000Y0093658D01*
X0201000Y0093059D02*
X0206870Y0093059D01*
X0207468Y0092461D02*
X0201000Y0092461D01*
X0201000Y0091862D02*
X0208067Y0091862D01*
X0209369Y0091264D02*
X0201000Y0091264D01*
X0201000Y0090665D02*
X0209197Y0090665D01*
X0207995Y0090067D02*
X0201000Y0090067D01*
X0201000Y0089468D02*
X0207397Y0089468D01*
X0206798Y0088870D02*
X0201000Y0088870D01*
X0201000Y0088271D02*
X0206529Y0088271D01*
X0206281Y0087672D02*
X0201000Y0087672D01*
X0201000Y0087074D02*
X0206033Y0087074D01*
X0206000Y0086475D02*
X0201000Y0086475D01*
X0201000Y0085877D02*
X0206000Y0085877D01*
X0206000Y0085278D02*
X0201000Y0085278D01*
X0201000Y0084680D02*
X0206135Y0084680D01*
X0206383Y0084081D02*
X0201000Y0084081D01*
X0201000Y0083483D02*
X0206631Y0083483D01*
X0207045Y0082884D02*
X0201000Y0082884D01*
X0201000Y0082286D02*
X0207643Y0082286D01*
X0208346Y0081687D02*
X0201000Y0081687D01*
X0201000Y0081089D02*
X0209791Y0081089D01*
X0209287Y0075702D02*
X0201000Y0075702D01*
X0201000Y0075104D02*
X0208033Y0075104D01*
X0207434Y0074505D02*
X0201000Y0074505D01*
X0201000Y0073907D02*
X0206836Y0073907D01*
X0206544Y0073308D02*
X0201000Y0073308D01*
X0201000Y0072710D02*
X0206296Y0072710D01*
X0206048Y0072111D02*
X0201000Y0072111D01*
X0201000Y0071513D02*
X0206000Y0071513D01*
X0206000Y0070914D02*
X0201000Y0070914D01*
X0201000Y0070316D02*
X0206000Y0070316D01*
X0206119Y0069717D02*
X0201000Y0069717D01*
X0201000Y0069119D02*
X0206367Y0069119D01*
X0206615Y0068520D02*
X0201000Y0068520D01*
X0201000Y0067922D02*
X0207007Y0067922D01*
X0207606Y0067323D02*
X0201000Y0067323D01*
X0201000Y0066725D02*
X0208256Y0066725D01*
X0208865Y0065528D02*
X0201000Y0065528D01*
X0201000Y0066126D02*
X0209701Y0066126D01*
X0207858Y0064929D02*
X0201000Y0064929D01*
X0201000Y0064331D02*
X0207259Y0064331D01*
X0206720Y0063732D02*
X0201000Y0063732D01*
X0201000Y0063134D02*
X0206472Y0063134D01*
X0206224Y0062535D02*
X0201000Y0062535D01*
X0201000Y0061937D02*
X0206000Y0061937D01*
X0206000Y0061338D02*
X0201000Y0061338D01*
X0201000Y0060739D02*
X0206000Y0060739D01*
X0206000Y0060141D02*
X0201000Y0060141D01*
X0201000Y0059542D02*
X0206192Y0059542D01*
X0206440Y0058944D02*
X0201000Y0058944D01*
X0201000Y0058345D02*
X0206688Y0058345D01*
X0207182Y0057747D02*
X0201000Y0057747D01*
X0201000Y0057148D02*
X0207781Y0057148D01*
X0208678Y0056550D02*
X0201000Y0056550D01*
X0201000Y0055951D02*
X0367100Y0055951D01*
X0367100Y0055353D02*
X0201000Y0055353D01*
X0201000Y0054754D02*
X0242766Y0054754D01*
X0242168Y0054156D02*
X0201000Y0054156D01*
X0201000Y0053557D02*
X0242125Y0053557D01*
X0242125Y0052959D02*
X0201000Y0052959D01*
X0201000Y0052360D02*
X0242125Y0052360D01*
X0242125Y0051762D02*
X0201000Y0051762D01*
X0214219Y0057148D02*
X0242863Y0057148D01*
X0242887Y0057125D02*
X0249113Y0057125D01*
X0249875Y0057887D01*
X0249875Y0064113D01*
X0249113Y0064875D01*
X0242887Y0064875D01*
X0242125Y0064113D01*
X0242125Y0057887D01*
X0242887Y0057125D01*
X0242265Y0057747D02*
X0214818Y0057747D01*
X0215312Y0058345D02*
X0242125Y0058345D01*
X0242125Y0058944D02*
X0215560Y0058944D01*
X0215808Y0059542D02*
X0242125Y0059542D01*
X0242125Y0060141D02*
X0216000Y0060141D01*
X0216000Y0060739D02*
X0242125Y0060739D01*
X0242125Y0061338D02*
X0216000Y0061338D01*
X0216000Y0061937D02*
X0242125Y0061937D01*
X0242125Y0062535D02*
X0215776Y0062535D01*
X0215528Y0063134D02*
X0242125Y0063134D01*
X0242125Y0063732D02*
X0215280Y0063732D01*
X0214741Y0064331D02*
X0242342Y0064331D01*
X0249658Y0064331D02*
X0322342Y0064331D01*
X0322125Y0063732D02*
X0249875Y0063732D01*
X0249875Y0063134D02*
X0322125Y0063134D01*
X0322125Y0062535D02*
X0249875Y0062535D01*
X0249875Y0061937D02*
X0322125Y0061937D01*
X0322125Y0061338D02*
X0249875Y0061338D01*
X0249875Y0060739D02*
X0322125Y0060739D01*
X0322125Y0060141D02*
X0249875Y0060141D01*
X0249875Y0059542D02*
X0322125Y0059542D01*
X0322125Y0058944D02*
X0249875Y0058944D01*
X0249875Y0058345D02*
X0322125Y0058345D01*
X0322265Y0057747D02*
X0249735Y0057747D01*
X0249136Y0057148D02*
X0322863Y0057148D01*
X0322766Y0054754D02*
X0249234Y0054754D01*
X0249832Y0054156D02*
X0322168Y0054156D01*
X0322125Y0053557D02*
X0249875Y0053557D01*
X0249875Y0052959D02*
X0322125Y0052959D01*
X0322125Y0052360D02*
X0249875Y0052360D01*
X0249875Y0051762D02*
X0322125Y0051762D01*
X0322125Y0051163D02*
X0249875Y0051163D01*
X0249875Y0050565D02*
X0322125Y0050565D01*
X0322125Y0049966D02*
X0249875Y0049966D01*
X0249875Y0049368D02*
X0322115Y0049368D01*
X0321517Y0048769D02*
X0249875Y0048769D01*
X0249875Y0048171D02*
X0320918Y0048171D01*
X0322125Y0043383D02*
X0249875Y0043383D01*
X0249875Y0042784D02*
X0322125Y0042784D01*
X0322125Y0042186D02*
X0249875Y0042186D01*
X0249875Y0041587D02*
X0322125Y0041587D01*
X0322125Y0040989D02*
X0249875Y0040989D01*
X0249875Y0040390D02*
X0322125Y0040390D01*
X0322125Y0039792D02*
X0249875Y0039792D01*
X0249875Y0039193D02*
X0322125Y0039193D01*
X0322125Y0038595D02*
X0249875Y0038595D01*
X0249875Y0037996D02*
X0322125Y0037996D01*
X0322614Y0037398D02*
X0249386Y0037398D01*
X0249583Y0034405D02*
X0322417Y0034405D01*
X0322385Y0034373D02*
X0322214Y0034077D01*
X0322125Y0033746D01*
X0322125Y0031300D01*
X0325700Y0031300D01*
X0325700Y0034875D01*
X0323254Y0034875D01*
X0322923Y0034786D01*
X0322627Y0034615D01*
X0322385Y0034373D01*
X0322141Y0033806D02*
X0249875Y0033806D01*
X0249875Y0033208D02*
X0322125Y0033208D01*
X0322125Y0032609D02*
X0249875Y0032609D01*
X0249875Y0032011D02*
X0322125Y0032011D01*
X0322125Y0031412D02*
X0249875Y0031412D01*
X0249875Y0030814D02*
X0325700Y0030814D01*
X0325700Y0030700D02*
X0322125Y0030700D01*
X0322125Y0028254D01*
X0322214Y0027923D01*
X0322385Y0027627D01*
X0322627Y0027385D01*
X0322923Y0027214D01*
X0323254Y0027125D01*
X0325700Y0027125D01*
X0325700Y0030700D01*
X0326300Y0030700D01*
X0326300Y0031300D01*
X0329875Y0031300D01*
X0329875Y0033746D01*
X0329786Y0034077D01*
X0329615Y0034373D01*
X0329373Y0034615D01*
X0329077Y0034786D01*
X0328746Y0034875D01*
X0326300Y0034875D01*
X0326300Y0031300D01*
X0325700Y0031300D01*
X0325700Y0030700D01*
X0325700Y0030215D02*
X0326300Y0030215D01*
X0326300Y0030700D02*
X0326300Y0027125D01*
X0328746Y0027125D01*
X0329077Y0027214D01*
X0329373Y0027385D01*
X0329615Y0027627D01*
X0329786Y0027923D01*
X0329875Y0028254D01*
X0329875Y0030700D01*
X0326300Y0030700D01*
X0326300Y0030814D02*
X0380401Y0030814D01*
X0380401Y0031412D02*
X0377990Y0031412D01*
X0379082Y0032011D02*
X0380401Y0032011D01*
X0380401Y0032609D02*
X0379681Y0032609D01*
X0380255Y0033208D02*
X0380401Y0033208D01*
X0380401Y0030215D02*
X0329875Y0030215D01*
X0329875Y0029617D02*
X0380401Y0029617D01*
X0380401Y0029018D02*
X0329875Y0029018D01*
X0329875Y0028420D02*
X0380401Y0028420D01*
X0380401Y0027821D02*
X0329727Y0027821D01*
X0329092Y0027223D02*
X0380401Y0027223D01*
X0380401Y0026624D02*
X0358077Y0026624D01*
X0360235Y0026026D02*
X0380401Y0026026D01*
X0380401Y0025427D02*
X0361271Y0025427D01*
X0362308Y0024829D02*
X0380401Y0024829D01*
X0380401Y0024230D02*
X0363043Y0024230D01*
X0363642Y0023632D02*
X0380401Y0023632D01*
X0380401Y0023033D02*
X0364240Y0023033D01*
X0364756Y0022435D02*
X0380401Y0022435D01*
X0380401Y0021836D02*
X0365101Y0021836D01*
X0365447Y0021238D02*
X0380401Y0021238D01*
X0380401Y0020639D02*
X0365792Y0020639D01*
X0366098Y0020041D02*
X0380401Y0020041D01*
X0380401Y0019442D02*
X0366259Y0019442D01*
X0366419Y0018844D02*
X0380401Y0018844D01*
X0380401Y0018245D02*
X0366579Y0018245D01*
X0366740Y0017647D02*
X0380401Y0017647D01*
X0380401Y0017048D02*
X0366800Y0017048D01*
X0366800Y0016450D02*
X0380401Y0016450D01*
X0380401Y0015851D02*
X0366800Y0015851D01*
X0366800Y0015253D02*
X0380401Y0015253D01*
X0380401Y0014654D02*
X0366800Y0014654D01*
X0366660Y0014056D02*
X0380401Y0014056D01*
X0380401Y0013457D02*
X0366500Y0013457D01*
X0366339Y0012859D02*
X0380401Y0012859D01*
X0380401Y0012260D02*
X0366179Y0012260D01*
X0365966Y0011662D02*
X0380401Y0011662D01*
X0380401Y0011063D02*
X0365620Y0011063D01*
X0365275Y0010465D02*
X0380401Y0010465D01*
X0380401Y0009866D02*
X0364929Y0009866D01*
X0364541Y0009268D02*
X0380401Y0009268D01*
X0380401Y0008669D02*
X0363942Y0008669D01*
X0363344Y0008070D02*
X0380401Y0008070D01*
X0380401Y0007472D02*
X0362745Y0007472D01*
X0361792Y0006873D02*
X0380401Y0006873D01*
X0380401Y0006275D02*
X0360756Y0006275D01*
X0351244Y0006275D02*
X0215756Y0006275D01*
X0216792Y0006873D02*
X0350208Y0006873D01*
X0349255Y0007472D02*
X0217745Y0007472D01*
X0218344Y0008070D02*
X0348656Y0008070D01*
X0348057Y0008669D02*
X0218942Y0008669D01*
X0219541Y0009268D02*
X0347459Y0009268D01*
X0347071Y0009866D02*
X0219929Y0009866D01*
X0220275Y0010465D02*
X0346725Y0010465D01*
X0346380Y0011063D02*
X0220620Y0011063D01*
X0220966Y0011662D02*
X0346034Y0011662D01*
X0345821Y0012260D02*
X0221179Y0012260D01*
X0221339Y0012859D02*
X0345661Y0012859D01*
X0345500Y0013457D02*
X0221500Y0013457D01*
X0221660Y0014056D02*
X0345340Y0014056D01*
X0345200Y0014654D02*
X0221800Y0014654D01*
X0221800Y0015253D02*
X0345200Y0015253D01*
X0345200Y0015851D02*
X0221800Y0015851D01*
X0221800Y0016450D02*
X0345200Y0016450D01*
X0345200Y0017048D02*
X0221800Y0017048D01*
X0221740Y0017647D02*
X0242365Y0017647D01*
X0242125Y0017887D02*
X0242887Y0017125D01*
X0249113Y0017125D01*
X0249875Y0017887D01*
X0249875Y0024113D01*
X0249113Y0024875D01*
X0242887Y0024875D01*
X0242125Y0024113D01*
X0242125Y0017887D01*
X0242125Y0018245D02*
X0221579Y0018245D01*
X0221419Y0018844D02*
X0242125Y0018844D01*
X0242125Y0019442D02*
X0221259Y0019442D01*
X0221098Y0020041D02*
X0242125Y0020041D01*
X0242125Y0020639D02*
X0220792Y0020639D01*
X0220447Y0021238D02*
X0242125Y0021238D01*
X0242125Y0021836D02*
X0220101Y0021836D01*
X0219756Y0022435D02*
X0242125Y0022435D01*
X0242125Y0023033D02*
X0219240Y0023033D01*
X0218642Y0023632D02*
X0242125Y0023632D01*
X0242242Y0024230D02*
X0218043Y0024230D01*
X0217308Y0024829D02*
X0242841Y0024829D01*
X0242789Y0027223D02*
X0201000Y0027223D01*
X0201000Y0027821D02*
X0242191Y0027821D01*
X0242125Y0028420D02*
X0201000Y0028420D01*
X0201000Y0029018D02*
X0242125Y0029018D01*
X0242125Y0029617D02*
X0201000Y0029617D01*
X0201000Y0030215D02*
X0242125Y0030215D01*
X0249211Y0027223D02*
X0322908Y0027223D01*
X0322273Y0027821D02*
X0249809Y0027821D01*
X0249875Y0028420D02*
X0322125Y0028420D01*
X0322125Y0029018D02*
X0249875Y0029018D01*
X0249875Y0029617D02*
X0322125Y0029617D01*
X0322125Y0030215D02*
X0249875Y0030215D01*
X0249159Y0024829D02*
X0322841Y0024829D01*
X0322887Y0024875D02*
X0322125Y0024113D01*
X0322125Y0017887D01*
X0322887Y0017125D01*
X0329113Y0017125D01*
X0329875Y0017887D01*
X0329875Y0024113D01*
X0329113Y0024875D01*
X0322887Y0024875D01*
X0322242Y0024230D02*
X0249758Y0024230D01*
X0249875Y0023632D02*
X0322125Y0023632D01*
X0322125Y0023033D02*
X0249875Y0023033D01*
X0249875Y0022435D02*
X0322125Y0022435D01*
X0322125Y0021836D02*
X0249875Y0021836D01*
X0249875Y0021238D02*
X0322125Y0021238D01*
X0322125Y0020639D02*
X0249875Y0020639D01*
X0249875Y0020041D02*
X0322125Y0020041D01*
X0322125Y0019442D02*
X0249875Y0019442D01*
X0249875Y0018844D02*
X0322125Y0018844D01*
X0322125Y0018245D02*
X0249875Y0018245D01*
X0249635Y0017647D02*
X0322365Y0017647D01*
X0329635Y0017647D02*
X0345260Y0017647D01*
X0345421Y0018245D02*
X0329875Y0018245D01*
X0329875Y0018844D02*
X0345581Y0018844D01*
X0345741Y0019442D02*
X0329875Y0019442D01*
X0329875Y0020041D02*
X0345902Y0020041D01*
X0346208Y0020639D02*
X0329875Y0020639D01*
X0329875Y0021238D02*
X0346553Y0021238D01*
X0346899Y0021836D02*
X0329875Y0021836D01*
X0329875Y0022435D02*
X0347244Y0022435D01*
X0347760Y0023033D02*
X0329875Y0023033D01*
X0329875Y0023632D02*
X0348358Y0023632D01*
X0348957Y0024230D02*
X0329758Y0024230D01*
X0329159Y0024829D02*
X0349692Y0024829D01*
X0350729Y0025427D02*
X0216271Y0025427D01*
X0215235Y0026026D02*
X0351765Y0026026D01*
X0353923Y0026624D02*
X0213077Y0026624D01*
X0208923Y0026624D02*
X0201000Y0026624D01*
X0201000Y0026026D02*
X0206765Y0026026D01*
X0205729Y0025427D02*
X0201000Y0025427D01*
X0201000Y0024829D02*
X0204692Y0024829D01*
X0203957Y0024230D02*
X0201000Y0024230D01*
X0201000Y0023632D02*
X0203358Y0023632D01*
X0202760Y0023033D02*
X0201000Y0023033D01*
X0201000Y0022435D02*
X0202244Y0022435D01*
X0201899Y0021836D02*
X0201000Y0021836D01*
X0201000Y0021238D02*
X0201553Y0021238D01*
X0201208Y0020639D02*
X0201000Y0020639D01*
X0214142Y0064929D02*
X0368476Y0064929D01*
X0369075Y0065528D02*
X0213135Y0065528D01*
X0212299Y0066126D02*
X0369673Y0066126D01*
X0367644Y0075104D02*
X0213967Y0075104D01*
X0212713Y0075702D02*
X0367100Y0075702D01*
X0367100Y0076301D02*
X0201000Y0076301D01*
X0201000Y0076899D02*
X0367100Y0076899D01*
X0367100Y0085877D02*
X0216000Y0085877D01*
X0216000Y0086475D02*
X0367100Y0086475D01*
X0367100Y0087074D02*
X0215967Y0087074D01*
X0215719Y0087672D02*
X0242339Y0087672D01*
X0242125Y0088271D02*
X0215471Y0088271D01*
X0215202Y0088870D02*
X0242125Y0088870D01*
X0242125Y0089468D02*
X0214603Y0089468D01*
X0214005Y0090067D02*
X0242125Y0090067D01*
X0242125Y0090665D02*
X0212803Y0090665D01*
X0212631Y0091264D02*
X0242125Y0091264D01*
X0242125Y0091862D02*
X0213933Y0091862D01*
X0214532Y0092461D02*
X0242125Y0092461D01*
X0242125Y0093059D02*
X0215130Y0093059D01*
X0215442Y0093658D02*
X0242125Y0093658D01*
X0242268Y0094256D02*
X0215690Y0094256D01*
X0214500Y0106825D02*
X0213896Y0106825D01*
X0214494Y0107423D02*
X0214500Y0107423D01*
X0179459Y0106226D02*
X0176700Y0106226D01*
X0176700Y0106825D02*
X0178104Y0106825D01*
X0177506Y0107423D02*
X0176700Y0107423D01*
X0176700Y0108022D02*
X0176907Y0108022D01*
X0178613Y0100840D02*
X0179619Y0100840D01*
X0179197Y0090665D02*
X0179118Y0090665D01*
X0177045Y0082884D02*
X0176700Y0082884D01*
X0176700Y0082286D02*
X0177643Y0082286D01*
X0178346Y0081687D02*
X0176700Y0081687D01*
X0176700Y0081089D02*
X0179791Y0081089D01*
X0179287Y0075702D02*
X0178550Y0075702D01*
X0181053Y0066000D02*
X0181995Y0066000D01*
X0181053Y0066000D01*
X0181053Y0066000D01*
X0131300Y0034405D02*
X0130700Y0034405D01*
X0130700Y0033806D02*
X0131300Y0033806D01*
X0131300Y0033208D02*
X0130700Y0033208D01*
X0130700Y0032609D02*
X0131300Y0032609D01*
X0131300Y0032011D02*
X0130700Y0032011D01*
X0130700Y0031412D02*
X0131300Y0031412D01*
X0131300Y0029617D02*
X0130700Y0029617D01*
X0130700Y0029018D02*
X0131300Y0029018D01*
X0131300Y0028420D02*
X0130700Y0028420D01*
X0130700Y0027821D02*
X0131300Y0027821D01*
X0131300Y0027223D02*
X0130700Y0027223D01*
X0179055Y0115803D02*
X0179529Y0115803D01*
X0325700Y0034405D02*
X0326300Y0034405D01*
X0326300Y0033806D02*
X0325700Y0033806D01*
X0325700Y0033208D02*
X0326300Y0033208D01*
X0326300Y0032609D02*
X0325700Y0032609D01*
X0325700Y0032011D02*
X0326300Y0032011D01*
X0326300Y0031412D02*
X0325700Y0031412D01*
X0325700Y0029617D02*
X0326300Y0029617D01*
X0326300Y0029018D02*
X0325700Y0029018D01*
X0325700Y0028420D02*
X0326300Y0028420D01*
X0326300Y0027821D02*
X0325700Y0027821D01*
X0325700Y0027223D02*
X0326300Y0027223D01*
X0329875Y0031412D02*
X0343990Y0031412D01*
X0342984Y0032011D02*
X0329875Y0032011D01*
X0329875Y0032609D02*
X0342319Y0032609D01*
X0341848Y0033208D02*
X0329875Y0033208D01*
X0329859Y0033806D02*
X0341506Y0033806D01*
X0341261Y0034405D02*
X0329583Y0034405D01*
X0345700Y0034405D02*
X0346300Y0034405D01*
X0346300Y0035003D02*
X0345700Y0035003D01*
X0345700Y0035602D02*
X0346300Y0035602D01*
X0346300Y0033806D02*
X0345700Y0033806D01*
X0345700Y0033208D02*
X0346300Y0033208D01*
X0346300Y0032609D02*
X0345700Y0032609D01*
X0345700Y0032011D02*
X0346300Y0032011D01*
X0346300Y0031412D02*
X0345700Y0031412D01*
X0350936Y0036799D02*
X0351000Y0036799D01*
X0351167Y0037398D02*
X0350803Y0037398D01*
X0350595Y0037996D02*
X0351415Y0037996D01*
X0351663Y0038595D02*
X0350290Y0038595D01*
X0349860Y0039193D02*
X0352122Y0039193D01*
X0352721Y0039792D02*
X0349279Y0039792D01*
X0348397Y0040390D02*
X0353533Y0040390D01*
X0354978Y0040989D02*
X0346465Y0040989D01*
X0346300Y0040989D02*
X0345700Y0040989D01*
X0345700Y0040390D02*
X0346300Y0040390D01*
X0346300Y0039792D02*
X0345700Y0039792D01*
X0345700Y0039193D02*
X0346300Y0039193D01*
X0346300Y0038595D02*
X0345700Y0038595D01*
X0345700Y0037996D02*
X0346300Y0037996D01*
X0346300Y0037398D02*
X0345700Y0037398D01*
X0329875Y0052360D02*
X0367100Y0052360D01*
X0367100Y0052959D02*
X0329875Y0052959D01*
X0329875Y0053557D02*
X0367100Y0053557D01*
X0367100Y0054156D02*
X0329832Y0054156D01*
X0329234Y0054754D02*
X0367100Y0054754D01*
X0375005Y0041000D02*
X0376995Y0041000D01*
X0375005Y0041000D01*
X0376995Y0041000D02*
X0378832Y0040239D01*
X0380239Y0038832D01*
X0380401Y0038441D01*
X0380401Y0043559D01*
X0380239Y0043168D01*
X0378832Y0041761D01*
X0376995Y0041000D01*
X0377022Y0040989D02*
X0380401Y0040989D01*
X0380401Y0041587D02*
X0378412Y0041587D01*
X0379257Y0042186D02*
X0380401Y0042186D01*
X0380401Y0042784D02*
X0379855Y0042784D01*
X0380328Y0043383D02*
X0380401Y0043383D01*
X0380401Y0040390D02*
X0378467Y0040390D01*
X0379279Y0039792D02*
X0380401Y0039792D01*
X0380401Y0039193D02*
X0379878Y0039193D01*
X0380337Y0038595D02*
X0380401Y0038595D01*
X0367100Y0087672D02*
X0329661Y0087672D01*
X0329875Y0088271D02*
X0367100Y0088271D01*
X0367100Y0088870D02*
X0329875Y0088870D01*
X0329875Y0089468D02*
X0367100Y0089468D01*
X0367100Y0090067D02*
X0329875Y0090067D01*
X0329875Y0090665D02*
X0367612Y0090665D01*
X0368211Y0091264D02*
X0329875Y0091264D01*
X0329875Y0091862D02*
X0368809Y0091862D01*
X0369408Y0092461D02*
X0329875Y0092461D01*
X0329875Y0093059D02*
X0370006Y0093059D01*
X0370605Y0093658D02*
X0329875Y0093658D01*
X0329732Y0094256D02*
X0371203Y0094256D01*
X0371062Y0094855D02*
X0329133Y0094855D01*
X0377050Y0125977D02*
X0380401Y0125977D01*
X0380401Y0125379D02*
X0378494Y0125379D01*
X0379291Y0124780D02*
X0380401Y0124780D01*
X0380401Y0124182D02*
X0379889Y0124182D01*
X0380342Y0123583D02*
X0380401Y0123583D01*
X0380401Y0131364D02*
X0377912Y0131364D01*
X0378949Y0131962D02*
X0380401Y0131962D01*
X0380401Y0132561D02*
X0379632Y0132561D01*
X0380116Y0133159D02*
X0380401Y0133159D01*
X0376300Y0133159D02*
X0375700Y0133159D01*
X0375700Y0132561D02*
X0376300Y0132561D01*
X0376300Y0131962D02*
X0375700Y0131962D01*
X0375700Y0131364D02*
X0376300Y0131364D01*
X0376300Y0133758D02*
X0375700Y0133758D01*
X0375700Y0134356D02*
X0376300Y0134356D01*
X0376300Y0134955D02*
X0375700Y0134955D01*
X0375700Y0135553D02*
X0376300Y0135553D01*
D16*
X0351000Y0113500D03*
X0351000Y0098500D03*
X0338500Y0083500D03*
X0356000Y0061000D03*
X0296000Y0061000D03*
X0296000Y0081000D03*
X0296000Y0041000D03*
X0296000Y0021000D03*
X0306000Y0133500D03*
X0161000Y0061000D03*
X0143500Y0083500D03*
X0156000Y0098500D03*
X0156000Y0113500D03*
X0111000Y0133500D03*
X0101000Y0081000D03*
X0101000Y0061000D03*
X0101000Y0041000D03*
X0101000Y0021000D03*
D17*
X0126800Y0045800D02*
X0131000Y0050000D01*
X0131000Y0051000D01*
X0131000Y0050000D02*
X0174400Y0050000D01*
X0174400Y0062600D01*
X0180000Y0068200D01*
X0180000Y0071000D01*
X0181000Y0071000D01*
X0180000Y0071000D02*
X0174400Y0076600D01*
X0174400Y0089200D01*
X0180000Y0094800D01*
X0181000Y0096000D01*
X0180000Y0096200D01*
X0174400Y0101800D01*
X0174400Y0114400D01*
X0181000Y0121000D01*
X0211000Y0121000D02*
X0211200Y0120000D01*
X0216800Y0114400D01*
X0216800Y0101800D01*
X0211000Y0096000D01*
X0177200Y0050000D02*
X0180000Y0047200D01*
X0181000Y0046000D01*
X0177200Y0050000D02*
X0174400Y0050000D01*
X0211000Y0046000D02*
X0211200Y0045800D01*
X0321800Y0045800D01*
X0326000Y0050000D01*
X0326000Y0051000D01*
X0326000Y0050000D02*
X0369400Y0050000D01*
X0369400Y0062600D01*
X0375000Y0068200D01*
X0375000Y0071000D01*
X0376000Y0071000D01*
X0375000Y0071000D02*
X0369400Y0076600D01*
X0369400Y0089200D01*
X0375000Y0094800D01*
X0376000Y0096000D01*
X0375000Y0096200D01*
X0369400Y0101800D01*
X0369400Y0114400D01*
X0376000Y0121000D01*
X0372200Y0050000D02*
X0369400Y0050000D01*
X0372200Y0050000D02*
X0375000Y0047200D01*
X0376000Y0046000D01*
X0216800Y0169000D02*
X0216800Y0184400D01*
X0216100Y0185100D01*
X0216800Y0185800D01*
X0225200Y0185800D01*
X0244800Y0205400D01*
X0246000Y0206000D01*
X0216100Y0185100D02*
X0211200Y0190000D01*
X0211000Y0191000D01*
X0216800Y0169000D02*
X0211200Y0163400D01*
X0211200Y0156400D01*
X0211000Y0156000D01*
X0136500Y0201000D02*
X0136600Y0201200D01*
X0136600Y0220800D01*
X0136500Y0222000D01*
X0051000Y0206000D02*
X0049800Y0205400D01*
X0030200Y0185800D01*
X0021800Y0185800D01*
X0021100Y0185100D01*
X0021800Y0184400D01*
X0021800Y0169000D01*
X0016200Y0163400D01*
X0016200Y0156400D01*
X0016000Y0156000D01*
X0021100Y0185100D02*
X0016200Y0190000D01*
X0016000Y0191000D01*
X0016000Y0121000D02*
X0016200Y0120000D01*
X0021800Y0114400D01*
X0021800Y0101800D01*
X0016000Y0096000D01*
X0016000Y0046000D02*
X0016200Y0045800D01*
X0126800Y0045800D01*
X0331500Y0201000D02*
X0331600Y0201200D01*
X0331600Y0220800D01*
X0331500Y0222000D01*
M02*
