%
M48
M72
T01C0.02362
T02C0.03150
T03C0.04000
T04C0.07000
T05C0.07100
T06C0.13000
%
T01
X101000Y21000
X101000Y41000
X101000Y61000
X101000Y81000
X111000Y133500
X151000Y113500
X151000Y98500
X151000Y83500
X151000Y68500
T02
X131000Y71000
X131000Y61000
X131000Y51000
X131000Y41000
X131000Y31000
X131000Y21000
X131000Y81000
X131000Y91000
X131000Y101000
X131000Y111000
X131000Y121000
X131000Y131000
X131000Y141000
X131000Y151000
X51000Y151000
X51000Y141000
X51000Y131000
X51000Y121000
X51000Y111000
X51000Y101000
X51000Y91000
X51000Y81000
X51000Y71000
X51000Y61000
X51000Y51000
X51000Y41000
X51000Y31000
X51000Y21000
T03
X16000Y36000
X16000Y46000
X16000Y61000
X16000Y71000
X16000Y86000
X16000Y96000
X16000Y111000
X16000Y121000
X16000Y136000
X16000Y146000
X16000Y156000
X16000Y171000
X16000Y181000
X16000Y191000
X36000Y211000
X46000Y211000
X56000Y211000
X71000Y211000
X81000Y211000
X91000Y211000
X176000Y146000
X176000Y136000
X176000Y121000
X176000Y111000
X176000Y96000
X176000Y86000
X176000Y71000
X176000Y61000
X176000Y46000
X176000Y36000
X156000Y36000
X146000Y36000
T04
X136500Y198500
X105500Y198500
T05
X163500Y199500
X163500Y181000
X163500Y162500
T06
X16000Y16000
X16000Y221000
X161000Y16000
X176000Y221000
M30
