G75*
%MOIN*%
%OFA0B0*%
%FSLAX25Y25*%
%IPPOS*%
%LPD*%
%AMOC8*
5,1,8,0,0,1.08239X$1,22.5*
%
%ADD10R,0.04737X0.05131*%
%ADD11C,0.13300*%
%ADD12C,0.08200*%
%ADD13C,0.13800*%
%ADD14R,0.05131X0.04737*%
%ADD15R,0.05950X0.05950*%
%ADD16C,0.11450*%
%ADD17C,0.04762*%
D10*
X0101000Y0027654D03*
X0101000Y0034346D03*
X0101000Y0047654D03*
X0101000Y0054346D03*
X0101000Y0067654D03*
X0101000Y0074346D03*
X0101000Y0087654D03*
X0101000Y0094346D03*
X0156000Y0097654D03*
X0156000Y0104346D03*
X0156000Y0112654D03*
X0156000Y0119346D03*
X0156000Y0089346D03*
X0156000Y0082654D03*
X0156000Y0074346D03*
X0156000Y0067654D03*
D11*
X0136500Y0198500D03*
X0105500Y0198500D03*
D12*
X0091000Y0211000D03*
X0081000Y0211000D03*
X0071000Y0211000D03*
X0056000Y0211000D03*
X0046000Y0211000D03*
X0036000Y0211000D03*
X0016000Y0191000D03*
X0016000Y0181000D03*
X0016000Y0171000D03*
X0016000Y0156000D03*
X0016000Y0146000D03*
X0016000Y0136000D03*
X0016000Y0121000D03*
X0016000Y0111000D03*
X0016000Y0096000D03*
X0016000Y0086000D03*
X0016000Y0071000D03*
X0016000Y0061000D03*
X0016000Y0046000D03*
X0016000Y0036000D03*
X0146000Y0036000D03*
X0156000Y0036000D03*
X0176000Y0036000D03*
X0176000Y0046000D03*
X0176000Y0061000D03*
X0176000Y0071000D03*
X0176000Y0086000D03*
X0176000Y0096000D03*
X0176000Y0111000D03*
X0176000Y0121000D03*
X0176000Y0136000D03*
X0176000Y0146000D03*
D13*
X0016000Y0016000D03*
X0016000Y0221000D03*
X0161000Y0016000D03*
X0176000Y0221000D03*
D14*
X0146000Y0119346D03*
X0146000Y0112654D03*
X0146000Y0104346D03*
X0146000Y0097654D03*
X0146000Y0089346D03*
X0146000Y0082654D03*
X0146000Y0074346D03*
X0146000Y0067654D03*
X0101000Y0132654D03*
X0101000Y0139346D03*
X0101000Y0152654D03*
X0101000Y0159346D03*
X0091000Y0094346D03*
X0091000Y0087654D03*
X0091000Y0074346D03*
X0091000Y0067654D03*
X0091000Y0054346D03*
X0091000Y0047654D03*
X0091000Y0034346D03*
X0091000Y0027654D03*
X0081000Y0027654D03*
X0081000Y0034346D03*
X0081000Y0047654D03*
X0081000Y0054346D03*
X0081000Y0067654D03*
X0081000Y0074346D03*
X0081000Y0087654D03*
X0081000Y0094346D03*
D15*
X0051000Y0091000D03*
X0051000Y0081000D03*
X0051000Y0071000D03*
X0051000Y0061000D03*
X0051000Y0051000D03*
X0051000Y0041000D03*
X0051000Y0031000D03*
X0051000Y0021000D03*
X0051000Y0101000D03*
X0051000Y0111000D03*
X0051000Y0121000D03*
X0051000Y0131000D03*
X0051000Y0141000D03*
X0051000Y0151000D03*
X0131000Y0151000D03*
X0131000Y0141000D03*
X0131000Y0131000D03*
X0131000Y0121000D03*
X0131000Y0111000D03*
X0131000Y0101000D03*
X0131000Y0091000D03*
X0131000Y0081000D03*
X0131000Y0071000D03*
X0131000Y0061000D03*
X0131000Y0051000D03*
X0131000Y0041000D03*
X0131000Y0031000D03*
X0131000Y0021000D03*
D16*
X0158175Y0162500D02*
X0168825Y0162500D01*
X0168825Y0181000D02*
X0158175Y0181000D01*
X0158175Y0199500D02*
X0168825Y0199500D01*
D17*
X0151000Y0113500D03*
X0151000Y0098500D03*
X0151000Y0083500D03*
X0151000Y0068500D03*
X0111000Y0133500D03*
X0101000Y0081000D03*
X0101000Y0061000D03*
X0101000Y0041000D03*
X0101000Y0021000D03*
M02*
