                                                                        S      1
,,18H8.5mm socket v3(1),18H8.5mm socket v3(1),7Hunknown,7Hunknown,32,38,G      1
7,99,15,,1.,2,2HMM,1,0.08,15H20180118.153757,0.01,10000.,14Hharrison.hsuG      2
eh,7Hunknown,11,0,15H20180118.233708;                                   G      3
     186       1                                                00000000D      1
     186            -199       1       0                               0D      2
     514       2                                                00010000D      3
     514                       2       1                               0D      4
     510       4                                                00010000D      5
     510            -199       1       1                               0D      6
     510       5                                                00010000D      7
     510            -199       1       1                               0D      8
     510       6                                                00010000D      9
     510            -199       1       1                               0D     10
     510       7                                                00010000D     11
     510            -199       1       1                               0D     12
     510       8                                                00010000D     13
     510            -199       1       1                               0D     14
     510       9                                                00010000D     15
     510            -199       1       1                               0D     16
     510      10                                                00010000D     17
     510            -199       1       1                               0D     18
     510      11                                                00010000D     19
     510            -199       1       1                               0D     20
     510      12                                                00010000D     21
     510            -199       1       1                               0D     22
     510      13                                                00010000D     23
     510            -199       1       1                               0D     24
     510      14                                                00010000D     25
     510            -199       1       1                               0D     26
     510      15                                                00010000D     27
     510            -199       1       1                               0D     28
     510      16                                                00010000D     29
     510            -199       1       1                               0D     30
     510      17                                                00010000D     31
     510            -199       1       1                               0D     32
     510      18                                                00010000D     33
     510            -199       1       1                               0D     34
     510      19                                                00010000D     35
     510            -199       1       1                               0D     36
     508      20                                                00010000D     37
     508                       2       1                               0D     38
     508      22                                                00010000D     39
     508                       1       1                               0D     40
     508      23                                                00010000D     41
     508                       1       1                               0D     42
     508      24                                                00010000D     43
     508                       1       1                               0D     44
     508      25                                                00010000D     45
     508                       2       1                               0D     46
     508      27                                                00010000D     47
     508                       2       1                               0D     48
     508      29                                                00010000D     49
     508                       2       1                               0D     50
     508      31                                                00010000D     51
     508                       3       1                               0D     52
     508      34                                                00010000D     53
     508                       2       1                               0D     54
     508      36                                                00010000D     55
     508                       2       1                               0D     56
     508      38                                                00010000D     57
     508                       1       1                               0D     58
     508      39                                                00010000D     59
     508                       1       1                               0D     60
     508      40                                                00010000D     61
     508                       1       1                               0D     62
     508      41                                                00010000D     63
     508                       1       1                               0D     64
     508      42                                                00010000D     65
     508                       1       1                               0D     66
     508      43                                                00010000D     67
     508                       1       1                               0D     68
     508      44                                                00010000D     69
     508                       1       1                               0D     70
     508      45                                                00010000D     71
     508                       2       1                               0D     72
     126      47                                                00010000D     73
     126       0               4       0                               0D     74
     126      51                                                00010000D     75
     126       0               4       0                               0D     76
     126      55                                                00010000D     77
     126       0               4       0                               0D     78
     126      59                                                00010000D     79
     126       0               4       0                               0D     80
     126      63                                                00010000D     81
     126       0               4       0                               0D     82
     126      67                                                00010000D     83
     126       0               4       0                               0D     84
     126      71                                                00010000D     85
     126       0               2       0                               0D     86
     126      73                                                00010000D     87
     126       0               3       0                               0D     88
     126      76                                                00010000D     89
     126       0               2       0                               0D     90
     126      78                                                00010000D     91
     126       0               3       0                               0D     92
     126      81                                                00010000D     93
     126       0               3       0                               0D     94
     126      84                                                00010000D     95
     126       0               2       0                               0D     96
     126      86                                                00010000D     97
     126       0               4       0                               0D     98
     126      90                                                00010000D     99
     126       0               5       0                               0D    100
     126      95                                                00010000D    101
     126       0               5       0                               0D    102
     126     100                                                00010000D    103
     126       0               6       0                               0D    104
     126     106                                                00010000D    105
     126       0               3       0                               0D    106
     126     109                                                00010000D    107
     126       0               4       0                               0D    108
     126     113                                                00010000D    109
     126       0               5       0                               0D    110
     126     118                                                00010000D    111
     126       0               5       0                               0D    112
     126     123                                                00010000D    113
     126       0               2       0                               0D    114
     126     125                                                00010000D    115
     126       0               9       0                               0D    116
     126     134                                                00010000D    117
     126       0               5       0                               0D    118
     126     139                                                00010000D    119
     126       0               4       0                               0D    120
     126     143                                                00010000D    121
     126       0               8       0                               0D    122
     126     151                                                00010000D    123
     126       0              10       0                               0D    124
     126     161                                                00010000D    125
     126       0               4       0                               0D    126
     126     165                                                00010000D    127
     126       0              25       0                               0D    128
     126     190                                                00010000D    129
     126       0               4       0                               0D    130
     126     194                                                00010000D    131
     126       0              13       0                               0D    132
     126     207                                                00010000D    133
     126       0              14       0                               0D    134
     126     221                                                00010000D    135
     126       0               4       0                               0D    136
     126     225                                                00010000D    137
     126       0              15       0                               0D    138
     126     240                                                00010000D    139
     126       0              25       0                               0D    140
     126     265                                                00010000D    141
     126       0              13       0                               0D    142
     126     278                                                00010000D    143
     126       0               9       0                               0D    144
     126     287                                                00010000D    145
     126       0               2       0                               0D    146
     126     289                                                00010000D    147
     126       0               2       0                               0D    148
     126     291                                                00010000D    149
     126       0               9       0                               0D    150
     126     300                                                00010000D    151
     126       0               2       0                               0D    152
     126     302                                                00010000D    153
     126       0               3       0                               0D    154
     126     305                                                00010000D    155
     126       0               3       0                               0D    156
     126     308                                                00010000D    157
     126       0               3       0                               0D    158
     126     311                                                00010000D    159
     126       0               3       0                               0D    160
     128     314                                                00010000D    161
     128       0    -199       6       0                               0D    162
     128     320                                                00010000D    163
     128       0    -199       5       0                               0D    164
     128     325                                                00010000D    165
     128       0    -199       7       0                               0D    166
     128     332                                                00010000D    167
     128       0    -199       7       0                               0D    168
     128     339                                                00010000D    169
     128       0    -199      17       0                               0D    170
     128     356                                                00010000D    171
     128       0    -199      12       0                               0D    172
     128     368                                                00010000D    173
     128       0    -199      17       0                               0D    174
     128     385                                                00010000D    175
     128       0    -199      13       0                               0D    176
     128     398                                                00010000D    177
     128       0    -199      18       0                               0D    178
     128     416                                                00010000D    179
     128       0    -199      11       0                               0D    180
     128     427                                                00010000D    181
     128       0    -199       3       0                               0D    182
     128     430                                                00010000D    183
     128       0    -199       3       0                               0D    184
     128     433                                                00010000D    185
     128       0    -199       6       0                               0D    186
     128     439                                                00010000D    187
     128       0    -199       6       0                               0D    188
     128     445                                                00010000D    189
     128       0    -199       7       0                               0D    190
     128     452                                                00010000D    191
     128       0    -199       5       0                               0D    192
     502     457                                                00010000D    193
     502                      15       1                               0D    194
     504     472                                                00010001D    195
     504                      13       1                               0D    196
     406     485                                                00000000D    197
     406                       1      15                               0D    198
     314     486                                                00000200D    199
     314                       2       0                               0D    200
186,3,1,0,0,1,197;                                                     1P      1
514,16,5,1,7,1,9,1,11,1,13,1,15,1,17,1,19,1,21,1,23,1,25,1,27,1,       3P      2
29,1,31,1,33,1,35,1;                                                   3P      3
510,161,1,1,37;                                                        5P      4
510,163,1,1,39;                                                        7P      5
510,165,1,1,41;                                                        9P      6
510,167,1,1,43;                                                       11P      7
510,169,1,1,45;                                                       13P      8
510,171,1,1,47;                                                       15P      9
510,173,1,1,49;                                                       17P     10
510,175,1,1,51;                                                       19P     11
510,177,1,1,53;                                                       21P     12
510,179,1,1,55;                                                       23P     13
510,181,2,1,57,59;                                                    25P     14
510,183,1,1,61;                                                       27P     15
510,185,1,1,63;                                                       29P     16
510,187,1,1,65;                                                       31P     17
510,189,1,1,67;                                                       33P     18
510,191,2,1,69,71;                                                    35P     19
508,6,0,195,1,0,0,0,195,2,0,0,0,195,3,0,0,0,195,4,0,0,0,195,5,0,      37P     20
0,0,195,6,0,0;                                                        37P     21
508,4,0,195,3,1,0,0,195,7,0,0,0,195,8,1,0,0,195,9,1,0;                39P     22
508,4,0,195,2,1,0,0,195,10,0,0,0,195,11,0,0,0,195,7,1,0;              41P     23
508,4,0,195,1,1,0,0,195,12,0,0,0,195,13,0,0,0,195,10,1,0;             43P     24
508,8,0,195,14,0,0,0,195,15,0,0,0,195,16,0,0,0,195,17,1,0,0,195,      45P     25
18,1,0,0,195,19,1,0,0,195,20,1,0,0,195,17,0,0;                        45P     26
508,6,0,195,20,0,0,0,195,19,0,0,0,195,21,1,0,0,195,22,1,0,0,195,      47P     27
21,0,0,0,195,18,0,0;                                                  47P     28
508,7,0,195,23,1,0,0,195,24,1,0,0,195,15,1,0,0,195,14,1,0,0,195,      49P     29
16,1,0,0,195,24,0,0,0,195,25,1,0;                                     49P     30
508,10,0,195,26,0,0,0,195,27,1,0,0,195,28,1,0,0,195,29,1,0,0,         51P     31
195,25,0,0,0,195,23,0,0,0,195,29,0,0,0,195,30,1,0,0,195,31,1,0,       51P     32
0,195,27,0,0;                                                         51P     33
508,8,0,195,30,0,0,0,195,28,0,0,0,195,31,0,0,0,195,32,1,0,0,195,      53P     34
33,0,0,0,195,34,0,0,0,195,35,0,0,0,195,32,0,0;                        53P     35
508,9,0,195,36,0,0,0,195,37,1,0,0,195,33,1,0,0,195,35,1,0,0,195,      55P     36
38,1,0,0,195,39,0,0,0,195,38,0,0,0,195,34,1,0,0,195,37,0,0;           55P     37
508,1,0,195,26,1,0;                                                   57P     38
508,1,0,195,36,1,0;                                                   59P     39
508,1,0,195,39,1,0;                                                   61P     40
508,4,0,195,6,1,0,0,195,40,0,0,0,195,41,1,0,0,195,12,1,0;             63P     41
508,4,0,195,5,1,0,0,195,42,0,0,0,195,43,1,0,0,195,40,1,0;             65P     42
508,4,0,195,4,1,0,0,195,9,0,0,0,195,44,0,0,0,195,42,1,0;              67P     43
508,1,0,195,22,0,0;                                                   69P     44
508,6,0,195,11,1,0,0,195,13,1,0,0,195,41,0,0,0,195,43,0,0,0,195,      71P     45
44,1,0,0,195,8,0,0;                                                   71P     46
126,1,1,0,0,1,0,-0.368060796608386,-0.368060796608386,                73P     47
0.122686932202795,0.122686932202795,1.,1.,-2.22044604925031D-15,      73P     48
15.,-4.90747728811182,-4.25,15.,-2.45373864405591,                    73P     49
-0.368060796608386,0.122686932202795,0.,0.,0.;                        73P     50
126,1,1,0,0,1,0,-0.368060796608386,-0.368060796608386,                75P     51
0.122686932202796,0.122686932202796,1.,1.,4.25,15.,                   75P     52
-2.45373864405591,-2.08166817117217D-15,15.,-4.90747728811182,        75P     53
-0.368060796608386,0.122686932202796,0.,0.,0.;                        75P     54
126,1,1,0,0,1,0,-0.368060796608387,-0.368060796608387,                77P     55
0.122686932202796,0.122686932202796,1.,1.,4.25,15.,                   77P     56
2.45373864405591,4.25,15.,-2.45373864405591,-0.368060796608387,       77P     57
0.122686932202796,0.,0.,0.;                                           77P     58
126,1,1,0,0,1,0,-0.368060796608386,-0.368060796608386,                79P     59
0.122686932202795,0.122686932202795,1.,1.,0.,15.,                     79P     60
4.90747728811182,4.25,15.,2.45373864405591,-0.368060796608386,        79P     61
0.122686932202795,0.,0.,0.;                                           79P     62
126,1,1,0,0,1,0,-0.368060796608386,-0.368060796608386,                81P     63
0.122686932202796,0.122686932202796,1.,1.,-4.25,15.,                  81P     64
2.45373864405591,1.80411241501588D-15,15.,4.90747728811182,           81P     65
-0.368060796608386,0.122686932202796,0.,0.,0.;                        81P     66
126,1,1,0,0,1,0,-0.368060796608386,-0.368060796608386,                83P     67
0.122686932202796,0.122686932202796,1.,1.,-4.25,15.,                  83P     68
-2.45373864405591,-4.25,15.,2.45373864405591,-0.368060796608386,      83P     69
0.122686932202796,0.,0.,0.;                                           83P     70
126,1,1,0,0,1,0,0.,0.,1.5,1.5,1.,1.,4.25,0.,-2.45373864405591,        85P     71
4.25,15.,-2.45373864405591,0.,1.5,0.,0.,0.;                           85P     72
126,1,1,0,0,1,0,-0.490747728811182,-0.490747728811182,0.,0.,1.,       87P     73
1.,4.25,0.,-2.45373864405591,4.25,0.,2.45373864405591,                87P     74
-0.490747728811182,0.,0.,0.,0.;                                       87P     75
126,1,1,0,0,1,0,0.,0.,1.5,1.5,1.,1.,4.25,0.,2.45373864405591,         89P     76
4.25,15.,2.45373864405591,0.,1.5,0.,0.,0.;                            89P     77
126,1,1,0,0,1,0,0.,0.,1.5,1.5,1.,1.,-2.35922392732846D-15,0.,         91P     78
-4.90747728811182,-2.35922392732846D-15,15.,-4.90747728811182,        91P     79
0.,1.5,0.,0.,0.;                                                      91P     80
126,1,1,0,0,1,0,0.,0.,0.490747728811182,0.490747728811182,1.,1.,      93P     81
4.25,0.,-2.45373864405591,-2.22044604925031D-15,0.,                   93P     82
-4.90747728811182,0.,0.490747728811182,0.,0.,0.;                      93P     83
126,1,1,0,0,1,0,0.,0.,1.5,1.5,1.,1.,-4.25,0.,-2.45373864405591,       95P     84
-4.25,15.,-2.45373864405591,0.,1.5,0.,0.,0.;                          95P     85
126,1,1,0,0,1,0,2.40370335797945D-17,2.40370335797945D-17,            97P     86
0.490747728811182,0.490747728811182,1.,1.,-2.28983498828939D-15,      97P     87
0.,-4.90747728811182,-4.25,0.,-2.45373864405591,                      97P     88
2.40370335797945D-17,0.490747728811182,0.,0.,0.;                      97P     89
126,2,2,0,0,0,0,-3.14159265358979,-3.14159265358979,                  99P     90
-3.14159265358979,-1.5707963267949,-1.5707963267949,                  99P     91
-1.5707963267949,1.,0.707106781186548,1.,5.5,18.,                     99P     92
-6.73555739531044D-16,5.5,18.,-5.5,-3.36777869765522D-16,18.,         99P     93
-5.5,-3.14159265358979,-1.5707963267949,0.,0.,0.;                     99P     94
126,2,2,0,0,0,0,1.5707963267949,1.5707963267949,1.5707963267949,     101P     95
3.14159265358979,3.14159265358979,3.14159265358979,1.,               101P     96
0.707106781186548,1.,-3.36777869765522D-16,18.,5.5,5.5,18.,5.5,      101P     97
5.5,18.,6.73555739531044D-16,1.5707963267949,3.14159265358979,       101P     98
0.,0.,0.;                                                            101P     99
126,4,2,0,0,0,0,-1.5707963267949,-1.5707963267949,                   103P    100
-1.5707963267949,0.,0.,1.5707963267949,1.5707963267949,              103P    101
1.5707963267949,1.,0.707106781186548,1.,0.707106781186548,1.,        103P    102
-3.36777869765522D-16,18.,-5.5,-5.5,18.,-5.5,-5.5,18.,0.,-5.5,       103P    103
18.,5.5,-3.36777869765522D-16,18.,5.5,-1.5707963267949,              103P    104
1.5707963267949,0.,0.,0.;                                            103P    105
126,2,2,0,0,0,0,-1.5707963267949,-1.5707963267949,                   105P    106
-1.5707963267949,0.,0.,0.,1.,0.707106781186549,1.,0.,18.,-5.5,       105P    107
0.,18.,-7.5,0.,16.,-7.5,-1.5707963267949,0.,0.,0.,0.;                105P    108
126,2,2,0,0,0,0,-1.5707963267949,-1.5707963267949,                   107P    109
-1.5707963267949,0.,0.,0.,1.,0.707106781186548,1.,                   107P    110
-4.59242549680257D-16,16.,-7.5,-7.5,16.,-7.5,-7.5,16.,0.,            107P    111
-1.5707963267949,0.,0.,0.,0.;                                        107P    112
126,4,2,0,0,0,0,0.,0.,0.,1.5707963267949,1.5707963267949,            109P    113
3.14159265358979,3.14159265358979,3.14159265358979,1.,               109P    114
0.707106781186548,1.,0.707106781186548,1.,-7.5,16.,0.,-7.5,16.,      109P    115
7.5,-4.59242549680257D-16,16.,7.5,7.5,16.,7.5,7.5,16.,               109P    116
9.18485099360515D-16,0.,3.14159265358979,0.,0.,0.;                   109P    117
126,2,2,0,0,0,0,-3.14159265358979,-3.14159265358979,                 111P    118
-3.14159265358979,-1.5707963267949,-1.5707963267949,                 111P    119
-1.5707963267949,1.,0.707106781186548,1.,7.5,16.,                    111P    120
-9.18485099360515D-16,7.5,16.,-7.5,-4.59242549680257D-16,16.,        111P    121
-7.5,-3.14159265358979,-1.5707963267949,0.,0.,0.;                    111P    122
126,1,1,0,0,1,0,-2.13333333333333,-2.13333333333333,0.,0.,1.,1.,     113P    123
-7.5,16.,0.,-7.5,0.,0.,-2.13333333333333,0.,0.,0.,0.;                113P    124
126,8,2,0,1,0,0,-3.14159265358979,-3.14159265358979,                 115P    125
-3.14159265358979,-1.5707963267949,-1.5707963267949,0.,0.,           115P    126
1.5707963267949,1.5707963267949,3.14159265358979,                    115P    127
3.14159265358979,3.14159265358979,1.,0.707106781186548,1.,           115P    128
0.707106781186548,1.,0.707106781186548,1.,0.707106781186548,1.,      115P    129
-7.5,0.,9.18485099360515D-16,-7.5,0.,7.5,4.59242549680257D-16,       115P    130
0.,7.5,7.5,0.,7.5,7.5,0.,0.,7.5,0.,-7.5,4.59242549680257D-16,0.,     115P    131
-7.5,-7.5,0.,-7.5,-7.5,0.,-9.18485099360515D-16,                     115P    132
-3.14159265358979,3.14159265358979,0.,0.,0.;                         115P    133
126,2,2,0,0,0,0,-3.14159265358979,-3.14159265358979,                 117P    134
-3.14159265358979,-1.5707963267949,-1.5707963267949,                 117P    135
-1.5707963267949,1.,0.707106781186548,1.,3.5,20.,                    117P    136
4.28626379701574D-16,3.5,20.,3.5,-2.14313189850787D-16,20.,3.5,      117P    137
-3.14159265358979,-1.5707963267949,0.,0.,0.;                         117P    138
126,2,2,0,0,0,0,-3.14159265358979,-3.14159265358979,                 119P    139
-3.14159265358979,-1.5707963267949,-1.5707963267949,                 119P    140
-1.5707963267949,1.,0.707106781186548,1.,0.,20.,3.5,0.,18.,3.5,      119P    141
0.,18.,5.5,-3.14159265358979,-1.5707963267949,0.,0.,0.;              119P    142
126,6,2,0,0,0,0,-1.5707963267949,-1.5707963267949,                   121P    143
-1.5707963267949,0.,0.,1.5707963267949,1.5707963267949,              121P    144
3.14159265358979,3.14159265358979,3.14159265358979,1.,               121P    145
0.707106781186548,1.,0.707106781186548,1.,0.707106781186548,1.,      121P    146
-2.14313189850787D-16,20.,3.5,-3.5,20.,3.5,-3.5,20.,0.,-3.5,20.,     121P    147
-3.5,-2.14313189850787D-16,20.,-3.5,3.5,20.,-3.5,3.5,20.,            121P    148
-4.28626379701574D-16,-1.5707963267949,3.14159265358979,0.,0.,       121P    149
0.;                                                                  121P    150
126,8,2,0,1,0,0,-3.14159265358979,-3.14159265358979,                 123P    151
-3.14159265358979,-1.5707963267949,-1.5707963267949,0.,0.,           123P    152
1.5707963267949,1.5707963267949,3.14159265358979,                    123P    153
3.14159265358979,3.14159265358979,1.,0.707106781186548,1.,           123P    154
0.707106781186548,1.,0.707106781186548,1.,0.707106781186548,1.,      123P    155
3.5,26.,-4.28626379701574D-16,3.5,26.,-3.5,                          123P    156
-2.14313189850787D-16,26.,-3.5,-3.5,26.,-3.5,-3.5,26.,0.,-3.5,       123P    157
26.,3.5,-2.14313189850787D-16,26.,3.5,3.5,26.,3.5,3.5,26.,           123P    158
4.28626379701574D-16,-3.14159265358979,3.14159265358979,0.,0.,       123P    159
0.;                                                                  123P    160
126,1,1,0,0,1,0,-2.28571428571429,-2.28571428571429,                 125P    161
-1.46725142857143,-1.46725142857143,1.,1.,3.5,26.,0.,3.5,            125P    162
23.13538,3.46944695195361D-17,-2.28571428571429,                     125P    163
-1.46725142857143,0.,0.,0.;                                          125P    164
126,17,3,0,0,1,0,0.172429421630004,0.172429421630004,                127P    165
0.172429421630004,0.172429421630004,0.215527861728332,               127P    166
0.215527861728332,0.258626301826659,0.258626301826659,               127P    167
0.301742572543333,0.301742572543333,0.344858843260008,               127P    168
0.344858843260008,0.387975113976682,0.387975113976682,               127P    169
0.431091384693357,0.431091384693357,0.474189824791684,               127P    170
0.474189824791684,0.517288264890012,0.517288264890012,               127P    171
0.517288264890012,0.517288264890012,1.,1.,1.,1.,1.,1.,1.,1.,1.,      127P    172
1.,1.,1.,1.,1.,1.,1.,1.,1.,3.5,23.13538,1.38777878078145D-16,        127P    173
3.5,23.13538,-0.143661466994425,3.49028551311882,                    127P    174
23.1064577059303,-0.296204617729993,3.45520715875448,                127P    175
22.9902586393691,-0.575650613919371,3.43029233566903,                127P    176
22.9030371629102,-0.702632631536997,3.38305422703675,                127P    177
22.7025911760144,-0.903078618432753,3.35754012443797,                127P    178
22.575625763854,-0.990268127035653,3.32106756592263,                 127P    179
22.2962410031135,-1.10644342161814,3.31072684702317,                 127P    180
22.1437209023889,-1.13538,3.31072684702317,21.8562790976111,         127P    181
-1.13538,3.32106756592263,21.7037589968865,-1.10644342161814,        127P    182
3.35754012443797,21.4243742361461,-0.990268127035653,                127P    183
3.38305422703675,21.2974088239856,-0.903078618432753,                127P    184
3.43029233566903,21.0969628370898,-0.702632631536997,                127P    185
3.45520715875448,21.0097413606309,-0.575650613919371,                127P    186
3.49028551311882,20.8935422940697,-0.296204617729993,3.5,            127P    187
20.86462,-0.143661466994426,3.5,20.86462,-2.08166817117217D-16,      127P    188
0.172429421630004,0.517288264890012,0.,0.,0.;                        127P    189
126,1,1,0,0,1,0,-0.818462857142858,-0.818462857142858,               129P    190
-0.571428571428571,-0.571428571428571,1.,1.,3.5,20.86462,            129P    191
2.77555756156289D-16,3.5,20.,0.,-0.818462857142858,                  129P    192
-0.571428571428571,0.,0.,0.;                                         129P    193
126,9,3,0,0,1,0,-0.172429421630004,-0.172429421630004,               131P    194
-0.172429421630004,-0.172429421630004,-0.129330981531676,            131P    195
-0.129330981531676,-0.0862325414333487,-0.0862325414333487,          131P    196
-0.0431162707166743,-0.0431162707166743,0.,0.,0.,0.,1.,1.,1.,1.,     131P    197
1.,1.,1.,1.,1.,1.,3.5,20.86462,-1.38777878078145D-16,3.5,            131P    198
20.86462,0.143661466994425,3.49028551311882,20.8935422940697,        131P    199
0.296204617729993,3.45520715875448,21.0097413606309,                 131P    200
0.575650613919371,3.43029233566903,21.0969628370898,                 131P    201
0.702632631536997,3.38305422703675,21.2974088239856,                 131P    202
0.903078618432754,3.35754012443797,21.4243742361461,                 131P    203
0.990268127035653,3.32106756592263,21.7037589968865,                 131P    204
1.10644342161814,3.31072684702317,21.8562790976111,1.13538,          131P    205
3.31072684702317,22.,1.13538,-0.172429421630004,0.,0.,0.,0.;         131P    206
126,9,3,0,0,1,0,0.,0.,0.,0.,0.0431162707166743,                      133P    207
0.0431162707166743,0.0862325414333487,0.0862325414333487,            133P    208
0.129330981531676,0.129330981531676,0.172429421630004,               133P    209
0.172429421630004,0.172429421630004,0.172429421630004,1.,1.,1.,      133P    210
1.,1.,1.,1.,1.,1.,1.,3.31072684702317,22.,1.13538,                   133P    211
3.31072684702317,22.1437209023889,1.13538,3.32106756592263,          133P    212
22.2962410031135,1.10644342161814,3.35754012443797,                  133P    213
22.575625763854,0.990268127035653,3.38305422703675,                  133P    214
22.7025911760144,0.903078618432754,3.43029233566903,                 133P    215
22.9030371629102,0.702632631536997,3.45520715875448,                 133P    216
22.9902586393691,0.575650613919371,3.49028551311882,                 133P    217
23.1064577059303,0.296204617729993,3.5,23.13538,                     133P    218
0.143661466994425,3.5,23.13538,-3.46944695195361D-16,0.,             133P    219
0.172429421630004,0.,0.,0.;                                          133P    220
126,1,1,0,0,1,0,0.133066052430278,0.133066052430278,                 135P    221
1.30308997616175,1.30308997616175,1.,1.,3.31072684702317,22.,        135P    222
1.13538,1.64648481790753,22.,1.13538,0.133066052430278,              135P    223
1.30308997616175,0.,0.,0.;                                           135P    224
126,9,3,0,0,1,0,0.5273895911305,0.5273895911305,0.5273895911305,     137P    225
0.5273895911305,0.571230047292438,0.571230047292438,                 137P    226
0.615070503454377,0.615070503454377,0.659128312480855,               137P    227
0.659128312480855,0.703186121507333,0.703186121507333,               137P    228
0.703186121507333,0.703186121507333,1.,1.,1.,1.,1.,1.,1.,1.,1.,      137P    229
1.,2.,23.13538,-3.46944695195361D-16,2.,23.13538,                    137P    230
0.146134853873128,1.9825633224326,23.1054782621509,                  137P    231
0.299789510129013,1.91977995963546,22.9884735206516,                 137P    232
0.578684683514882,1.87504929348868,22.9015366323317,                 137P    233
0.70413316211551,1.78831706881492,22.7036438171876,                  137P    234
0.902025977259578,1.7399223989959,22.5783412429527,                  137P    235
0.988615362319399,1.66821793507152,22.3001640298177,                 137P    236
1.10532338160795,1.64648481790753,22.1468593634216,1.13538,          137P    237
1.64648481790753,22.,1.13538,0.5273895911305,0.703186121507333,      137P    238
0.,0.,0.;                                                            137P    239
126,17,3,0,0,1,0,0.175796530376833,0.175796530376833,                139P    240
0.175796530376833,0.175796530376833,0.219636986538772,               139P    241
0.219636986538772,0.26347744270071,0.26347744270071,                 139P    242
0.307535251727188,0.307535251727188,0.351593060753666,               139P    243
0.351593060753666,0.395650869780145,0.395650869780145,               139P    244
0.439708678806623,0.439708678806623,0.483549134968561,               139P    245
0.483549134968561,0.5273895911305,0.5273895911305,                   139P    246
0.5273895911305,0.5273895911305,1.,1.,1.,1.,1.,1.,1.,1.,1.,1.,       139P    247
1.,1.,1.,1.,1.,1.,1.,1.,2.,20.86462,4.5102810375397D-16,2.,          139P    248
20.86462,-0.146134853873128,1.9825633224326,20.8945217378491,        139P    249
-0.299789510129013,1.91977995963546,21.0115264793484,                139P    250
-0.578684683514882,1.87504929348868,21.0984633676684,                139P    251
-0.704133162115511,1.78831706881492,21.2963561828124,                139P    252
-0.902025977259578,1.73992239899589,21.4216587570473,                139P    253
-0.988615362319404,1.66821793507152,21.6998359701823,                139P    254
-1.10532338160795,1.64648481790753,21.8531406365784,-1.13538,        139P    255
1.64648481790753,22.1468593634216,-1.13538,1.66821793507152,         139P    256
22.3001640298177,-1.10532338160795,1.73992239899589,                 139P    257
22.5783412429527,-0.988615362319404,1.78831706881492,                139P    258
22.7036438171876,-0.902025977259578,1.87504929348868,                139P    259
22.9015366323317,-0.704133162115511,1.91977995963546,                139P    260
22.9884735206516,-0.578684683514882,1.9825633224326,                 139P    261
23.1054782621509,-0.299789510129013,2.,23.13538,                     139P    262
-0.146134853873129,2.,23.13538,-6.59194920871187D-16,                139P    263
0.175796530376833,0.5273895911305,0.,0.,0.;                          139P    264
126,9,3,0,0,1,0,0.,0.,0.,0.,0.0440578090264782,                      141P    265
0.0440578090264782,0.0881156180529564,0.0881156180529564,            141P    266
0.131956074214895,0.131956074214895,0.175796530376833,               141P    267
0.175796530376833,0.175796530376833,0.175796530376833,1.,1.,1.,      141P    268
1.,1.,1.,1.,1.,1.,1.,1.64648481790753,22.,1.13538,                   141P    269
1.64648481790753,21.8531406365784,1.13538,1.66821793507152,          141P    270
21.6998359701823,1.10532338160795,1.73992239899589,                  141P    271
21.4216587570473,0.988615362319404,1.78831706881492,                 141P    272
21.2963561828124,0.902025977259579,1.87504929348868,                 141P    273
21.0984633676684,0.704133162115512,1.91977995963546,                 141P    274
21.0115264793484,0.578684683514883,1.9825633224326,                  141P    275
20.8945217378491,0.299789510129013,2.,20.86462,                      141P    276
0.146134853873128,2.,20.86462,0.,0.,0.175796530376833,0.,0.,0.;      141P    277
126,8,2,0,1,0,0,-3.14159265358979,-3.14159265358979,                 143P    278
-3.14159265358979,-1.5707963267949,-1.5707963267949,0.,0.,           143P    279
1.5707963267949,1.5707963267949,3.14159265358979,                    143P    280
3.14159265358979,3.14159265358979,1.,0.707106781186548,1.,           143P    281
0.707106781186548,1.,0.707106781186548,1.,0.707106781186548,1.,      143P    282
2.,26.,2.44929359829471D-16,2.,26.,2.,-1.22464679914735D-16,26.,     143P    283
2.,-2.,26.,2.,-2.,26.,0.,-2.,26.,-2.,-1.22464679914735D-16,26.,      143P    284
-2.,2.,26.,-2.,2.,26.,-2.44929359829471D-16,-3.14159265358979,       143P    285
3.14159265358979,0.,0.,0.;                                           143P    286
126,1,1,0,0,1,0,-4.,-4.,-2.56769,-2.56769,1.,1.,2.,26.,0.,2.,        145P    287
23.13538,-2.08166817117217D-16,-4.,-2.56769,0.,0.,0.;                145P    288
126,1,1,0,0,1,0,-1.43231,-1.43231,0.,0.,1.,1.,2.,20.86462,           147P    289
2.60208521396521D-16,2.,18.,0.,-1.43231,0.,0.,0.,0.;                 147P    290
126,8,2,0,1,0,0,-3.14159265358979,-3.14159265358979,                 149P    291
-3.14159265358979,-1.5707963267949,-1.5707963267949,0.,0.,           149P    292
1.5707963267949,1.5707963267949,3.14159265358979,                    149P    293
3.14159265358979,3.14159265358979,1.,0.707106781186548,1.,           149P    294
0.707106781186548,1.,0.707106781186548,1.,0.707106781186548,1.,      149P    295
2.,18.,-2.44929359829471D-16,2.,18.,-2.,-1.22464679914735D-16,       149P    296
18.,-2.,-2.,18.,-2.,-2.,18.,0.,-2.,18.,2.,-1.22464679914735D-16,     149P    297
18.,2.,2.,18.,2.,2.,18.,2.44929359829471D-16,-3.14159265358979,      149P    298
3.14159265358979,0.,0.,0.;                                           149P    299
126,1,1,0,0,1,0,0.,0.,1.5,1.5,1.,1.,-4.25,0.,2.45373864405591,       151P    300
-4.25,15.,2.45373864405591,0.,1.5,0.,0.,0.;                          151P    301
126,1,1,0,0,1,0,-0.490747728811182,-0.490747728811182,0.,0.,1.,      153P    302
1.,-4.25,0.,2.45373864405591,-4.25,0.,-2.45373864405591,             153P    303
-0.490747728811182,0.,0.,0.,0.;                                      153P    304
126,1,1,0,0,1,0,0.,0.,1.5,1.5,1.,1.,6.93889390390723D-16,0.,         155P    305
4.90747728811182,6.93889390390723D-16,15.,4.90747728811182,0.,       155P    306
1.5,0.,0.,0.;                                                        155P    307
126,1,1,0,0,1,0,-0.490747728811182,-0.490747728811182,0.,0.,1.,      157P    308
1.,5.55111512312578D-16,0.,4.90747728811182,-4.25,0.,                157P    309
2.45373864405591,-0.490747728811182,0.,0.,0.,0.;                     157P    310
126,1,1,0,0,1,0,0.,0.,0.490747728811182,0.490747728811182,1.,1.,     159P    311
4.85722573273506D-16,0.,4.90747728811182,4.25,0.,                    159P    312
2.45373864405591,0.,0.490747728811182,0.,0.,0.;                      159P    313
128,1,1,1,1,0,0,1,0,0,-0.491747728811182,-0.491747728811182,         161P    314
0.491747728811182,0.491747728811182,-0.426,-0.426,0.426,0.426,       161P    315
1.,1.,1.,1.,-4.26,15.,4.91747728811182,-4.26,15.,                    161P    316
-4.91747728811182,4.26,15.,4.91747728811182,4.26,15.,                161P    317
-4.91747728811182,-0.491747728811182,0.491747728811182,-0.426,       161P    318
0.426;                                                               161P    319
128,1,1,1,1,0,0,1,0,0,-0.001,-0.001,0.491747728811182,               163P    320
0.491747728811182,-0.001,-0.001,1.501,1.501,1.,1.,1.,1.,4.25,        163P    321
-0.01,-2.46373864405591,4.25,-0.01,2.46373864405591,4.25,15.01,      163P    322
-2.46373864405591,4.25,15.01,2.46373864405591,-0.001,                163P    323
0.491747728811182,-0.001,1.501;                                      163P    324
128,1,1,1,1,0,0,1,0,0,-0.00100000000000003,-0.00100000000000003,     165P    325
0.491747728811182,0.491747728811182,-0.001,-0.001,1.501,1.501,       165P    326
1.,1.,1.,1.,-0.00866025403784687,-0.01,-4.91247728811182,            165P    327
4.25866025403784,-0.01,-2.44873864405591,-0.00866025403784687,       165P    328
15.01,-4.91247728811182,4.25866025403784,15.01,                      165P    329
-2.44873864405591,-0.00100000000000003,0.491747728811182,-0.001,     165P    330
1.501;                                                               165P    331
128,1,1,1,1,0,0,1,0,0,-0.00100000000000017,-0.00100000000000017,     167P    332
0.491747728811182,0.491747728811182,-0.001,-0.001,1.501,1.501,       167P    333
1.,1.,1.,1.,-4.25866025403785,-0.01,-2.44873864405591,               167P    334
0.00866025403784165,-0.01,-4.91247728811182,-4.25866025403785,       167P    335
15.01,-2.44873864405591,0.00866025403784165,15.01,                   167P    336
-4.91247728811182,-0.00100000000000017,0.491747728811182,-0.001,     167P    337
1.501;                                                               167P    338
128,2,8,2,2,0,1,0,0,1,0.,0.,0.,1.5707963267949,1.5707963267949,      169P    339
1.5707963267949,-3.14159265358979,-3.14159265358979,                 169P    340
-3.14159265358979,-1.5707963267949,-1.5707963267949,0.,0.,           169P    341
1.5707963267949,1.5707963267949,3.14159265358979,                    169P    342
3.14159265358979,3.14159265358979,1.,0.707106781186549,1.,           169P    343
0.707106781186548,0.500000000000001,0.707106781186548,1.,            169P    344
0.707106781186549,1.,0.707106781186548,0.500000000000001,            169P    345
0.707106781186548,1.,0.707106781186549,1.,0.707106781186548,         169P    346
0.500000000000001,0.707106781186548,1.,0.707106781186549,1.,         169P    347
0.707106781186548,0.500000000000001,0.707106781186548,1.,            169P    348
0.707106781186549,1.,0.,18.,-5.5,0.,18.,-7.5,0.,16.,-7.5,-5.5,       169P    349
18.,-5.5,-7.5,18.,-7.5,-7.5,16.,-7.5,-5.5,18.,0.,-7.5,18.,0.,        169P    350
-7.5,16.,0.,-5.5,18.,5.5,-7.5,18.,7.5,-7.5,16.,7.5,0.,18.,5.5,       169P    351
0.,18.,7.5,0.,16.,7.5,5.5,18.,5.5,7.5,18.,7.5,7.5,16.,7.5,5.5,       169P    352
18.,0.,7.5,18.,0.,7.5,16.,0.,5.5,18.,-5.5,7.5,18.,-7.5,7.5,16.,      169P    353
-7.5,0.,18.,-5.5,0.,18.,-7.5,0.,16.,-7.5,0.,1.5707963267949,         169P    354
-3.14159265358979,3.14159265358979;                                  169P    355
128,1,8,1,2,0,1,0,0,1,0.,0.,2.13333333333333,2.13333333333333,       171P    356
-3.14159265358979,-3.14159265358979,-3.14159265358979,               171P    357
-1.5707963267949,-1.5707963267949,0.,0.,1.5707963267949,             171P    358
1.5707963267949,3.14159265358979,3.14159265358979,                   171P    359
3.14159265358979,1.,1.,0.707106781186548,0.707106781186548,1.,       171P    360
1.,0.707106781186548,0.707106781186548,1.,1.,0.707106781186548,      171P    361
0.707106781186548,1.,1.,0.707106781186548,0.707106781186548,1.,      171P    362
1.,-7.5,16.,0.,-7.5,0.,0.,-7.5,16.,7.5,-7.5,0.,7.5,0.,16.,7.5,       171P    363
0.,0.,7.5,7.5,16.,7.5,7.5,0.,7.5,7.5,16.,0.,7.5,0.,0.,7.5,16.,       171P    364
-7.5,7.5,0.,-7.5,0.,16.,-7.5,0.,0.,-7.5,-7.5,16.,-7.5,-7.5,0.,       171P    365
-7.5,-7.5,16.,0.,-7.5,0.,0.,0.,2.13333333333333,                     171P    366
-3.14159265358979,3.14159265358979;                                  171P    367
128,2,8,2,2,0,1,0,0,1,1.5707963267949,1.5707963267949,               173P    368
1.5707963267949,3.14159265358979,3.14159265358979,                   173P    369
3.14159265358979,-3.14159265358979,-3.14159265358979,                173P    370
-3.14159265358979,-1.5707963267949,-1.5707963267949,0.,0.,           173P    371
1.5707963267949,1.5707963267949,3.14159265358979,                    173P    372
3.14159265358979,3.14159265358979,1.,0.707106781186548,1.,           173P    373
0.707106781186548,0.5,0.707106781186548,1.,0.707106781186548,1.,     173P    374
0.707106781186548,0.5,0.707106781186548,1.,0.707106781186548,1.,     173P    375
0.707106781186548,0.5,0.707106781186548,1.,0.707106781186548,1.,     173P    376
0.707106781186548,0.5,0.707106781186548,1.,0.707106781186548,1.,     173P    377
0.,18.,5.5,0.,18.,3.5,0.,20.,3.5,-5.5,18.,5.5,-3.5,18.,3.5,-3.5,     173P    378
20.,3.5,-5.5,18.,0.,-3.5,18.,0.,-3.5,20.,0.,-5.5,18.,-5.5,-3.5,      173P    379
18.,-3.5,-3.5,20.,-3.5,0.,18.,-5.5,0.,18.,-3.5,0.,20.,-3.5,5.5,      173P    380
18.,-5.5,3.5,18.,-3.5,3.5,20.,-3.5,5.5,18.,0.,3.5,18.,0.,3.5,        173P    381
20.,0.,5.5,18.,5.5,3.5,18.,3.5,3.5,20.,3.5,0.,18.,5.5,0.,18.,        173P    382
3.5,0.,20.,3.5,1.5707963267949,3.14159265358979,                     173P    383
-3.14159265358979,3.14159265358979;                                  173P    384
128,1,8,1,2,0,1,0,0,1,0.571428571428571,0.571428571428571,           175P    385
2.28571428571429,2.28571428571429,-3.14159265358979,                 175P    386
-3.14159265358979,-3.14159265358979,-1.5707963267949,                175P    387
-1.5707963267949,0.,0.,1.5707963267949,1.5707963267949,              175P    388
3.14159265358979,3.14159265358979,3.14159265358979,1.,1.,            175P    389
0.707106781186548,0.707106781186548,1.,1.,0.707106781186548,         175P    390
0.707106781186548,1.,1.,0.707106781186548,0.707106781186548,1.,      175P    391
1.,0.707106781186548,0.707106781186548,1.,1.,3.5,26.,0.,3.5,20.,     175P    392
0.,3.5,26.,-3.5,3.5,20.,-3.5,0.,26.,-3.5,0.,20.,-3.5,-3.5,26.,       175P    393
-3.5,-3.5,20.,-3.5,-3.5,26.,0.,-3.5,20.,0.,-3.5,26.,3.5,-3.5,        175P    394
20.,3.5,0.,26.,3.5,0.,20.,3.5,3.5,26.,3.5,3.5,20.,3.5,3.5,26.,       175P    395
0.,3.5,20.,0.,0.571428571428571,2.28571428571429,                    175P    396
-3.14159265358979,3.14159265358979;                                  175P    397
128,1,8,1,2,0,1,0,0,1,-3.90263999094895D-16,                         177P    398
-3.90263999094895D-16,1.30308997616175,1.30308997616175,             177P    399
-3.14159265358979,-3.14159265358979,-3.14159265358979,               177P    400
-1.5707963267949,-1.5707963267949,0.,0.,1.5707963267949,             177P    401
1.5707963267949,3.14159265358979,3.14159265358979,                   177P    402
3.14159265358979,1.,1.,0.707106781186548,0.707106781186548,1.,       177P    403
1.,0.707106781186548,0.707106781186548,1.,1.,0.707106781186548,      177P    404
0.707106781186548,1.,1.,0.707106781186548,0.707106781186548,1.,      177P    405
1.,3.5,22.,1.13538,1.64648481790753,22.,1.13538,3.5,23.13538,        177P    406
1.13538,1.64648481790753,23.13538,1.13538,3.5,23.13538,0.,           177P    407
1.64648481790753,23.13538,0.,3.5,23.13538,-1.13538,                  177P    408
1.64648481790753,23.13538,-1.13538,3.5,22.,-1.13538,                 177P    409
1.64648481790753,22.,-1.13538,3.5,20.86462,-1.13538,                 177P    410
1.64648481790753,20.86462,-1.13538,3.5,20.86462,0.,                  177P    411
1.64648481790753,20.86462,0.,3.5,20.86462,1.13538,                   177P    412
1.64648481790753,20.86462,1.13538,3.5,22.,1.13538,                   177P    413
1.64648481790753,22.,1.13538,-3.90263999094895D-16,                  177P    414
1.30308997616175,-3.14159265358979,3.14159265358979;                 177P    415
128,1,8,1,2,0,1,0,0,1,0.,0.,4.,4.,-3.14159265358979,                 179P    416
-3.14159265358979,-3.14159265358979,-1.5707963267949,                179P    417
-1.5707963267949,0.,0.,1.5707963267949,1.5707963267949,              179P    418
3.14159265358979,3.14159265358979,3.14159265358979,1.,1.,            179P    419
0.707106781186548,0.707106781186548,1.,1.,0.707106781186548,         179P    420
0.707106781186548,1.,1.,0.707106781186548,0.707106781186548,1.,      179P    421
1.,0.707106781186548,0.707106781186548,1.,1.,2.,18.,0.,2.,26.,       179P    422
0.,2.,18.,-2.,2.,26.,-2.,0.,18.,-2.,0.,26.,-2.,-2.,18.,-2.,-2.,      179P    423
26.,-2.,-2.,18.,0.,-2.,26.,0.,-2.,18.,2.,-2.,26.,2.,0.,18.,2.,       179P    424
0.,26.,2.,2.,18.,2.,2.,26.,2.,2.,18.,0.,2.,26.,0.,0.,4.,             179P    425
-3.14159265358979,3.14159265358979;                                  179P    426
128,1,1,1,1,0,0,1,0,0,-0.351,-0.351,0.351,0.351,-0.351,-0.351,       181P    427
0.351,0.351,1.,1.,1.,1.,3.51,26.,-3.51,-3.51,26.,-3.51,3.51,26.,     181P    428
3.51,-3.51,26.,3.51,-0.351,0.351,-0.351,0.351;                       181P    429
128,1,1,1,1,0,0,1,0,0,-0.201,-0.201,0.201,0.201,-0.201,-0.201,       183P    430
0.201,0.201,1.,1.,1.,1.,2.01,18.,-2.01,-2.01,18.,-2.01,2.01,18.,     183P    431
2.01,-2.01,18.,2.01,-0.201,0.201,-0.201,0.201;                       183P    432
128,1,1,1,1,0,0,1,0,0,-0.00100000000000003,-0.00100000000000003,     185P    433
0.491747728811182,0.491747728811182,-0.001,-0.001,1.501,1.501,       185P    434
1.,1.,1.,1.,-4.25,-0.01,2.46373864405591,-4.25,-0.01,                185P    435
-2.46373864405591,-4.25,15.01,2.46373864405591,-4.25,15.01,          185P    436
-2.46373864405591,-0.00100000000000003,0.491747728811182,-0.001,     185P    437
1.501;                                                               185P    438
128,1,1,1,1,0,0,1,0,0,-0.00100000000000014,-0.00100000000000014,     187P    439
0.491747728811182,0.491747728811182,-0.001,-0.001,1.501,1.501,       187P    440
1.,1.,1.,1.,0.00866025403784614,-0.01,4.91247728811182,              187P    441
-4.25866025403784,-0.01,2.44873864405591,0.00866025403784614,        187P    442
15.01,4.91247728811182,-4.25866025403784,15.01,2.44873864405591,     187P    443
-0.00100000000000014,0.491747728811182,-0.001,1.501;                 187P    444
128,1,1,1,1,0,0,1,0,0,-0.00100000000000014,-0.00100000000000014,     189P    445
0.491747728811182,0.491747728811182,-0.001,-0.001,1.501,1.501,       189P    446
1.,1.,1.,1.,4.25866025403784,-0.01,2.44873864405591,                 189P    447
-0.00866025403784443,-0.01,4.91247728811182,4.25866025403784,        189P    448
15.01,2.44873864405591,-0.00866025403784443,15.01,                   189P    449
4.91247728811182,-0.00100000000000014,0.491747728811182,-0.001,      189P    450
1.501;                                                               189P    451
128,1,1,1,1,0,0,1,0,0,-1.0569375,-1.0569375,0.4450625,0.4450625,     191P    452
-1.07574886440559,-1.07574886440559,0.426251135594409,               191P    453
0.426251135594409,1.,1.,1.,1.,7.51,0.,7.51,-7.51,0.,7.51,7.51,       191P    454
0.,-7.51,-7.51,0.,-7.51,-1.0569375,0.4450625,-1.07574886440559,      191P    455
0.426251135594409;                                                   191P    456
502,30,-2.22044604925031D-15,15.,-4.90747728811182,-4.25,15.,        193P    457
-2.45373864405591,4.25,15.,-2.45373864405591,4.25,15.,               193P    458
2.45373864405591,1.11022302462516D-15,15.,4.90747728811182,          193P    459
-4.25,15.,2.45373864405591,4.25,0.,-2.45373864405591,4.25,0.,        193P    460
2.45373864405591,-2.35922392732846D-15,0.,-4.90747728811182,         193P    461
-4.25,0.,-2.45373864405591,5.5,18.,-6.73555739531044D-16,0.,18.,     193P    462
-5.5,0.,18.,5.5,0.,16.,-7.5,-7.5,16.,0.,7.5,16.,                     193P    463
-9.18485099360515D-16,-7.5,0.,9.18485099360515D-16,3.5,20.,          193P    464
4.28626379701574D-16,0.,20.,3.5,3.5,26.,-4.28626379701574D-16,       193P    465
3.5,23.13538,3.46944695195361D-17,3.5,20.86462,                      193P    466
2.77555756156289D-16,3.31072684702317,22.,1.13538,                   193P    467
1.64648481790753,22.,1.13538,2.,23.13538,-2.08166817117217D-16,      193P    468
2.,20.86462,2.60208521396521D-16,2.,26.,-2.44929359829471D-16,       193P    469
2.,18.,-2.44929359829471D-16,-4.25,0.,2.45373864405591,              193P    470
6.93889390390723D-16,0.,4.90747728811182;                            193P    471
504,44,73,193,1,193,2,75,193,3,193,1,77,193,4,193,3,79,193,5,        195P    472
193,4,81,193,6,193,5,83,193,2,193,6,85,193,7,193,3,87,193,7,193,     195P    473
8,89,193,8,193,4,91,193,9,193,1,93,193,7,193,9,95,193,10,193,2,      195P    474
97,193,9,193,10,99,193,11,193,12,101,193,13,193,11,103,193,12,       195P    475
193,13,105,193,12,193,14,107,193,14,193,15,109,193,15,193,16,        195P    476
111,193,16,193,14,113,193,15,193,17,115,193,17,193,17,117,193,       195P    477
18,193,19,119,193,19,193,13,121,193,19,193,18,123,193,20,193,20,     195P    478
125,193,20,193,21,127,193,21,193,22,129,193,22,193,18,131,193,       195P    479
22,193,23,133,193,23,193,21,135,193,23,193,24,137,193,25,193,24,     195P    480
139,193,26,193,25,141,193,24,193,26,143,193,27,193,27,145,193,       195P    481
27,193,25,147,193,26,193,28,149,193,28,193,28,151,193,29,193,6,      195P    482
153,193,29,193,10,155,193,30,193,5,157,193,30,193,29,159,193,30,     195P    483
193,8;                                                               195P    484
406,1,5HBody1;                                                       197P    485
314,62.7450980392157,62.7450980392157,62.7450980392157,13HSteel      199P    486
- Satin;                                                             199P    487
S      1G      3D    200P    487                                        T      1
