G75*
%MOIN*%
%OFA0B0*%
%FSLAX25Y25*%
%IPPOS*%
%LPD*%
%AMOC8*
5,1,8,0,0,1.08239X$1,22.5*
%
%ADD10R,0.03937X0.04331*%
%ADD11C,0.12500*%
%ADD12C,0.07400*%
%ADD13R,0.04331X0.03937*%
%ADD14R,0.05150X0.05150*%
%ADD15C,0.11850*%
%ADD16C,0.02000*%
%ADD17C,0.03962*%
D10*
X0101000Y0027654D03*
X0101000Y0034346D03*
X0101000Y0047654D03*
X0101000Y0054346D03*
X0101000Y0067654D03*
X0101000Y0074346D03*
X0101000Y0087654D03*
X0101000Y0094346D03*
X0161000Y0097654D03*
X0161000Y0104346D03*
X0161000Y0112654D03*
X0161000Y0119346D03*
X0161000Y0089346D03*
X0161000Y0082654D03*
X0161000Y0074346D03*
X0161000Y0067654D03*
X0301000Y0067654D03*
X0301000Y0074346D03*
X0301000Y0087654D03*
X0301000Y0094346D03*
X0301000Y0054346D03*
X0301000Y0047654D03*
X0301000Y0034346D03*
X0301000Y0027654D03*
X0361000Y0067654D03*
X0361000Y0074346D03*
X0361000Y0082654D03*
X0361000Y0089346D03*
X0361000Y0097654D03*
X0361000Y0104346D03*
X0361000Y0112654D03*
X0361000Y0119346D03*
D11*
X0336500Y0193500D03*
X0305500Y0193500D03*
X0136500Y0193500D03*
X0105500Y0193500D03*
D12*
X0086000Y0206000D03*
X0076000Y0206000D03*
X0066000Y0206000D03*
X0051000Y0206000D03*
X0041000Y0206000D03*
X0031000Y0206000D03*
X0016000Y0191000D03*
X0016000Y0181000D03*
X0016000Y0171000D03*
X0016000Y0156000D03*
X0016000Y0146000D03*
X0016000Y0136000D03*
X0016000Y0121000D03*
X0016000Y0111000D03*
X0016000Y0096000D03*
X0016000Y0086000D03*
X0016000Y0071000D03*
X0016000Y0061000D03*
X0016000Y0046000D03*
X0016000Y0036000D03*
X0151000Y0036000D03*
X0161000Y0036000D03*
X0181000Y0036000D03*
X0181000Y0046000D03*
X0181000Y0061000D03*
X0181000Y0071000D03*
X0181000Y0086000D03*
X0181000Y0096000D03*
X0181000Y0111000D03*
X0181000Y0121000D03*
X0181000Y0136000D03*
X0181000Y0146000D03*
X0216000Y0146000D03*
X0216000Y0136000D03*
X0216000Y0121000D03*
X0216000Y0111000D03*
X0216000Y0096000D03*
X0216000Y0086000D03*
X0216000Y0071000D03*
X0216000Y0061000D03*
X0216000Y0046000D03*
X0216000Y0036000D03*
X0351000Y0036000D03*
X0361000Y0036000D03*
X0381000Y0036000D03*
X0381000Y0046000D03*
X0381000Y0061000D03*
X0381000Y0071000D03*
X0381000Y0086000D03*
X0381000Y0096000D03*
X0381000Y0111000D03*
X0381000Y0121000D03*
X0381000Y0136000D03*
X0381000Y0146000D03*
X0286000Y0206000D03*
X0276000Y0206000D03*
X0266000Y0206000D03*
X0251000Y0206000D03*
X0241000Y0206000D03*
X0231000Y0206000D03*
X0216000Y0191000D03*
X0216000Y0181000D03*
X0216000Y0171000D03*
X0216000Y0156000D03*
D13*
X0151000Y0119346D03*
X0151000Y0112654D03*
X0151000Y0104346D03*
X0151000Y0097654D03*
X0151000Y0089346D03*
X0151000Y0082654D03*
X0151000Y0074346D03*
X0151000Y0067654D03*
X0091000Y0067654D03*
X0091000Y0074346D03*
X0081000Y0074346D03*
X0081000Y0067654D03*
X0081000Y0054346D03*
X0081000Y0047654D03*
X0091000Y0047654D03*
X0091000Y0054346D03*
X0091000Y0034346D03*
X0091000Y0027654D03*
X0081000Y0027654D03*
X0081000Y0034346D03*
X0081000Y0087654D03*
X0081000Y0094346D03*
X0091000Y0094346D03*
X0091000Y0087654D03*
X0101000Y0132654D03*
X0101000Y0139346D03*
X0101000Y0152654D03*
X0101000Y0159346D03*
X0281000Y0094346D03*
X0281000Y0087654D03*
X0291000Y0087654D03*
X0291000Y0094346D03*
X0291000Y0074346D03*
X0291000Y0067654D03*
X0281000Y0067654D03*
X0281000Y0074346D03*
X0281000Y0054346D03*
X0281000Y0047654D03*
X0291000Y0047654D03*
X0291000Y0054346D03*
X0291000Y0034346D03*
X0291000Y0027654D03*
X0281000Y0027654D03*
X0281000Y0034346D03*
X0351000Y0067654D03*
X0351000Y0074346D03*
X0351000Y0082654D03*
X0351000Y0089346D03*
X0351000Y0097654D03*
X0351000Y0104346D03*
X0351000Y0112654D03*
X0351000Y0119346D03*
X0301000Y0132654D03*
X0301000Y0139346D03*
X0301000Y0152654D03*
X0301000Y0159346D03*
D14*
X0331000Y0151000D03*
X0331000Y0141000D03*
X0331000Y0131000D03*
X0331000Y0121000D03*
X0331000Y0111000D03*
X0331000Y0101000D03*
X0331000Y0091000D03*
X0331000Y0081000D03*
X0331000Y0071000D03*
X0331000Y0061000D03*
X0331000Y0051000D03*
X0331000Y0041000D03*
X0331000Y0031000D03*
X0331000Y0021000D03*
X0251000Y0021000D03*
X0251000Y0031000D03*
X0251000Y0041000D03*
X0251000Y0051000D03*
X0251000Y0061000D03*
X0251000Y0071000D03*
X0251000Y0081000D03*
X0251000Y0091000D03*
X0251000Y0101000D03*
X0251000Y0111000D03*
X0251000Y0121000D03*
X0251000Y0131000D03*
X0251000Y0141000D03*
X0251000Y0151000D03*
X0131000Y0151000D03*
X0131000Y0141000D03*
X0131000Y0131000D03*
X0131000Y0121000D03*
X0131000Y0111000D03*
X0131000Y0101000D03*
X0131000Y0091000D03*
X0131000Y0081000D03*
X0131000Y0071000D03*
X0131000Y0061000D03*
X0131000Y0051000D03*
X0131000Y0041000D03*
X0131000Y0031000D03*
X0131000Y0021000D03*
X0051000Y0021000D03*
X0051000Y0031000D03*
X0051000Y0041000D03*
X0051000Y0051000D03*
X0051000Y0061000D03*
X0051000Y0071000D03*
X0051000Y0081000D03*
X0051000Y0091000D03*
X0051000Y0101000D03*
X0051000Y0111000D03*
X0051000Y0121000D03*
X0051000Y0131000D03*
X0051000Y0141000D03*
X0051000Y0151000D03*
D15*
X0160075Y0165200D02*
X0171925Y0165200D01*
X0171925Y0181000D02*
X0160075Y0181000D01*
X0160075Y0196800D02*
X0171925Y0196800D01*
X0360075Y0196800D02*
X0371925Y0196800D01*
X0371925Y0181000D02*
X0360075Y0181000D01*
X0360075Y0165200D02*
X0371925Y0165200D01*
D16*
X0021800Y0026200D02*
X0017600Y0030400D01*
X0013400Y0030400D01*
X0009200Y0034600D01*
X0009200Y0054200D01*
X0016000Y0061000D01*
X0021800Y0058400D02*
X0021800Y0065400D01*
X0021100Y0066100D01*
X0021800Y0066800D01*
X0028800Y0066800D01*
X0048400Y0086400D01*
X0055400Y0086400D01*
X0083400Y0058400D01*
X0124000Y0058400D01*
X0131000Y0051400D01*
X0131000Y0051000D01*
X0131000Y0050000D01*
X0159000Y0050000D01*
X0178600Y0030400D01*
X0184200Y0030400D01*
X0187000Y0033200D01*
X0187000Y0040200D01*
X0181400Y0045800D01*
X0181000Y0046000D01*
X0181400Y0047200D01*
X0187000Y0052800D01*
X0187000Y0065400D01*
X0181400Y0071000D01*
X0181000Y0071000D01*
X0182800Y0071000D01*
X0187000Y0075200D01*
X0187000Y0089200D01*
X0181400Y0094800D01*
X0181000Y0096000D01*
X0181400Y0096200D01*
X0187000Y0101800D01*
X0187000Y0114400D01*
X0181400Y0120000D01*
X0181000Y0121000D01*
X0180000Y0111600D02*
X0168800Y0111600D01*
X0161800Y0118600D01*
X0161000Y0119346D01*
X0160400Y0120000D01*
X0152000Y0120000D01*
X0151000Y0119346D01*
X0150600Y0120000D01*
X0131000Y0120000D01*
X0131000Y0121000D01*
X0131000Y0111000D02*
X0131000Y0110200D01*
X0136600Y0104600D01*
X0150600Y0104600D01*
X0151000Y0104346D01*
X0152000Y0104600D01*
X0160400Y0104600D01*
X0161000Y0104346D01*
X0161800Y0104600D01*
X0180000Y0086400D01*
X0181000Y0086000D01*
X0166000Y0085000D02*
X0166000Y0078000D01*
X0180000Y0064000D01*
X0180000Y0061200D01*
X0181000Y0061000D01*
X0166000Y0052800D02*
X0166000Y0069600D01*
X0161800Y0073800D01*
X0161000Y0074346D01*
X0160400Y0073800D01*
X0152000Y0073800D01*
X0151000Y0074346D01*
X0150600Y0075200D01*
X0146400Y0075200D01*
X0131000Y0090600D01*
X0131000Y0091000D01*
X0131000Y0100400D02*
X0131000Y0101000D01*
X0131000Y0100400D02*
X0140800Y0090600D01*
X0150600Y0090600D01*
X0151000Y0089346D01*
X0152000Y0089200D01*
X0160400Y0089200D01*
X0161000Y0089346D01*
X0161800Y0089200D01*
X0166000Y0085000D01*
X0161000Y0083500D02*
X0161000Y0082654D01*
X0161000Y0083500D02*
X0151000Y0083500D01*
X0151000Y0082654D01*
X0151000Y0083500D02*
X0143500Y0083500D01*
X0151000Y0097654D02*
X0151000Y0098500D01*
X0156000Y0098500D01*
X0161000Y0098500D01*
X0161000Y0097654D01*
X0161000Y0112654D02*
X0161000Y0113500D01*
X0156000Y0113500D01*
X0151000Y0113500D01*
X0151000Y0112654D01*
X0131000Y0131000D02*
X0131000Y0131200D01*
X0124000Y0138200D01*
X0101600Y0138200D01*
X0101000Y0139346D01*
X0101600Y0139600D01*
X0101600Y0152200D01*
X0101000Y0152654D01*
X0101000Y0159346D02*
X0100200Y0160600D01*
X0100200Y0166200D01*
X0166000Y0166200D01*
X0166000Y0165200D01*
X0166000Y0164800D01*
X0180000Y0150800D01*
X0180000Y0146600D01*
X0181000Y0146000D01*
X0209200Y0169000D02*
X0209200Y0184400D01*
X0214800Y0190000D01*
X0216000Y0191000D01*
X0216200Y0191400D01*
X0235800Y0191400D01*
X0249800Y0205400D01*
X0251000Y0206000D01*
X0251200Y0205400D01*
X0258200Y0205400D01*
X0263800Y0199800D01*
X0286200Y0199800D01*
X0286900Y0200500D01*
X0300200Y0187200D01*
X0300200Y0166200D01*
X0366000Y0166200D01*
X0366000Y0165200D01*
X0366000Y0164800D01*
X0380000Y0150800D01*
X0380000Y0146600D01*
X0381000Y0146000D01*
X0381000Y0121000D02*
X0381400Y0120000D01*
X0387000Y0114400D01*
X0387000Y0101800D01*
X0381400Y0096200D01*
X0381000Y0096000D01*
X0381400Y0094800D01*
X0387000Y0089200D01*
X0387000Y0075200D01*
X0382800Y0071000D01*
X0381000Y0071000D01*
X0381400Y0071000D01*
X0387000Y0065400D01*
X0387000Y0052800D01*
X0381400Y0047200D01*
X0381000Y0046000D01*
X0381400Y0045800D01*
X0387000Y0040200D01*
X0387000Y0033200D01*
X0384200Y0030400D01*
X0378600Y0030400D01*
X0359000Y0050000D01*
X0331000Y0050000D01*
X0331000Y0051000D01*
X0331000Y0051400D01*
X0324000Y0058400D01*
X0283400Y0058400D01*
X0255400Y0086400D01*
X0248400Y0086400D01*
X0228800Y0066800D01*
X0221800Y0066800D01*
X0221100Y0066100D01*
X0221800Y0065400D01*
X0221800Y0058400D01*
X0216200Y0052800D01*
X0216200Y0047200D01*
X0216000Y0046000D01*
X0216000Y0036000D02*
X0254000Y0036000D01*
X0261000Y0029000D01*
X0280600Y0029000D01*
X0281000Y0027654D01*
X0281000Y0034346D02*
X0280600Y0034600D01*
X0276400Y0038800D01*
X0276400Y0045800D01*
X0251200Y0071000D01*
X0251000Y0071000D01*
X0251200Y0080800D02*
X0251000Y0081000D01*
X0251200Y0080800D02*
X0255400Y0080800D01*
X0280600Y0055600D01*
X0281000Y0054346D01*
X0282000Y0054200D01*
X0290400Y0054200D01*
X0291000Y0054346D01*
X0291800Y0054200D01*
X0300200Y0054200D01*
X0301000Y0054346D01*
X0301000Y0047654D02*
X0301000Y0043500D01*
X0296000Y0043500D01*
X0291000Y0043500D01*
X0291000Y0047654D01*
X0290400Y0038800D02*
X0282000Y0047200D01*
X0281000Y0047654D01*
X0290400Y0038800D02*
X0304400Y0038800D01*
X0305800Y0037400D01*
X0305800Y0024800D01*
X0304400Y0023400D01*
X0256800Y0023400D01*
X0254000Y0026200D01*
X0221800Y0026200D01*
X0217600Y0030400D01*
X0213400Y0030400D01*
X0209200Y0034600D01*
X0209200Y0054200D01*
X0216000Y0061000D01*
X0221100Y0066100D02*
X0216200Y0071000D01*
X0216000Y0071000D01*
X0214800Y0071000D01*
X0214800Y0075200D01*
X0206400Y0083600D01*
X0206400Y0111600D01*
X0214800Y0120000D01*
X0216000Y0121000D01*
X0216200Y0120000D01*
X0221800Y0114400D01*
X0221800Y0108800D01*
X0216200Y0103200D01*
X0216200Y0096200D01*
X0216000Y0096000D01*
X0209200Y0104600D02*
X0214800Y0110200D01*
X0216000Y0111000D01*
X0209200Y0104600D02*
X0209200Y0085000D01*
X0214800Y0079400D01*
X0217600Y0079400D01*
X0234400Y0096200D01*
X0254000Y0096200D01*
X0262400Y0087800D01*
X0280600Y0087800D01*
X0281000Y0087654D01*
X0281000Y0094346D02*
X0280600Y0094800D01*
X0275000Y0100400D01*
X0251200Y0100400D01*
X0251000Y0101000D01*
X0251000Y0111000D02*
X0249800Y0111600D01*
X0240000Y0111600D01*
X0216200Y0135400D01*
X0216000Y0136000D01*
X0221800Y0152200D02*
X0221800Y0164800D01*
X0216200Y0170400D01*
X0216000Y0171000D01*
X0209200Y0169000D02*
X0214800Y0163400D01*
X0214800Y0156400D01*
X0216000Y0156000D01*
X0221800Y0152200D02*
X0249800Y0124200D01*
X0249800Y0121400D01*
X0251000Y0121000D01*
X0251000Y0131000D02*
X0249800Y0131200D01*
X0249800Y0134000D01*
X0242800Y0141000D01*
X0242800Y0192800D01*
X0258200Y0199800D02*
X0258200Y0148000D01*
X0251200Y0141000D01*
X0251000Y0141000D01*
X0235800Y0106000D02*
X0216200Y0086400D01*
X0216000Y0086000D01*
X0235800Y0106000D02*
X0297400Y0106000D01*
X0305800Y0097600D01*
X0305800Y0065400D01*
X0303000Y0062600D01*
X0289000Y0062600D01*
X0284800Y0066800D01*
X0282000Y0066800D01*
X0281000Y0067654D01*
X0282000Y0073800D02*
X0281000Y0074346D01*
X0280600Y0075200D01*
X0270800Y0075200D01*
X0255400Y0090600D01*
X0251200Y0090600D01*
X0251000Y0091000D01*
X0281000Y0094346D02*
X0282000Y0094800D01*
X0290400Y0094800D01*
X0291000Y0094346D01*
X0291800Y0094800D01*
X0300200Y0094800D01*
X0301000Y0094346D01*
X0301000Y0088500D02*
X0301000Y0087654D01*
X0301000Y0081000D01*
X0301000Y0074346D02*
X0300200Y0073800D01*
X0291800Y0073800D01*
X0291000Y0074346D01*
X0290400Y0073800D01*
X0282000Y0073800D01*
X0291000Y0068500D02*
X0291000Y0067654D01*
X0291000Y0068500D02*
X0296000Y0068500D01*
X0301000Y0068500D01*
X0301000Y0067654D01*
X0301000Y0088500D02*
X0291000Y0088500D01*
X0291000Y0087654D01*
X0331000Y0090600D02*
X0331000Y0091000D01*
X0331000Y0090600D02*
X0346400Y0075200D01*
X0350600Y0075200D01*
X0351000Y0074346D01*
X0352000Y0073800D01*
X0360400Y0073800D01*
X0361000Y0074346D01*
X0361800Y0073800D01*
X0366000Y0069600D01*
X0366000Y0052800D01*
X0380000Y0038800D01*
X0380000Y0036000D01*
X0381000Y0036000D01*
X0361000Y0036000D02*
X0360400Y0036000D01*
X0346400Y0022000D01*
X0331000Y0022000D01*
X0331000Y0021000D01*
X0301000Y0027654D02*
X0301000Y0028500D01*
X0296000Y0028500D01*
X0291000Y0028500D01*
X0291000Y0027654D01*
X0291000Y0034346D02*
X0291800Y0034600D01*
X0300200Y0034600D01*
X0301000Y0034346D01*
X0291000Y0034346D02*
X0290400Y0034600D01*
X0282000Y0034600D01*
X0281000Y0034346D01*
X0343500Y0083500D02*
X0351000Y0083500D01*
X0351000Y0082654D01*
X0351000Y0083500D02*
X0361000Y0083500D01*
X0361000Y0082654D01*
X0366000Y0085000D02*
X0366000Y0078000D01*
X0380000Y0064000D01*
X0380000Y0061200D01*
X0381000Y0061000D01*
X0361000Y0061000D02*
X0361000Y0067654D01*
X0361000Y0068500D01*
X0351000Y0068500D01*
X0351000Y0067654D01*
X0366000Y0085000D02*
X0361800Y0089200D01*
X0361000Y0089346D01*
X0360400Y0089200D01*
X0352000Y0089200D01*
X0351000Y0089346D01*
X0350600Y0090600D01*
X0340800Y0090600D01*
X0331000Y0100400D01*
X0331000Y0101000D01*
X0336600Y0104600D02*
X0331000Y0110200D01*
X0331000Y0111000D01*
X0336600Y0104600D02*
X0350600Y0104600D01*
X0351000Y0104346D01*
X0352000Y0104600D01*
X0360400Y0104600D01*
X0361000Y0104346D01*
X0361800Y0104600D01*
X0380000Y0086400D01*
X0381000Y0086000D01*
X0361000Y0097654D02*
X0361000Y0098500D01*
X0356000Y0098500D01*
X0351000Y0098500D01*
X0351000Y0097654D01*
X0351000Y0112654D02*
X0351000Y0113500D01*
X0356000Y0113500D01*
X0361000Y0113500D01*
X0361000Y0112654D01*
X0361800Y0118600D02*
X0361000Y0119346D01*
X0360400Y0120000D01*
X0352000Y0120000D01*
X0351000Y0119346D01*
X0350600Y0120000D01*
X0331000Y0120000D01*
X0331000Y0121000D01*
X0331000Y0131000D02*
X0331000Y0131200D01*
X0324000Y0138200D01*
X0301600Y0138200D01*
X0301000Y0139346D01*
X0301600Y0139600D01*
X0301600Y0152200D01*
X0301000Y0152654D01*
X0301000Y0159346D02*
X0300200Y0160600D01*
X0300200Y0166200D01*
X0301000Y0133500D02*
X0301000Y0132654D01*
X0301000Y0133500D02*
X0311000Y0133500D01*
X0361800Y0118600D02*
X0368800Y0111600D01*
X0380000Y0111600D01*
X0381000Y0111000D01*
X0366000Y0181000D02*
X0366000Y0181600D01*
X0347800Y0181600D01*
X0336600Y0192800D01*
X0336500Y0193500D01*
X0286900Y0200500D02*
X0286200Y0201200D01*
X0286200Y0205400D01*
X0286000Y0206000D01*
X0181000Y0111000D02*
X0180000Y0111600D01*
X0161000Y0068500D02*
X0151000Y0068500D01*
X0151000Y0067654D01*
X0161000Y0067654D02*
X0161000Y0061000D01*
X0161000Y0067654D02*
X0161000Y0068500D01*
X0166000Y0052800D02*
X0180000Y0038800D01*
X0180000Y0036000D01*
X0181000Y0036000D01*
X0161000Y0036000D02*
X0160400Y0036000D01*
X0146400Y0022000D01*
X0131000Y0022000D01*
X0131000Y0021000D01*
X0105800Y0024800D02*
X0104400Y0023400D01*
X0056800Y0023400D01*
X0054000Y0026200D01*
X0021800Y0026200D01*
X0016000Y0036000D02*
X0054000Y0036000D01*
X0061000Y0029000D01*
X0080600Y0029000D01*
X0081000Y0027654D01*
X0081000Y0034346D02*
X0080600Y0034600D01*
X0076400Y0038800D01*
X0076400Y0045800D01*
X0051200Y0071000D01*
X0051000Y0071000D01*
X0051200Y0080800D02*
X0051000Y0081000D01*
X0051200Y0080800D02*
X0055400Y0080800D01*
X0080600Y0055600D01*
X0081000Y0054346D01*
X0082000Y0054200D01*
X0090400Y0054200D01*
X0091000Y0054346D01*
X0091800Y0054200D01*
X0100200Y0054200D01*
X0101000Y0054346D01*
X0101000Y0047654D02*
X0101000Y0043500D01*
X0096000Y0043500D01*
X0091000Y0043500D01*
X0091000Y0047654D01*
X0090400Y0038800D02*
X0104400Y0038800D01*
X0105800Y0037400D01*
X0105800Y0024800D01*
X0101000Y0027654D02*
X0101000Y0028500D01*
X0096000Y0028500D01*
X0091000Y0028500D01*
X0091000Y0027654D01*
X0091000Y0034346D02*
X0091800Y0034600D01*
X0100200Y0034600D01*
X0101000Y0034346D01*
X0091000Y0034346D02*
X0090400Y0034600D01*
X0082000Y0034600D01*
X0081000Y0034346D01*
X0090400Y0038800D02*
X0082000Y0047200D01*
X0081000Y0047654D01*
X0089000Y0062600D02*
X0103000Y0062600D01*
X0105800Y0065400D01*
X0105800Y0097600D01*
X0097400Y0106000D01*
X0035800Y0106000D01*
X0016200Y0086400D01*
X0016000Y0086000D01*
X0014800Y0079400D02*
X0009200Y0085000D01*
X0009200Y0104600D01*
X0014800Y0110200D01*
X0016000Y0111000D01*
X0021800Y0108800D02*
X0021800Y0114400D01*
X0016200Y0120000D01*
X0016000Y0121000D01*
X0014800Y0120000D01*
X0006400Y0111600D01*
X0006400Y0083600D01*
X0014800Y0075200D01*
X0014800Y0071000D01*
X0016000Y0071000D01*
X0016200Y0071000D01*
X0021100Y0066100D01*
X0021800Y0058400D02*
X0016200Y0052800D01*
X0016200Y0047200D01*
X0016000Y0046000D01*
X0014800Y0079400D02*
X0017600Y0079400D01*
X0034400Y0096200D01*
X0054000Y0096200D01*
X0062400Y0087800D01*
X0080600Y0087800D01*
X0081000Y0087654D01*
X0081000Y0094346D02*
X0080600Y0094800D01*
X0075000Y0100400D01*
X0051200Y0100400D01*
X0051000Y0101000D01*
X0051000Y0111000D02*
X0049800Y0111600D01*
X0040000Y0111600D01*
X0016200Y0135400D01*
X0016000Y0136000D01*
X0021800Y0152200D02*
X0021800Y0164800D01*
X0016200Y0170400D01*
X0016000Y0171000D01*
X0009200Y0169000D02*
X0014800Y0163400D01*
X0014800Y0156400D01*
X0016000Y0156000D01*
X0021800Y0152200D02*
X0049800Y0124200D01*
X0049800Y0121400D01*
X0051000Y0121000D01*
X0051000Y0131000D02*
X0049800Y0131200D01*
X0049800Y0134000D01*
X0042800Y0141000D01*
X0042800Y0192800D01*
X0035800Y0191400D02*
X0049800Y0205400D01*
X0051000Y0206000D01*
X0051200Y0205400D01*
X0058200Y0205400D01*
X0063800Y0199800D01*
X0086200Y0199800D01*
X0086900Y0200500D01*
X0100200Y0187200D01*
X0100200Y0166200D01*
X0136600Y0192800D02*
X0136500Y0193500D01*
X0136600Y0192800D02*
X0147800Y0181600D01*
X0166000Y0181600D01*
X0166000Y0181000D01*
X0111000Y0133500D02*
X0101000Y0133500D01*
X0101000Y0132654D01*
X0058200Y0148000D02*
X0058200Y0199800D01*
X0035800Y0191400D02*
X0016200Y0191400D01*
X0016000Y0191000D01*
X0014800Y0190000D01*
X0009200Y0184400D01*
X0009200Y0169000D01*
X0051000Y0141000D02*
X0051200Y0141000D01*
X0058200Y0148000D01*
X0021800Y0108800D02*
X0016200Y0103200D01*
X0016200Y0096200D01*
X0016000Y0096000D01*
X0051000Y0091000D02*
X0051200Y0090600D01*
X0055400Y0090600D01*
X0070800Y0075200D01*
X0080600Y0075200D01*
X0081000Y0074346D01*
X0082000Y0073800D01*
X0090400Y0073800D01*
X0091000Y0074346D01*
X0091800Y0073800D01*
X0100200Y0073800D01*
X0101000Y0074346D01*
X0101000Y0068500D02*
X0096000Y0068500D01*
X0091000Y0068500D01*
X0091000Y0067654D01*
X0089000Y0062600D02*
X0084800Y0066800D01*
X0082000Y0066800D01*
X0081000Y0067654D01*
X0101000Y0067654D02*
X0101000Y0068500D01*
X0101000Y0081000D02*
X0101000Y0087654D01*
X0101000Y0088500D01*
X0091000Y0088500D01*
X0091000Y0087654D01*
X0091000Y0094346D02*
X0091800Y0094800D01*
X0100200Y0094800D01*
X0101000Y0094346D01*
X0091000Y0094346D02*
X0090400Y0094800D01*
X0082000Y0094800D01*
X0081000Y0094346D01*
X0086900Y0200500D02*
X0086200Y0201200D01*
X0086200Y0205400D01*
X0086000Y0206000D01*
D17*
X0058200Y0199800D03*
X0042800Y0192800D03*
X0111000Y0133500D03*
X0156000Y0113500D03*
X0156000Y0098500D03*
X0143500Y0083500D03*
X0161000Y0061000D03*
X0101000Y0081000D03*
X0096000Y0068500D03*
X0096000Y0043500D03*
X0096000Y0028500D03*
X0242800Y0192800D03*
X0258200Y0199800D03*
X0311000Y0133500D03*
X0356000Y0113500D03*
X0356000Y0098500D03*
X0343500Y0083500D03*
X0361000Y0061000D03*
X0301000Y0081000D03*
X0296000Y0068500D03*
X0296000Y0043500D03*
X0296000Y0028500D03*
M02*
