G75*
%MOIN*%
%OFA0B0*%
%FSLAX25Y25*%
%IPPOS*%
%LPD*%
%AMOC8*
5,1,8,0,0,1.08239X$1,22.5*
%
%ADD10C,0.13300*%
%ADD11R,0.05800X0.35800*%
%ADD12C,0.08200*%
%ADD13C,0.13800*%
%ADD14R,0.05950X0.05950*%
%ADD15C,0.12650*%
%ADD16C,0.04762*%
D10*
X0105500Y0193500D03*
X0136500Y0193500D03*
X0305500Y0193500D03*
X0336500Y0193500D03*
D11*
X0336500Y0214500D03*
X0305500Y0214500D03*
X0136500Y0214500D03*
X0105500Y0214500D03*
D12*
X0086000Y0206000D03*
X0076000Y0206000D03*
X0066000Y0206000D03*
X0051000Y0206000D03*
X0041000Y0206000D03*
X0031000Y0206000D03*
X0016000Y0191000D03*
X0016000Y0181000D03*
X0016000Y0171000D03*
X0016000Y0156000D03*
X0016000Y0146000D03*
X0016000Y0136000D03*
X0016000Y0121000D03*
X0016000Y0111000D03*
X0016000Y0096000D03*
X0016000Y0086000D03*
X0016000Y0071000D03*
X0016000Y0061000D03*
X0016000Y0046000D03*
X0016000Y0036000D03*
X0151000Y0036000D03*
X0161000Y0036000D03*
X0181000Y0036000D03*
X0181000Y0046000D03*
X0181000Y0061000D03*
X0181000Y0071000D03*
X0181000Y0086000D03*
X0181000Y0096000D03*
X0181000Y0111000D03*
X0181000Y0121000D03*
X0181000Y0136000D03*
X0181000Y0146000D03*
X0216000Y0146000D03*
X0216000Y0136000D03*
X0216000Y0121000D03*
X0216000Y0111000D03*
X0216000Y0096000D03*
X0216000Y0086000D03*
X0216000Y0071000D03*
X0216000Y0061000D03*
X0216000Y0046000D03*
X0216000Y0036000D03*
X0351000Y0036000D03*
X0361000Y0036000D03*
X0381000Y0036000D03*
X0381000Y0046000D03*
X0381000Y0061000D03*
X0381000Y0071000D03*
X0381000Y0086000D03*
X0381000Y0096000D03*
X0381000Y0111000D03*
X0381000Y0121000D03*
X0381000Y0136000D03*
X0381000Y0146000D03*
X0286000Y0206000D03*
X0276000Y0206000D03*
X0266000Y0206000D03*
X0251000Y0206000D03*
X0241000Y0206000D03*
X0231000Y0206000D03*
X0216000Y0191000D03*
X0216000Y0181000D03*
X0216000Y0171000D03*
X0216000Y0156000D03*
D13*
X0016000Y0016000D03*
X0161000Y0016000D03*
X0216000Y0016000D03*
X0361000Y0016000D03*
X0376000Y0221000D03*
X0216000Y0221000D03*
X0176000Y0221000D03*
X0016000Y0221000D03*
D14*
X0051000Y0151000D03*
X0051000Y0141000D03*
X0051000Y0131000D03*
X0051000Y0121000D03*
X0051000Y0111000D03*
X0051000Y0101000D03*
X0051000Y0091000D03*
X0051000Y0081000D03*
X0051000Y0071000D03*
X0051000Y0061000D03*
X0051000Y0051000D03*
X0051000Y0041000D03*
X0051000Y0031000D03*
X0051000Y0021000D03*
X0131000Y0021000D03*
X0131000Y0031000D03*
X0131000Y0041000D03*
X0131000Y0051000D03*
X0131000Y0061000D03*
X0131000Y0071000D03*
X0131000Y0081000D03*
X0131000Y0091000D03*
X0131000Y0101000D03*
X0131000Y0111000D03*
X0131000Y0121000D03*
X0131000Y0131000D03*
X0131000Y0141000D03*
X0131000Y0151000D03*
X0251000Y0151000D03*
X0251000Y0141000D03*
X0251000Y0131000D03*
X0251000Y0121000D03*
X0251000Y0111000D03*
X0251000Y0101000D03*
X0251000Y0091000D03*
X0251000Y0081000D03*
X0251000Y0071000D03*
X0251000Y0061000D03*
X0251000Y0051000D03*
X0251000Y0041000D03*
X0251000Y0031000D03*
X0251000Y0021000D03*
X0331000Y0021000D03*
X0331000Y0031000D03*
X0331000Y0041000D03*
X0331000Y0051000D03*
X0331000Y0061000D03*
X0331000Y0071000D03*
X0331000Y0081000D03*
X0331000Y0091000D03*
X0331000Y0101000D03*
X0331000Y0111000D03*
X0331000Y0121000D03*
X0331000Y0131000D03*
X0331000Y0141000D03*
X0331000Y0151000D03*
D15*
X0360075Y0165200D02*
X0371925Y0165200D01*
X0371925Y0181000D02*
X0360075Y0181000D01*
X0360075Y0196800D02*
X0371925Y0196800D01*
X0171925Y0196800D02*
X0160075Y0196800D01*
X0160075Y0181000D02*
X0171925Y0181000D01*
X0171925Y0165200D02*
X0160075Y0165200D01*
D16*
X0111000Y0133500D03*
X0156000Y0113500D03*
X0156000Y0098500D03*
X0143500Y0083500D03*
X0161000Y0061000D03*
X0101000Y0081000D03*
X0096000Y0068500D03*
X0096000Y0043500D03*
X0096000Y0028500D03*
X0042800Y0192800D03*
X0058200Y0199800D03*
X0242800Y0192800D03*
X0258200Y0199800D03*
X0311000Y0133500D03*
X0356000Y0113500D03*
X0356000Y0098500D03*
X0343500Y0083500D03*
X0361000Y0061000D03*
X0301000Y0081000D03*
X0296000Y0068500D03*
X0296000Y0043500D03*
X0296000Y0028500D03*
M02*
