%
M48
M72
T01C0.02362
T02C0.03150
T03C0.04000
T04C0.07000
T05C0.07900
T06C0.13000
%
T01
X96000Y28500
X96000Y43500
X96000Y68500
X101000Y81000
X143500Y83500
X156000Y98500
X156000Y113500
X111000Y133500
X42800Y192800
X58200Y199800
X161000Y61000
X296000Y68500
X301000Y81000
X343500Y83500
X356000Y98500
X356000Y113500
X311000Y133500
X242800Y192800
X258200Y199800
X361000Y61000
X296000Y43500
X296000Y28500
T02
X331000Y31000
X331000Y21000
X331000Y41000
X331000Y51000
X331000Y61000
X331000Y71000
X331000Y81000
X331000Y91000
X331000Y101000
X331000Y111000
X331000Y121000
X331000Y131000
X331000Y141000
X331000Y151000
X251000Y151000
X251000Y141000
X251000Y131000
X251000Y121000
X251000Y111000
X251000Y101000
X251000Y91000
X251000Y81000
X251000Y71000
X251000Y61000
X251000Y51000
X251000Y41000
X251000Y31000
X251000Y21000
X131000Y21000
X131000Y31000
X131000Y41000
X131000Y51000
X131000Y61000
X131000Y71000
X131000Y81000
X131000Y91000
X131000Y101000
X131000Y111000
X131000Y121000
X131000Y131000
X131000Y141000
X131000Y151000
X51000Y151000
X51000Y141000
X51000Y131000
X51000Y121000
X51000Y111000
X51000Y101000
X51000Y91000
X51000Y81000
X51000Y71000
X51000Y61000
X51000Y51000
X51000Y41000
X51000Y31000
X51000Y21000
T03
X16000Y36000
X16000Y46000
X16000Y61000
X16000Y71000
X16000Y86000
X16000Y96000
X16000Y111000
X16000Y121000
X16000Y136000
X16000Y146000
X16000Y156000
X16000Y171000
X16000Y181000
X16000Y191000
X31000Y206000
X41000Y206000
X51000Y206000
X66000Y206000
X76000Y206000
X86000Y206000
X181000Y146000
X181000Y136000
X181000Y121000
X181000Y111000
X181000Y96000
X181000Y86000
X181000Y71000
X181000Y61000
X181000Y46000
X181000Y36000
X161000Y36000
X151000Y36000
X216000Y36000
X216000Y46000
X216000Y61000
X216000Y71000
X216000Y86000
X216000Y96000
X216000Y111000
X216000Y121000
X216000Y136000
X216000Y146000
X216000Y156000
X216000Y171000
X216000Y181000
X216000Y191000
X231000Y206000
X241000Y206000
X251000Y206000
X266000Y206000
X276000Y206000
X286000Y206000
X381000Y146000
X381000Y136000
X381000Y121000
X381000Y111000
X381000Y96000
X381000Y86000
X381000Y71000
X381000Y61000
X381000Y46000
X381000Y36000
X361000Y36000
X351000Y36000
T04
X336500Y193500
X305500Y193500
X136500Y193500
X105500Y193500
T05
X166000Y196800
X166000Y181000
X166000Y165200
X366000Y165200
X366000Y181000
X366000Y196800
T06
X16000Y16000
X161000Y16000
X216000Y16000
X361000Y16000
X376000Y221000
X216000Y221000
X176000Y221000
X16000Y221000
M30
