G75*
%MOIN*%
%OFA0B0*%
%FSLAX25Y25*%
%IPPOS*%
%LPD*%
%AMOC8*
5,1,8,0,0,1.08239X$1,22.5*
%
%ADD10C,0.00000*%
%ADD11C,0.00600*%
%ADD12C,0.00400*%
%ADD13C,0.00500*%
%ADD14C,0.03200*%
%ADD15C,0.00700*%
D10*
X0001000Y0001000D02*
X0001000Y0233461D01*
X0389701Y0233461D01*
X0389701Y0001000D01*
X0001000Y0001000D01*
X0009500Y0016000D02*
X0009502Y0016161D01*
X0009508Y0016321D01*
X0009518Y0016482D01*
X0009532Y0016642D01*
X0009550Y0016802D01*
X0009571Y0016961D01*
X0009597Y0017120D01*
X0009627Y0017278D01*
X0009660Y0017435D01*
X0009698Y0017592D01*
X0009739Y0017747D01*
X0009784Y0017901D01*
X0009833Y0018054D01*
X0009886Y0018206D01*
X0009942Y0018357D01*
X0010003Y0018506D01*
X0010066Y0018654D01*
X0010134Y0018800D01*
X0010205Y0018944D01*
X0010279Y0019086D01*
X0010357Y0019227D01*
X0010439Y0019365D01*
X0010524Y0019502D01*
X0010612Y0019636D01*
X0010704Y0019768D01*
X0010799Y0019898D01*
X0010897Y0020026D01*
X0010998Y0020151D01*
X0011102Y0020273D01*
X0011209Y0020393D01*
X0011319Y0020510D01*
X0011432Y0020625D01*
X0011548Y0020736D01*
X0011667Y0020845D01*
X0011788Y0020950D01*
X0011912Y0021053D01*
X0012038Y0021153D01*
X0012166Y0021249D01*
X0012297Y0021342D01*
X0012431Y0021432D01*
X0012566Y0021519D01*
X0012704Y0021602D01*
X0012843Y0021682D01*
X0012985Y0021758D01*
X0013128Y0021831D01*
X0013273Y0021900D01*
X0013420Y0021966D01*
X0013568Y0022028D01*
X0013718Y0022086D01*
X0013869Y0022141D01*
X0014022Y0022192D01*
X0014176Y0022239D01*
X0014331Y0022282D01*
X0014487Y0022321D01*
X0014643Y0022357D01*
X0014801Y0022388D01*
X0014959Y0022416D01*
X0015118Y0022440D01*
X0015278Y0022460D01*
X0015438Y0022476D01*
X0015598Y0022488D01*
X0015759Y0022496D01*
X0015920Y0022500D01*
X0016080Y0022500D01*
X0016241Y0022496D01*
X0016402Y0022488D01*
X0016562Y0022476D01*
X0016722Y0022460D01*
X0016882Y0022440D01*
X0017041Y0022416D01*
X0017199Y0022388D01*
X0017357Y0022357D01*
X0017513Y0022321D01*
X0017669Y0022282D01*
X0017824Y0022239D01*
X0017978Y0022192D01*
X0018131Y0022141D01*
X0018282Y0022086D01*
X0018432Y0022028D01*
X0018580Y0021966D01*
X0018727Y0021900D01*
X0018872Y0021831D01*
X0019015Y0021758D01*
X0019157Y0021682D01*
X0019296Y0021602D01*
X0019434Y0021519D01*
X0019569Y0021432D01*
X0019703Y0021342D01*
X0019834Y0021249D01*
X0019962Y0021153D01*
X0020088Y0021053D01*
X0020212Y0020950D01*
X0020333Y0020845D01*
X0020452Y0020736D01*
X0020568Y0020625D01*
X0020681Y0020510D01*
X0020791Y0020393D01*
X0020898Y0020273D01*
X0021002Y0020151D01*
X0021103Y0020026D01*
X0021201Y0019898D01*
X0021296Y0019768D01*
X0021388Y0019636D01*
X0021476Y0019502D01*
X0021561Y0019365D01*
X0021643Y0019227D01*
X0021721Y0019086D01*
X0021795Y0018944D01*
X0021866Y0018800D01*
X0021934Y0018654D01*
X0021997Y0018506D01*
X0022058Y0018357D01*
X0022114Y0018206D01*
X0022167Y0018054D01*
X0022216Y0017901D01*
X0022261Y0017747D01*
X0022302Y0017592D01*
X0022340Y0017435D01*
X0022373Y0017278D01*
X0022403Y0017120D01*
X0022429Y0016961D01*
X0022450Y0016802D01*
X0022468Y0016642D01*
X0022482Y0016482D01*
X0022492Y0016321D01*
X0022498Y0016161D01*
X0022500Y0016000D01*
X0022498Y0015839D01*
X0022492Y0015679D01*
X0022482Y0015518D01*
X0022468Y0015358D01*
X0022450Y0015198D01*
X0022429Y0015039D01*
X0022403Y0014880D01*
X0022373Y0014722D01*
X0022340Y0014565D01*
X0022302Y0014408D01*
X0022261Y0014253D01*
X0022216Y0014099D01*
X0022167Y0013946D01*
X0022114Y0013794D01*
X0022058Y0013643D01*
X0021997Y0013494D01*
X0021934Y0013346D01*
X0021866Y0013200D01*
X0021795Y0013056D01*
X0021721Y0012914D01*
X0021643Y0012773D01*
X0021561Y0012635D01*
X0021476Y0012498D01*
X0021388Y0012364D01*
X0021296Y0012232D01*
X0021201Y0012102D01*
X0021103Y0011974D01*
X0021002Y0011849D01*
X0020898Y0011727D01*
X0020791Y0011607D01*
X0020681Y0011490D01*
X0020568Y0011375D01*
X0020452Y0011264D01*
X0020333Y0011155D01*
X0020212Y0011050D01*
X0020088Y0010947D01*
X0019962Y0010847D01*
X0019834Y0010751D01*
X0019703Y0010658D01*
X0019569Y0010568D01*
X0019434Y0010481D01*
X0019296Y0010398D01*
X0019157Y0010318D01*
X0019015Y0010242D01*
X0018872Y0010169D01*
X0018727Y0010100D01*
X0018580Y0010034D01*
X0018432Y0009972D01*
X0018282Y0009914D01*
X0018131Y0009859D01*
X0017978Y0009808D01*
X0017824Y0009761D01*
X0017669Y0009718D01*
X0017513Y0009679D01*
X0017357Y0009643D01*
X0017199Y0009612D01*
X0017041Y0009584D01*
X0016882Y0009560D01*
X0016722Y0009540D01*
X0016562Y0009524D01*
X0016402Y0009512D01*
X0016241Y0009504D01*
X0016080Y0009500D01*
X0015920Y0009500D01*
X0015759Y0009504D01*
X0015598Y0009512D01*
X0015438Y0009524D01*
X0015278Y0009540D01*
X0015118Y0009560D01*
X0014959Y0009584D01*
X0014801Y0009612D01*
X0014643Y0009643D01*
X0014487Y0009679D01*
X0014331Y0009718D01*
X0014176Y0009761D01*
X0014022Y0009808D01*
X0013869Y0009859D01*
X0013718Y0009914D01*
X0013568Y0009972D01*
X0013420Y0010034D01*
X0013273Y0010100D01*
X0013128Y0010169D01*
X0012985Y0010242D01*
X0012843Y0010318D01*
X0012704Y0010398D01*
X0012566Y0010481D01*
X0012431Y0010568D01*
X0012297Y0010658D01*
X0012166Y0010751D01*
X0012038Y0010847D01*
X0011912Y0010947D01*
X0011788Y0011050D01*
X0011667Y0011155D01*
X0011548Y0011264D01*
X0011432Y0011375D01*
X0011319Y0011490D01*
X0011209Y0011607D01*
X0011102Y0011727D01*
X0010998Y0011849D01*
X0010897Y0011974D01*
X0010799Y0012102D01*
X0010704Y0012232D01*
X0010612Y0012364D01*
X0010524Y0012498D01*
X0010439Y0012635D01*
X0010357Y0012773D01*
X0010279Y0012914D01*
X0010205Y0013056D01*
X0010134Y0013200D01*
X0010066Y0013346D01*
X0010003Y0013494D01*
X0009942Y0013643D01*
X0009886Y0013794D01*
X0009833Y0013946D01*
X0009784Y0014099D01*
X0009739Y0014253D01*
X0009698Y0014408D01*
X0009660Y0014565D01*
X0009627Y0014722D01*
X0009597Y0014880D01*
X0009571Y0015039D01*
X0009550Y0015198D01*
X0009532Y0015358D01*
X0009518Y0015518D01*
X0009508Y0015679D01*
X0009502Y0015839D01*
X0009500Y0016000D01*
X0154500Y0016000D02*
X0154502Y0016161D01*
X0154508Y0016321D01*
X0154518Y0016482D01*
X0154532Y0016642D01*
X0154550Y0016802D01*
X0154571Y0016961D01*
X0154597Y0017120D01*
X0154627Y0017278D01*
X0154660Y0017435D01*
X0154698Y0017592D01*
X0154739Y0017747D01*
X0154784Y0017901D01*
X0154833Y0018054D01*
X0154886Y0018206D01*
X0154942Y0018357D01*
X0155003Y0018506D01*
X0155066Y0018654D01*
X0155134Y0018800D01*
X0155205Y0018944D01*
X0155279Y0019086D01*
X0155357Y0019227D01*
X0155439Y0019365D01*
X0155524Y0019502D01*
X0155612Y0019636D01*
X0155704Y0019768D01*
X0155799Y0019898D01*
X0155897Y0020026D01*
X0155998Y0020151D01*
X0156102Y0020273D01*
X0156209Y0020393D01*
X0156319Y0020510D01*
X0156432Y0020625D01*
X0156548Y0020736D01*
X0156667Y0020845D01*
X0156788Y0020950D01*
X0156912Y0021053D01*
X0157038Y0021153D01*
X0157166Y0021249D01*
X0157297Y0021342D01*
X0157431Y0021432D01*
X0157566Y0021519D01*
X0157704Y0021602D01*
X0157843Y0021682D01*
X0157985Y0021758D01*
X0158128Y0021831D01*
X0158273Y0021900D01*
X0158420Y0021966D01*
X0158568Y0022028D01*
X0158718Y0022086D01*
X0158869Y0022141D01*
X0159022Y0022192D01*
X0159176Y0022239D01*
X0159331Y0022282D01*
X0159487Y0022321D01*
X0159643Y0022357D01*
X0159801Y0022388D01*
X0159959Y0022416D01*
X0160118Y0022440D01*
X0160278Y0022460D01*
X0160438Y0022476D01*
X0160598Y0022488D01*
X0160759Y0022496D01*
X0160920Y0022500D01*
X0161080Y0022500D01*
X0161241Y0022496D01*
X0161402Y0022488D01*
X0161562Y0022476D01*
X0161722Y0022460D01*
X0161882Y0022440D01*
X0162041Y0022416D01*
X0162199Y0022388D01*
X0162357Y0022357D01*
X0162513Y0022321D01*
X0162669Y0022282D01*
X0162824Y0022239D01*
X0162978Y0022192D01*
X0163131Y0022141D01*
X0163282Y0022086D01*
X0163432Y0022028D01*
X0163580Y0021966D01*
X0163727Y0021900D01*
X0163872Y0021831D01*
X0164015Y0021758D01*
X0164157Y0021682D01*
X0164296Y0021602D01*
X0164434Y0021519D01*
X0164569Y0021432D01*
X0164703Y0021342D01*
X0164834Y0021249D01*
X0164962Y0021153D01*
X0165088Y0021053D01*
X0165212Y0020950D01*
X0165333Y0020845D01*
X0165452Y0020736D01*
X0165568Y0020625D01*
X0165681Y0020510D01*
X0165791Y0020393D01*
X0165898Y0020273D01*
X0166002Y0020151D01*
X0166103Y0020026D01*
X0166201Y0019898D01*
X0166296Y0019768D01*
X0166388Y0019636D01*
X0166476Y0019502D01*
X0166561Y0019365D01*
X0166643Y0019227D01*
X0166721Y0019086D01*
X0166795Y0018944D01*
X0166866Y0018800D01*
X0166934Y0018654D01*
X0166997Y0018506D01*
X0167058Y0018357D01*
X0167114Y0018206D01*
X0167167Y0018054D01*
X0167216Y0017901D01*
X0167261Y0017747D01*
X0167302Y0017592D01*
X0167340Y0017435D01*
X0167373Y0017278D01*
X0167403Y0017120D01*
X0167429Y0016961D01*
X0167450Y0016802D01*
X0167468Y0016642D01*
X0167482Y0016482D01*
X0167492Y0016321D01*
X0167498Y0016161D01*
X0167500Y0016000D01*
X0167498Y0015839D01*
X0167492Y0015679D01*
X0167482Y0015518D01*
X0167468Y0015358D01*
X0167450Y0015198D01*
X0167429Y0015039D01*
X0167403Y0014880D01*
X0167373Y0014722D01*
X0167340Y0014565D01*
X0167302Y0014408D01*
X0167261Y0014253D01*
X0167216Y0014099D01*
X0167167Y0013946D01*
X0167114Y0013794D01*
X0167058Y0013643D01*
X0166997Y0013494D01*
X0166934Y0013346D01*
X0166866Y0013200D01*
X0166795Y0013056D01*
X0166721Y0012914D01*
X0166643Y0012773D01*
X0166561Y0012635D01*
X0166476Y0012498D01*
X0166388Y0012364D01*
X0166296Y0012232D01*
X0166201Y0012102D01*
X0166103Y0011974D01*
X0166002Y0011849D01*
X0165898Y0011727D01*
X0165791Y0011607D01*
X0165681Y0011490D01*
X0165568Y0011375D01*
X0165452Y0011264D01*
X0165333Y0011155D01*
X0165212Y0011050D01*
X0165088Y0010947D01*
X0164962Y0010847D01*
X0164834Y0010751D01*
X0164703Y0010658D01*
X0164569Y0010568D01*
X0164434Y0010481D01*
X0164296Y0010398D01*
X0164157Y0010318D01*
X0164015Y0010242D01*
X0163872Y0010169D01*
X0163727Y0010100D01*
X0163580Y0010034D01*
X0163432Y0009972D01*
X0163282Y0009914D01*
X0163131Y0009859D01*
X0162978Y0009808D01*
X0162824Y0009761D01*
X0162669Y0009718D01*
X0162513Y0009679D01*
X0162357Y0009643D01*
X0162199Y0009612D01*
X0162041Y0009584D01*
X0161882Y0009560D01*
X0161722Y0009540D01*
X0161562Y0009524D01*
X0161402Y0009512D01*
X0161241Y0009504D01*
X0161080Y0009500D01*
X0160920Y0009500D01*
X0160759Y0009504D01*
X0160598Y0009512D01*
X0160438Y0009524D01*
X0160278Y0009540D01*
X0160118Y0009560D01*
X0159959Y0009584D01*
X0159801Y0009612D01*
X0159643Y0009643D01*
X0159487Y0009679D01*
X0159331Y0009718D01*
X0159176Y0009761D01*
X0159022Y0009808D01*
X0158869Y0009859D01*
X0158718Y0009914D01*
X0158568Y0009972D01*
X0158420Y0010034D01*
X0158273Y0010100D01*
X0158128Y0010169D01*
X0157985Y0010242D01*
X0157843Y0010318D01*
X0157704Y0010398D01*
X0157566Y0010481D01*
X0157431Y0010568D01*
X0157297Y0010658D01*
X0157166Y0010751D01*
X0157038Y0010847D01*
X0156912Y0010947D01*
X0156788Y0011050D01*
X0156667Y0011155D01*
X0156548Y0011264D01*
X0156432Y0011375D01*
X0156319Y0011490D01*
X0156209Y0011607D01*
X0156102Y0011727D01*
X0155998Y0011849D01*
X0155897Y0011974D01*
X0155799Y0012102D01*
X0155704Y0012232D01*
X0155612Y0012364D01*
X0155524Y0012498D01*
X0155439Y0012635D01*
X0155357Y0012773D01*
X0155279Y0012914D01*
X0155205Y0013056D01*
X0155134Y0013200D01*
X0155066Y0013346D01*
X0155003Y0013494D01*
X0154942Y0013643D01*
X0154886Y0013794D01*
X0154833Y0013946D01*
X0154784Y0014099D01*
X0154739Y0014253D01*
X0154698Y0014408D01*
X0154660Y0014565D01*
X0154627Y0014722D01*
X0154597Y0014880D01*
X0154571Y0015039D01*
X0154550Y0015198D01*
X0154532Y0015358D01*
X0154518Y0015518D01*
X0154508Y0015679D01*
X0154502Y0015839D01*
X0154500Y0016000D01*
X0209500Y0016000D02*
X0209502Y0016161D01*
X0209508Y0016321D01*
X0209518Y0016482D01*
X0209532Y0016642D01*
X0209550Y0016802D01*
X0209571Y0016961D01*
X0209597Y0017120D01*
X0209627Y0017278D01*
X0209660Y0017435D01*
X0209698Y0017592D01*
X0209739Y0017747D01*
X0209784Y0017901D01*
X0209833Y0018054D01*
X0209886Y0018206D01*
X0209942Y0018357D01*
X0210003Y0018506D01*
X0210066Y0018654D01*
X0210134Y0018800D01*
X0210205Y0018944D01*
X0210279Y0019086D01*
X0210357Y0019227D01*
X0210439Y0019365D01*
X0210524Y0019502D01*
X0210612Y0019636D01*
X0210704Y0019768D01*
X0210799Y0019898D01*
X0210897Y0020026D01*
X0210998Y0020151D01*
X0211102Y0020273D01*
X0211209Y0020393D01*
X0211319Y0020510D01*
X0211432Y0020625D01*
X0211548Y0020736D01*
X0211667Y0020845D01*
X0211788Y0020950D01*
X0211912Y0021053D01*
X0212038Y0021153D01*
X0212166Y0021249D01*
X0212297Y0021342D01*
X0212431Y0021432D01*
X0212566Y0021519D01*
X0212704Y0021602D01*
X0212843Y0021682D01*
X0212985Y0021758D01*
X0213128Y0021831D01*
X0213273Y0021900D01*
X0213420Y0021966D01*
X0213568Y0022028D01*
X0213718Y0022086D01*
X0213869Y0022141D01*
X0214022Y0022192D01*
X0214176Y0022239D01*
X0214331Y0022282D01*
X0214487Y0022321D01*
X0214643Y0022357D01*
X0214801Y0022388D01*
X0214959Y0022416D01*
X0215118Y0022440D01*
X0215278Y0022460D01*
X0215438Y0022476D01*
X0215598Y0022488D01*
X0215759Y0022496D01*
X0215920Y0022500D01*
X0216080Y0022500D01*
X0216241Y0022496D01*
X0216402Y0022488D01*
X0216562Y0022476D01*
X0216722Y0022460D01*
X0216882Y0022440D01*
X0217041Y0022416D01*
X0217199Y0022388D01*
X0217357Y0022357D01*
X0217513Y0022321D01*
X0217669Y0022282D01*
X0217824Y0022239D01*
X0217978Y0022192D01*
X0218131Y0022141D01*
X0218282Y0022086D01*
X0218432Y0022028D01*
X0218580Y0021966D01*
X0218727Y0021900D01*
X0218872Y0021831D01*
X0219015Y0021758D01*
X0219157Y0021682D01*
X0219296Y0021602D01*
X0219434Y0021519D01*
X0219569Y0021432D01*
X0219703Y0021342D01*
X0219834Y0021249D01*
X0219962Y0021153D01*
X0220088Y0021053D01*
X0220212Y0020950D01*
X0220333Y0020845D01*
X0220452Y0020736D01*
X0220568Y0020625D01*
X0220681Y0020510D01*
X0220791Y0020393D01*
X0220898Y0020273D01*
X0221002Y0020151D01*
X0221103Y0020026D01*
X0221201Y0019898D01*
X0221296Y0019768D01*
X0221388Y0019636D01*
X0221476Y0019502D01*
X0221561Y0019365D01*
X0221643Y0019227D01*
X0221721Y0019086D01*
X0221795Y0018944D01*
X0221866Y0018800D01*
X0221934Y0018654D01*
X0221997Y0018506D01*
X0222058Y0018357D01*
X0222114Y0018206D01*
X0222167Y0018054D01*
X0222216Y0017901D01*
X0222261Y0017747D01*
X0222302Y0017592D01*
X0222340Y0017435D01*
X0222373Y0017278D01*
X0222403Y0017120D01*
X0222429Y0016961D01*
X0222450Y0016802D01*
X0222468Y0016642D01*
X0222482Y0016482D01*
X0222492Y0016321D01*
X0222498Y0016161D01*
X0222500Y0016000D01*
X0222498Y0015839D01*
X0222492Y0015679D01*
X0222482Y0015518D01*
X0222468Y0015358D01*
X0222450Y0015198D01*
X0222429Y0015039D01*
X0222403Y0014880D01*
X0222373Y0014722D01*
X0222340Y0014565D01*
X0222302Y0014408D01*
X0222261Y0014253D01*
X0222216Y0014099D01*
X0222167Y0013946D01*
X0222114Y0013794D01*
X0222058Y0013643D01*
X0221997Y0013494D01*
X0221934Y0013346D01*
X0221866Y0013200D01*
X0221795Y0013056D01*
X0221721Y0012914D01*
X0221643Y0012773D01*
X0221561Y0012635D01*
X0221476Y0012498D01*
X0221388Y0012364D01*
X0221296Y0012232D01*
X0221201Y0012102D01*
X0221103Y0011974D01*
X0221002Y0011849D01*
X0220898Y0011727D01*
X0220791Y0011607D01*
X0220681Y0011490D01*
X0220568Y0011375D01*
X0220452Y0011264D01*
X0220333Y0011155D01*
X0220212Y0011050D01*
X0220088Y0010947D01*
X0219962Y0010847D01*
X0219834Y0010751D01*
X0219703Y0010658D01*
X0219569Y0010568D01*
X0219434Y0010481D01*
X0219296Y0010398D01*
X0219157Y0010318D01*
X0219015Y0010242D01*
X0218872Y0010169D01*
X0218727Y0010100D01*
X0218580Y0010034D01*
X0218432Y0009972D01*
X0218282Y0009914D01*
X0218131Y0009859D01*
X0217978Y0009808D01*
X0217824Y0009761D01*
X0217669Y0009718D01*
X0217513Y0009679D01*
X0217357Y0009643D01*
X0217199Y0009612D01*
X0217041Y0009584D01*
X0216882Y0009560D01*
X0216722Y0009540D01*
X0216562Y0009524D01*
X0216402Y0009512D01*
X0216241Y0009504D01*
X0216080Y0009500D01*
X0215920Y0009500D01*
X0215759Y0009504D01*
X0215598Y0009512D01*
X0215438Y0009524D01*
X0215278Y0009540D01*
X0215118Y0009560D01*
X0214959Y0009584D01*
X0214801Y0009612D01*
X0214643Y0009643D01*
X0214487Y0009679D01*
X0214331Y0009718D01*
X0214176Y0009761D01*
X0214022Y0009808D01*
X0213869Y0009859D01*
X0213718Y0009914D01*
X0213568Y0009972D01*
X0213420Y0010034D01*
X0213273Y0010100D01*
X0213128Y0010169D01*
X0212985Y0010242D01*
X0212843Y0010318D01*
X0212704Y0010398D01*
X0212566Y0010481D01*
X0212431Y0010568D01*
X0212297Y0010658D01*
X0212166Y0010751D01*
X0212038Y0010847D01*
X0211912Y0010947D01*
X0211788Y0011050D01*
X0211667Y0011155D01*
X0211548Y0011264D01*
X0211432Y0011375D01*
X0211319Y0011490D01*
X0211209Y0011607D01*
X0211102Y0011727D01*
X0210998Y0011849D01*
X0210897Y0011974D01*
X0210799Y0012102D01*
X0210704Y0012232D01*
X0210612Y0012364D01*
X0210524Y0012498D01*
X0210439Y0012635D01*
X0210357Y0012773D01*
X0210279Y0012914D01*
X0210205Y0013056D01*
X0210134Y0013200D01*
X0210066Y0013346D01*
X0210003Y0013494D01*
X0209942Y0013643D01*
X0209886Y0013794D01*
X0209833Y0013946D01*
X0209784Y0014099D01*
X0209739Y0014253D01*
X0209698Y0014408D01*
X0209660Y0014565D01*
X0209627Y0014722D01*
X0209597Y0014880D01*
X0209571Y0015039D01*
X0209550Y0015198D01*
X0209532Y0015358D01*
X0209518Y0015518D01*
X0209508Y0015679D01*
X0209502Y0015839D01*
X0209500Y0016000D01*
X0354500Y0016000D02*
X0354502Y0016161D01*
X0354508Y0016321D01*
X0354518Y0016482D01*
X0354532Y0016642D01*
X0354550Y0016802D01*
X0354571Y0016961D01*
X0354597Y0017120D01*
X0354627Y0017278D01*
X0354660Y0017435D01*
X0354698Y0017592D01*
X0354739Y0017747D01*
X0354784Y0017901D01*
X0354833Y0018054D01*
X0354886Y0018206D01*
X0354942Y0018357D01*
X0355003Y0018506D01*
X0355066Y0018654D01*
X0355134Y0018800D01*
X0355205Y0018944D01*
X0355279Y0019086D01*
X0355357Y0019227D01*
X0355439Y0019365D01*
X0355524Y0019502D01*
X0355612Y0019636D01*
X0355704Y0019768D01*
X0355799Y0019898D01*
X0355897Y0020026D01*
X0355998Y0020151D01*
X0356102Y0020273D01*
X0356209Y0020393D01*
X0356319Y0020510D01*
X0356432Y0020625D01*
X0356548Y0020736D01*
X0356667Y0020845D01*
X0356788Y0020950D01*
X0356912Y0021053D01*
X0357038Y0021153D01*
X0357166Y0021249D01*
X0357297Y0021342D01*
X0357431Y0021432D01*
X0357566Y0021519D01*
X0357704Y0021602D01*
X0357843Y0021682D01*
X0357985Y0021758D01*
X0358128Y0021831D01*
X0358273Y0021900D01*
X0358420Y0021966D01*
X0358568Y0022028D01*
X0358718Y0022086D01*
X0358869Y0022141D01*
X0359022Y0022192D01*
X0359176Y0022239D01*
X0359331Y0022282D01*
X0359487Y0022321D01*
X0359643Y0022357D01*
X0359801Y0022388D01*
X0359959Y0022416D01*
X0360118Y0022440D01*
X0360278Y0022460D01*
X0360438Y0022476D01*
X0360598Y0022488D01*
X0360759Y0022496D01*
X0360920Y0022500D01*
X0361080Y0022500D01*
X0361241Y0022496D01*
X0361402Y0022488D01*
X0361562Y0022476D01*
X0361722Y0022460D01*
X0361882Y0022440D01*
X0362041Y0022416D01*
X0362199Y0022388D01*
X0362357Y0022357D01*
X0362513Y0022321D01*
X0362669Y0022282D01*
X0362824Y0022239D01*
X0362978Y0022192D01*
X0363131Y0022141D01*
X0363282Y0022086D01*
X0363432Y0022028D01*
X0363580Y0021966D01*
X0363727Y0021900D01*
X0363872Y0021831D01*
X0364015Y0021758D01*
X0364157Y0021682D01*
X0364296Y0021602D01*
X0364434Y0021519D01*
X0364569Y0021432D01*
X0364703Y0021342D01*
X0364834Y0021249D01*
X0364962Y0021153D01*
X0365088Y0021053D01*
X0365212Y0020950D01*
X0365333Y0020845D01*
X0365452Y0020736D01*
X0365568Y0020625D01*
X0365681Y0020510D01*
X0365791Y0020393D01*
X0365898Y0020273D01*
X0366002Y0020151D01*
X0366103Y0020026D01*
X0366201Y0019898D01*
X0366296Y0019768D01*
X0366388Y0019636D01*
X0366476Y0019502D01*
X0366561Y0019365D01*
X0366643Y0019227D01*
X0366721Y0019086D01*
X0366795Y0018944D01*
X0366866Y0018800D01*
X0366934Y0018654D01*
X0366997Y0018506D01*
X0367058Y0018357D01*
X0367114Y0018206D01*
X0367167Y0018054D01*
X0367216Y0017901D01*
X0367261Y0017747D01*
X0367302Y0017592D01*
X0367340Y0017435D01*
X0367373Y0017278D01*
X0367403Y0017120D01*
X0367429Y0016961D01*
X0367450Y0016802D01*
X0367468Y0016642D01*
X0367482Y0016482D01*
X0367492Y0016321D01*
X0367498Y0016161D01*
X0367500Y0016000D01*
X0367498Y0015839D01*
X0367492Y0015679D01*
X0367482Y0015518D01*
X0367468Y0015358D01*
X0367450Y0015198D01*
X0367429Y0015039D01*
X0367403Y0014880D01*
X0367373Y0014722D01*
X0367340Y0014565D01*
X0367302Y0014408D01*
X0367261Y0014253D01*
X0367216Y0014099D01*
X0367167Y0013946D01*
X0367114Y0013794D01*
X0367058Y0013643D01*
X0366997Y0013494D01*
X0366934Y0013346D01*
X0366866Y0013200D01*
X0366795Y0013056D01*
X0366721Y0012914D01*
X0366643Y0012773D01*
X0366561Y0012635D01*
X0366476Y0012498D01*
X0366388Y0012364D01*
X0366296Y0012232D01*
X0366201Y0012102D01*
X0366103Y0011974D01*
X0366002Y0011849D01*
X0365898Y0011727D01*
X0365791Y0011607D01*
X0365681Y0011490D01*
X0365568Y0011375D01*
X0365452Y0011264D01*
X0365333Y0011155D01*
X0365212Y0011050D01*
X0365088Y0010947D01*
X0364962Y0010847D01*
X0364834Y0010751D01*
X0364703Y0010658D01*
X0364569Y0010568D01*
X0364434Y0010481D01*
X0364296Y0010398D01*
X0364157Y0010318D01*
X0364015Y0010242D01*
X0363872Y0010169D01*
X0363727Y0010100D01*
X0363580Y0010034D01*
X0363432Y0009972D01*
X0363282Y0009914D01*
X0363131Y0009859D01*
X0362978Y0009808D01*
X0362824Y0009761D01*
X0362669Y0009718D01*
X0362513Y0009679D01*
X0362357Y0009643D01*
X0362199Y0009612D01*
X0362041Y0009584D01*
X0361882Y0009560D01*
X0361722Y0009540D01*
X0361562Y0009524D01*
X0361402Y0009512D01*
X0361241Y0009504D01*
X0361080Y0009500D01*
X0360920Y0009500D01*
X0360759Y0009504D01*
X0360598Y0009512D01*
X0360438Y0009524D01*
X0360278Y0009540D01*
X0360118Y0009560D01*
X0359959Y0009584D01*
X0359801Y0009612D01*
X0359643Y0009643D01*
X0359487Y0009679D01*
X0359331Y0009718D01*
X0359176Y0009761D01*
X0359022Y0009808D01*
X0358869Y0009859D01*
X0358718Y0009914D01*
X0358568Y0009972D01*
X0358420Y0010034D01*
X0358273Y0010100D01*
X0358128Y0010169D01*
X0357985Y0010242D01*
X0357843Y0010318D01*
X0357704Y0010398D01*
X0357566Y0010481D01*
X0357431Y0010568D01*
X0357297Y0010658D01*
X0357166Y0010751D01*
X0357038Y0010847D01*
X0356912Y0010947D01*
X0356788Y0011050D01*
X0356667Y0011155D01*
X0356548Y0011264D01*
X0356432Y0011375D01*
X0356319Y0011490D01*
X0356209Y0011607D01*
X0356102Y0011727D01*
X0355998Y0011849D01*
X0355897Y0011974D01*
X0355799Y0012102D01*
X0355704Y0012232D01*
X0355612Y0012364D01*
X0355524Y0012498D01*
X0355439Y0012635D01*
X0355357Y0012773D01*
X0355279Y0012914D01*
X0355205Y0013056D01*
X0355134Y0013200D01*
X0355066Y0013346D01*
X0355003Y0013494D01*
X0354942Y0013643D01*
X0354886Y0013794D01*
X0354833Y0013946D01*
X0354784Y0014099D01*
X0354739Y0014253D01*
X0354698Y0014408D01*
X0354660Y0014565D01*
X0354627Y0014722D01*
X0354597Y0014880D01*
X0354571Y0015039D01*
X0354550Y0015198D01*
X0354532Y0015358D01*
X0354518Y0015518D01*
X0354508Y0015679D01*
X0354502Y0015839D01*
X0354500Y0016000D01*
X0369500Y0221000D02*
X0369502Y0221161D01*
X0369508Y0221321D01*
X0369518Y0221482D01*
X0369532Y0221642D01*
X0369550Y0221802D01*
X0369571Y0221961D01*
X0369597Y0222120D01*
X0369627Y0222278D01*
X0369660Y0222435D01*
X0369698Y0222592D01*
X0369739Y0222747D01*
X0369784Y0222901D01*
X0369833Y0223054D01*
X0369886Y0223206D01*
X0369942Y0223357D01*
X0370003Y0223506D01*
X0370066Y0223654D01*
X0370134Y0223800D01*
X0370205Y0223944D01*
X0370279Y0224086D01*
X0370357Y0224227D01*
X0370439Y0224365D01*
X0370524Y0224502D01*
X0370612Y0224636D01*
X0370704Y0224768D01*
X0370799Y0224898D01*
X0370897Y0225026D01*
X0370998Y0225151D01*
X0371102Y0225273D01*
X0371209Y0225393D01*
X0371319Y0225510D01*
X0371432Y0225625D01*
X0371548Y0225736D01*
X0371667Y0225845D01*
X0371788Y0225950D01*
X0371912Y0226053D01*
X0372038Y0226153D01*
X0372166Y0226249D01*
X0372297Y0226342D01*
X0372431Y0226432D01*
X0372566Y0226519D01*
X0372704Y0226602D01*
X0372843Y0226682D01*
X0372985Y0226758D01*
X0373128Y0226831D01*
X0373273Y0226900D01*
X0373420Y0226966D01*
X0373568Y0227028D01*
X0373718Y0227086D01*
X0373869Y0227141D01*
X0374022Y0227192D01*
X0374176Y0227239D01*
X0374331Y0227282D01*
X0374487Y0227321D01*
X0374643Y0227357D01*
X0374801Y0227388D01*
X0374959Y0227416D01*
X0375118Y0227440D01*
X0375278Y0227460D01*
X0375438Y0227476D01*
X0375598Y0227488D01*
X0375759Y0227496D01*
X0375920Y0227500D01*
X0376080Y0227500D01*
X0376241Y0227496D01*
X0376402Y0227488D01*
X0376562Y0227476D01*
X0376722Y0227460D01*
X0376882Y0227440D01*
X0377041Y0227416D01*
X0377199Y0227388D01*
X0377357Y0227357D01*
X0377513Y0227321D01*
X0377669Y0227282D01*
X0377824Y0227239D01*
X0377978Y0227192D01*
X0378131Y0227141D01*
X0378282Y0227086D01*
X0378432Y0227028D01*
X0378580Y0226966D01*
X0378727Y0226900D01*
X0378872Y0226831D01*
X0379015Y0226758D01*
X0379157Y0226682D01*
X0379296Y0226602D01*
X0379434Y0226519D01*
X0379569Y0226432D01*
X0379703Y0226342D01*
X0379834Y0226249D01*
X0379962Y0226153D01*
X0380088Y0226053D01*
X0380212Y0225950D01*
X0380333Y0225845D01*
X0380452Y0225736D01*
X0380568Y0225625D01*
X0380681Y0225510D01*
X0380791Y0225393D01*
X0380898Y0225273D01*
X0381002Y0225151D01*
X0381103Y0225026D01*
X0381201Y0224898D01*
X0381296Y0224768D01*
X0381388Y0224636D01*
X0381476Y0224502D01*
X0381561Y0224365D01*
X0381643Y0224227D01*
X0381721Y0224086D01*
X0381795Y0223944D01*
X0381866Y0223800D01*
X0381934Y0223654D01*
X0381997Y0223506D01*
X0382058Y0223357D01*
X0382114Y0223206D01*
X0382167Y0223054D01*
X0382216Y0222901D01*
X0382261Y0222747D01*
X0382302Y0222592D01*
X0382340Y0222435D01*
X0382373Y0222278D01*
X0382403Y0222120D01*
X0382429Y0221961D01*
X0382450Y0221802D01*
X0382468Y0221642D01*
X0382482Y0221482D01*
X0382492Y0221321D01*
X0382498Y0221161D01*
X0382500Y0221000D01*
X0382498Y0220839D01*
X0382492Y0220679D01*
X0382482Y0220518D01*
X0382468Y0220358D01*
X0382450Y0220198D01*
X0382429Y0220039D01*
X0382403Y0219880D01*
X0382373Y0219722D01*
X0382340Y0219565D01*
X0382302Y0219408D01*
X0382261Y0219253D01*
X0382216Y0219099D01*
X0382167Y0218946D01*
X0382114Y0218794D01*
X0382058Y0218643D01*
X0381997Y0218494D01*
X0381934Y0218346D01*
X0381866Y0218200D01*
X0381795Y0218056D01*
X0381721Y0217914D01*
X0381643Y0217773D01*
X0381561Y0217635D01*
X0381476Y0217498D01*
X0381388Y0217364D01*
X0381296Y0217232D01*
X0381201Y0217102D01*
X0381103Y0216974D01*
X0381002Y0216849D01*
X0380898Y0216727D01*
X0380791Y0216607D01*
X0380681Y0216490D01*
X0380568Y0216375D01*
X0380452Y0216264D01*
X0380333Y0216155D01*
X0380212Y0216050D01*
X0380088Y0215947D01*
X0379962Y0215847D01*
X0379834Y0215751D01*
X0379703Y0215658D01*
X0379569Y0215568D01*
X0379434Y0215481D01*
X0379296Y0215398D01*
X0379157Y0215318D01*
X0379015Y0215242D01*
X0378872Y0215169D01*
X0378727Y0215100D01*
X0378580Y0215034D01*
X0378432Y0214972D01*
X0378282Y0214914D01*
X0378131Y0214859D01*
X0377978Y0214808D01*
X0377824Y0214761D01*
X0377669Y0214718D01*
X0377513Y0214679D01*
X0377357Y0214643D01*
X0377199Y0214612D01*
X0377041Y0214584D01*
X0376882Y0214560D01*
X0376722Y0214540D01*
X0376562Y0214524D01*
X0376402Y0214512D01*
X0376241Y0214504D01*
X0376080Y0214500D01*
X0375920Y0214500D01*
X0375759Y0214504D01*
X0375598Y0214512D01*
X0375438Y0214524D01*
X0375278Y0214540D01*
X0375118Y0214560D01*
X0374959Y0214584D01*
X0374801Y0214612D01*
X0374643Y0214643D01*
X0374487Y0214679D01*
X0374331Y0214718D01*
X0374176Y0214761D01*
X0374022Y0214808D01*
X0373869Y0214859D01*
X0373718Y0214914D01*
X0373568Y0214972D01*
X0373420Y0215034D01*
X0373273Y0215100D01*
X0373128Y0215169D01*
X0372985Y0215242D01*
X0372843Y0215318D01*
X0372704Y0215398D01*
X0372566Y0215481D01*
X0372431Y0215568D01*
X0372297Y0215658D01*
X0372166Y0215751D01*
X0372038Y0215847D01*
X0371912Y0215947D01*
X0371788Y0216050D01*
X0371667Y0216155D01*
X0371548Y0216264D01*
X0371432Y0216375D01*
X0371319Y0216490D01*
X0371209Y0216607D01*
X0371102Y0216727D01*
X0370998Y0216849D01*
X0370897Y0216974D01*
X0370799Y0217102D01*
X0370704Y0217232D01*
X0370612Y0217364D01*
X0370524Y0217498D01*
X0370439Y0217635D01*
X0370357Y0217773D01*
X0370279Y0217914D01*
X0370205Y0218056D01*
X0370134Y0218200D01*
X0370066Y0218346D01*
X0370003Y0218494D01*
X0369942Y0218643D01*
X0369886Y0218794D01*
X0369833Y0218946D01*
X0369784Y0219099D01*
X0369739Y0219253D01*
X0369698Y0219408D01*
X0369660Y0219565D01*
X0369627Y0219722D01*
X0369597Y0219880D01*
X0369571Y0220039D01*
X0369550Y0220198D01*
X0369532Y0220358D01*
X0369518Y0220518D01*
X0369508Y0220679D01*
X0369502Y0220839D01*
X0369500Y0221000D01*
X0209500Y0221000D02*
X0209502Y0221161D01*
X0209508Y0221321D01*
X0209518Y0221482D01*
X0209532Y0221642D01*
X0209550Y0221802D01*
X0209571Y0221961D01*
X0209597Y0222120D01*
X0209627Y0222278D01*
X0209660Y0222435D01*
X0209698Y0222592D01*
X0209739Y0222747D01*
X0209784Y0222901D01*
X0209833Y0223054D01*
X0209886Y0223206D01*
X0209942Y0223357D01*
X0210003Y0223506D01*
X0210066Y0223654D01*
X0210134Y0223800D01*
X0210205Y0223944D01*
X0210279Y0224086D01*
X0210357Y0224227D01*
X0210439Y0224365D01*
X0210524Y0224502D01*
X0210612Y0224636D01*
X0210704Y0224768D01*
X0210799Y0224898D01*
X0210897Y0225026D01*
X0210998Y0225151D01*
X0211102Y0225273D01*
X0211209Y0225393D01*
X0211319Y0225510D01*
X0211432Y0225625D01*
X0211548Y0225736D01*
X0211667Y0225845D01*
X0211788Y0225950D01*
X0211912Y0226053D01*
X0212038Y0226153D01*
X0212166Y0226249D01*
X0212297Y0226342D01*
X0212431Y0226432D01*
X0212566Y0226519D01*
X0212704Y0226602D01*
X0212843Y0226682D01*
X0212985Y0226758D01*
X0213128Y0226831D01*
X0213273Y0226900D01*
X0213420Y0226966D01*
X0213568Y0227028D01*
X0213718Y0227086D01*
X0213869Y0227141D01*
X0214022Y0227192D01*
X0214176Y0227239D01*
X0214331Y0227282D01*
X0214487Y0227321D01*
X0214643Y0227357D01*
X0214801Y0227388D01*
X0214959Y0227416D01*
X0215118Y0227440D01*
X0215278Y0227460D01*
X0215438Y0227476D01*
X0215598Y0227488D01*
X0215759Y0227496D01*
X0215920Y0227500D01*
X0216080Y0227500D01*
X0216241Y0227496D01*
X0216402Y0227488D01*
X0216562Y0227476D01*
X0216722Y0227460D01*
X0216882Y0227440D01*
X0217041Y0227416D01*
X0217199Y0227388D01*
X0217357Y0227357D01*
X0217513Y0227321D01*
X0217669Y0227282D01*
X0217824Y0227239D01*
X0217978Y0227192D01*
X0218131Y0227141D01*
X0218282Y0227086D01*
X0218432Y0227028D01*
X0218580Y0226966D01*
X0218727Y0226900D01*
X0218872Y0226831D01*
X0219015Y0226758D01*
X0219157Y0226682D01*
X0219296Y0226602D01*
X0219434Y0226519D01*
X0219569Y0226432D01*
X0219703Y0226342D01*
X0219834Y0226249D01*
X0219962Y0226153D01*
X0220088Y0226053D01*
X0220212Y0225950D01*
X0220333Y0225845D01*
X0220452Y0225736D01*
X0220568Y0225625D01*
X0220681Y0225510D01*
X0220791Y0225393D01*
X0220898Y0225273D01*
X0221002Y0225151D01*
X0221103Y0225026D01*
X0221201Y0224898D01*
X0221296Y0224768D01*
X0221388Y0224636D01*
X0221476Y0224502D01*
X0221561Y0224365D01*
X0221643Y0224227D01*
X0221721Y0224086D01*
X0221795Y0223944D01*
X0221866Y0223800D01*
X0221934Y0223654D01*
X0221997Y0223506D01*
X0222058Y0223357D01*
X0222114Y0223206D01*
X0222167Y0223054D01*
X0222216Y0222901D01*
X0222261Y0222747D01*
X0222302Y0222592D01*
X0222340Y0222435D01*
X0222373Y0222278D01*
X0222403Y0222120D01*
X0222429Y0221961D01*
X0222450Y0221802D01*
X0222468Y0221642D01*
X0222482Y0221482D01*
X0222492Y0221321D01*
X0222498Y0221161D01*
X0222500Y0221000D01*
X0222498Y0220839D01*
X0222492Y0220679D01*
X0222482Y0220518D01*
X0222468Y0220358D01*
X0222450Y0220198D01*
X0222429Y0220039D01*
X0222403Y0219880D01*
X0222373Y0219722D01*
X0222340Y0219565D01*
X0222302Y0219408D01*
X0222261Y0219253D01*
X0222216Y0219099D01*
X0222167Y0218946D01*
X0222114Y0218794D01*
X0222058Y0218643D01*
X0221997Y0218494D01*
X0221934Y0218346D01*
X0221866Y0218200D01*
X0221795Y0218056D01*
X0221721Y0217914D01*
X0221643Y0217773D01*
X0221561Y0217635D01*
X0221476Y0217498D01*
X0221388Y0217364D01*
X0221296Y0217232D01*
X0221201Y0217102D01*
X0221103Y0216974D01*
X0221002Y0216849D01*
X0220898Y0216727D01*
X0220791Y0216607D01*
X0220681Y0216490D01*
X0220568Y0216375D01*
X0220452Y0216264D01*
X0220333Y0216155D01*
X0220212Y0216050D01*
X0220088Y0215947D01*
X0219962Y0215847D01*
X0219834Y0215751D01*
X0219703Y0215658D01*
X0219569Y0215568D01*
X0219434Y0215481D01*
X0219296Y0215398D01*
X0219157Y0215318D01*
X0219015Y0215242D01*
X0218872Y0215169D01*
X0218727Y0215100D01*
X0218580Y0215034D01*
X0218432Y0214972D01*
X0218282Y0214914D01*
X0218131Y0214859D01*
X0217978Y0214808D01*
X0217824Y0214761D01*
X0217669Y0214718D01*
X0217513Y0214679D01*
X0217357Y0214643D01*
X0217199Y0214612D01*
X0217041Y0214584D01*
X0216882Y0214560D01*
X0216722Y0214540D01*
X0216562Y0214524D01*
X0216402Y0214512D01*
X0216241Y0214504D01*
X0216080Y0214500D01*
X0215920Y0214500D01*
X0215759Y0214504D01*
X0215598Y0214512D01*
X0215438Y0214524D01*
X0215278Y0214540D01*
X0215118Y0214560D01*
X0214959Y0214584D01*
X0214801Y0214612D01*
X0214643Y0214643D01*
X0214487Y0214679D01*
X0214331Y0214718D01*
X0214176Y0214761D01*
X0214022Y0214808D01*
X0213869Y0214859D01*
X0213718Y0214914D01*
X0213568Y0214972D01*
X0213420Y0215034D01*
X0213273Y0215100D01*
X0213128Y0215169D01*
X0212985Y0215242D01*
X0212843Y0215318D01*
X0212704Y0215398D01*
X0212566Y0215481D01*
X0212431Y0215568D01*
X0212297Y0215658D01*
X0212166Y0215751D01*
X0212038Y0215847D01*
X0211912Y0215947D01*
X0211788Y0216050D01*
X0211667Y0216155D01*
X0211548Y0216264D01*
X0211432Y0216375D01*
X0211319Y0216490D01*
X0211209Y0216607D01*
X0211102Y0216727D01*
X0210998Y0216849D01*
X0210897Y0216974D01*
X0210799Y0217102D01*
X0210704Y0217232D01*
X0210612Y0217364D01*
X0210524Y0217498D01*
X0210439Y0217635D01*
X0210357Y0217773D01*
X0210279Y0217914D01*
X0210205Y0218056D01*
X0210134Y0218200D01*
X0210066Y0218346D01*
X0210003Y0218494D01*
X0209942Y0218643D01*
X0209886Y0218794D01*
X0209833Y0218946D01*
X0209784Y0219099D01*
X0209739Y0219253D01*
X0209698Y0219408D01*
X0209660Y0219565D01*
X0209627Y0219722D01*
X0209597Y0219880D01*
X0209571Y0220039D01*
X0209550Y0220198D01*
X0209532Y0220358D01*
X0209518Y0220518D01*
X0209508Y0220679D01*
X0209502Y0220839D01*
X0209500Y0221000D01*
X0169500Y0221000D02*
X0169502Y0221161D01*
X0169508Y0221321D01*
X0169518Y0221482D01*
X0169532Y0221642D01*
X0169550Y0221802D01*
X0169571Y0221961D01*
X0169597Y0222120D01*
X0169627Y0222278D01*
X0169660Y0222435D01*
X0169698Y0222592D01*
X0169739Y0222747D01*
X0169784Y0222901D01*
X0169833Y0223054D01*
X0169886Y0223206D01*
X0169942Y0223357D01*
X0170003Y0223506D01*
X0170066Y0223654D01*
X0170134Y0223800D01*
X0170205Y0223944D01*
X0170279Y0224086D01*
X0170357Y0224227D01*
X0170439Y0224365D01*
X0170524Y0224502D01*
X0170612Y0224636D01*
X0170704Y0224768D01*
X0170799Y0224898D01*
X0170897Y0225026D01*
X0170998Y0225151D01*
X0171102Y0225273D01*
X0171209Y0225393D01*
X0171319Y0225510D01*
X0171432Y0225625D01*
X0171548Y0225736D01*
X0171667Y0225845D01*
X0171788Y0225950D01*
X0171912Y0226053D01*
X0172038Y0226153D01*
X0172166Y0226249D01*
X0172297Y0226342D01*
X0172431Y0226432D01*
X0172566Y0226519D01*
X0172704Y0226602D01*
X0172843Y0226682D01*
X0172985Y0226758D01*
X0173128Y0226831D01*
X0173273Y0226900D01*
X0173420Y0226966D01*
X0173568Y0227028D01*
X0173718Y0227086D01*
X0173869Y0227141D01*
X0174022Y0227192D01*
X0174176Y0227239D01*
X0174331Y0227282D01*
X0174487Y0227321D01*
X0174643Y0227357D01*
X0174801Y0227388D01*
X0174959Y0227416D01*
X0175118Y0227440D01*
X0175278Y0227460D01*
X0175438Y0227476D01*
X0175598Y0227488D01*
X0175759Y0227496D01*
X0175920Y0227500D01*
X0176080Y0227500D01*
X0176241Y0227496D01*
X0176402Y0227488D01*
X0176562Y0227476D01*
X0176722Y0227460D01*
X0176882Y0227440D01*
X0177041Y0227416D01*
X0177199Y0227388D01*
X0177357Y0227357D01*
X0177513Y0227321D01*
X0177669Y0227282D01*
X0177824Y0227239D01*
X0177978Y0227192D01*
X0178131Y0227141D01*
X0178282Y0227086D01*
X0178432Y0227028D01*
X0178580Y0226966D01*
X0178727Y0226900D01*
X0178872Y0226831D01*
X0179015Y0226758D01*
X0179157Y0226682D01*
X0179296Y0226602D01*
X0179434Y0226519D01*
X0179569Y0226432D01*
X0179703Y0226342D01*
X0179834Y0226249D01*
X0179962Y0226153D01*
X0180088Y0226053D01*
X0180212Y0225950D01*
X0180333Y0225845D01*
X0180452Y0225736D01*
X0180568Y0225625D01*
X0180681Y0225510D01*
X0180791Y0225393D01*
X0180898Y0225273D01*
X0181002Y0225151D01*
X0181103Y0225026D01*
X0181201Y0224898D01*
X0181296Y0224768D01*
X0181388Y0224636D01*
X0181476Y0224502D01*
X0181561Y0224365D01*
X0181643Y0224227D01*
X0181721Y0224086D01*
X0181795Y0223944D01*
X0181866Y0223800D01*
X0181934Y0223654D01*
X0181997Y0223506D01*
X0182058Y0223357D01*
X0182114Y0223206D01*
X0182167Y0223054D01*
X0182216Y0222901D01*
X0182261Y0222747D01*
X0182302Y0222592D01*
X0182340Y0222435D01*
X0182373Y0222278D01*
X0182403Y0222120D01*
X0182429Y0221961D01*
X0182450Y0221802D01*
X0182468Y0221642D01*
X0182482Y0221482D01*
X0182492Y0221321D01*
X0182498Y0221161D01*
X0182500Y0221000D01*
X0182498Y0220839D01*
X0182492Y0220679D01*
X0182482Y0220518D01*
X0182468Y0220358D01*
X0182450Y0220198D01*
X0182429Y0220039D01*
X0182403Y0219880D01*
X0182373Y0219722D01*
X0182340Y0219565D01*
X0182302Y0219408D01*
X0182261Y0219253D01*
X0182216Y0219099D01*
X0182167Y0218946D01*
X0182114Y0218794D01*
X0182058Y0218643D01*
X0181997Y0218494D01*
X0181934Y0218346D01*
X0181866Y0218200D01*
X0181795Y0218056D01*
X0181721Y0217914D01*
X0181643Y0217773D01*
X0181561Y0217635D01*
X0181476Y0217498D01*
X0181388Y0217364D01*
X0181296Y0217232D01*
X0181201Y0217102D01*
X0181103Y0216974D01*
X0181002Y0216849D01*
X0180898Y0216727D01*
X0180791Y0216607D01*
X0180681Y0216490D01*
X0180568Y0216375D01*
X0180452Y0216264D01*
X0180333Y0216155D01*
X0180212Y0216050D01*
X0180088Y0215947D01*
X0179962Y0215847D01*
X0179834Y0215751D01*
X0179703Y0215658D01*
X0179569Y0215568D01*
X0179434Y0215481D01*
X0179296Y0215398D01*
X0179157Y0215318D01*
X0179015Y0215242D01*
X0178872Y0215169D01*
X0178727Y0215100D01*
X0178580Y0215034D01*
X0178432Y0214972D01*
X0178282Y0214914D01*
X0178131Y0214859D01*
X0177978Y0214808D01*
X0177824Y0214761D01*
X0177669Y0214718D01*
X0177513Y0214679D01*
X0177357Y0214643D01*
X0177199Y0214612D01*
X0177041Y0214584D01*
X0176882Y0214560D01*
X0176722Y0214540D01*
X0176562Y0214524D01*
X0176402Y0214512D01*
X0176241Y0214504D01*
X0176080Y0214500D01*
X0175920Y0214500D01*
X0175759Y0214504D01*
X0175598Y0214512D01*
X0175438Y0214524D01*
X0175278Y0214540D01*
X0175118Y0214560D01*
X0174959Y0214584D01*
X0174801Y0214612D01*
X0174643Y0214643D01*
X0174487Y0214679D01*
X0174331Y0214718D01*
X0174176Y0214761D01*
X0174022Y0214808D01*
X0173869Y0214859D01*
X0173718Y0214914D01*
X0173568Y0214972D01*
X0173420Y0215034D01*
X0173273Y0215100D01*
X0173128Y0215169D01*
X0172985Y0215242D01*
X0172843Y0215318D01*
X0172704Y0215398D01*
X0172566Y0215481D01*
X0172431Y0215568D01*
X0172297Y0215658D01*
X0172166Y0215751D01*
X0172038Y0215847D01*
X0171912Y0215947D01*
X0171788Y0216050D01*
X0171667Y0216155D01*
X0171548Y0216264D01*
X0171432Y0216375D01*
X0171319Y0216490D01*
X0171209Y0216607D01*
X0171102Y0216727D01*
X0170998Y0216849D01*
X0170897Y0216974D01*
X0170799Y0217102D01*
X0170704Y0217232D01*
X0170612Y0217364D01*
X0170524Y0217498D01*
X0170439Y0217635D01*
X0170357Y0217773D01*
X0170279Y0217914D01*
X0170205Y0218056D01*
X0170134Y0218200D01*
X0170066Y0218346D01*
X0170003Y0218494D01*
X0169942Y0218643D01*
X0169886Y0218794D01*
X0169833Y0218946D01*
X0169784Y0219099D01*
X0169739Y0219253D01*
X0169698Y0219408D01*
X0169660Y0219565D01*
X0169627Y0219722D01*
X0169597Y0219880D01*
X0169571Y0220039D01*
X0169550Y0220198D01*
X0169532Y0220358D01*
X0169518Y0220518D01*
X0169508Y0220679D01*
X0169502Y0220839D01*
X0169500Y0221000D01*
X0009500Y0221000D02*
X0009502Y0221161D01*
X0009508Y0221321D01*
X0009518Y0221482D01*
X0009532Y0221642D01*
X0009550Y0221802D01*
X0009571Y0221961D01*
X0009597Y0222120D01*
X0009627Y0222278D01*
X0009660Y0222435D01*
X0009698Y0222592D01*
X0009739Y0222747D01*
X0009784Y0222901D01*
X0009833Y0223054D01*
X0009886Y0223206D01*
X0009942Y0223357D01*
X0010003Y0223506D01*
X0010066Y0223654D01*
X0010134Y0223800D01*
X0010205Y0223944D01*
X0010279Y0224086D01*
X0010357Y0224227D01*
X0010439Y0224365D01*
X0010524Y0224502D01*
X0010612Y0224636D01*
X0010704Y0224768D01*
X0010799Y0224898D01*
X0010897Y0225026D01*
X0010998Y0225151D01*
X0011102Y0225273D01*
X0011209Y0225393D01*
X0011319Y0225510D01*
X0011432Y0225625D01*
X0011548Y0225736D01*
X0011667Y0225845D01*
X0011788Y0225950D01*
X0011912Y0226053D01*
X0012038Y0226153D01*
X0012166Y0226249D01*
X0012297Y0226342D01*
X0012431Y0226432D01*
X0012566Y0226519D01*
X0012704Y0226602D01*
X0012843Y0226682D01*
X0012985Y0226758D01*
X0013128Y0226831D01*
X0013273Y0226900D01*
X0013420Y0226966D01*
X0013568Y0227028D01*
X0013718Y0227086D01*
X0013869Y0227141D01*
X0014022Y0227192D01*
X0014176Y0227239D01*
X0014331Y0227282D01*
X0014487Y0227321D01*
X0014643Y0227357D01*
X0014801Y0227388D01*
X0014959Y0227416D01*
X0015118Y0227440D01*
X0015278Y0227460D01*
X0015438Y0227476D01*
X0015598Y0227488D01*
X0015759Y0227496D01*
X0015920Y0227500D01*
X0016080Y0227500D01*
X0016241Y0227496D01*
X0016402Y0227488D01*
X0016562Y0227476D01*
X0016722Y0227460D01*
X0016882Y0227440D01*
X0017041Y0227416D01*
X0017199Y0227388D01*
X0017357Y0227357D01*
X0017513Y0227321D01*
X0017669Y0227282D01*
X0017824Y0227239D01*
X0017978Y0227192D01*
X0018131Y0227141D01*
X0018282Y0227086D01*
X0018432Y0227028D01*
X0018580Y0226966D01*
X0018727Y0226900D01*
X0018872Y0226831D01*
X0019015Y0226758D01*
X0019157Y0226682D01*
X0019296Y0226602D01*
X0019434Y0226519D01*
X0019569Y0226432D01*
X0019703Y0226342D01*
X0019834Y0226249D01*
X0019962Y0226153D01*
X0020088Y0226053D01*
X0020212Y0225950D01*
X0020333Y0225845D01*
X0020452Y0225736D01*
X0020568Y0225625D01*
X0020681Y0225510D01*
X0020791Y0225393D01*
X0020898Y0225273D01*
X0021002Y0225151D01*
X0021103Y0225026D01*
X0021201Y0224898D01*
X0021296Y0224768D01*
X0021388Y0224636D01*
X0021476Y0224502D01*
X0021561Y0224365D01*
X0021643Y0224227D01*
X0021721Y0224086D01*
X0021795Y0223944D01*
X0021866Y0223800D01*
X0021934Y0223654D01*
X0021997Y0223506D01*
X0022058Y0223357D01*
X0022114Y0223206D01*
X0022167Y0223054D01*
X0022216Y0222901D01*
X0022261Y0222747D01*
X0022302Y0222592D01*
X0022340Y0222435D01*
X0022373Y0222278D01*
X0022403Y0222120D01*
X0022429Y0221961D01*
X0022450Y0221802D01*
X0022468Y0221642D01*
X0022482Y0221482D01*
X0022492Y0221321D01*
X0022498Y0221161D01*
X0022500Y0221000D01*
X0022498Y0220839D01*
X0022492Y0220679D01*
X0022482Y0220518D01*
X0022468Y0220358D01*
X0022450Y0220198D01*
X0022429Y0220039D01*
X0022403Y0219880D01*
X0022373Y0219722D01*
X0022340Y0219565D01*
X0022302Y0219408D01*
X0022261Y0219253D01*
X0022216Y0219099D01*
X0022167Y0218946D01*
X0022114Y0218794D01*
X0022058Y0218643D01*
X0021997Y0218494D01*
X0021934Y0218346D01*
X0021866Y0218200D01*
X0021795Y0218056D01*
X0021721Y0217914D01*
X0021643Y0217773D01*
X0021561Y0217635D01*
X0021476Y0217498D01*
X0021388Y0217364D01*
X0021296Y0217232D01*
X0021201Y0217102D01*
X0021103Y0216974D01*
X0021002Y0216849D01*
X0020898Y0216727D01*
X0020791Y0216607D01*
X0020681Y0216490D01*
X0020568Y0216375D01*
X0020452Y0216264D01*
X0020333Y0216155D01*
X0020212Y0216050D01*
X0020088Y0215947D01*
X0019962Y0215847D01*
X0019834Y0215751D01*
X0019703Y0215658D01*
X0019569Y0215568D01*
X0019434Y0215481D01*
X0019296Y0215398D01*
X0019157Y0215318D01*
X0019015Y0215242D01*
X0018872Y0215169D01*
X0018727Y0215100D01*
X0018580Y0215034D01*
X0018432Y0214972D01*
X0018282Y0214914D01*
X0018131Y0214859D01*
X0017978Y0214808D01*
X0017824Y0214761D01*
X0017669Y0214718D01*
X0017513Y0214679D01*
X0017357Y0214643D01*
X0017199Y0214612D01*
X0017041Y0214584D01*
X0016882Y0214560D01*
X0016722Y0214540D01*
X0016562Y0214524D01*
X0016402Y0214512D01*
X0016241Y0214504D01*
X0016080Y0214500D01*
X0015920Y0214500D01*
X0015759Y0214504D01*
X0015598Y0214512D01*
X0015438Y0214524D01*
X0015278Y0214540D01*
X0015118Y0214560D01*
X0014959Y0214584D01*
X0014801Y0214612D01*
X0014643Y0214643D01*
X0014487Y0214679D01*
X0014331Y0214718D01*
X0014176Y0214761D01*
X0014022Y0214808D01*
X0013869Y0214859D01*
X0013718Y0214914D01*
X0013568Y0214972D01*
X0013420Y0215034D01*
X0013273Y0215100D01*
X0013128Y0215169D01*
X0012985Y0215242D01*
X0012843Y0215318D01*
X0012704Y0215398D01*
X0012566Y0215481D01*
X0012431Y0215568D01*
X0012297Y0215658D01*
X0012166Y0215751D01*
X0012038Y0215847D01*
X0011912Y0215947D01*
X0011788Y0216050D01*
X0011667Y0216155D01*
X0011548Y0216264D01*
X0011432Y0216375D01*
X0011319Y0216490D01*
X0011209Y0216607D01*
X0011102Y0216727D01*
X0010998Y0216849D01*
X0010897Y0216974D01*
X0010799Y0217102D01*
X0010704Y0217232D01*
X0010612Y0217364D01*
X0010524Y0217498D01*
X0010439Y0217635D01*
X0010357Y0217773D01*
X0010279Y0217914D01*
X0010205Y0218056D01*
X0010134Y0218200D01*
X0010066Y0218346D01*
X0010003Y0218494D01*
X0009942Y0218643D01*
X0009886Y0218794D01*
X0009833Y0218946D01*
X0009784Y0219099D01*
X0009739Y0219253D01*
X0009698Y0219408D01*
X0009660Y0219565D01*
X0009627Y0219722D01*
X0009597Y0219880D01*
X0009571Y0220039D01*
X0009550Y0220198D01*
X0009532Y0220358D01*
X0009518Y0220518D01*
X0009508Y0220679D01*
X0009502Y0220839D01*
X0009500Y0221000D01*
D11*
X0149000Y0190000D02*
X0149000Y0172000D01*
X0152200Y0169700D01*
X0152200Y0157200D01*
X0154700Y0154700D01*
X0177300Y0154700D01*
X0179800Y0157200D01*
X0179800Y0169700D01*
X0183000Y0172000D01*
X0183000Y0190000D01*
X0179800Y0192100D01*
X0179800Y0204800D01*
X0177300Y0207300D01*
X0154700Y0207300D01*
X0152200Y0204800D01*
X0152200Y0192300D01*
X0149000Y0190000D01*
X0196000Y0231000D02*
X0196000Y0006000D01*
X0352200Y0157200D02*
X0354700Y0154700D01*
X0377300Y0154700D01*
X0379800Y0157200D01*
X0379800Y0169700D01*
X0383000Y0172000D01*
X0383000Y0190000D01*
X0379800Y0192100D01*
X0379800Y0204800D01*
X0377300Y0207300D01*
X0354700Y0207300D01*
X0352200Y0204800D01*
X0352200Y0192300D01*
X0349000Y0190000D01*
X0349000Y0172000D01*
X0352200Y0169700D01*
X0352200Y0157200D01*
D12*
X0328477Y0155037D02*
X0328477Y0151967D01*
X0327710Y0151200D01*
X0326175Y0151200D01*
X0325408Y0151967D01*
X0328477Y0155037D01*
X0327710Y0155804D01*
X0326175Y0155804D01*
X0325408Y0155037D01*
X0325408Y0151967D01*
X0323873Y0151200D02*
X0320804Y0151200D01*
X0323873Y0154269D01*
X0323873Y0155037D01*
X0323106Y0155804D01*
X0321571Y0155804D01*
X0320804Y0155037D01*
X0319269Y0155037D02*
X0319269Y0151967D01*
X0318502Y0151200D01*
X0316200Y0151200D01*
X0316200Y0155804D01*
X0318502Y0155804D01*
X0319269Y0155037D01*
X0317735Y0145804D02*
X0319269Y0144269D01*
X0319269Y0141200D01*
X0320804Y0141967D02*
X0321571Y0141200D01*
X0323106Y0141200D01*
X0323873Y0141967D01*
X0323873Y0143502D01*
X0323106Y0144269D01*
X0322339Y0144269D01*
X0320804Y0143502D01*
X0320804Y0145804D01*
X0323873Y0145804D01*
X0319269Y0143502D02*
X0316200Y0143502D01*
X0316200Y0144269D02*
X0317735Y0145804D01*
X0316200Y0144269D02*
X0316200Y0141200D01*
X0317735Y0135804D02*
X0319269Y0134269D01*
X0319269Y0131200D01*
X0319269Y0133502D02*
X0316200Y0133502D01*
X0316200Y0134269D02*
X0317735Y0135804D01*
X0316200Y0134269D02*
X0316200Y0131200D01*
X0317735Y0125804D02*
X0319269Y0124269D01*
X0319269Y0121200D01*
X0320804Y0121967D02*
X0321571Y0121200D01*
X0323106Y0121200D01*
X0323873Y0121967D01*
X0323873Y0122735D01*
X0323106Y0123502D01*
X0322339Y0123502D01*
X0323106Y0123502D02*
X0323873Y0124269D01*
X0323873Y0125037D01*
X0323106Y0125804D01*
X0321571Y0125804D01*
X0320804Y0125037D01*
X0319269Y0123502D02*
X0316200Y0123502D01*
X0316200Y0124269D02*
X0317735Y0125804D01*
X0316200Y0124269D02*
X0316200Y0121200D01*
X0317735Y0115804D02*
X0319269Y0114269D01*
X0319269Y0111200D01*
X0320804Y0111200D02*
X0323873Y0114269D01*
X0323873Y0115037D01*
X0323106Y0115804D01*
X0321571Y0115804D01*
X0320804Y0115037D01*
X0319269Y0113502D02*
X0316200Y0113502D01*
X0316200Y0114269D02*
X0317735Y0115804D01*
X0316200Y0114269D02*
X0316200Y0111200D01*
X0320804Y0111200D02*
X0323873Y0111200D01*
X0322339Y0105804D02*
X0322339Y0101200D01*
X0323873Y0101200D02*
X0320804Y0101200D01*
X0319269Y0101200D02*
X0319269Y0104269D01*
X0317735Y0105804D01*
X0316200Y0104269D01*
X0316200Y0101200D01*
X0316200Y0103502D02*
X0319269Y0103502D01*
X0320804Y0104269D02*
X0322339Y0105804D01*
X0323106Y0095804D02*
X0323873Y0095037D01*
X0320804Y0091967D01*
X0321571Y0091200D01*
X0323106Y0091200D01*
X0323873Y0091967D01*
X0323873Y0095037D01*
X0323106Y0095804D02*
X0321571Y0095804D01*
X0320804Y0095037D01*
X0320804Y0091967D01*
X0319269Y0091200D02*
X0319269Y0094269D01*
X0317735Y0095804D01*
X0316200Y0094269D01*
X0316200Y0091200D01*
X0316200Y0093502D02*
X0319269Y0093502D01*
X0308800Y0092398D02*
X0308033Y0093165D01*
X0307265Y0093165D01*
X0306498Y0092398D01*
X0306498Y0090096D01*
X0308033Y0090096D01*
X0308800Y0090863D01*
X0308800Y0092398D01*
X0306498Y0090096D02*
X0304963Y0091631D01*
X0304196Y0093165D01*
X0304196Y0087027D02*
X0308800Y0087027D01*
X0308800Y0088561D02*
X0308800Y0085492D01*
X0308033Y0083957D02*
X0308800Y0083190D01*
X0308800Y0081656D01*
X0308033Y0080888D01*
X0304963Y0080888D01*
X0304196Y0081656D01*
X0304196Y0083190D01*
X0304963Y0083957D01*
X0305731Y0085492D02*
X0304196Y0087027D01*
X0316200Y0085804D02*
X0316200Y0081200D01*
X0316200Y0082735D02*
X0318502Y0082735D01*
X0319269Y0083502D01*
X0319269Y0085037D01*
X0318502Y0085804D01*
X0316200Y0085804D01*
X0317735Y0082735D02*
X0319269Y0081200D01*
X0320804Y0081967D02*
X0321571Y0081200D01*
X0323106Y0081200D01*
X0323873Y0081967D01*
X0323873Y0082735D01*
X0323106Y0083502D01*
X0321571Y0083502D01*
X0320804Y0084269D01*
X0320804Y0085037D01*
X0321571Y0085804D01*
X0323106Y0085804D01*
X0323873Y0085037D01*
X0325408Y0085804D02*
X0328477Y0085804D01*
X0326942Y0085804D02*
X0326942Y0081200D01*
X0322710Y0075804D02*
X0320408Y0075804D01*
X0320408Y0071200D01*
X0322710Y0071200D01*
X0323477Y0071967D01*
X0323477Y0075037D01*
X0322710Y0075804D01*
X0318873Y0075804D02*
X0318873Y0071200D01*
X0315804Y0075804D01*
X0315804Y0071200D01*
X0314269Y0071967D02*
X0314269Y0073502D01*
X0312735Y0073502D01*
X0314269Y0075037D02*
X0313502Y0075804D01*
X0311967Y0075804D01*
X0311200Y0075037D01*
X0311200Y0071967D01*
X0311967Y0071200D01*
X0313502Y0071200D01*
X0314269Y0071967D01*
X0308800Y0072398D02*
X0308800Y0070863D01*
X0308033Y0070096D01*
X0306498Y0070096D02*
X0305731Y0071631D01*
X0305731Y0072398D01*
X0306498Y0073165D01*
X0308033Y0073165D01*
X0308800Y0072398D01*
X0306498Y0070096D02*
X0304196Y0070096D01*
X0304196Y0073165D01*
X0304196Y0067027D02*
X0308800Y0067027D01*
X0308800Y0068561D02*
X0308800Y0065492D01*
X0308033Y0063957D02*
X0308800Y0063190D01*
X0308800Y0061656D01*
X0308033Y0060888D01*
X0304963Y0060888D01*
X0304196Y0061656D01*
X0304196Y0063190D01*
X0304963Y0063957D01*
X0305731Y0065492D02*
X0304196Y0067027D01*
X0311200Y0065037D02*
X0311200Y0061967D01*
X0311967Y0061200D01*
X0313502Y0061200D01*
X0314269Y0061967D01*
X0314269Y0063502D01*
X0312735Y0063502D01*
X0314269Y0065037D02*
X0313502Y0065804D01*
X0311967Y0065804D01*
X0311200Y0065037D01*
X0315804Y0065804D02*
X0315804Y0061200D01*
X0318873Y0061200D02*
X0315804Y0065804D01*
X0318873Y0065804D02*
X0318873Y0061200D01*
X0320408Y0061200D02*
X0320408Y0065804D01*
X0322710Y0065804D01*
X0323477Y0065037D01*
X0323477Y0061967D01*
X0322710Y0061200D01*
X0320408Y0061200D01*
X0321175Y0055804D02*
X0322710Y0055804D01*
X0323477Y0055037D01*
X0323477Y0054269D01*
X0322710Y0053502D01*
X0323477Y0052735D01*
X0323477Y0051967D01*
X0322710Y0051200D01*
X0321175Y0051200D01*
X0320408Y0051967D01*
X0318873Y0052735D02*
X0318873Y0055804D01*
X0320408Y0055037D02*
X0321175Y0055804D01*
X0321942Y0053502D02*
X0322710Y0053502D01*
X0318873Y0052735D02*
X0317339Y0051200D01*
X0315804Y0052735D01*
X0315804Y0055804D01*
X0314269Y0055037D02*
X0314269Y0054269D01*
X0313502Y0053502D01*
X0314269Y0052735D01*
X0314269Y0051967D01*
X0313502Y0051200D01*
X0311967Y0051200D01*
X0311200Y0051967D01*
X0312735Y0053502D02*
X0313502Y0053502D01*
X0314269Y0055037D02*
X0313502Y0055804D01*
X0311967Y0055804D01*
X0311200Y0055037D01*
X0308800Y0052398D02*
X0304196Y0052398D01*
X0306498Y0050096D01*
X0306498Y0053165D01*
X0308800Y0048561D02*
X0308800Y0045492D01*
X0308800Y0047027D02*
X0304196Y0047027D01*
X0305731Y0045492D01*
X0304963Y0043957D02*
X0304196Y0043190D01*
X0304196Y0041656D01*
X0304963Y0040888D01*
X0308033Y0040888D01*
X0308800Y0041656D01*
X0308800Y0043190D01*
X0308033Y0043957D01*
X0311200Y0043502D02*
X0312735Y0044269D01*
X0313502Y0044269D01*
X0314269Y0043502D01*
X0314269Y0041967D01*
X0313502Y0041200D01*
X0311967Y0041200D01*
X0311200Y0041967D01*
X0311200Y0043502D02*
X0311200Y0045804D01*
X0314269Y0045804D01*
X0315804Y0045804D02*
X0315804Y0042735D01*
X0317339Y0041200D01*
X0318873Y0042735D01*
X0318873Y0045804D01*
X0320408Y0045037D02*
X0320408Y0041967D01*
X0323477Y0045037D01*
X0323477Y0041967D01*
X0322710Y0041200D01*
X0321175Y0041200D01*
X0320408Y0041967D01*
X0320408Y0045037D02*
X0321175Y0045804D01*
X0322710Y0045804D01*
X0323477Y0045037D01*
X0322710Y0035804D02*
X0320408Y0035804D01*
X0320408Y0031200D01*
X0322710Y0031200D01*
X0323477Y0031967D01*
X0323477Y0035037D01*
X0322710Y0035804D01*
X0318873Y0035804D02*
X0318873Y0031200D01*
X0315804Y0035804D01*
X0315804Y0031200D01*
X0314269Y0031967D02*
X0314269Y0033502D01*
X0312735Y0033502D01*
X0314269Y0035037D02*
X0313502Y0035804D01*
X0311967Y0035804D01*
X0311200Y0035037D01*
X0311200Y0031967D01*
X0311967Y0031200D01*
X0313502Y0031200D01*
X0314269Y0031967D01*
X0308800Y0032398D02*
X0308800Y0030863D01*
X0308033Y0030096D01*
X0308800Y0028561D02*
X0308800Y0025492D01*
X0308800Y0027027D02*
X0304196Y0027027D01*
X0305731Y0025492D01*
X0304963Y0023957D02*
X0304196Y0023190D01*
X0304196Y0021656D01*
X0304963Y0020888D01*
X0308033Y0020888D01*
X0308800Y0021656D01*
X0308800Y0023190D01*
X0308033Y0023957D01*
X0311200Y0023502D02*
X0313502Y0023502D01*
X0314269Y0022735D01*
X0314269Y0021967D01*
X0313502Y0021200D01*
X0311200Y0021200D01*
X0311200Y0025804D01*
X0313502Y0025804D01*
X0314269Y0025037D01*
X0314269Y0024269D01*
X0313502Y0023502D01*
X0315804Y0023502D02*
X0318873Y0023502D01*
X0318873Y0024269D02*
X0318873Y0021200D01*
X0315804Y0021200D02*
X0315804Y0024269D01*
X0317339Y0025804D01*
X0318873Y0024269D01*
X0320408Y0025804D02*
X0323477Y0025804D01*
X0321942Y0025804D02*
X0321942Y0021200D01*
X0308800Y0032398D02*
X0308033Y0033165D01*
X0307265Y0033165D01*
X0306498Y0032398D01*
X0306498Y0031631D01*
X0306498Y0032398D02*
X0305731Y0033165D01*
X0304963Y0033165D01*
X0304196Y0032398D01*
X0304196Y0030863D01*
X0304963Y0030096D01*
X0288300Y0029863D02*
X0287533Y0029096D01*
X0286765Y0029096D01*
X0285998Y0029863D01*
X0285998Y0031398D01*
X0286765Y0032165D01*
X0287533Y0032165D01*
X0288300Y0031398D01*
X0288300Y0029863D01*
X0288300Y0028700D02*
X0283696Y0028700D01*
X0283696Y0031002D01*
X0284463Y0031769D01*
X0285998Y0031769D01*
X0286765Y0031002D01*
X0286765Y0028700D01*
X0285998Y0029863D02*
X0285231Y0029096D01*
X0284463Y0029096D01*
X0283696Y0029863D01*
X0283696Y0031398D01*
X0284463Y0032165D01*
X0285231Y0032165D01*
X0285998Y0031398D01*
X0286765Y0030235D02*
X0288300Y0031769D01*
X0288300Y0033304D02*
X0285231Y0036373D01*
X0284463Y0036373D01*
X0283696Y0035606D01*
X0283696Y0034071D01*
X0284463Y0033304D01*
X0288300Y0033304D02*
X0288300Y0036373D01*
X0285998Y0037908D02*
X0285998Y0040977D01*
X0286765Y0041423D02*
X0288300Y0042957D01*
X0288300Y0044492D02*
X0288300Y0047561D01*
X0288300Y0048700D02*
X0283696Y0048700D01*
X0283696Y0051002D01*
X0284463Y0051769D01*
X0285998Y0051769D01*
X0286765Y0051002D01*
X0286765Y0048700D01*
X0285998Y0049096D02*
X0285998Y0051398D01*
X0286765Y0052165D01*
X0287533Y0052165D01*
X0288300Y0051398D01*
X0288300Y0049863D01*
X0287533Y0049096D01*
X0285998Y0049096D01*
X0284463Y0050631D01*
X0283696Y0052165D01*
X0284463Y0053304D02*
X0283696Y0054071D01*
X0283696Y0055606D01*
X0284463Y0056373D01*
X0285231Y0056373D01*
X0288300Y0053304D01*
X0288300Y0056373D01*
X0287533Y0057908D02*
X0288300Y0058675D01*
X0288300Y0060210D01*
X0287533Y0060977D01*
X0285998Y0060977D01*
X0285231Y0060210D01*
X0285231Y0059442D01*
X0285998Y0057908D01*
X0283696Y0057908D01*
X0283696Y0060977D01*
X0283696Y0059888D02*
X0283696Y0062190D01*
X0284463Y0062957D01*
X0285998Y0062957D01*
X0286765Y0062190D01*
X0286765Y0059888D01*
X0286765Y0061423D02*
X0288300Y0062957D01*
X0288300Y0064492D02*
X0288300Y0067561D01*
X0288300Y0068700D02*
X0283696Y0068700D01*
X0283696Y0071002D01*
X0284463Y0071769D01*
X0285998Y0071769D01*
X0286765Y0071002D01*
X0286765Y0068700D01*
X0287533Y0069096D02*
X0288300Y0069096D01*
X0287533Y0069096D02*
X0284463Y0072165D01*
X0283696Y0072165D01*
X0283696Y0069096D01*
X0283696Y0066027D02*
X0288300Y0066027D01*
X0285231Y0064492D02*
X0283696Y0066027D01*
X0283696Y0059888D02*
X0288300Y0059888D01*
X0288300Y0051769D02*
X0286765Y0050235D01*
X0288300Y0046027D02*
X0283696Y0046027D01*
X0285231Y0044492D01*
X0285998Y0042957D02*
X0284463Y0042957D01*
X0283696Y0042190D01*
X0283696Y0039888D01*
X0288300Y0039888D01*
X0288300Y0040210D02*
X0283696Y0040210D01*
X0285998Y0037908D01*
X0286765Y0039888D02*
X0286765Y0042190D01*
X0285998Y0042957D01*
X0277685Y0035804D02*
X0274616Y0031200D01*
X0277685Y0031200D02*
X0274616Y0035804D01*
X0273081Y0035804D02*
X0270012Y0035804D01*
X0271546Y0035804D02*
X0271546Y0031200D01*
X0268477Y0035804D02*
X0265408Y0031200D01*
X0263873Y0031200D02*
X0260804Y0031200D01*
X0262339Y0031200D02*
X0262339Y0035804D01*
X0260804Y0034269D01*
X0259269Y0035037D02*
X0258502Y0035804D01*
X0256200Y0035804D01*
X0256200Y0031200D01*
X0258502Y0031200D01*
X0259269Y0031967D01*
X0259269Y0035037D01*
X0258502Y0041200D02*
X0256200Y0041200D01*
X0256200Y0045804D01*
X0258502Y0045804D01*
X0259269Y0045037D01*
X0259269Y0041967D01*
X0258502Y0041200D01*
X0260804Y0041200D02*
X0263873Y0044269D01*
X0263873Y0045037D01*
X0263106Y0045804D01*
X0261571Y0045804D01*
X0260804Y0045037D01*
X0260804Y0041200D02*
X0263873Y0041200D01*
X0263106Y0051200D02*
X0260804Y0051200D01*
X0260804Y0055804D01*
X0263106Y0055804D01*
X0263873Y0055037D01*
X0263873Y0051967D01*
X0263106Y0051200D01*
X0265408Y0051967D02*
X0266175Y0051200D01*
X0267710Y0051200D01*
X0268477Y0051967D01*
X0268477Y0052735D01*
X0267710Y0053502D01*
X0266942Y0053502D01*
X0267710Y0053502D02*
X0268477Y0054269D01*
X0268477Y0055037D01*
X0267710Y0055804D01*
X0266175Y0055804D01*
X0265408Y0055037D01*
X0259269Y0055804D02*
X0258502Y0055037D01*
X0256967Y0056571D01*
X0256200Y0055804D01*
X0256200Y0061200D02*
X0258502Y0061200D01*
X0259269Y0061967D01*
X0259269Y0065037D01*
X0258502Y0065804D01*
X0256200Y0065804D01*
X0256200Y0061200D01*
X0260804Y0063502D02*
X0263873Y0063502D01*
X0263106Y0065804D02*
X0260804Y0063502D01*
X0263106Y0061200D02*
X0263106Y0065804D01*
X0263106Y0071200D02*
X0260804Y0071200D01*
X0260804Y0075804D01*
X0263106Y0075804D01*
X0263873Y0075037D01*
X0263873Y0071967D01*
X0263106Y0071200D01*
X0265408Y0071967D02*
X0266175Y0071200D01*
X0267710Y0071200D01*
X0268477Y0071967D01*
X0268477Y0073502D01*
X0267710Y0074269D01*
X0266942Y0074269D01*
X0265408Y0073502D01*
X0265408Y0075804D01*
X0268477Y0075804D01*
X0267710Y0081200D02*
X0268477Y0081967D01*
X0268477Y0082735D01*
X0267710Y0083502D01*
X0265408Y0083502D01*
X0265408Y0081967D01*
X0266175Y0081200D01*
X0267710Y0081200D01*
X0265408Y0083502D02*
X0266942Y0085037D01*
X0268477Y0085804D01*
X0263873Y0085037D02*
X0263873Y0081967D01*
X0263106Y0081200D01*
X0260804Y0081200D01*
X0260804Y0085804D01*
X0263106Y0085804D01*
X0263873Y0085037D01*
X0259269Y0085804D02*
X0258502Y0085037D01*
X0256967Y0086571D01*
X0256200Y0085804D01*
X0256200Y0091200D02*
X0258502Y0091200D01*
X0259269Y0091967D01*
X0259269Y0095037D01*
X0258502Y0095804D01*
X0256200Y0095804D01*
X0256200Y0091200D01*
X0260804Y0091200D02*
X0260804Y0091967D01*
X0263873Y0095037D01*
X0263873Y0095804D01*
X0260804Y0095804D01*
X0261571Y0101200D02*
X0260804Y0101967D01*
X0260804Y0102735D01*
X0261571Y0103502D01*
X0263106Y0103502D01*
X0263873Y0102735D01*
X0263873Y0101967D01*
X0263106Y0101200D01*
X0261571Y0101200D01*
X0261571Y0103502D02*
X0260804Y0104269D01*
X0260804Y0105037D01*
X0261571Y0105804D01*
X0263106Y0105804D01*
X0263873Y0105037D01*
X0263873Y0104269D01*
X0263106Y0103502D01*
X0259269Y0101967D02*
X0259269Y0105037D01*
X0258502Y0105804D01*
X0256200Y0105804D01*
X0256200Y0101200D01*
X0258502Y0101200D01*
X0259269Y0101967D01*
X0260804Y0111200D02*
X0263106Y0111200D01*
X0263873Y0111967D01*
X0263873Y0115037D01*
X0263106Y0115804D01*
X0260804Y0115804D01*
X0260804Y0111200D01*
X0258502Y0115037D02*
X0259269Y0115804D01*
X0258502Y0115037D02*
X0256967Y0116571D01*
X0256200Y0115804D01*
X0256200Y0121200D02*
X0258502Y0121200D01*
X0259269Y0121967D01*
X0259269Y0125037D01*
X0258502Y0125804D01*
X0256200Y0125804D01*
X0256200Y0121200D01*
X0260804Y0121200D02*
X0263873Y0121200D01*
X0262339Y0121200D02*
X0262339Y0125804D01*
X0260804Y0124269D01*
X0265408Y0125037D02*
X0265408Y0121967D01*
X0268477Y0125037D01*
X0268477Y0121967D01*
X0267710Y0121200D01*
X0266175Y0121200D01*
X0265408Y0121967D01*
X0265408Y0125037D02*
X0266175Y0125804D01*
X0267710Y0125804D01*
X0268477Y0125037D01*
X0268477Y0131200D02*
X0265408Y0131200D01*
X0266942Y0131200D02*
X0266942Y0135804D01*
X0265408Y0134269D01*
X0263873Y0131200D02*
X0260804Y0131200D01*
X0262339Y0131200D02*
X0262339Y0135804D01*
X0260804Y0134269D01*
X0259269Y0135037D02*
X0258502Y0135804D01*
X0256200Y0135804D01*
X0256200Y0131200D01*
X0258502Y0131200D01*
X0259269Y0131967D01*
X0259269Y0135037D01*
X0258502Y0141200D02*
X0256200Y0141200D01*
X0256200Y0145804D01*
X0258502Y0145804D01*
X0259269Y0145037D01*
X0259269Y0141967D01*
X0258502Y0141200D01*
X0260804Y0141200D02*
X0263873Y0141200D01*
X0262339Y0141200D02*
X0262339Y0145804D01*
X0260804Y0144269D01*
X0265408Y0145037D02*
X0266175Y0145804D01*
X0267710Y0145804D01*
X0268477Y0145037D01*
X0268477Y0144269D01*
X0265408Y0141200D01*
X0268477Y0141200D01*
X0267710Y0151200D02*
X0266175Y0151200D01*
X0265408Y0151967D01*
X0263873Y0151200D02*
X0260804Y0151200D01*
X0262339Y0151200D02*
X0262339Y0155804D01*
X0260804Y0154269D01*
X0259269Y0155037D02*
X0258502Y0155804D01*
X0256200Y0155804D01*
X0256200Y0151200D01*
X0258502Y0151200D01*
X0259269Y0151967D01*
X0259269Y0155037D01*
X0265408Y0155037D02*
X0266175Y0155804D01*
X0267710Y0155804D01*
X0268477Y0155037D01*
X0268477Y0154269D01*
X0267710Y0153502D01*
X0268477Y0152735D01*
X0268477Y0151967D01*
X0267710Y0151200D01*
X0267710Y0153502D02*
X0266942Y0153502D01*
X0276967Y0171200D02*
X0278502Y0171200D01*
X0279269Y0171967D01*
X0280804Y0171967D02*
X0281571Y0171200D01*
X0283106Y0171200D01*
X0283873Y0171967D01*
X0283873Y0175804D01*
X0285408Y0175804D02*
X0287710Y0175804D01*
X0288477Y0175037D01*
X0288477Y0173502D01*
X0287710Y0172735D01*
X0285408Y0172735D01*
X0286942Y0172735D02*
X0288477Y0171200D01*
X0290012Y0171200D02*
X0291546Y0171200D01*
X0290779Y0171200D02*
X0290779Y0175804D01*
X0290012Y0175804D02*
X0291546Y0175804D01*
X0293081Y0175804D02*
X0293081Y0171200D01*
X0296150Y0171200D01*
X0294616Y0173502D02*
X0293081Y0173502D01*
X0293081Y0175804D02*
X0296150Y0175804D01*
X0302289Y0175804D02*
X0302289Y0171200D01*
X0305358Y0171200D02*
X0305358Y0175804D01*
X0306893Y0174269D02*
X0308427Y0175804D01*
X0309962Y0174269D01*
X0309962Y0171200D01*
X0311497Y0171200D02*
X0311497Y0175804D01*
X0314566Y0171200D01*
X0314566Y0175804D01*
X0316101Y0175037D02*
X0316101Y0171967D01*
X0316868Y0171200D01*
X0318403Y0171200D01*
X0319170Y0171967D01*
X0319170Y0175037D01*
X0318403Y0175804D01*
X0316868Y0175804D01*
X0316101Y0175037D01*
X0309962Y0173502D02*
X0306893Y0173502D01*
X0306893Y0174269D02*
X0306893Y0171200D01*
X0305358Y0171200D02*
X0302289Y0175804D01*
X0297533Y0165977D02*
X0294463Y0165977D01*
X0293696Y0165210D01*
X0293696Y0163675D01*
X0294463Y0162908D01*
X0295231Y0162908D01*
X0295998Y0163675D01*
X0295998Y0165977D01*
X0297533Y0165977D02*
X0298300Y0165210D01*
X0298300Y0163675D01*
X0297533Y0162908D01*
X0298300Y0161373D02*
X0298300Y0158304D01*
X0298300Y0159839D02*
X0293696Y0159839D01*
X0295231Y0158304D01*
X0295998Y0156769D02*
X0296765Y0156002D01*
X0296765Y0153700D01*
X0296765Y0155235D02*
X0298300Y0156769D01*
X0295998Y0156769D02*
X0294463Y0156769D01*
X0293696Y0156002D01*
X0293696Y0153700D01*
X0298300Y0153700D01*
X0297533Y0145977D02*
X0294463Y0145977D01*
X0297533Y0142908D01*
X0298300Y0143675D01*
X0298300Y0145210D01*
X0297533Y0145977D01*
X0297533Y0142908D02*
X0294463Y0142908D01*
X0293696Y0143675D01*
X0293696Y0145210D01*
X0294463Y0145977D01*
X0294463Y0141373D02*
X0293696Y0140606D01*
X0293696Y0139071D01*
X0294463Y0138304D01*
X0294463Y0136769D02*
X0295998Y0136769D01*
X0296765Y0136002D01*
X0296765Y0133700D01*
X0296765Y0135235D02*
X0298300Y0136769D01*
X0298300Y0138304D02*
X0295231Y0141373D01*
X0294463Y0141373D01*
X0298300Y0141373D02*
X0298300Y0138304D01*
X0294463Y0136769D02*
X0293696Y0136002D01*
X0293696Y0133700D01*
X0298300Y0133700D01*
X0320804Y0133502D02*
X0323873Y0133502D01*
X0323106Y0135804D02*
X0320804Y0133502D01*
X0323106Y0131200D02*
X0323106Y0135804D01*
X0343696Y0125210D02*
X0344463Y0125977D01*
X0345231Y0125977D01*
X0345998Y0125210D01*
X0346765Y0125977D01*
X0347533Y0125977D01*
X0348300Y0125210D01*
X0348300Y0123675D01*
X0347533Y0122908D01*
X0348300Y0121373D02*
X0348300Y0118304D01*
X0345231Y0121373D01*
X0344463Y0121373D01*
X0343696Y0120606D01*
X0343696Y0119071D01*
X0344463Y0118304D01*
X0344463Y0116769D02*
X0345998Y0116769D01*
X0346765Y0116002D01*
X0346765Y0113700D01*
X0346765Y0115235D02*
X0348300Y0116769D01*
X0348300Y0113700D02*
X0343696Y0113700D01*
X0343696Y0116002D01*
X0344463Y0116769D01*
X0344463Y0110977D02*
X0343696Y0110210D01*
X0343696Y0108675D01*
X0344463Y0107908D01*
X0344463Y0106373D02*
X0343696Y0105606D01*
X0343696Y0104071D01*
X0344463Y0103304D01*
X0344463Y0101769D02*
X0343696Y0101002D01*
X0343696Y0098700D01*
X0348300Y0098700D01*
X0346765Y0098700D02*
X0346765Y0101002D01*
X0345998Y0101769D01*
X0344463Y0101769D01*
X0346765Y0100235D02*
X0348300Y0101769D01*
X0348300Y0103304D02*
X0345231Y0106373D01*
X0344463Y0106373D01*
X0348300Y0106373D02*
X0348300Y0103304D01*
X0348300Y0107908D02*
X0345231Y0110977D01*
X0344463Y0110977D01*
X0348300Y0110977D02*
X0348300Y0107908D01*
X0348300Y0095977D02*
X0348300Y0092908D01*
X0348300Y0094442D02*
X0343696Y0094442D01*
X0345231Y0092908D01*
X0345231Y0091373D02*
X0344463Y0091373D01*
X0343696Y0090606D01*
X0343696Y0089071D01*
X0344463Y0088304D01*
X0344463Y0086769D02*
X0345998Y0086769D01*
X0346765Y0086002D01*
X0346765Y0083700D01*
X0346765Y0085235D02*
X0348300Y0086769D01*
X0348300Y0088304D02*
X0345231Y0091373D01*
X0348300Y0091373D02*
X0348300Y0088304D01*
X0344463Y0086769D02*
X0343696Y0086002D01*
X0343696Y0083700D01*
X0348300Y0083700D01*
X0347533Y0080977D02*
X0348300Y0080210D01*
X0348300Y0078675D01*
X0347533Y0077908D01*
X0345998Y0077908D02*
X0345231Y0079442D01*
X0345231Y0080210D01*
X0345998Y0080977D01*
X0347533Y0080977D01*
X0345998Y0077908D02*
X0343696Y0077908D01*
X0343696Y0080977D01*
X0343696Y0074839D02*
X0348300Y0074839D01*
X0348300Y0076373D02*
X0348300Y0073304D01*
X0348300Y0071769D02*
X0346765Y0070235D01*
X0346765Y0071002D02*
X0346765Y0068700D01*
X0348300Y0068700D02*
X0343696Y0068700D01*
X0343696Y0071002D01*
X0344463Y0071769D01*
X0345998Y0071769D01*
X0346765Y0071002D01*
X0345231Y0073304D02*
X0343696Y0074839D01*
X0364196Y0076656D02*
X0364963Y0075888D01*
X0368033Y0075888D01*
X0368800Y0076656D01*
X0368800Y0078190D01*
X0368033Y0078957D01*
X0368800Y0080492D02*
X0368800Y0083561D01*
X0368800Y0082027D02*
X0364196Y0082027D01*
X0365731Y0080492D01*
X0364963Y0078957D02*
X0364196Y0078190D01*
X0364196Y0076656D01*
X0364963Y0073165D02*
X0364196Y0072398D01*
X0364196Y0070863D01*
X0364963Y0070096D01*
X0365731Y0070096D01*
X0366498Y0070863D01*
X0366498Y0073165D01*
X0368033Y0073165D02*
X0364963Y0073165D01*
X0368033Y0073165D02*
X0368800Y0072398D01*
X0368800Y0070863D01*
X0368033Y0070096D01*
X0368033Y0068561D02*
X0368800Y0067794D01*
X0368800Y0066259D01*
X0368033Y0065492D01*
X0364963Y0065492D01*
X0364196Y0066259D01*
X0364196Y0067794D01*
X0364963Y0068561D01*
X0364963Y0085096D02*
X0364196Y0085863D01*
X0364196Y0087398D01*
X0364963Y0088165D01*
X0368033Y0085096D01*
X0368800Y0085863D01*
X0368800Y0087398D01*
X0368033Y0088165D01*
X0364963Y0088165D01*
X0364963Y0090888D02*
X0368033Y0090888D01*
X0368800Y0091656D01*
X0368800Y0093190D01*
X0368033Y0093957D01*
X0368800Y0095492D02*
X0368800Y0098561D01*
X0368800Y0097027D02*
X0364196Y0097027D01*
X0365731Y0095492D01*
X0364963Y0093957D02*
X0364196Y0093190D01*
X0364196Y0091656D01*
X0364963Y0090888D01*
X0364963Y0085096D02*
X0368033Y0085096D01*
X0368800Y0100096D02*
X0368800Y0103165D01*
X0368800Y0101631D02*
X0364196Y0101631D01*
X0365731Y0100096D01*
X0364963Y0105888D02*
X0368033Y0105888D01*
X0368800Y0106656D01*
X0368800Y0108190D01*
X0368033Y0108957D01*
X0368800Y0110492D02*
X0368800Y0113561D01*
X0368800Y0112027D02*
X0364196Y0112027D01*
X0365731Y0110492D01*
X0364963Y0108957D02*
X0364196Y0108190D01*
X0364196Y0106656D01*
X0364963Y0105888D01*
X0364963Y0115096D02*
X0364196Y0115863D01*
X0364196Y0117398D01*
X0364963Y0118165D01*
X0365731Y0118165D01*
X0368800Y0115096D01*
X0368800Y0118165D01*
X0345998Y0124442D02*
X0345998Y0125210D01*
X0343696Y0125210D02*
X0343696Y0123675D01*
X0344463Y0122908D01*
X0288300Y0097908D02*
X0287533Y0097908D01*
X0284463Y0100977D01*
X0283696Y0100977D01*
X0283696Y0097908D01*
X0284463Y0096373D02*
X0283696Y0095606D01*
X0283696Y0094071D01*
X0284463Y0093304D01*
X0284463Y0092165D02*
X0285231Y0092165D01*
X0285998Y0091398D01*
X0285998Y0089863D01*
X0285231Y0089096D01*
X0284463Y0089096D01*
X0283696Y0089863D01*
X0283696Y0091398D01*
X0284463Y0092165D01*
X0284463Y0091769D02*
X0285998Y0091769D01*
X0286765Y0091002D01*
X0286765Y0088700D01*
X0286765Y0089096D02*
X0285998Y0089863D01*
X0286765Y0090235D02*
X0288300Y0091769D01*
X0288300Y0091398D02*
X0288300Y0089863D01*
X0287533Y0089096D01*
X0286765Y0089096D01*
X0288300Y0088700D02*
X0283696Y0088700D01*
X0283696Y0091002D01*
X0284463Y0091769D01*
X0285998Y0091398D02*
X0286765Y0092165D01*
X0287533Y0092165D01*
X0288300Y0091398D01*
X0288300Y0093304D02*
X0285231Y0096373D01*
X0284463Y0096373D01*
X0288300Y0096373D02*
X0288300Y0093304D01*
X0288300Y0087561D02*
X0288300Y0084492D01*
X0288300Y0082957D02*
X0286765Y0081423D01*
X0286765Y0080977D02*
X0285998Y0080210D01*
X0285998Y0077908D01*
X0287533Y0077908D01*
X0288300Y0078675D01*
X0288300Y0080210D01*
X0287533Y0080977D01*
X0286765Y0080977D01*
X0286765Y0079888D02*
X0286765Y0082190D01*
X0285998Y0082957D01*
X0284463Y0082957D01*
X0283696Y0082190D01*
X0283696Y0079888D01*
X0288300Y0079888D01*
X0285998Y0077908D02*
X0284463Y0079442D01*
X0283696Y0080977D01*
X0285231Y0084492D02*
X0283696Y0086027D01*
X0288300Y0086027D01*
X0288300Y0076373D02*
X0288300Y0073304D01*
X0285231Y0076373D01*
X0284463Y0076373D01*
X0283696Y0075606D01*
X0283696Y0074071D01*
X0284463Y0073304D01*
X0286765Y0070235D02*
X0288300Y0071769D01*
X0259269Y0075804D02*
X0258502Y0075037D01*
X0256967Y0076571D01*
X0256200Y0075804D01*
X0266175Y0111200D02*
X0265408Y0111967D01*
X0266175Y0111200D02*
X0267710Y0111200D01*
X0268477Y0111967D01*
X0268477Y0115037D01*
X0267710Y0115804D01*
X0266175Y0115804D01*
X0265408Y0115037D01*
X0265408Y0114269D01*
X0266175Y0113502D01*
X0268477Y0113502D01*
X0276967Y0171200D02*
X0276200Y0171967D01*
X0276200Y0175037D01*
X0276967Y0175804D01*
X0278502Y0175804D01*
X0279269Y0175037D01*
X0280804Y0175804D02*
X0280804Y0171967D01*
X0285408Y0171200D02*
X0285408Y0175804D01*
X0168800Y0117398D02*
X0164196Y0117398D01*
X0166498Y0115096D01*
X0166498Y0118165D01*
X0164963Y0113561D02*
X0164196Y0112794D01*
X0164196Y0111259D01*
X0164963Y0110492D01*
X0168033Y0110492D01*
X0168800Y0111259D01*
X0168800Y0112794D01*
X0168033Y0113561D01*
X0168033Y0103165D02*
X0167265Y0103165D01*
X0166498Y0102398D01*
X0166498Y0101631D01*
X0166498Y0102398D02*
X0165731Y0103165D01*
X0164963Y0103165D01*
X0164196Y0102398D01*
X0164196Y0100863D01*
X0164963Y0100096D01*
X0164963Y0098561D02*
X0164196Y0097794D01*
X0164196Y0096259D01*
X0164963Y0095492D01*
X0168033Y0095492D01*
X0168800Y0096259D01*
X0168800Y0097794D01*
X0168033Y0098561D01*
X0168033Y0100096D02*
X0168800Y0100863D01*
X0168800Y0102398D01*
X0168033Y0103165D01*
X0168800Y0088165D02*
X0168800Y0085096D01*
X0165731Y0088165D01*
X0164963Y0088165D01*
X0164196Y0087398D01*
X0164196Y0085863D01*
X0164963Y0085096D01*
X0164963Y0083561D02*
X0164196Y0082794D01*
X0164196Y0081259D01*
X0164963Y0080492D01*
X0168033Y0080492D01*
X0168800Y0081259D01*
X0168800Y0082794D01*
X0168033Y0083561D01*
X0168800Y0073165D02*
X0168800Y0070096D01*
X0168800Y0071631D02*
X0164196Y0071631D01*
X0165731Y0070096D01*
X0164963Y0068561D02*
X0164196Y0067794D01*
X0164196Y0066259D01*
X0164963Y0065492D01*
X0168033Y0065492D01*
X0168800Y0066259D01*
X0168800Y0067794D01*
X0168033Y0068561D01*
X0148300Y0068700D02*
X0143696Y0068700D01*
X0143696Y0071002D01*
X0144463Y0071769D01*
X0145998Y0071769D01*
X0146765Y0071002D01*
X0146765Y0068700D01*
X0146765Y0070235D02*
X0148300Y0071769D01*
X0148300Y0073304D02*
X0148300Y0076373D01*
X0148300Y0074839D02*
X0143696Y0074839D01*
X0145231Y0073304D01*
X0146765Y0083700D02*
X0146765Y0086002D01*
X0145998Y0086769D01*
X0144463Y0086769D01*
X0143696Y0086002D01*
X0143696Y0083700D01*
X0148300Y0083700D01*
X0146765Y0085235D02*
X0148300Y0086769D01*
X0148300Y0088304D02*
X0145231Y0091373D01*
X0144463Y0091373D01*
X0143696Y0090606D01*
X0143696Y0089071D01*
X0144463Y0088304D01*
X0148300Y0088304D02*
X0148300Y0091373D01*
X0148300Y0098700D02*
X0143696Y0098700D01*
X0143696Y0101002D01*
X0144463Y0101769D01*
X0145998Y0101769D01*
X0146765Y0101002D01*
X0146765Y0098700D01*
X0146765Y0100235D02*
X0148300Y0101769D01*
X0147533Y0103304D02*
X0148300Y0104071D01*
X0148300Y0105606D01*
X0147533Y0106373D01*
X0146765Y0106373D01*
X0145998Y0105606D01*
X0145998Y0104839D01*
X0145998Y0105606D02*
X0145231Y0106373D01*
X0144463Y0106373D01*
X0143696Y0105606D01*
X0143696Y0104071D01*
X0144463Y0103304D01*
X0143696Y0113700D02*
X0143696Y0116002D01*
X0144463Y0116769D01*
X0145998Y0116769D01*
X0146765Y0116002D01*
X0146765Y0113700D01*
X0146765Y0115235D02*
X0148300Y0116769D01*
X0145998Y0118304D02*
X0145998Y0121373D01*
X0148300Y0120606D02*
X0143696Y0120606D01*
X0145998Y0118304D01*
X0148300Y0113700D02*
X0143696Y0113700D01*
X0123873Y0114269D02*
X0123873Y0115037D01*
X0123106Y0115804D01*
X0121571Y0115804D01*
X0120804Y0115037D01*
X0119269Y0114269D02*
X0119269Y0111200D01*
X0120804Y0111200D02*
X0123873Y0114269D01*
X0123873Y0111200D02*
X0120804Y0111200D01*
X0119269Y0113502D02*
X0116200Y0113502D01*
X0116200Y0114269D02*
X0117735Y0115804D01*
X0119269Y0114269D01*
X0116200Y0114269D02*
X0116200Y0111200D01*
X0117735Y0105804D02*
X0116200Y0104269D01*
X0116200Y0101200D01*
X0116200Y0103502D02*
X0119269Y0103502D01*
X0119269Y0104269D02*
X0119269Y0101200D01*
X0120804Y0101200D02*
X0123873Y0101200D01*
X0122339Y0101200D02*
X0122339Y0105804D01*
X0120804Y0104269D01*
X0119269Y0104269D02*
X0117735Y0105804D01*
X0117735Y0095804D02*
X0116200Y0094269D01*
X0116200Y0091200D01*
X0116200Y0093502D02*
X0119269Y0093502D01*
X0119269Y0094269D02*
X0119269Y0091200D01*
X0120804Y0091967D02*
X0123873Y0095037D01*
X0123873Y0091967D01*
X0123106Y0091200D01*
X0121571Y0091200D01*
X0120804Y0091967D01*
X0120804Y0095037D01*
X0121571Y0095804D01*
X0123106Y0095804D01*
X0123873Y0095037D01*
X0119269Y0094269D02*
X0117735Y0095804D01*
X0108800Y0092398D02*
X0108800Y0090863D01*
X0108033Y0090096D01*
X0107265Y0090096D01*
X0106498Y0090863D01*
X0106498Y0092398D01*
X0107265Y0093165D01*
X0108033Y0093165D01*
X0108800Y0092398D01*
X0106498Y0092398D02*
X0105731Y0093165D01*
X0104963Y0093165D01*
X0104196Y0092398D01*
X0104196Y0090863D01*
X0104963Y0090096D01*
X0105731Y0090096D01*
X0106498Y0090863D01*
X0104963Y0088561D02*
X0104196Y0087794D01*
X0104196Y0086259D01*
X0104963Y0085492D01*
X0108033Y0085492D01*
X0108800Y0086259D01*
X0108800Y0087794D01*
X0108033Y0088561D01*
X0116200Y0085804D02*
X0116200Y0081200D01*
X0116200Y0082735D02*
X0118502Y0082735D01*
X0119269Y0083502D01*
X0119269Y0085037D01*
X0118502Y0085804D01*
X0116200Y0085804D01*
X0117735Y0082735D02*
X0119269Y0081200D01*
X0120804Y0081967D02*
X0121571Y0081200D01*
X0123106Y0081200D01*
X0123873Y0081967D01*
X0123873Y0082735D01*
X0123106Y0083502D01*
X0121571Y0083502D01*
X0120804Y0084269D01*
X0120804Y0085037D01*
X0121571Y0085804D01*
X0123106Y0085804D01*
X0123873Y0085037D01*
X0125408Y0085804D02*
X0128477Y0085804D01*
X0126942Y0085804D02*
X0126942Y0081200D01*
X0122710Y0075804D02*
X0120408Y0075804D01*
X0120408Y0071200D01*
X0122710Y0071200D01*
X0123477Y0071967D01*
X0123477Y0075037D01*
X0122710Y0075804D01*
X0118873Y0075804D02*
X0118873Y0071200D01*
X0115804Y0075804D01*
X0115804Y0071200D01*
X0114269Y0071967D02*
X0114269Y0073502D01*
X0112735Y0073502D01*
X0114269Y0075037D02*
X0113502Y0075804D01*
X0111967Y0075804D01*
X0111200Y0075037D01*
X0111200Y0071967D01*
X0111967Y0071200D01*
X0113502Y0071200D01*
X0114269Y0071967D01*
X0108800Y0070096D02*
X0108033Y0070096D01*
X0104963Y0073165D01*
X0104196Y0073165D01*
X0104196Y0070096D01*
X0104963Y0068561D02*
X0104196Y0067794D01*
X0104196Y0066259D01*
X0104963Y0065492D01*
X0108033Y0065492D01*
X0108800Y0066259D01*
X0108800Y0067794D01*
X0108033Y0068561D01*
X0111200Y0065037D02*
X0111200Y0061967D01*
X0111967Y0061200D01*
X0113502Y0061200D01*
X0114269Y0061967D01*
X0114269Y0063502D01*
X0112735Y0063502D01*
X0114269Y0065037D02*
X0113502Y0065804D01*
X0111967Y0065804D01*
X0111200Y0065037D01*
X0115804Y0065804D02*
X0115804Y0061200D01*
X0118873Y0061200D02*
X0115804Y0065804D01*
X0118873Y0065804D02*
X0118873Y0061200D01*
X0120408Y0061200D02*
X0122710Y0061200D01*
X0123477Y0061967D01*
X0123477Y0065037D01*
X0122710Y0065804D01*
X0120408Y0065804D01*
X0120408Y0061200D01*
X0121175Y0055804D02*
X0120408Y0055037D01*
X0121175Y0055804D02*
X0122710Y0055804D01*
X0123477Y0055037D01*
X0123477Y0054269D01*
X0122710Y0053502D01*
X0123477Y0052735D01*
X0123477Y0051967D01*
X0122710Y0051200D01*
X0121175Y0051200D01*
X0120408Y0051967D01*
X0118873Y0052735D02*
X0118873Y0055804D01*
X0115804Y0055804D02*
X0115804Y0052735D01*
X0117339Y0051200D01*
X0118873Y0052735D01*
X0121942Y0053502D02*
X0122710Y0053502D01*
X0114269Y0054269D02*
X0113502Y0053502D01*
X0114269Y0052735D01*
X0114269Y0051967D01*
X0113502Y0051200D01*
X0111967Y0051200D01*
X0111200Y0051967D01*
X0112735Y0053502D02*
X0113502Y0053502D01*
X0114269Y0054269D02*
X0114269Y0055037D01*
X0113502Y0055804D01*
X0111967Y0055804D01*
X0111200Y0055037D01*
X0108800Y0052398D02*
X0108033Y0053165D01*
X0107265Y0053165D01*
X0106498Y0052398D01*
X0106498Y0050096D01*
X0108033Y0050096D01*
X0108800Y0050863D01*
X0108800Y0052398D01*
X0106498Y0050096D02*
X0104963Y0051631D01*
X0104196Y0053165D01*
X0104963Y0048561D02*
X0104196Y0047794D01*
X0104196Y0046259D01*
X0104963Y0045492D01*
X0108033Y0045492D01*
X0108800Y0046259D01*
X0108800Y0047794D01*
X0108033Y0048561D01*
X0111200Y0045804D02*
X0111200Y0043502D01*
X0112735Y0044269D01*
X0113502Y0044269D01*
X0114269Y0043502D01*
X0114269Y0041967D01*
X0113502Y0041200D01*
X0111967Y0041200D01*
X0111200Y0041967D01*
X0111200Y0045804D02*
X0114269Y0045804D01*
X0115804Y0045804D02*
X0115804Y0042735D01*
X0117339Y0041200D01*
X0118873Y0042735D01*
X0118873Y0045804D01*
X0120408Y0045037D02*
X0121175Y0045804D01*
X0122710Y0045804D01*
X0123477Y0045037D01*
X0120408Y0041967D01*
X0121175Y0041200D01*
X0122710Y0041200D01*
X0123477Y0041967D01*
X0123477Y0045037D01*
X0120408Y0045037D02*
X0120408Y0041967D01*
X0120408Y0035804D02*
X0122710Y0035804D01*
X0123477Y0035037D01*
X0123477Y0031967D01*
X0122710Y0031200D01*
X0120408Y0031200D01*
X0120408Y0035804D01*
X0118873Y0035804D02*
X0118873Y0031200D01*
X0115804Y0035804D01*
X0115804Y0031200D01*
X0114269Y0031967D02*
X0114269Y0033502D01*
X0112735Y0033502D01*
X0114269Y0035037D02*
X0113502Y0035804D01*
X0111967Y0035804D01*
X0111200Y0035037D01*
X0111200Y0031967D01*
X0111967Y0031200D01*
X0113502Y0031200D01*
X0114269Y0031967D01*
X0108800Y0032398D02*
X0108800Y0030863D01*
X0108033Y0030096D01*
X0108033Y0028561D02*
X0108800Y0027794D01*
X0108800Y0026259D01*
X0108033Y0025492D01*
X0104963Y0025492D01*
X0104196Y0026259D01*
X0104196Y0027794D01*
X0104963Y0028561D01*
X0104196Y0030096D02*
X0106498Y0030096D01*
X0105731Y0031631D01*
X0105731Y0032398D01*
X0106498Y0033165D01*
X0108033Y0033165D01*
X0108800Y0032398D01*
X0104196Y0033165D02*
X0104196Y0030096D01*
X0111200Y0025804D02*
X0113502Y0025804D01*
X0114269Y0025037D01*
X0114269Y0024269D01*
X0113502Y0023502D01*
X0111200Y0023502D01*
X0111200Y0021200D02*
X0111200Y0025804D01*
X0113502Y0023502D02*
X0114269Y0022735D01*
X0114269Y0021967D01*
X0113502Y0021200D01*
X0111200Y0021200D01*
X0115804Y0021200D02*
X0115804Y0024269D01*
X0117339Y0025804D01*
X0118873Y0024269D01*
X0118873Y0021200D01*
X0118873Y0023502D02*
X0115804Y0023502D01*
X0120408Y0025804D02*
X0123477Y0025804D01*
X0121942Y0025804D02*
X0121942Y0021200D01*
X0088300Y0024492D02*
X0083696Y0024492D01*
X0083696Y0026794D01*
X0084463Y0027561D01*
X0085998Y0027561D01*
X0086765Y0026794D01*
X0086765Y0024492D01*
X0086765Y0026027D02*
X0088300Y0027561D01*
X0088300Y0028700D02*
X0083696Y0028700D01*
X0083696Y0031002D01*
X0084463Y0031769D01*
X0085998Y0031769D01*
X0086765Y0031002D01*
X0086765Y0028700D01*
X0085998Y0029096D02*
X0085998Y0031398D01*
X0086765Y0032165D01*
X0087533Y0032165D01*
X0088300Y0031398D01*
X0088300Y0029863D01*
X0087533Y0029096D01*
X0085998Y0029096D01*
X0084463Y0030631D01*
X0083696Y0032165D01*
X0083696Y0033304D02*
X0085998Y0033304D01*
X0085231Y0034839D01*
X0085231Y0035606D01*
X0085998Y0036373D01*
X0087533Y0036373D01*
X0088300Y0035606D01*
X0088300Y0034071D01*
X0087533Y0033304D01*
X0088300Y0031769D02*
X0086765Y0030235D01*
X0083696Y0033304D02*
X0083696Y0036373D01*
X0077685Y0035804D02*
X0074616Y0031200D01*
X0077685Y0031200D02*
X0074616Y0035804D01*
X0073081Y0035804D02*
X0070012Y0035804D01*
X0071546Y0035804D02*
X0071546Y0031200D01*
X0068477Y0035804D02*
X0065408Y0031200D01*
X0063873Y0031200D02*
X0060804Y0031200D01*
X0062339Y0031200D02*
X0062339Y0035804D01*
X0060804Y0034269D01*
X0059269Y0035037D02*
X0058502Y0035804D01*
X0056200Y0035804D01*
X0056200Y0031200D01*
X0058502Y0031200D01*
X0059269Y0031967D01*
X0059269Y0035037D01*
X0058502Y0041200D02*
X0059269Y0041967D01*
X0059269Y0045037D01*
X0058502Y0045804D01*
X0056200Y0045804D01*
X0056200Y0041200D01*
X0058502Y0041200D01*
X0060804Y0041200D02*
X0063873Y0044269D01*
X0063873Y0045037D01*
X0063106Y0045804D01*
X0061571Y0045804D01*
X0060804Y0045037D01*
X0060804Y0041200D02*
X0063873Y0041200D01*
X0063106Y0051200D02*
X0060804Y0051200D01*
X0060804Y0055804D01*
X0063106Y0055804D01*
X0063873Y0055037D01*
X0063873Y0051967D01*
X0063106Y0051200D01*
X0065408Y0051967D02*
X0066175Y0051200D01*
X0067710Y0051200D01*
X0068477Y0051967D01*
X0068477Y0052735D01*
X0067710Y0053502D01*
X0066942Y0053502D01*
X0067710Y0053502D02*
X0068477Y0054269D01*
X0068477Y0055037D01*
X0067710Y0055804D01*
X0066175Y0055804D01*
X0065408Y0055037D01*
X0059269Y0055804D02*
X0058502Y0055037D01*
X0056967Y0056571D01*
X0056200Y0055804D01*
X0056200Y0061200D02*
X0058502Y0061200D01*
X0059269Y0061967D01*
X0059269Y0065037D01*
X0058502Y0065804D01*
X0056200Y0065804D01*
X0056200Y0061200D01*
X0060804Y0063502D02*
X0063873Y0063502D01*
X0063106Y0065804D02*
X0060804Y0063502D01*
X0063106Y0061200D02*
X0063106Y0065804D01*
X0063106Y0071200D02*
X0060804Y0071200D01*
X0060804Y0075804D01*
X0063106Y0075804D01*
X0063873Y0075037D01*
X0063873Y0071967D01*
X0063106Y0071200D01*
X0065408Y0071967D02*
X0066175Y0071200D01*
X0067710Y0071200D01*
X0068477Y0071967D01*
X0068477Y0073502D01*
X0067710Y0074269D01*
X0066942Y0074269D01*
X0065408Y0073502D01*
X0065408Y0075804D01*
X0068477Y0075804D01*
X0067710Y0081200D02*
X0066175Y0081200D01*
X0065408Y0081967D01*
X0065408Y0083502D01*
X0067710Y0083502D01*
X0068477Y0082735D01*
X0068477Y0081967D01*
X0067710Y0081200D01*
X0065408Y0083502D02*
X0066942Y0085037D01*
X0068477Y0085804D01*
X0063873Y0085037D02*
X0063873Y0081967D01*
X0063106Y0081200D01*
X0060804Y0081200D01*
X0060804Y0085804D01*
X0063106Y0085804D01*
X0063873Y0085037D01*
X0059269Y0085804D02*
X0058502Y0085037D01*
X0056967Y0086571D01*
X0056200Y0085804D01*
X0056200Y0091200D02*
X0058502Y0091200D01*
X0059269Y0091967D01*
X0059269Y0095037D01*
X0058502Y0095804D01*
X0056200Y0095804D01*
X0056200Y0091200D01*
X0060804Y0091200D02*
X0060804Y0091967D01*
X0063873Y0095037D01*
X0063873Y0095804D01*
X0060804Y0095804D01*
X0061571Y0101200D02*
X0060804Y0101967D01*
X0060804Y0102735D01*
X0061571Y0103502D01*
X0063106Y0103502D01*
X0063873Y0102735D01*
X0063873Y0101967D01*
X0063106Y0101200D01*
X0061571Y0101200D01*
X0061571Y0103502D02*
X0060804Y0104269D01*
X0060804Y0105037D01*
X0061571Y0105804D01*
X0063106Y0105804D01*
X0063873Y0105037D01*
X0063873Y0104269D01*
X0063106Y0103502D01*
X0059269Y0101967D02*
X0059269Y0105037D01*
X0058502Y0105804D01*
X0056200Y0105804D01*
X0056200Y0101200D01*
X0058502Y0101200D01*
X0059269Y0101967D01*
X0060804Y0111200D02*
X0063106Y0111200D01*
X0063873Y0111967D01*
X0063873Y0115037D01*
X0063106Y0115804D01*
X0060804Y0115804D01*
X0060804Y0111200D01*
X0058502Y0115037D02*
X0059269Y0115804D01*
X0058502Y0115037D02*
X0056967Y0116571D01*
X0056200Y0115804D01*
X0056200Y0121200D02*
X0058502Y0121200D01*
X0059269Y0121967D01*
X0059269Y0125037D01*
X0058502Y0125804D01*
X0056200Y0125804D01*
X0056200Y0121200D01*
X0060804Y0121200D02*
X0063873Y0121200D01*
X0062339Y0121200D02*
X0062339Y0125804D01*
X0060804Y0124269D01*
X0065408Y0125037D02*
X0065408Y0121967D01*
X0068477Y0125037D01*
X0068477Y0121967D01*
X0067710Y0121200D01*
X0066175Y0121200D01*
X0065408Y0121967D01*
X0065408Y0125037D02*
X0066175Y0125804D01*
X0067710Y0125804D01*
X0068477Y0125037D01*
X0068477Y0131200D02*
X0065408Y0131200D01*
X0066942Y0131200D02*
X0066942Y0135804D01*
X0065408Y0134269D01*
X0063873Y0131200D02*
X0060804Y0131200D01*
X0062339Y0131200D02*
X0062339Y0135804D01*
X0060804Y0134269D01*
X0059269Y0135037D02*
X0058502Y0135804D01*
X0056200Y0135804D01*
X0056200Y0131200D01*
X0058502Y0131200D01*
X0059269Y0131967D01*
X0059269Y0135037D01*
X0058502Y0141200D02*
X0059269Y0141967D01*
X0059269Y0145037D01*
X0058502Y0145804D01*
X0056200Y0145804D01*
X0056200Y0141200D01*
X0058502Y0141200D01*
X0060804Y0141200D02*
X0063873Y0141200D01*
X0062339Y0141200D02*
X0062339Y0145804D01*
X0060804Y0144269D01*
X0065408Y0145037D02*
X0066175Y0145804D01*
X0067710Y0145804D01*
X0068477Y0145037D01*
X0068477Y0144269D01*
X0065408Y0141200D01*
X0068477Y0141200D01*
X0067710Y0151200D02*
X0066175Y0151200D01*
X0065408Y0151967D01*
X0063873Y0151200D02*
X0060804Y0151200D01*
X0062339Y0151200D02*
X0062339Y0155804D01*
X0060804Y0154269D01*
X0059269Y0155037D02*
X0058502Y0155804D01*
X0056200Y0155804D01*
X0056200Y0151200D01*
X0058502Y0151200D01*
X0059269Y0151967D01*
X0059269Y0155037D01*
X0065408Y0155037D02*
X0066175Y0155804D01*
X0067710Y0155804D01*
X0068477Y0155037D01*
X0068477Y0154269D01*
X0067710Y0153502D01*
X0068477Y0152735D01*
X0068477Y0151967D01*
X0067710Y0151200D01*
X0067710Y0153502D02*
X0066942Y0153502D01*
X0076967Y0171200D02*
X0078502Y0171200D01*
X0079269Y0171967D01*
X0080804Y0171967D02*
X0081571Y0171200D01*
X0083106Y0171200D01*
X0083873Y0171967D01*
X0083873Y0175804D01*
X0085408Y0175804D02*
X0087710Y0175804D01*
X0088477Y0175037D01*
X0088477Y0173502D01*
X0087710Y0172735D01*
X0085408Y0172735D01*
X0086942Y0172735D02*
X0088477Y0171200D01*
X0090012Y0171200D02*
X0091546Y0171200D01*
X0090779Y0171200D02*
X0090779Y0175804D01*
X0090012Y0175804D02*
X0091546Y0175804D01*
X0093081Y0175804D02*
X0093081Y0171200D01*
X0096150Y0171200D01*
X0094616Y0173502D02*
X0093081Y0173502D01*
X0093081Y0175804D02*
X0096150Y0175804D01*
X0102289Y0175804D02*
X0105358Y0171200D01*
X0105358Y0175804D01*
X0106893Y0174269D02*
X0108427Y0175804D01*
X0109962Y0174269D01*
X0109962Y0171200D01*
X0111497Y0171200D02*
X0111497Y0175804D01*
X0114566Y0171200D01*
X0114566Y0175804D01*
X0116101Y0175037D02*
X0116868Y0175804D01*
X0118403Y0175804D01*
X0119170Y0175037D01*
X0119170Y0171967D01*
X0118403Y0171200D01*
X0116868Y0171200D01*
X0116101Y0171967D01*
X0116101Y0175037D01*
X0109962Y0173502D02*
X0106893Y0173502D01*
X0106893Y0174269D02*
X0106893Y0171200D01*
X0102289Y0171200D02*
X0102289Y0175804D01*
X0097533Y0165977D02*
X0098300Y0165210D01*
X0098300Y0163675D01*
X0097533Y0162908D01*
X0098300Y0161373D02*
X0098300Y0158304D01*
X0098300Y0159839D02*
X0093696Y0159839D01*
X0095231Y0158304D01*
X0095998Y0156769D02*
X0096765Y0156002D01*
X0096765Y0153700D01*
X0096765Y0155235D02*
X0098300Y0156769D01*
X0095998Y0156769D02*
X0094463Y0156769D01*
X0093696Y0156002D01*
X0093696Y0153700D01*
X0098300Y0153700D01*
X0095998Y0145977D02*
X0095998Y0142908D01*
X0093696Y0145210D01*
X0098300Y0145210D01*
X0098300Y0141373D02*
X0098300Y0138304D01*
X0098300Y0139839D02*
X0093696Y0139839D01*
X0095231Y0138304D01*
X0095998Y0136769D02*
X0096765Y0136002D01*
X0096765Y0133700D01*
X0096765Y0135235D02*
X0098300Y0136769D01*
X0095998Y0136769D02*
X0094463Y0136769D01*
X0093696Y0136002D01*
X0093696Y0133700D01*
X0098300Y0133700D01*
X0116200Y0133502D02*
X0119269Y0133502D01*
X0119269Y0134269D02*
X0119269Y0131200D01*
X0120804Y0133502D02*
X0123873Y0133502D01*
X0123106Y0131200D02*
X0123106Y0135804D01*
X0120804Y0133502D01*
X0119269Y0134269D02*
X0117735Y0135804D01*
X0116200Y0134269D01*
X0116200Y0131200D01*
X0117735Y0125804D02*
X0119269Y0124269D01*
X0119269Y0121200D01*
X0120804Y0121967D02*
X0121571Y0121200D01*
X0123106Y0121200D01*
X0123873Y0121967D01*
X0123873Y0122735D01*
X0123106Y0123502D01*
X0122339Y0123502D01*
X0123106Y0123502D02*
X0123873Y0124269D01*
X0123873Y0125037D01*
X0123106Y0125804D01*
X0121571Y0125804D01*
X0120804Y0125037D01*
X0119269Y0123502D02*
X0116200Y0123502D01*
X0116200Y0124269D02*
X0117735Y0125804D01*
X0116200Y0124269D02*
X0116200Y0121200D01*
X0116200Y0141200D02*
X0116200Y0144269D01*
X0117735Y0145804D01*
X0119269Y0144269D01*
X0119269Y0141200D01*
X0120804Y0141967D02*
X0121571Y0141200D01*
X0123106Y0141200D01*
X0123873Y0141967D01*
X0123873Y0143502D01*
X0123106Y0144269D01*
X0122339Y0144269D01*
X0120804Y0143502D01*
X0120804Y0145804D01*
X0123873Y0145804D01*
X0119269Y0143502D02*
X0116200Y0143502D01*
X0116200Y0151200D02*
X0118502Y0151200D01*
X0119269Y0151967D01*
X0119269Y0155037D01*
X0118502Y0155804D01*
X0116200Y0155804D01*
X0116200Y0151200D01*
X0120804Y0151200D02*
X0123873Y0154269D01*
X0123873Y0155037D01*
X0123106Y0155804D01*
X0121571Y0155804D01*
X0120804Y0155037D01*
X0120804Y0151200D02*
X0123873Y0151200D01*
X0125408Y0151967D02*
X0128477Y0155037D01*
X0128477Y0151967D01*
X0127710Y0151200D01*
X0126175Y0151200D01*
X0125408Y0151967D01*
X0125408Y0155037D01*
X0126175Y0155804D01*
X0127710Y0155804D01*
X0128477Y0155037D01*
X0097533Y0165977D02*
X0096765Y0165977D01*
X0095998Y0165210D01*
X0095998Y0164442D01*
X0095998Y0165210D02*
X0095231Y0165977D01*
X0094463Y0165977D01*
X0093696Y0165210D01*
X0093696Y0163675D01*
X0094463Y0162908D01*
X0085408Y0171200D02*
X0085408Y0175804D01*
X0080804Y0175804D02*
X0080804Y0171967D01*
X0079269Y0175037D02*
X0078502Y0175804D01*
X0076967Y0175804D01*
X0076200Y0175037D01*
X0076200Y0171967D01*
X0076967Y0171200D01*
X0067710Y0115804D02*
X0066175Y0115804D01*
X0065408Y0115037D01*
X0065408Y0114269D01*
X0066175Y0113502D01*
X0068477Y0113502D01*
X0068477Y0115037D02*
X0067710Y0115804D01*
X0068477Y0115037D02*
X0068477Y0111967D01*
X0067710Y0111200D01*
X0066175Y0111200D01*
X0065408Y0111967D01*
X0083696Y0099442D02*
X0085231Y0097908D01*
X0083696Y0099442D02*
X0088300Y0099442D01*
X0088300Y0097908D02*
X0088300Y0100977D01*
X0088300Y0096373D02*
X0088300Y0093304D01*
X0088300Y0092165D02*
X0088300Y0089096D01*
X0085231Y0092165D01*
X0084463Y0092165D01*
X0083696Y0091398D01*
X0083696Y0089863D01*
X0084463Y0089096D01*
X0083696Y0088700D02*
X0083696Y0091002D01*
X0084463Y0091769D01*
X0085998Y0091769D01*
X0086765Y0091002D01*
X0086765Y0088700D01*
X0086765Y0090235D02*
X0088300Y0091769D01*
X0088300Y0088700D02*
X0083696Y0088700D01*
X0083696Y0086027D02*
X0088300Y0086027D01*
X0088300Y0087561D02*
X0088300Y0084492D01*
X0088300Y0082957D02*
X0086765Y0081423D01*
X0086765Y0082190D02*
X0086765Y0079888D01*
X0088300Y0079888D02*
X0083696Y0079888D01*
X0083696Y0082190D01*
X0084463Y0082957D01*
X0085998Y0082957D01*
X0086765Y0082190D01*
X0085231Y0084492D02*
X0083696Y0086027D01*
X0085231Y0093304D02*
X0083696Y0094839D01*
X0088300Y0094839D01*
X0087533Y0076373D02*
X0084463Y0076373D01*
X0083696Y0075606D01*
X0083696Y0074071D01*
X0084463Y0073304D01*
X0085231Y0073304D01*
X0085998Y0074071D01*
X0085998Y0076373D01*
X0087533Y0076373D02*
X0088300Y0075606D01*
X0088300Y0074071D01*
X0087533Y0073304D01*
X0087533Y0072165D02*
X0084463Y0072165D01*
X0087533Y0069096D01*
X0088300Y0069863D01*
X0088300Y0071398D01*
X0087533Y0072165D01*
X0088300Y0071769D02*
X0086765Y0070235D01*
X0086765Y0071002D02*
X0086765Y0068700D01*
X0087533Y0069096D02*
X0084463Y0069096D01*
X0083696Y0069863D01*
X0083696Y0071398D01*
X0084463Y0072165D01*
X0084463Y0071769D02*
X0085998Y0071769D01*
X0086765Y0071002D01*
X0084463Y0071769D02*
X0083696Y0071002D01*
X0083696Y0068700D01*
X0088300Y0068700D01*
X0088300Y0067561D02*
X0088300Y0064492D01*
X0088300Y0062957D02*
X0086765Y0061423D01*
X0086765Y0062190D02*
X0086765Y0059888D01*
X0088300Y0059888D02*
X0083696Y0059888D01*
X0083696Y0062190D01*
X0084463Y0062957D01*
X0085998Y0062957D01*
X0086765Y0062190D01*
X0085231Y0064492D02*
X0083696Y0066027D01*
X0088300Y0066027D01*
X0084463Y0056373D02*
X0087533Y0053304D01*
X0088300Y0053304D01*
X0087533Y0052165D02*
X0088300Y0051398D01*
X0088300Y0049863D01*
X0087533Y0049096D01*
X0086765Y0049096D01*
X0085998Y0049863D01*
X0085998Y0051398D01*
X0086765Y0052165D01*
X0087533Y0052165D01*
X0088300Y0051769D02*
X0086765Y0050235D01*
X0086765Y0051002D02*
X0086765Y0048700D01*
X0085998Y0047561D02*
X0086765Y0046794D01*
X0086765Y0044492D01*
X0086765Y0046027D02*
X0088300Y0047561D01*
X0088300Y0048700D02*
X0083696Y0048700D01*
X0083696Y0051002D01*
X0084463Y0051769D01*
X0085998Y0051769D01*
X0086765Y0051002D01*
X0085998Y0051398D02*
X0085231Y0052165D01*
X0084463Y0052165D01*
X0083696Y0051398D01*
X0083696Y0049863D01*
X0084463Y0049096D01*
X0085231Y0049096D01*
X0085998Y0049863D01*
X0085998Y0047561D02*
X0084463Y0047561D01*
X0083696Y0046794D01*
X0083696Y0044492D01*
X0088300Y0044492D01*
X0083696Y0053304D02*
X0083696Y0056373D01*
X0084463Y0056373D01*
X0059269Y0075804D02*
X0058502Y0075037D01*
X0056967Y0076571D01*
X0056200Y0075804D01*
X0056200Y0025804D02*
X0058502Y0025804D01*
X0059269Y0025037D01*
X0059269Y0021967D01*
X0058502Y0021200D01*
X0056200Y0021200D01*
X0056200Y0025804D01*
X0060804Y0025037D02*
X0060804Y0021967D01*
X0063873Y0025037D01*
X0063873Y0021967D01*
X0063106Y0021200D01*
X0061571Y0021200D01*
X0060804Y0021967D01*
X0060804Y0025037D02*
X0061571Y0025804D01*
X0063106Y0025804D01*
X0063873Y0025037D01*
X0065408Y0021200D02*
X0068477Y0025804D01*
X0070012Y0025804D02*
X0072314Y0025804D01*
X0073081Y0025037D01*
X0073081Y0023502D01*
X0072314Y0022735D01*
X0070012Y0022735D01*
X0071546Y0022735D02*
X0073081Y0021200D01*
X0074616Y0021200D02*
X0077685Y0025804D01*
X0074616Y0025804D02*
X0077685Y0021200D01*
X0070012Y0021200D02*
X0070012Y0025804D01*
X0256200Y0025804D02*
X0256200Y0021200D01*
X0258502Y0021200D01*
X0259269Y0021967D01*
X0259269Y0025037D01*
X0258502Y0025804D01*
X0256200Y0025804D01*
X0260804Y0025037D02*
X0260804Y0021967D01*
X0263873Y0025037D01*
X0263873Y0021967D01*
X0263106Y0021200D01*
X0261571Y0021200D01*
X0260804Y0021967D01*
X0260804Y0025037D02*
X0261571Y0025804D01*
X0263106Y0025804D01*
X0263873Y0025037D01*
X0265408Y0021200D02*
X0268477Y0025804D01*
X0270012Y0025804D02*
X0270012Y0021200D01*
X0270012Y0022735D02*
X0272314Y0022735D01*
X0273081Y0023502D01*
X0273081Y0025037D01*
X0272314Y0025804D01*
X0270012Y0025804D01*
X0271546Y0022735D02*
X0273081Y0021200D01*
X0274616Y0021200D02*
X0277685Y0025804D01*
X0274616Y0025804D02*
X0277685Y0021200D01*
X0283696Y0022190D02*
X0284463Y0022957D01*
X0285998Y0022957D01*
X0286765Y0022190D01*
X0286765Y0019888D01*
X0286765Y0021423D02*
X0288300Y0022957D01*
X0288300Y0024492D02*
X0285231Y0027561D01*
X0284463Y0027561D01*
X0283696Y0026794D01*
X0283696Y0025259D01*
X0284463Y0024492D01*
X0283696Y0022190D02*
X0283696Y0019888D01*
X0288300Y0019888D01*
X0288300Y0024492D02*
X0288300Y0027561D01*
D13*
X0346000Y0033500D02*
X0348500Y0031000D01*
X0353500Y0031000D01*
X0356000Y0033500D01*
X0356000Y0038500D01*
X0358500Y0041000D01*
X0363500Y0041000D01*
X0366000Y0038500D01*
X0366000Y0033500D01*
X0363500Y0031000D01*
X0358500Y0031000D01*
X0356000Y0033500D01*
X0356000Y0038500D02*
X0353500Y0041000D01*
X0348500Y0041000D01*
X0346000Y0038500D01*
X0346000Y0033500D01*
X0347001Y0043750D02*
X0346250Y0044501D01*
X0347001Y0043750D02*
X0348502Y0043750D01*
X0349253Y0044501D01*
X0349253Y0045251D01*
X0348502Y0046002D01*
X0347751Y0046002D01*
X0348502Y0046002D02*
X0349253Y0046753D01*
X0349253Y0047503D01*
X0348502Y0048254D01*
X0347001Y0048254D01*
X0346250Y0047503D01*
X0350854Y0048254D02*
X0350854Y0045251D01*
X0352355Y0043750D01*
X0353856Y0045251D01*
X0353856Y0048254D01*
X0355458Y0046753D02*
X0356959Y0048254D01*
X0356959Y0043750D01*
X0355458Y0043750D02*
X0358460Y0043750D01*
X0368746Y0042710D02*
X0370998Y0040458D01*
X0370998Y0043460D01*
X0373250Y0042710D02*
X0368746Y0042710D01*
X0373250Y0038856D02*
X0373250Y0035854D01*
X0368746Y0035854D01*
X0369497Y0034253D02*
X0370247Y0034253D01*
X0370998Y0033502D01*
X0370998Y0031250D01*
X0368746Y0031250D02*
X0368746Y0033502D01*
X0369497Y0034253D01*
X0370998Y0033502D02*
X0371749Y0034253D01*
X0372499Y0034253D01*
X0373250Y0033502D01*
X0373250Y0031250D01*
X0368746Y0031250D01*
X0376000Y0033500D02*
X0376000Y0038500D01*
X0378500Y0041000D01*
X0383500Y0041000D01*
X0386000Y0038500D01*
X0386000Y0033500D01*
X0383500Y0031000D01*
X0378500Y0031000D01*
X0376000Y0033500D01*
X0378500Y0041000D02*
X0376000Y0043500D01*
X0376000Y0048500D01*
X0378500Y0051000D01*
X0383500Y0051000D01*
X0386000Y0048500D01*
X0386000Y0043500D01*
X0383500Y0041000D01*
X0383500Y0056000D02*
X0378500Y0056000D01*
X0376000Y0058500D01*
X0376000Y0063500D01*
X0378500Y0066000D01*
X0383500Y0066000D01*
X0386000Y0063500D01*
X0386000Y0058500D01*
X0383500Y0056000D01*
X0383500Y0066000D02*
X0386000Y0068500D01*
X0386000Y0073500D01*
X0383500Y0076000D01*
X0378500Y0076000D01*
X0376000Y0073500D01*
X0376000Y0068500D01*
X0378500Y0066000D01*
X0373250Y0066208D02*
X0372499Y0065458D01*
X0373250Y0066208D02*
X0373250Y0067710D01*
X0372499Y0068460D01*
X0370998Y0068460D01*
X0370247Y0067710D01*
X0370247Y0066959D01*
X0370998Y0065458D01*
X0368746Y0065458D01*
X0368746Y0068460D01*
X0373250Y0063856D02*
X0373250Y0060854D01*
X0368746Y0060854D01*
X0369497Y0059253D02*
X0370247Y0059253D01*
X0370998Y0058502D01*
X0370998Y0056250D01*
X0368746Y0056250D02*
X0368746Y0058502D01*
X0369497Y0059253D01*
X0370998Y0058502D02*
X0371749Y0059253D01*
X0372499Y0059253D01*
X0373250Y0058502D01*
X0373250Y0056250D01*
X0368746Y0056250D01*
X0368746Y0081250D02*
X0368746Y0083502D01*
X0369497Y0084253D01*
X0370247Y0084253D01*
X0370998Y0083502D01*
X0370998Y0081250D01*
X0373250Y0081250D02*
X0368746Y0081250D01*
X0370998Y0083502D02*
X0371749Y0084253D01*
X0372499Y0084253D01*
X0373250Y0083502D01*
X0373250Y0081250D01*
X0376000Y0083500D02*
X0376000Y0088500D01*
X0378500Y0091000D01*
X0383500Y0091000D01*
X0386000Y0088500D01*
X0386000Y0083500D01*
X0383500Y0081000D01*
X0378500Y0081000D01*
X0376000Y0083500D01*
X0373250Y0085854D02*
X0373250Y0088856D01*
X0372499Y0090458D02*
X0370998Y0090458D01*
X0370998Y0092710D01*
X0371749Y0093460D01*
X0372499Y0093460D01*
X0373250Y0092710D01*
X0373250Y0091208D01*
X0372499Y0090458D01*
X0370998Y0090458D02*
X0369497Y0091959D01*
X0368746Y0093460D01*
X0376000Y0093500D02*
X0378500Y0091000D01*
X0376000Y0093500D02*
X0376000Y0098500D01*
X0378500Y0101000D01*
X0383500Y0101000D01*
X0386000Y0098500D01*
X0386000Y0093500D01*
X0383500Y0091000D01*
X0373250Y0085854D02*
X0368746Y0085854D01*
X0368746Y0106250D02*
X0368746Y0109253D01*
X0368746Y0107751D02*
X0373250Y0107751D01*
X0376000Y0108500D02*
X0376000Y0113500D01*
X0378500Y0116000D01*
X0383500Y0116000D01*
X0386000Y0113500D01*
X0386000Y0108500D01*
X0383500Y0106000D01*
X0378500Y0106000D01*
X0376000Y0108500D01*
X0373250Y0110854D02*
X0373250Y0113856D01*
X0373250Y0115458D02*
X0373250Y0118460D01*
X0373250Y0116959D02*
X0368746Y0116959D01*
X0370247Y0115458D01*
X0368746Y0110854D02*
X0373250Y0110854D01*
X0378500Y0116000D02*
X0376000Y0118500D01*
X0376000Y0123500D01*
X0378500Y0126000D01*
X0383500Y0126000D01*
X0386000Y0123500D01*
X0386000Y0118500D01*
X0383500Y0116000D01*
X0383500Y0131000D02*
X0378500Y0131000D01*
X0376000Y0133500D01*
X0376000Y0138500D01*
X0378500Y0141000D01*
X0383500Y0141000D01*
X0386000Y0138500D01*
X0386000Y0133500D01*
X0383500Y0131000D01*
X0383500Y0141000D02*
X0386000Y0143500D01*
X0386000Y0148500D01*
X0383500Y0151000D01*
X0378500Y0151000D01*
X0376000Y0148500D01*
X0376000Y0143500D01*
X0378500Y0141000D01*
X0373250Y0141959D02*
X0371749Y0143460D01*
X0368746Y0143460D01*
X0370247Y0145062D02*
X0368746Y0146563D01*
X0373250Y0146563D01*
X0373250Y0145062D02*
X0373250Y0148064D01*
X0373250Y0141959D02*
X0371749Y0140458D01*
X0368746Y0140458D01*
X0368746Y0138106D02*
X0370998Y0135854D01*
X0370998Y0138856D01*
X0373250Y0138106D02*
X0368746Y0138106D01*
X0368746Y0132751D02*
X0373250Y0132751D01*
X0373250Y0131250D02*
X0373250Y0134253D01*
X0370247Y0131250D02*
X0368746Y0132751D01*
X0289649Y0193750D02*
X0286646Y0193750D01*
X0288147Y0193750D02*
X0288147Y0198254D01*
X0286646Y0196753D01*
X0285045Y0197503D02*
X0284294Y0198254D01*
X0282793Y0198254D01*
X0282042Y0197503D01*
X0282042Y0196753D01*
X0282793Y0196002D01*
X0284294Y0196002D01*
X0285045Y0195251D01*
X0285045Y0194501D01*
X0284294Y0193750D01*
X0282793Y0193750D01*
X0282042Y0194501D01*
X0278939Y0193750D02*
X0278939Y0198254D01*
X0277438Y0198254D02*
X0280441Y0198254D01*
X0278500Y0201000D02*
X0273500Y0201000D01*
X0271000Y0203500D01*
X0271000Y0208500D01*
X0273500Y0211000D01*
X0278500Y0211000D01*
X0281000Y0208500D01*
X0281000Y0203500D01*
X0278500Y0201000D01*
X0281000Y0203500D02*
X0283500Y0201000D01*
X0288500Y0201000D01*
X0291000Y0203500D01*
X0291000Y0208500D01*
X0288500Y0211000D01*
X0283500Y0211000D01*
X0281000Y0208500D01*
X0271000Y0208500D02*
X0268500Y0211000D01*
X0263500Y0211000D01*
X0261000Y0208500D01*
X0261000Y0203500D01*
X0263500Y0201000D01*
X0268500Y0201000D01*
X0271000Y0203500D01*
X0256000Y0203500D02*
X0253500Y0201000D01*
X0248500Y0201000D01*
X0246000Y0203500D01*
X0246000Y0208500D01*
X0248500Y0211000D01*
X0253500Y0211000D01*
X0256000Y0208500D01*
X0256000Y0203500D01*
X0254649Y0198254D02*
X0251646Y0198254D01*
X0251646Y0196002D01*
X0253147Y0196753D01*
X0253898Y0196753D01*
X0254649Y0196002D01*
X0254649Y0194501D01*
X0253898Y0193750D01*
X0252397Y0193750D01*
X0251646Y0194501D01*
X0250045Y0194501D02*
X0250045Y0195251D01*
X0249294Y0196002D01*
X0247793Y0196002D01*
X0247042Y0196753D01*
X0247042Y0197503D01*
X0247793Y0198254D01*
X0249294Y0198254D01*
X0250045Y0197503D01*
X0250045Y0194501D02*
X0249294Y0193750D01*
X0247793Y0193750D01*
X0247042Y0194501D01*
X0245441Y0194501D02*
X0245441Y0195251D01*
X0244690Y0196002D01*
X0242438Y0196002D01*
X0242438Y0198254D02*
X0244690Y0198254D01*
X0245441Y0197503D01*
X0245441Y0196753D01*
X0244690Y0196002D01*
X0245441Y0194501D02*
X0244690Y0193750D01*
X0242438Y0193750D01*
X0242438Y0198254D01*
X0243500Y0201000D02*
X0238500Y0201000D01*
X0236000Y0203500D01*
X0236000Y0208500D01*
X0238500Y0211000D01*
X0243500Y0211000D01*
X0246000Y0208500D01*
X0246000Y0203500D02*
X0243500Y0201000D01*
X0236000Y0203500D02*
X0233500Y0201000D01*
X0228500Y0201000D01*
X0226000Y0203500D01*
X0226000Y0208500D01*
X0228500Y0211000D01*
X0233500Y0211000D01*
X0236000Y0208500D01*
X0228250Y0193898D02*
X0223746Y0193898D01*
X0225998Y0191646D01*
X0225998Y0194649D01*
X0226749Y0190045D02*
X0225998Y0189294D01*
X0225998Y0187793D01*
X0225247Y0187042D01*
X0224497Y0187042D01*
X0223746Y0187793D01*
X0223746Y0189294D01*
X0224497Y0190045D01*
X0226749Y0190045D02*
X0227499Y0190045D01*
X0228250Y0189294D01*
X0228250Y0187793D01*
X0227499Y0187042D01*
X0227499Y0185441D02*
X0228250Y0184690D01*
X0228250Y0182438D01*
X0223746Y0182438D01*
X0223746Y0184690D01*
X0224497Y0185441D01*
X0225247Y0185441D01*
X0225998Y0184690D01*
X0225998Y0182438D01*
X0225998Y0184690D02*
X0226749Y0185441D01*
X0227499Y0185441D01*
X0221000Y0183500D02*
X0221000Y0178500D01*
X0218500Y0176000D01*
X0213500Y0176000D01*
X0211000Y0178500D01*
X0211000Y0183500D01*
X0213500Y0186000D01*
X0218500Y0186000D01*
X0221000Y0183500D01*
X0218500Y0186000D02*
X0221000Y0188500D01*
X0221000Y0193500D01*
X0218500Y0196000D01*
X0213500Y0196000D01*
X0211000Y0193500D01*
X0211000Y0188500D01*
X0213500Y0186000D01*
X0213500Y0176000D02*
X0211000Y0173500D01*
X0211000Y0168500D01*
X0213500Y0166000D01*
X0218500Y0166000D01*
X0221000Y0168500D01*
X0221000Y0173500D01*
X0218500Y0176000D01*
X0218500Y0161000D02*
X0213500Y0161000D01*
X0211000Y0158500D01*
X0211000Y0153500D01*
X0213500Y0151000D01*
X0218500Y0151000D01*
X0221000Y0148500D01*
X0221000Y0143500D01*
X0218500Y0141000D01*
X0213500Y0141000D01*
X0211000Y0143500D01*
X0211000Y0148500D01*
X0213500Y0151000D01*
X0218500Y0151000D02*
X0221000Y0153500D01*
X0221000Y0158500D01*
X0218500Y0161000D01*
X0223746Y0159649D02*
X0224497Y0158147D01*
X0225998Y0156646D01*
X0225998Y0158898D01*
X0226749Y0159649D01*
X0227499Y0159649D01*
X0228250Y0158898D01*
X0228250Y0157397D01*
X0227499Y0156646D01*
X0225998Y0156646D01*
X0226749Y0155045D02*
X0225998Y0154294D01*
X0225998Y0152793D01*
X0225247Y0152042D01*
X0224497Y0152042D01*
X0223746Y0152793D01*
X0223746Y0154294D01*
X0224497Y0155045D01*
X0226749Y0155045D02*
X0227499Y0155045D01*
X0228250Y0154294D01*
X0228250Y0152793D01*
X0227499Y0152042D01*
X0227499Y0150441D02*
X0228250Y0149690D01*
X0228250Y0147438D01*
X0223746Y0147438D01*
X0223746Y0149690D01*
X0224497Y0150441D01*
X0225247Y0150441D01*
X0225998Y0149690D01*
X0225998Y0147438D01*
X0225998Y0149690D02*
X0226749Y0150441D01*
X0227499Y0150441D01*
X0218500Y0141000D02*
X0221000Y0138500D01*
X0221000Y0133500D01*
X0218500Y0131000D01*
X0213500Y0131000D01*
X0211000Y0133500D01*
X0211000Y0138500D01*
X0213500Y0141000D01*
X0213500Y0126000D02*
X0218500Y0126000D01*
X0221000Y0123500D01*
X0221000Y0118500D01*
X0218500Y0116000D01*
X0213500Y0116000D01*
X0211000Y0118500D01*
X0211000Y0123500D01*
X0213500Y0126000D01*
X0208250Y0122314D02*
X0207499Y0123064D01*
X0206749Y0123064D01*
X0205998Y0122314D01*
X0205998Y0120062D01*
X0207499Y0120062D01*
X0208250Y0120812D01*
X0208250Y0122314D01*
X0205998Y0120062D02*
X0204497Y0121563D01*
X0203746Y0123064D01*
X0208250Y0118460D02*
X0208250Y0115458D01*
X0203746Y0115458D01*
X0203746Y0113856D02*
X0208250Y0113856D01*
X0205998Y0113856D02*
X0205998Y0110854D01*
X0208250Y0110854D02*
X0203746Y0110854D01*
X0203746Y0109253D02*
X0208250Y0109253D01*
X0206749Y0107751D01*
X0208250Y0106250D01*
X0203746Y0106250D01*
X0211000Y0108500D02*
X0211000Y0113500D01*
X0213500Y0116000D01*
X0218500Y0116000D02*
X0221000Y0113500D01*
X0221000Y0108500D01*
X0218500Y0106000D01*
X0213500Y0106000D01*
X0211000Y0108500D01*
X0213500Y0101000D02*
X0218500Y0101000D01*
X0221000Y0098500D01*
X0221000Y0093500D01*
X0218500Y0091000D01*
X0213500Y0091000D01*
X0211000Y0093500D01*
X0211000Y0098500D01*
X0213500Y0101000D01*
X0208250Y0097314D02*
X0208250Y0095812D01*
X0207499Y0095062D01*
X0205998Y0095062D02*
X0205247Y0096563D01*
X0205247Y0097314D01*
X0205998Y0098064D01*
X0207499Y0098064D01*
X0208250Y0097314D01*
X0205998Y0095062D02*
X0203746Y0095062D01*
X0203746Y0098064D01*
X0208250Y0093460D02*
X0208250Y0090458D01*
X0203746Y0090458D01*
X0203746Y0088856D02*
X0208250Y0088856D01*
X0205998Y0088856D02*
X0205998Y0085854D01*
X0208250Y0085854D02*
X0203746Y0085854D01*
X0203746Y0084253D02*
X0208250Y0084253D01*
X0206749Y0082751D01*
X0208250Y0081250D01*
X0203746Y0081250D01*
X0211000Y0083500D02*
X0211000Y0088500D01*
X0213500Y0091000D01*
X0218500Y0091000D02*
X0221000Y0088500D01*
X0221000Y0083500D01*
X0218500Y0081000D01*
X0213500Y0081000D01*
X0211000Y0083500D01*
X0213500Y0076000D02*
X0218500Y0076000D01*
X0221000Y0073500D01*
X0221000Y0068500D01*
X0218500Y0066000D01*
X0213500Y0066000D01*
X0211000Y0068500D01*
X0211000Y0073500D01*
X0213500Y0076000D01*
X0208250Y0072314D02*
X0203746Y0072314D01*
X0205998Y0070062D01*
X0205998Y0073064D01*
X0208250Y0068460D02*
X0208250Y0065458D01*
X0203746Y0065458D01*
X0203746Y0063856D02*
X0208250Y0063856D01*
X0205998Y0063856D02*
X0205998Y0060854D01*
X0208250Y0060854D02*
X0203746Y0060854D01*
X0203746Y0059253D02*
X0208250Y0059253D01*
X0206749Y0057751D01*
X0208250Y0056250D01*
X0203746Y0056250D01*
X0203746Y0055771D02*
X0208250Y0055771D01*
X0208250Y0054270D02*
X0208250Y0057272D01*
X0211000Y0058500D02*
X0213500Y0056000D01*
X0218500Y0056000D01*
X0221000Y0058500D01*
X0221000Y0063500D01*
X0218500Y0066000D01*
X0213500Y0066000D02*
X0211000Y0063500D01*
X0211000Y0058500D01*
X0208250Y0052668D02*
X0206749Y0051167D01*
X0206749Y0051918D02*
X0206749Y0049666D01*
X0208250Y0049666D02*
X0203746Y0049666D01*
X0203746Y0051918D01*
X0204497Y0052668D01*
X0205998Y0052668D01*
X0206749Y0051918D01*
X0205247Y0054270D02*
X0203746Y0055771D01*
X0203746Y0048064D02*
X0203746Y0045062D01*
X0208250Y0045062D01*
X0208250Y0048064D01*
X0205998Y0046563D02*
X0205998Y0045062D01*
X0203746Y0043460D02*
X0203746Y0040458D01*
X0208250Y0040458D01*
X0208250Y0043460D01*
X0205998Y0041959D02*
X0205998Y0040458D01*
X0203746Y0038856D02*
X0203746Y0035854D01*
X0203746Y0037355D02*
X0208250Y0037355D01*
X0211000Y0038500D02*
X0211000Y0033500D01*
X0213500Y0031000D01*
X0218500Y0031000D01*
X0221000Y0033500D01*
X0221000Y0038500D01*
X0218500Y0041000D01*
X0213500Y0041000D01*
X0211000Y0043500D01*
X0211000Y0048500D01*
X0213500Y0051000D01*
X0218500Y0051000D01*
X0221000Y0048500D01*
X0221000Y0043500D01*
X0218500Y0041000D01*
X0213500Y0041000D02*
X0211000Y0038500D01*
X0207499Y0034253D02*
X0208250Y0033502D01*
X0208250Y0032001D01*
X0207499Y0031250D01*
X0205998Y0032001D02*
X0205998Y0033502D01*
X0206749Y0034253D01*
X0207499Y0034253D01*
X0205998Y0032001D02*
X0205247Y0031250D01*
X0204497Y0031250D01*
X0203746Y0032001D01*
X0203746Y0033502D01*
X0204497Y0034253D01*
X0186000Y0033500D02*
X0183500Y0031000D01*
X0178500Y0031000D01*
X0176000Y0033500D01*
X0176000Y0038500D01*
X0178500Y0041000D01*
X0183500Y0041000D01*
X0186000Y0038500D01*
X0186000Y0033500D01*
X0183500Y0041000D02*
X0186000Y0043500D01*
X0186000Y0048500D01*
X0183500Y0051000D01*
X0178500Y0051000D01*
X0176000Y0048500D01*
X0176000Y0043500D01*
X0178500Y0041000D01*
X0173250Y0040458D02*
X0173250Y0043460D01*
X0173250Y0041959D02*
X0168746Y0041959D01*
X0170247Y0040458D01*
X0173250Y0038856D02*
X0173250Y0035854D01*
X0168746Y0035854D01*
X0169497Y0034253D02*
X0170247Y0034253D01*
X0170998Y0033502D01*
X0170998Y0031250D01*
X0168746Y0031250D02*
X0168746Y0033502D01*
X0169497Y0034253D01*
X0170998Y0033502D02*
X0171749Y0034253D01*
X0172499Y0034253D01*
X0173250Y0033502D01*
X0173250Y0031250D01*
X0168746Y0031250D01*
X0166000Y0033500D02*
X0163500Y0031000D01*
X0158500Y0031000D01*
X0156000Y0033500D01*
X0156000Y0038500D01*
X0158500Y0041000D01*
X0163500Y0041000D01*
X0166000Y0038500D01*
X0166000Y0033500D01*
X0156000Y0033500D02*
X0153500Y0031000D01*
X0148500Y0031000D01*
X0146000Y0033500D01*
X0146000Y0038500D01*
X0148500Y0041000D01*
X0153500Y0041000D01*
X0156000Y0038500D01*
X0155458Y0043750D02*
X0155458Y0044501D01*
X0158460Y0047503D01*
X0158460Y0048254D01*
X0155458Y0048254D01*
X0153856Y0048254D02*
X0153856Y0045251D01*
X0152355Y0043750D01*
X0150854Y0045251D01*
X0150854Y0048254D01*
X0149253Y0047503D02*
X0149253Y0046753D01*
X0148502Y0046002D01*
X0149253Y0045251D01*
X0149253Y0044501D01*
X0148502Y0043750D01*
X0147001Y0043750D01*
X0146250Y0044501D01*
X0147751Y0046002D02*
X0148502Y0046002D01*
X0149253Y0047503D02*
X0148502Y0048254D01*
X0147001Y0048254D01*
X0146250Y0047503D01*
X0168746Y0056250D02*
X0168746Y0058502D01*
X0169497Y0059253D01*
X0170247Y0059253D01*
X0170998Y0058502D01*
X0170998Y0056250D01*
X0173250Y0056250D02*
X0168746Y0056250D01*
X0170998Y0058502D02*
X0171749Y0059253D01*
X0172499Y0059253D01*
X0173250Y0058502D01*
X0173250Y0056250D01*
X0176000Y0058500D02*
X0178500Y0056000D01*
X0183500Y0056000D01*
X0186000Y0058500D01*
X0186000Y0063500D01*
X0183500Y0066000D01*
X0178500Y0066000D01*
X0176000Y0068500D01*
X0176000Y0073500D01*
X0178500Y0076000D01*
X0183500Y0076000D01*
X0186000Y0073500D01*
X0186000Y0068500D01*
X0183500Y0066000D01*
X0178500Y0066000D02*
X0176000Y0063500D01*
X0176000Y0058500D01*
X0173250Y0060854D02*
X0173250Y0063856D01*
X0173250Y0065458D02*
X0170247Y0068460D01*
X0169497Y0068460D01*
X0168746Y0067710D01*
X0168746Y0066208D01*
X0169497Y0065458D01*
X0173250Y0065458D02*
X0173250Y0068460D01*
X0173250Y0060854D02*
X0168746Y0060854D01*
X0168746Y0081250D02*
X0168746Y0083502D01*
X0169497Y0084253D01*
X0170247Y0084253D01*
X0170998Y0083502D01*
X0170998Y0081250D01*
X0173250Y0081250D02*
X0168746Y0081250D01*
X0170998Y0083502D02*
X0171749Y0084253D01*
X0172499Y0084253D01*
X0173250Y0083502D01*
X0173250Y0081250D01*
X0176000Y0083500D02*
X0176000Y0088500D01*
X0178500Y0091000D01*
X0183500Y0091000D01*
X0186000Y0088500D01*
X0186000Y0083500D01*
X0183500Y0081000D01*
X0178500Y0081000D01*
X0176000Y0083500D01*
X0173250Y0085854D02*
X0173250Y0088856D01*
X0172499Y0090458D02*
X0173250Y0091208D01*
X0173250Y0092710D01*
X0172499Y0093460D01*
X0171749Y0093460D01*
X0170998Y0092710D01*
X0170998Y0091959D01*
X0170998Y0092710D02*
X0170247Y0093460D01*
X0169497Y0093460D01*
X0168746Y0092710D01*
X0168746Y0091208D01*
X0169497Y0090458D01*
X0168746Y0085854D02*
X0173250Y0085854D01*
X0178500Y0091000D02*
X0176000Y0093500D01*
X0176000Y0098500D01*
X0178500Y0101000D01*
X0183500Y0101000D01*
X0186000Y0098500D01*
X0186000Y0093500D01*
X0183500Y0091000D01*
X0183500Y0106000D02*
X0178500Y0106000D01*
X0176000Y0108500D01*
X0176000Y0113500D01*
X0178500Y0116000D01*
X0183500Y0116000D01*
X0186000Y0113500D01*
X0186000Y0108500D01*
X0183500Y0106000D01*
X0173250Y0107751D02*
X0168746Y0107751D01*
X0168746Y0106250D02*
X0168746Y0109253D01*
X0168746Y0110854D02*
X0173250Y0110854D01*
X0173250Y0113856D01*
X0176000Y0118500D02*
X0176000Y0123500D01*
X0178500Y0126000D01*
X0183500Y0126000D01*
X0186000Y0123500D01*
X0186000Y0118500D01*
X0183500Y0116000D01*
X0178500Y0116000D02*
X0176000Y0118500D01*
X0178500Y0131000D02*
X0176000Y0133500D01*
X0176000Y0138500D01*
X0178500Y0141000D01*
X0183500Y0141000D01*
X0186000Y0138500D01*
X0186000Y0133500D01*
X0183500Y0131000D01*
X0178500Y0131000D01*
X0173250Y0131250D02*
X0173250Y0134253D01*
X0173250Y0132751D02*
X0168746Y0132751D01*
X0170247Y0131250D01*
X0170998Y0135854D02*
X0170998Y0138856D01*
X0171749Y0140458D02*
X0173250Y0141959D01*
X0171749Y0143460D01*
X0168746Y0143460D01*
X0169497Y0145062D02*
X0170247Y0145062D01*
X0170998Y0145812D01*
X0170998Y0147314D01*
X0171749Y0148064D01*
X0172499Y0148064D01*
X0173250Y0147314D01*
X0173250Y0145812D01*
X0172499Y0145062D01*
X0171749Y0145062D01*
X0170998Y0145812D01*
X0170998Y0147314D02*
X0170247Y0148064D01*
X0169497Y0148064D01*
X0168746Y0147314D01*
X0168746Y0145812D01*
X0169497Y0145062D01*
X0168746Y0140458D02*
X0171749Y0140458D01*
X0173250Y0138106D02*
X0168746Y0138106D01*
X0170998Y0135854D01*
X0178500Y0141000D02*
X0176000Y0143500D01*
X0176000Y0148500D01*
X0178500Y0151000D01*
X0183500Y0151000D01*
X0186000Y0148500D01*
X0186000Y0143500D01*
X0183500Y0141000D01*
X0091000Y0203500D02*
X0088500Y0201000D01*
X0083500Y0201000D01*
X0081000Y0203500D01*
X0081000Y0208500D01*
X0083500Y0211000D01*
X0088500Y0211000D01*
X0091000Y0208500D01*
X0091000Y0203500D01*
X0088898Y0198254D02*
X0087397Y0198254D01*
X0086646Y0197503D01*
X0086646Y0196753D01*
X0087397Y0196002D01*
X0088898Y0196002D01*
X0089649Y0195251D01*
X0089649Y0194501D01*
X0088898Y0193750D01*
X0087397Y0193750D01*
X0086646Y0194501D01*
X0083543Y0193750D02*
X0083543Y0198254D01*
X0082042Y0198254D02*
X0085045Y0198254D01*
X0088898Y0198254D02*
X0089649Y0197503D01*
X0081000Y0203500D02*
X0078500Y0201000D01*
X0073500Y0201000D01*
X0071000Y0203500D01*
X0071000Y0208500D01*
X0073500Y0211000D01*
X0078500Y0211000D01*
X0081000Y0208500D01*
X0071000Y0208500D02*
X0068500Y0211000D01*
X0063500Y0211000D01*
X0061000Y0208500D01*
X0061000Y0203500D01*
X0063500Y0201000D01*
X0068500Y0201000D01*
X0071000Y0203500D01*
X0056000Y0203500D02*
X0053500Y0201000D01*
X0048500Y0201000D01*
X0046000Y0203500D01*
X0046000Y0208500D01*
X0048500Y0211000D01*
X0053500Y0211000D01*
X0056000Y0208500D01*
X0056000Y0203500D01*
X0053898Y0198254D02*
X0054649Y0197503D01*
X0054649Y0196753D01*
X0053898Y0196002D01*
X0054649Y0195251D01*
X0054649Y0194501D01*
X0053898Y0193750D01*
X0052397Y0193750D01*
X0051646Y0194501D01*
X0050045Y0194501D02*
X0050045Y0195251D01*
X0049294Y0196002D01*
X0047793Y0196002D01*
X0047042Y0196753D01*
X0047042Y0197503D01*
X0047793Y0198254D01*
X0049294Y0198254D01*
X0050045Y0197503D01*
X0051646Y0197503D02*
X0052397Y0198254D01*
X0053898Y0198254D01*
X0053898Y0196002D02*
X0053147Y0196002D01*
X0050045Y0194501D02*
X0049294Y0193750D01*
X0047793Y0193750D01*
X0047042Y0194501D01*
X0045441Y0194501D02*
X0045441Y0195251D01*
X0044690Y0196002D01*
X0042438Y0196002D01*
X0042438Y0198254D02*
X0044690Y0198254D01*
X0045441Y0197503D01*
X0045441Y0196753D01*
X0044690Y0196002D01*
X0045441Y0194501D02*
X0044690Y0193750D01*
X0042438Y0193750D01*
X0042438Y0198254D01*
X0043500Y0201000D02*
X0038500Y0201000D01*
X0036000Y0203500D01*
X0036000Y0208500D01*
X0038500Y0211000D01*
X0043500Y0211000D01*
X0046000Y0208500D01*
X0046000Y0203500D02*
X0043500Y0201000D01*
X0036000Y0203500D02*
X0033500Y0201000D01*
X0028500Y0201000D01*
X0026000Y0203500D01*
X0026000Y0208500D01*
X0028500Y0211000D01*
X0033500Y0211000D01*
X0036000Y0208500D01*
X0028250Y0194649D02*
X0028250Y0191646D01*
X0025247Y0194649D01*
X0024497Y0194649D01*
X0023746Y0193898D01*
X0023746Y0192397D01*
X0024497Y0191646D01*
X0024497Y0190045D02*
X0023746Y0189294D01*
X0023746Y0187793D01*
X0024497Y0187042D01*
X0025247Y0187042D01*
X0025998Y0187793D01*
X0025998Y0189294D01*
X0026749Y0190045D01*
X0027499Y0190045D01*
X0028250Y0189294D01*
X0028250Y0187793D01*
X0027499Y0187042D01*
X0027499Y0185441D02*
X0028250Y0184690D01*
X0028250Y0182438D01*
X0023746Y0182438D01*
X0023746Y0184690D01*
X0024497Y0185441D01*
X0025247Y0185441D01*
X0025998Y0184690D01*
X0025998Y0182438D01*
X0025998Y0184690D02*
X0026749Y0185441D01*
X0027499Y0185441D01*
X0021000Y0183500D02*
X0021000Y0178500D01*
X0018500Y0176000D01*
X0013500Y0176000D01*
X0011000Y0178500D01*
X0011000Y0183500D01*
X0013500Y0186000D01*
X0018500Y0186000D01*
X0021000Y0183500D01*
X0018500Y0186000D02*
X0021000Y0188500D01*
X0021000Y0193500D01*
X0018500Y0196000D01*
X0013500Y0196000D01*
X0011000Y0193500D01*
X0011000Y0188500D01*
X0013500Y0186000D01*
X0013500Y0176000D02*
X0011000Y0173500D01*
X0011000Y0168500D01*
X0013500Y0166000D01*
X0018500Y0166000D01*
X0021000Y0168500D01*
X0021000Y0173500D01*
X0018500Y0176000D01*
X0018500Y0161000D02*
X0013500Y0161000D01*
X0011000Y0158500D01*
X0011000Y0153500D01*
X0013500Y0151000D01*
X0018500Y0151000D01*
X0021000Y0148500D01*
X0021000Y0143500D01*
X0018500Y0141000D01*
X0013500Y0141000D01*
X0011000Y0143500D01*
X0011000Y0148500D01*
X0013500Y0151000D01*
X0018500Y0151000D02*
X0021000Y0153500D01*
X0021000Y0158500D01*
X0018500Y0161000D01*
X0023746Y0158147D02*
X0028250Y0158147D01*
X0028250Y0156646D02*
X0028250Y0159649D01*
X0025247Y0156646D02*
X0023746Y0158147D01*
X0024497Y0155045D02*
X0023746Y0154294D01*
X0023746Y0152793D01*
X0024497Y0152042D01*
X0025247Y0152042D01*
X0025998Y0152793D01*
X0025998Y0154294D01*
X0026749Y0155045D01*
X0027499Y0155045D01*
X0028250Y0154294D01*
X0028250Y0152793D01*
X0027499Y0152042D01*
X0027499Y0150441D02*
X0028250Y0149690D01*
X0028250Y0147438D01*
X0023746Y0147438D01*
X0023746Y0149690D01*
X0024497Y0150441D01*
X0025247Y0150441D01*
X0025998Y0149690D01*
X0025998Y0147438D01*
X0025998Y0149690D02*
X0026749Y0150441D01*
X0027499Y0150441D01*
X0018500Y0141000D02*
X0021000Y0138500D01*
X0021000Y0133500D01*
X0018500Y0131000D01*
X0013500Y0131000D01*
X0011000Y0133500D01*
X0011000Y0138500D01*
X0013500Y0141000D01*
X0013500Y0126000D02*
X0018500Y0126000D01*
X0021000Y0123500D01*
X0021000Y0118500D01*
X0018500Y0116000D01*
X0013500Y0116000D01*
X0011000Y0118500D01*
X0011000Y0123500D01*
X0013500Y0126000D01*
X0008250Y0122314D02*
X0008250Y0120812D01*
X0007499Y0120062D01*
X0008250Y0118460D02*
X0008250Y0115458D01*
X0003746Y0115458D01*
X0003746Y0113856D02*
X0008250Y0113856D01*
X0005998Y0113856D02*
X0005998Y0110854D01*
X0008250Y0110854D02*
X0003746Y0110854D01*
X0003746Y0109253D02*
X0008250Y0109253D01*
X0006749Y0107751D01*
X0008250Y0106250D01*
X0003746Y0106250D01*
X0011000Y0108500D02*
X0011000Y0113500D01*
X0013500Y0116000D01*
X0018500Y0116000D02*
X0021000Y0113500D01*
X0021000Y0108500D01*
X0018500Y0106000D01*
X0013500Y0106000D01*
X0011000Y0108500D01*
X0013500Y0101000D02*
X0018500Y0101000D01*
X0021000Y0098500D01*
X0021000Y0093500D01*
X0018500Y0091000D01*
X0013500Y0091000D01*
X0011000Y0093500D01*
X0011000Y0098500D01*
X0013500Y0101000D01*
X0008250Y0098064D02*
X0008250Y0095062D01*
X0005247Y0098064D01*
X0004497Y0098064D01*
X0003746Y0097314D01*
X0003746Y0095812D01*
X0004497Y0095062D01*
X0008250Y0093460D02*
X0008250Y0090458D01*
X0003746Y0090458D01*
X0003746Y0088856D02*
X0008250Y0088856D01*
X0005998Y0088856D02*
X0005998Y0085854D01*
X0008250Y0085854D02*
X0003746Y0085854D01*
X0003746Y0084253D02*
X0008250Y0084253D01*
X0006749Y0082751D01*
X0008250Y0081250D01*
X0003746Y0081250D01*
X0011000Y0083500D02*
X0011000Y0088500D01*
X0013500Y0091000D01*
X0018500Y0091000D02*
X0021000Y0088500D01*
X0021000Y0083500D01*
X0018500Y0081000D01*
X0013500Y0081000D01*
X0011000Y0083500D01*
X0013500Y0076000D02*
X0011000Y0073500D01*
X0011000Y0068500D01*
X0013500Y0066000D01*
X0018500Y0066000D01*
X0021000Y0063500D01*
X0021000Y0058500D01*
X0018500Y0056000D01*
X0013500Y0056000D01*
X0011000Y0058500D01*
X0011000Y0063500D01*
X0013500Y0066000D01*
X0018500Y0066000D02*
X0021000Y0068500D01*
X0021000Y0073500D01*
X0018500Y0076000D01*
X0013500Y0076000D01*
X0008250Y0073064D02*
X0008250Y0070062D01*
X0008250Y0071563D02*
X0003746Y0071563D01*
X0005247Y0070062D01*
X0008250Y0068460D02*
X0008250Y0065458D01*
X0003746Y0065458D01*
X0003746Y0063856D02*
X0008250Y0063856D01*
X0005998Y0063856D02*
X0005998Y0060854D01*
X0008250Y0060854D02*
X0003746Y0060854D01*
X0003746Y0059253D02*
X0008250Y0059253D01*
X0006749Y0057751D01*
X0008250Y0056250D01*
X0003746Y0056250D01*
X0004497Y0052668D02*
X0003746Y0051918D01*
X0003746Y0049666D01*
X0008250Y0049666D01*
X0006749Y0049666D02*
X0006749Y0051918D01*
X0005998Y0052668D01*
X0004497Y0052668D01*
X0006749Y0051167D02*
X0008250Y0052668D01*
X0008250Y0048064D02*
X0008250Y0045062D01*
X0003746Y0045062D01*
X0003746Y0048064D01*
X0005998Y0046563D02*
X0005998Y0045062D01*
X0003746Y0043460D02*
X0003746Y0040458D01*
X0008250Y0040458D01*
X0008250Y0043460D01*
X0005998Y0041959D02*
X0005998Y0040458D01*
X0003746Y0038856D02*
X0003746Y0035854D01*
X0003746Y0037355D02*
X0008250Y0037355D01*
X0011000Y0038500D02*
X0013500Y0041000D01*
X0018500Y0041000D01*
X0021000Y0038500D01*
X0021000Y0033500D01*
X0018500Y0031000D01*
X0013500Y0031000D01*
X0011000Y0033500D01*
X0011000Y0038500D01*
X0013500Y0041000D02*
X0011000Y0043500D01*
X0011000Y0048500D01*
X0013500Y0051000D01*
X0018500Y0051000D01*
X0021000Y0048500D01*
X0021000Y0043500D01*
X0018500Y0041000D01*
X0008250Y0033502D02*
X0008250Y0032001D01*
X0007499Y0031250D01*
X0005998Y0032001D02*
X0005998Y0033502D01*
X0006749Y0034253D01*
X0007499Y0034253D01*
X0008250Y0033502D01*
X0005998Y0032001D02*
X0005247Y0031250D01*
X0004497Y0031250D01*
X0003746Y0032001D01*
X0003746Y0033502D01*
X0004497Y0034253D01*
X0004497Y0120062D02*
X0003746Y0120812D01*
X0003746Y0122314D01*
X0004497Y0123064D01*
X0005247Y0123064D01*
X0005998Y0122314D01*
X0006749Y0123064D01*
X0007499Y0123064D01*
X0008250Y0122314D01*
X0005998Y0122314D02*
X0005998Y0121563D01*
D14*
X0041000Y0181000D02*
X0141000Y0181000D01*
X0141000Y0011000D01*
X0041000Y0011000D01*
X0041000Y0181000D01*
X0241000Y0181000D02*
X0241000Y0011000D01*
X0341000Y0011000D01*
X0341000Y0181000D01*
X0241000Y0181000D01*
D15*
X0157006Y0150655D02*
X0157006Y0144350D01*
X0154904Y0144350D02*
X0159108Y0144350D01*
X0154904Y0148554D02*
X0157006Y0150655D01*
X0152663Y0149604D02*
X0151612Y0150655D01*
X0149510Y0150655D01*
X0148459Y0149604D01*
X0148459Y0148554D01*
X0149510Y0147503D01*
X0151612Y0147503D01*
X0152663Y0146452D01*
X0152663Y0145401D01*
X0151612Y0144350D01*
X0149510Y0144350D01*
X0148459Y0145401D01*
X0348459Y0145401D02*
X0349510Y0144350D01*
X0351612Y0144350D01*
X0352663Y0145401D01*
X0352663Y0146452D01*
X0351612Y0147503D01*
X0349510Y0147503D01*
X0348459Y0148554D01*
X0348459Y0149604D01*
X0349510Y0150655D01*
X0351612Y0150655D01*
X0352663Y0149604D01*
X0354904Y0149604D02*
X0355955Y0150655D01*
X0358057Y0150655D01*
X0359108Y0149604D01*
X0359108Y0148554D01*
X0354904Y0144350D01*
X0359108Y0144350D01*
M02*
