G75*
%MOIN*%
%OFA0B0*%
%FSLAX25Y25*%
%IPPOS*%
%LPD*%
%AMOC8*
5,1,8,0,0,1.08239X$1,22.5*
%
%ADD10C,0.00000*%
%ADD11C,0.00400*%
%ADD12C,0.00500*%
%ADD13C,0.03200*%
%ADD14C,0.00600*%
%ADD15C,0.00700*%
D10*
X0001000Y0001000D02*
X0001000Y0235961D01*
X0189701Y0235961D01*
X0189701Y0001000D01*
X0001000Y0001000D01*
X0009500Y0016000D02*
X0009502Y0016161D01*
X0009508Y0016321D01*
X0009518Y0016482D01*
X0009532Y0016642D01*
X0009550Y0016802D01*
X0009571Y0016961D01*
X0009597Y0017120D01*
X0009627Y0017278D01*
X0009660Y0017435D01*
X0009698Y0017592D01*
X0009739Y0017747D01*
X0009784Y0017901D01*
X0009833Y0018054D01*
X0009886Y0018206D01*
X0009942Y0018357D01*
X0010003Y0018506D01*
X0010066Y0018654D01*
X0010134Y0018800D01*
X0010205Y0018944D01*
X0010279Y0019086D01*
X0010357Y0019227D01*
X0010439Y0019365D01*
X0010524Y0019502D01*
X0010612Y0019636D01*
X0010704Y0019768D01*
X0010799Y0019898D01*
X0010897Y0020026D01*
X0010998Y0020151D01*
X0011102Y0020273D01*
X0011209Y0020393D01*
X0011319Y0020510D01*
X0011432Y0020625D01*
X0011548Y0020736D01*
X0011667Y0020845D01*
X0011788Y0020950D01*
X0011912Y0021053D01*
X0012038Y0021153D01*
X0012166Y0021249D01*
X0012297Y0021342D01*
X0012431Y0021432D01*
X0012566Y0021519D01*
X0012704Y0021602D01*
X0012843Y0021682D01*
X0012985Y0021758D01*
X0013128Y0021831D01*
X0013273Y0021900D01*
X0013420Y0021966D01*
X0013568Y0022028D01*
X0013718Y0022086D01*
X0013869Y0022141D01*
X0014022Y0022192D01*
X0014176Y0022239D01*
X0014331Y0022282D01*
X0014487Y0022321D01*
X0014643Y0022357D01*
X0014801Y0022388D01*
X0014959Y0022416D01*
X0015118Y0022440D01*
X0015278Y0022460D01*
X0015438Y0022476D01*
X0015598Y0022488D01*
X0015759Y0022496D01*
X0015920Y0022500D01*
X0016080Y0022500D01*
X0016241Y0022496D01*
X0016402Y0022488D01*
X0016562Y0022476D01*
X0016722Y0022460D01*
X0016882Y0022440D01*
X0017041Y0022416D01*
X0017199Y0022388D01*
X0017357Y0022357D01*
X0017513Y0022321D01*
X0017669Y0022282D01*
X0017824Y0022239D01*
X0017978Y0022192D01*
X0018131Y0022141D01*
X0018282Y0022086D01*
X0018432Y0022028D01*
X0018580Y0021966D01*
X0018727Y0021900D01*
X0018872Y0021831D01*
X0019015Y0021758D01*
X0019157Y0021682D01*
X0019296Y0021602D01*
X0019434Y0021519D01*
X0019569Y0021432D01*
X0019703Y0021342D01*
X0019834Y0021249D01*
X0019962Y0021153D01*
X0020088Y0021053D01*
X0020212Y0020950D01*
X0020333Y0020845D01*
X0020452Y0020736D01*
X0020568Y0020625D01*
X0020681Y0020510D01*
X0020791Y0020393D01*
X0020898Y0020273D01*
X0021002Y0020151D01*
X0021103Y0020026D01*
X0021201Y0019898D01*
X0021296Y0019768D01*
X0021388Y0019636D01*
X0021476Y0019502D01*
X0021561Y0019365D01*
X0021643Y0019227D01*
X0021721Y0019086D01*
X0021795Y0018944D01*
X0021866Y0018800D01*
X0021934Y0018654D01*
X0021997Y0018506D01*
X0022058Y0018357D01*
X0022114Y0018206D01*
X0022167Y0018054D01*
X0022216Y0017901D01*
X0022261Y0017747D01*
X0022302Y0017592D01*
X0022340Y0017435D01*
X0022373Y0017278D01*
X0022403Y0017120D01*
X0022429Y0016961D01*
X0022450Y0016802D01*
X0022468Y0016642D01*
X0022482Y0016482D01*
X0022492Y0016321D01*
X0022498Y0016161D01*
X0022500Y0016000D01*
X0022498Y0015839D01*
X0022492Y0015679D01*
X0022482Y0015518D01*
X0022468Y0015358D01*
X0022450Y0015198D01*
X0022429Y0015039D01*
X0022403Y0014880D01*
X0022373Y0014722D01*
X0022340Y0014565D01*
X0022302Y0014408D01*
X0022261Y0014253D01*
X0022216Y0014099D01*
X0022167Y0013946D01*
X0022114Y0013794D01*
X0022058Y0013643D01*
X0021997Y0013494D01*
X0021934Y0013346D01*
X0021866Y0013200D01*
X0021795Y0013056D01*
X0021721Y0012914D01*
X0021643Y0012773D01*
X0021561Y0012635D01*
X0021476Y0012498D01*
X0021388Y0012364D01*
X0021296Y0012232D01*
X0021201Y0012102D01*
X0021103Y0011974D01*
X0021002Y0011849D01*
X0020898Y0011727D01*
X0020791Y0011607D01*
X0020681Y0011490D01*
X0020568Y0011375D01*
X0020452Y0011264D01*
X0020333Y0011155D01*
X0020212Y0011050D01*
X0020088Y0010947D01*
X0019962Y0010847D01*
X0019834Y0010751D01*
X0019703Y0010658D01*
X0019569Y0010568D01*
X0019434Y0010481D01*
X0019296Y0010398D01*
X0019157Y0010318D01*
X0019015Y0010242D01*
X0018872Y0010169D01*
X0018727Y0010100D01*
X0018580Y0010034D01*
X0018432Y0009972D01*
X0018282Y0009914D01*
X0018131Y0009859D01*
X0017978Y0009808D01*
X0017824Y0009761D01*
X0017669Y0009718D01*
X0017513Y0009679D01*
X0017357Y0009643D01*
X0017199Y0009612D01*
X0017041Y0009584D01*
X0016882Y0009560D01*
X0016722Y0009540D01*
X0016562Y0009524D01*
X0016402Y0009512D01*
X0016241Y0009504D01*
X0016080Y0009500D01*
X0015920Y0009500D01*
X0015759Y0009504D01*
X0015598Y0009512D01*
X0015438Y0009524D01*
X0015278Y0009540D01*
X0015118Y0009560D01*
X0014959Y0009584D01*
X0014801Y0009612D01*
X0014643Y0009643D01*
X0014487Y0009679D01*
X0014331Y0009718D01*
X0014176Y0009761D01*
X0014022Y0009808D01*
X0013869Y0009859D01*
X0013718Y0009914D01*
X0013568Y0009972D01*
X0013420Y0010034D01*
X0013273Y0010100D01*
X0013128Y0010169D01*
X0012985Y0010242D01*
X0012843Y0010318D01*
X0012704Y0010398D01*
X0012566Y0010481D01*
X0012431Y0010568D01*
X0012297Y0010658D01*
X0012166Y0010751D01*
X0012038Y0010847D01*
X0011912Y0010947D01*
X0011788Y0011050D01*
X0011667Y0011155D01*
X0011548Y0011264D01*
X0011432Y0011375D01*
X0011319Y0011490D01*
X0011209Y0011607D01*
X0011102Y0011727D01*
X0010998Y0011849D01*
X0010897Y0011974D01*
X0010799Y0012102D01*
X0010704Y0012232D01*
X0010612Y0012364D01*
X0010524Y0012498D01*
X0010439Y0012635D01*
X0010357Y0012773D01*
X0010279Y0012914D01*
X0010205Y0013056D01*
X0010134Y0013200D01*
X0010066Y0013346D01*
X0010003Y0013494D01*
X0009942Y0013643D01*
X0009886Y0013794D01*
X0009833Y0013946D01*
X0009784Y0014099D01*
X0009739Y0014253D01*
X0009698Y0014408D01*
X0009660Y0014565D01*
X0009627Y0014722D01*
X0009597Y0014880D01*
X0009571Y0015039D01*
X0009550Y0015198D01*
X0009532Y0015358D01*
X0009518Y0015518D01*
X0009508Y0015679D01*
X0009502Y0015839D01*
X0009500Y0016000D01*
X0009500Y0221000D02*
X0009502Y0221161D01*
X0009508Y0221321D01*
X0009518Y0221482D01*
X0009532Y0221642D01*
X0009550Y0221802D01*
X0009571Y0221961D01*
X0009597Y0222120D01*
X0009627Y0222278D01*
X0009660Y0222435D01*
X0009698Y0222592D01*
X0009739Y0222747D01*
X0009784Y0222901D01*
X0009833Y0223054D01*
X0009886Y0223206D01*
X0009942Y0223357D01*
X0010003Y0223506D01*
X0010066Y0223654D01*
X0010134Y0223800D01*
X0010205Y0223944D01*
X0010279Y0224086D01*
X0010357Y0224227D01*
X0010439Y0224365D01*
X0010524Y0224502D01*
X0010612Y0224636D01*
X0010704Y0224768D01*
X0010799Y0224898D01*
X0010897Y0225026D01*
X0010998Y0225151D01*
X0011102Y0225273D01*
X0011209Y0225393D01*
X0011319Y0225510D01*
X0011432Y0225625D01*
X0011548Y0225736D01*
X0011667Y0225845D01*
X0011788Y0225950D01*
X0011912Y0226053D01*
X0012038Y0226153D01*
X0012166Y0226249D01*
X0012297Y0226342D01*
X0012431Y0226432D01*
X0012566Y0226519D01*
X0012704Y0226602D01*
X0012843Y0226682D01*
X0012985Y0226758D01*
X0013128Y0226831D01*
X0013273Y0226900D01*
X0013420Y0226966D01*
X0013568Y0227028D01*
X0013718Y0227086D01*
X0013869Y0227141D01*
X0014022Y0227192D01*
X0014176Y0227239D01*
X0014331Y0227282D01*
X0014487Y0227321D01*
X0014643Y0227357D01*
X0014801Y0227388D01*
X0014959Y0227416D01*
X0015118Y0227440D01*
X0015278Y0227460D01*
X0015438Y0227476D01*
X0015598Y0227488D01*
X0015759Y0227496D01*
X0015920Y0227500D01*
X0016080Y0227500D01*
X0016241Y0227496D01*
X0016402Y0227488D01*
X0016562Y0227476D01*
X0016722Y0227460D01*
X0016882Y0227440D01*
X0017041Y0227416D01*
X0017199Y0227388D01*
X0017357Y0227357D01*
X0017513Y0227321D01*
X0017669Y0227282D01*
X0017824Y0227239D01*
X0017978Y0227192D01*
X0018131Y0227141D01*
X0018282Y0227086D01*
X0018432Y0227028D01*
X0018580Y0226966D01*
X0018727Y0226900D01*
X0018872Y0226831D01*
X0019015Y0226758D01*
X0019157Y0226682D01*
X0019296Y0226602D01*
X0019434Y0226519D01*
X0019569Y0226432D01*
X0019703Y0226342D01*
X0019834Y0226249D01*
X0019962Y0226153D01*
X0020088Y0226053D01*
X0020212Y0225950D01*
X0020333Y0225845D01*
X0020452Y0225736D01*
X0020568Y0225625D01*
X0020681Y0225510D01*
X0020791Y0225393D01*
X0020898Y0225273D01*
X0021002Y0225151D01*
X0021103Y0225026D01*
X0021201Y0224898D01*
X0021296Y0224768D01*
X0021388Y0224636D01*
X0021476Y0224502D01*
X0021561Y0224365D01*
X0021643Y0224227D01*
X0021721Y0224086D01*
X0021795Y0223944D01*
X0021866Y0223800D01*
X0021934Y0223654D01*
X0021997Y0223506D01*
X0022058Y0223357D01*
X0022114Y0223206D01*
X0022167Y0223054D01*
X0022216Y0222901D01*
X0022261Y0222747D01*
X0022302Y0222592D01*
X0022340Y0222435D01*
X0022373Y0222278D01*
X0022403Y0222120D01*
X0022429Y0221961D01*
X0022450Y0221802D01*
X0022468Y0221642D01*
X0022482Y0221482D01*
X0022492Y0221321D01*
X0022498Y0221161D01*
X0022500Y0221000D01*
X0022498Y0220839D01*
X0022492Y0220679D01*
X0022482Y0220518D01*
X0022468Y0220358D01*
X0022450Y0220198D01*
X0022429Y0220039D01*
X0022403Y0219880D01*
X0022373Y0219722D01*
X0022340Y0219565D01*
X0022302Y0219408D01*
X0022261Y0219253D01*
X0022216Y0219099D01*
X0022167Y0218946D01*
X0022114Y0218794D01*
X0022058Y0218643D01*
X0021997Y0218494D01*
X0021934Y0218346D01*
X0021866Y0218200D01*
X0021795Y0218056D01*
X0021721Y0217914D01*
X0021643Y0217773D01*
X0021561Y0217635D01*
X0021476Y0217498D01*
X0021388Y0217364D01*
X0021296Y0217232D01*
X0021201Y0217102D01*
X0021103Y0216974D01*
X0021002Y0216849D01*
X0020898Y0216727D01*
X0020791Y0216607D01*
X0020681Y0216490D01*
X0020568Y0216375D01*
X0020452Y0216264D01*
X0020333Y0216155D01*
X0020212Y0216050D01*
X0020088Y0215947D01*
X0019962Y0215847D01*
X0019834Y0215751D01*
X0019703Y0215658D01*
X0019569Y0215568D01*
X0019434Y0215481D01*
X0019296Y0215398D01*
X0019157Y0215318D01*
X0019015Y0215242D01*
X0018872Y0215169D01*
X0018727Y0215100D01*
X0018580Y0215034D01*
X0018432Y0214972D01*
X0018282Y0214914D01*
X0018131Y0214859D01*
X0017978Y0214808D01*
X0017824Y0214761D01*
X0017669Y0214718D01*
X0017513Y0214679D01*
X0017357Y0214643D01*
X0017199Y0214612D01*
X0017041Y0214584D01*
X0016882Y0214560D01*
X0016722Y0214540D01*
X0016562Y0214524D01*
X0016402Y0214512D01*
X0016241Y0214504D01*
X0016080Y0214500D01*
X0015920Y0214500D01*
X0015759Y0214504D01*
X0015598Y0214512D01*
X0015438Y0214524D01*
X0015278Y0214540D01*
X0015118Y0214560D01*
X0014959Y0214584D01*
X0014801Y0214612D01*
X0014643Y0214643D01*
X0014487Y0214679D01*
X0014331Y0214718D01*
X0014176Y0214761D01*
X0014022Y0214808D01*
X0013869Y0214859D01*
X0013718Y0214914D01*
X0013568Y0214972D01*
X0013420Y0215034D01*
X0013273Y0215100D01*
X0013128Y0215169D01*
X0012985Y0215242D01*
X0012843Y0215318D01*
X0012704Y0215398D01*
X0012566Y0215481D01*
X0012431Y0215568D01*
X0012297Y0215658D01*
X0012166Y0215751D01*
X0012038Y0215847D01*
X0011912Y0215947D01*
X0011788Y0216050D01*
X0011667Y0216155D01*
X0011548Y0216264D01*
X0011432Y0216375D01*
X0011319Y0216490D01*
X0011209Y0216607D01*
X0011102Y0216727D01*
X0010998Y0216849D01*
X0010897Y0216974D01*
X0010799Y0217102D01*
X0010704Y0217232D01*
X0010612Y0217364D01*
X0010524Y0217498D01*
X0010439Y0217635D01*
X0010357Y0217773D01*
X0010279Y0217914D01*
X0010205Y0218056D01*
X0010134Y0218200D01*
X0010066Y0218346D01*
X0010003Y0218494D01*
X0009942Y0218643D01*
X0009886Y0218794D01*
X0009833Y0218946D01*
X0009784Y0219099D01*
X0009739Y0219253D01*
X0009698Y0219408D01*
X0009660Y0219565D01*
X0009627Y0219722D01*
X0009597Y0219880D01*
X0009571Y0220039D01*
X0009550Y0220198D01*
X0009532Y0220358D01*
X0009518Y0220518D01*
X0009508Y0220679D01*
X0009502Y0220839D01*
X0009500Y0221000D01*
X0154500Y0016000D02*
X0154502Y0016161D01*
X0154508Y0016321D01*
X0154518Y0016482D01*
X0154532Y0016642D01*
X0154550Y0016802D01*
X0154571Y0016961D01*
X0154597Y0017120D01*
X0154627Y0017278D01*
X0154660Y0017435D01*
X0154698Y0017592D01*
X0154739Y0017747D01*
X0154784Y0017901D01*
X0154833Y0018054D01*
X0154886Y0018206D01*
X0154942Y0018357D01*
X0155003Y0018506D01*
X0155066Y0018654D01*
X0155134Y0018800D01*
X0155205Y0018944D01*
X0155279Y0019086D01*
X0155357Y0019227D01*
X0155439Y0019365D01*
X0155524Y0019502D01*
X0155612Y0019636D01*
X0155704Y0019768D01*
X0155799Y0019898D01*
X0155897Y0020026D01*
X0155998Y0020151D01*
X0156102Y0020273D01*
X0156209Y0020393D01*
X0156319Y0020510D01*
X0156432Y0020625D01*
X0156548Y0020736D01*
X0156667Y0020845D01*
X0156788Y0020950D01*
X0156912Y0021053D01*
X0157038Y0021153D01*
X0157166Y0021249D01*
X0157297Y0021342D01*
X0157431Y0021432D01*
X0157566Y0021519D01*
X0157704Y0021602D01*
X0157843Y0021682D01*
X0157985Y0021758D01*
X0158128Y0021831D01*
X0158273Y0021900D01*
X0158420Y0021966D01*
X0158568Y0022028D01*
X0158718Y0022086D01*
X0158869Y0022141D01*
X0159022Y0022192D01*
X0159176Y0022239D01*
X0159331Y0022282D01*
X0159487Y0022321D01*
X0159643Y0022357D01*
X0159801Y0022388D01*
X0159959Y0022416D01*
X0160118Y0022440D01*
X0160278Y0022460D01*
X0160438Y0022476D01*
X0160598Y0022488D01*
X0160759Y0022496D01*
X0160920Y0022500D01*
X0161080Y0022500D01*
X0161241Y0022496D01*
X0161402Y0022488D01*
X0161562Y0022476D01*
X0161722Y0022460D01*
X0161882Y0022440D01*
X0162041Y0022416D01*
X0162199Y0022388D01*
X0162357Y0022357D01*
X0162513Y0022321D01*
X0162669Y0022282D01*
X0162824Y0022239D01*
X0162978Y0022192D01*
X0163131Y0022141D01*
X0163282Y0022086D01*
X0163432Y0022028D01*
X0163580Y0021966D01*
X0163727Y0021900D01*
X0163872Y0021831D01*
X0164015Y0021758D01*
X0164157Y0021682D01*
X0164296Y0021602D01*
X0164434Y0021519D01*
X0164569Y0021432D01*
X0164703Y0021342D01*
X0164834Y0021249D01*
X0164962Y0021153D01*
X0165088Y0021053D01*
X0165212Y0020950D01*
X0165333Y0020845D01*
X0165452Y0020736D01*
X0165568Y0020625D01*
X0165681Y0020510D01*
X0165791Y0020393D01*
X0165898Y0020273D01*
X0166002Y0020151D01*
X0166103Y0020026D01*
X0166201Y0019898D01*
X0166296Y0019768D01*
X0166388Y0019636D01*
X0166476Y0019502D01*
X0166561Y0019365D01*
X0166643Y0019227D01*
X0166721Y0019086D01*
X0166795Y0018944D01*
X0166866Y0018800D01*
X0166934Y0018654D01*
X0166997Y0018506D01*
X0167058Y0018357D01*
X0167114Y0018206D01*
X0167167Y0018054D01*
X0167216Y0017901D01*
X0167261Y0017747D01*
X0167302Y0017592D01*
X0167340Y0017435D01*
X0167373Y0017278D01*
X0167403Y0017120D01*
X0167429Y0016961D01*
X0167450Y0016802D01*
X0167468Y0016642D01*
X0167482Y0016482D01*
X0167492Y0016321D01*
X0167498Y0016161D01*
X0167500Y0016000D01*
X0167498Y0015839D01*
X0167492Y0015679D01*
X0167482Y0015518D01*
X0167468Y0015358D01*
X0167450Y0015198D01*
X0167429Y0015039D01*
X0167403Y0014880D01*
X0167373Y0014722D01*
X0167340Y0014565D01*
X0167302Y0014408D01*
X0167261Y0014253D01*
X0167216Y0014099D01*
X0167167Y0013946D01*
X0167114Y0013794D01*
X0167058Y0013643D01*
X0166997Y0013494D01*
X0166934Y0013346D01*
X0166866Y0013200D01*
X0166795Y0013056D01*
X0166721Y0012914D01*
X0166643Y0012773D01*
X0166561Y0012635D01*
X0166476Y0012498D01*
X0166388Y0012364D01*
X0166296Y0012232D01*
X0166201Y0012102D01*
X0166103Y0011974D01*
X0166002Y0011849D01*
X0165898Y0011727D01*
X0165791Y0011607D01*
X0165681Y0011490D01*
X0165568Y0011375D01*
X0165452Y0011264D01*
X0165333Y0011155D01*
X0165212Y0011050D01*
X0165088Y0010947D01*
X0164962Y0010847D01*
X0164834Y0010751D01*
X0164703Y0010658D01*
X0164569Y0010568D01*
X0164434Y0010481D01*
X0164296Y0010398D01*
X0164157Y0010318D01*
X0164015Y0010242D01*
X0163872Y0010169D01*
X0163727Y0010100D01*
X0163580Y0010034D01*
X0163432Y0009972D01*
X0163282Y0009914D01*
X0163131Y0009859D01*
X0162978Y0009808D01*
X0162824Y0009761D01*
X0162669Y0009718D01*
X0162513Y0009679D01*
X0162357Y0009643D01*
X0162199Y0009612D01*
X0162041Y0009584D01*
X0161882Y0009560D01*
X0161722Y0009540D01*
X0161562Y0009524D01*
X0161402Y0009512D01*
X0161241Y0009504D01*
X0161080Y0009500D01*
X0160920Y0009500D01*
X0160759Y0009504D01*
X0160598Y0009512D01*
X0160438Y0009524D01*
X0160278Y0009540D01*
X0160118Y0009560D01*
X0159959Y0009584D01*
X0159801Y0009612D01*
X0159643Y0009643D01*
X0159487Y0009679D01*
X0159331Y0009718D01*
X0159176Y0009761D01*
X0159022Y0009808D01*
X0158869Y0009859D01*
X0158718Y0009914D01*
X0158568Y0009972D01*
X0158420Y0010034D01*
X0158273Y0010100D01*
X0158128Y0010169D01*
X0157985Y0010242D01*
X0157843Y0010318D01*
X0157704Y0010398D01*
X0157566Y0010481D01*
X0157431Y0010568D01*
X0157297Y0010658D01*
X0157166Y0010751D01*
X0157038Y0010847D01*
X0156912Y0010947D01*
X0156788Y0011050D01*
X0156667Y0011155D01*
X0156548Y0011264D01*
X0156432Y0011375D01*
X0156319Y0011490D01*
X0156209Y0011607D01*
X0156102Y0011727D01*
X0155998Y0011849D01*
X0155897Y0011974D01*
X0155799Y0012102D01*
X0155704Y0012232D01*
X0155612Y0012364D01*
X0155524Y0012498D01*
X0155439Y0012635D01*
X0155357Y0012773D01*
X0155279Y0012914D01*
X0155205Y0013056D01*
X0155134Y0013200D01*
X0155066Y0013346D01*
X0155003Y0013494D01*
X0154942Y0013643D01*
X0154886Y0013794D01*
X0154833Y0013946D01*
X0154784Y0014099D01*
X0154739Y0014253D01*
X0154698Y0014408D01*
X0154660Y0014565D01*
X0154627Y0014722D01*
X0154597Y0014880D01*
X0154571Y0015039D01*
X0154550Y0015198D01*
X0154532Y0015358D01*
X0154518Y0015518D01*
X0154508Y0015679D01*
X0154502Y0015839D01*
X0154500Y0016000D01*
X0169500Y0221000D02*
X0169502Y0221161D01*
X0169508Y0221321D01*
X0169518Y0221482D01*
X0169532Y0221642D01*
X0169550Y0221802D01*
X0169571Y0221961D01*
X0169597Y0222120D01*
X0169627Y0222278D01*
X0169660Y0222435D01*
X0169698Y0222592D01*
X0169739Y0222747D01*
X0169784Y0222901D01*
X0169833Y0223054D01*
X0169886Y0223206D01*
X0169942Y0223357D01*
X0170003Y0223506D01*
X0170066Y0223654D01*
X0170134Y0223800D01*
X0170205Y0223944D01*
X0170279Y0224086D01*
X0170357Y0224227D01*
X0170439Y0224365D01*
X0170524Y0224502D01*
X0170612Y0224636D01*
X0170704Y0224768D01*
X0170799Y0224898D01*
X0170897Y0225026D01*
X0170998Y0225151D01*
X0171102Y0225273D01*
X0171209Y0225393D01*
X0171319Y0225510D01*
X0171432Y0225625D01*
X0171548Y0225736D01*
X0171667Y0225845D01*
X0171788Y0225950D01*
X0171912Y0226053D01*
X0172038Y0226153D01*
X0172166Y0226249D01*
X0172297Y0226342D01*
X0172431Y0226432D01*
X0172566Y0226519D01*
X0172704Y0226602D01*
X0172843Y0226682D01*
X0172985Y0226758D01*
X0173128Y0226831D01*
X0173273Y0226900D01*
X0173420Y0226966D01*
X0173568Y0227028D01*
X0173718Y0227086D01*
X0173869Y0227141D01*
X0174022Y0227192D01*
X0174176Y0227239D01*
X0174331Y0227282D01*
X0174487Y0227321D01*
X0174643Y0227357D01*
X0174801Y0227388D01*
X0174959Y0227416D01*
X0175118Y0227440D01*
X0175278Y0227460D01*
X0175438Y0227476D01*
X0175598Y0227488D01*
X0175759Y0227496D01*
X0175920Y0227500D01*
X0176080Y0227500D01*
X0176241Y0227496D01*
X0176402Y0227488D01*
X0176562Y0227476D01*
X0176722Y0227460D01*
X0176882Y0227440D01*
X0177041Y0227416D01*
X0177199Y0227388D01*
X0177357Y0227357D01*
X0177513Y0227321D01*
X0177669Y0227282D01*
X0177824Y0227239D01*
X0177978Y0227192D01*
X0178131Y0227141D01*
X0178282Y0227086D01*
X0178432Y0227028D01*
X0178580Y0226966D01*
X0178727Y0226900D01*
X0178872Y0226831D01*
X0179015Y0226758D01*
X0179157Y0226682D01*
X0179296Y0226602D01*
X0179434Y0226519D01*
X0179569Y0226432D01*
X0179703Y0226342D01*
X0179834Y0226249D01*
X0179962Y0226153D01*
X0180088Y0226053D01*
X0180212Y0225950D01*
X0180333Y0225845D01*
X0180452Y0225736D01*
X0180568Y0225625D01*
X0180681Y0225510D01*
X0180791Y0225393D01*
X0180898Y0225273D01*
X0181002Y0225151D01*
X0181103Y0225026D01*
X0181201Y0224898D01*
X0181296Y0224768D01*
X0181388Y0224636D01*
X0181476Y0224502D01*
X0181561Y0224365D01*
X0181643Y0224227D01*
X0181721Y0224086D01*
X0181795Y0223944D01*
X0181866Y0223800D01*
X0181934Y0223654D01*
X0181997Y0223506D01*
X0182058Y0223357D01*
X0182114Y0223206D01*
X0182167Y0223054D01*
X0182216Y0222901D01*
X0182261Y0222747D01*
X0182302Y0222592D01*
X0182340Y0222435D01*
X0182373Y0222278D01*
X0182403Y0222120D01*
X0182429Y0221961D01*
X0182450Y0221802D01*
X0182468Y0221642D01*
X0182482Y0221482D01*
X0182492Y0221321D01*
X0182498Y0221161D01*
X0182500Y0221000D01*
X0182498Y0220839D01*
X0182492Y0220679D01*
X0182482Y0220518D01*
X0182468Y0220358D01*
X0182450Y0220198D01*
X0182429Y0220039D01*
X0182403Y0219880D01*
X0182373Y0219722D01*
X0182340Y0219565D01*
X0182302Y0219408D01*
X0182261Y0219253D01*
X0182216Y0219099D01*
X0182167Y0218946D01*
X0182114Y0218794D01*
X0182058Y0218643D01*
X0181997Y0218494D01*
X0181934Y0218346D01*
X0181866Y0218200D01*
X0181795Y0218056D01*
X0181721Y0217914D01*
X0181643Y0217773D01*
X0181561Y0217635D01*
X0181476Y0217498D01*
X0181388Y0217364D01*
X0181296Y0217232D01*
X0181201Y0217102D01*
X0181103Y0216974D01*
X0181002Y0216849D01*
X0180898Y0216727D01*
X0180791Y0216607D01*
X0180681Y0216490D01*
X0180568Y0216375D01*
X0180452Y0216264D01*
X0180333Y0216155D01*
X0180212Y0216050D01*
X0180088Y0215947D01*
X0179962Y0215847D01*
X0179834Y0215751D01*
X0179703Y0215658D01*
X0179569Y0215568D01*
X0179434Y0215481D01*
X0179296Y0215398D01*
X0179157Y0215318D01*
X0179015Y0215242D01*
X0178872Y0215169D01*
X0178727Y0215100D01*
X0178580Y0215034D01*
X0178432Y0214972D01*
X0178282Y0214914D01*
X0178131Y0214859D01*
X0177978Y0214808D01*
X0177824Y0214761D01*
X0177669Y0214718D01*
X0177513Y0214679D01*
X0177357Y0214643D01*
X0177199Y0214612D01*
X0177041Y0214584D01*
X0176882Y0214560D01*
X0176722Y0214540D01*
X0176562Y0214524D01*
X0176402Y0214512D01*
X0176241Y0214504D01*
X0176080Y0214500D01*
X0175920Y0214500D01*
X0175759Y0214504D01*
X0175598Y0214512D01*
X0175438Y0214524D01*
X0175278Y0214540D01*
X0175118Y0214560D01*
X0174959Y0214584D01*
X0174801Y0214612D01*
X0174643Y0214643D01*
X0174487Y0214679D01*
X0174331Y0214718D01*
X0174176Y0214761D01*
X0174022Y0214808D01*
X0173869Y0214859D01*
X0173718Y0214914D01*
X0173568Y0214972D01*
X0173420Y0215034D01*
X0173273Y0215100D01*
X0173128Y0215169D01*
X0172985Y0215242D01*
X0172843Y0215318D01*
X0172704Y0215398D01*
X0172566Y0215481D01*
X0172431Y0215568D01*
X0172297Y0215658D01*
X0172166Y0215751D01*
X0172038Y0215847D01*
X0171912Y0215947D01*
X0171788Y0216050D01*
X0171667Y0216155D01*
X0171548Y0216264D01*
X0171432Y0216375D01*
X0171319Y0216490D01*
X0171209Y0216607D01*
X0171102Y0216727D01*
X0170998Y0216849D01*
X0170897Y0216974D01*
X0170799Y0217102D01*
X0170704Y0217232D01*
X0170612Y0217364D01*
X0170524Y0217498D01*
X0170439Y0217635D01*
X0170357Y0217773D01*
X0170279Y0217914D01*
X0170205Y0218056D01*
X0170134Y0218200D01*
X0170066Y0218346D01*
X0170003Y0218494D01*
X0169942Y0218643D01*
X0169886Y0218794D01*
X0169833Y0218946D01*
X0169784Y0219099D01*
X0169739Y0219253D01*
X0169698Y0219408D01*
X0169660Y0219565D01*
X0169627Y0219722D01*
X0169597Y0219880D01*
X0169571Y0220039D01*
X0169550Y0220198D01*
X0169532Y0220358D01*
X0169518Y0220518D01*
X0169508Y0220679D01*
X0169502Y0220839D01*
X0169500Y0221000D01*
D11*
X0127710Y0155804D02*
X0128477Y0155037D01*
X0125408Y0151967D01*
X0126175Y0151200D01*
X0127710Y0151200D01*
X0128477Y0151967D01*
X0128477Y0155037D01*
X0127710Y0155804D02*
X0126175Y0155804D01*
X0125408Y0155037D01*
X0125408Y0151967D01*
X0123873Y0151200D02*
X0120804Y0151200D01*
X0123873Y0154269D01*
X0123873Y0155037D01*
X0123106Y0155804D01*
X0121571Y0155804D01*
X0120804Y0155037D01*
X0119269Y0155037D02*
X0119269Y0151967D01*
X0118502Y0151200D01*
X0116200Y0151200D01*
X0116200Y0155804D01*
X0118502Y0155804D01*
X0119269Y0155037D01*
X0117735Y0145804D02*
X0116200Y0144269D01*
X0116200Y0141200D01*
X0116200Y0143502D02*
X0119269Y0143502D01*
X0119269Y0144269D02*
X0119269Y0141200D01*
X0120804Y0141967D02*
X0121571Y0141200D01*
X0123106Y0141200D01*
X0123873Y0141967D01*
X0123873Y0143502D01*
X0123106Y0144269D01*
X0122339Y0144269D01*
X0120804Y0143502D01*
X0120804Y0145804D01*
X0123873Y0145804D01*
X0119269Y0144269D02*
X0117735Y0145804D01*
X0117735Y0135804D02*
X0116200Y0134269D01*
X0116200Y0131200D01*
X0116200Y0133502D02*
X0119269Y0133502D01*
X0119269Y0134269D02*
X0119269Y0131200D01*
X0120804Y0133502D02*
X0123873Y0133502D01*
X0123106Y0135804D02*
X0120804Y0133502D01*
X0119269Y0134269D02*
X0117735Y0135804D01*
X0123106Y0135804D02*
X0123106Y0131200D01*
X0123106Y0125804D02*
X0121571Y0125804D01*
X0120804Y0125037D01*
X0119269Y0124269D02*
X0119269Y0121200D01*
X0120804Y0121967D02*
X0121571Y0121200D01*
X0123106Y0121200D01*
X0123873Y0121967D01*
X0123873Y0122735D01*
X0123106Y0123502D01*
X0122339Y0123502D01*
X0123106Y0123502D02*
X0123873Y0124269D01*
X0123873Y0125037D01*
X0123106Y0125804D01*
X0119269Y0124269D02*
X0117735Y0125804D01*
X0116200Y0124269D01*
X0116200Y0121200D01*
X0116200Y0123502D02*
X0119269Y0123502D01*
X0117735Y0115804D02*
X0116200Y0114269D01*
X0116200Y0111200D01*
X0116200Y0113502D02*
X0119269Y0113502D01*
X0119269Y0114269D02*
X0119269Y0111200D01*
X0120804Y0111200D02*
X0123873Y0114269D01*
X0123873Y0115037D01*
X0123106Y0115804D01*
X0121571Y0115804D01*
X0120804Y0115037D01*
X0119269Y0114269D02*
X0117735Y0115804D01*
X0120804Y0111200D02*
X0123873Y0111200D01*
X0122339Y0105804D02*
X0122339Y0101200D01*
X0123873Y0101200D02*
X0120804Y0101200D01*
X0119269Y0101200D02*
X0119269Y0104269D01*
X0117735Y0105804D01*
X0116200Y0104269D01*
X0116200Y0101200D01*
X0116200Y0103502D02*
X0119269Y0103502D01*
X0120804Y0104269D02*
X0122339Y0105804D01*
X0121571Y0095804D02*
X0123106Y0095804D01*
X0123873Y0095037D01*
X0120804Y0091967D01*
X0121571Y0091200D01*
X0123106Y0091200D01*
X0123873Y0091967D01*
X0123873Y0095037D01*
X0121571Y0095804D02*
X0120804Y0095037D01*
X0120804Y0091967D01*
X0119269Y0091200D02*
X0119269Y0094269D01*
X0117735Y0095804D01*
X0116200Y0094269D01*
X0116200Y0091200D01*
X0116200Y0093502D02*
X0119269Y0093502D01*
X0118502Y0085804D02*
X0116200Y0085804D01*
X0116200Y0081200D01*
X0116200Y0082735D02*
X0118502Y0082735D01*
X0119269Y0083502D01*
X0119269Y0085037D01*
X0118502Y0085804D01*
X0117735Y0082735D02*
X0119269Y0081200D01*
X0120804Y0081967D02*
X0121571Y0081200D01*
X0123106Y0081200D01*
X0123873Y0081967D01*
X0123873Y0082735D01*
X0123106Y0083502D01*
X0121571Y0083502D01*
X0120804Y0084269D01*
X0120804Y0085037D01*
X0121571Y0085804D01*
X0123106Y0085804D01*
X0123873Y0085037D01*
X0125408Y0085804D02*
X0128477Y0085804D01*
X0126942Y0085804D02*
X0126942Y0081200D01*
X0122710Y0075804D02*
X0120408Y0075804D01*
X0120408Y0071200D01*
X0122710Y0071200D01*
X0123477Y0071967D01*
X0123477Y0075037D01*
X0122710Y0075804D01*
X0118873Y0075804D02*
X0118873Y0071200D01*
X0115804Y0075804D01*
X0115804Y0071200D01*
X0114269Y0071967D02*
X0114269Y0073502D01*
X0112735Y0073502D01*
X0114269Y0075037D02*
X0113502Y0075804D01*
X0111967Y0075804D01*
X0111200Y0075037D01*
X0111200Y0071967D01*
X0111967Y0071200D01*
X0113502Y0071200D01*
X0114269Y0071967D01*
X0113502Y0065804D02*
X0111967Y0065804D01*
X0111200Y0065037D01*
X0111200Y0061967D01*
X0111967Y0061200D01*
X0113502Y0061200D01*
X0114269Y0061967D01*
X0114269Y0063502D01*
X0112735Y0063502D01*
X0114269Y0065037D02*
X0113502Y0065804D01*
X0115804Y0065804D02*
X0115804Y0061200D01*
X0118873Y0061200D02*
X0115804Y0065804D01*
X0118873Y0065804D02*
X0118873Y0061200D01*
X0120408Y0061200D02*
X0122710Y0061200D01*
X0123477Y0061967D01*
X0123477Y0065037D01*
X0122710Y0065804D01*
X0120408Y0065804D01*
X0120408Y0061200D01*
X0121175Y0055804D02*
X0120408Y0055037D01*
X0121175Y0055804D02*
X0122710Y0055804D01*
X0123477Y0055037D01*
X0123477Y0054269D01*
X0122710Y0053502D01*
X0123477Y0052735D01*
X0123477Y0051967D01*
X0122710Y0051200D01*
X0121175Y0051200D01*
X0120408Y0051967D01*
X0118873Y0052735D02*
X0118873Y0055804D01*
X0118873Y0052735D02*
X0117339Y0051200D01*
X0115804Y0052735D01*
X0115804Y0055804D01*
X0114269Y0055037D02*
X0114269Y0054269D01*
X0113502Y0053502D01*
X0114269Y0052735D01*
X0114269Y0051967D01*
X0113502Y0051200D01*
X0111967Y0051200D01*
X0111200Y0051967D01*
X0112735Y0053502D02*
X0113502Y0053502D01*
X0114269Y0055037D02*
X0113502Y0055804D01*
X0111967Y0055804D01*
X0111200Y0055037D01*
X0108800Y0052398D02*
X0108033Y0053165D01*
X0107265Y0053165D01*
X0106498Y0052398D01*
X0106498Y0050096D01*
X0108033Y0050096D01*
X0108800Y0050863D01*
X0108800Y0052398D01*
X0106498Y0050096D02*
X0104963Y0051631D01*
X0104196Y0053165D01*
X0104963Y0048561D02*
X0104196Y0047794D01*
X0104196Y0046259D01*
X0104963Y0045492D01*
X0108033Y0045492D01*
X0108800Y0046259D01*
X0108800Y0047794D01*
X0108033Y0048561D01*
X0111200Y0045804D02*
X0111200Y0043502D01*
X0112735Y0044269D01*
X0113502Y0044269D01*
X0114269Y0043502D01*
X0114269Y0041967D01*
X0113502Y0041200D01*
X0111967Y0041200D01*
X0111200Y0041967D01*
X0111200Y0045804D02*
X0114269Y0045804D01*
X0115804Y0045804D02*
X0115804Y0042735D01*
X0117339Y0041200D01*
X0118873Y0042735D01*
X0118873Y0045804D01*
X0120408Y0045037D02*
X0121175Y0045804D01*
X0122710Y0045804D01*
X0123477Y0045037D01*
X0120408Y0041967D01*
X0121175Y0041200D01*
X0122710Y0041200D01*
X0123477Y0041967D01*
X0123477Y0045037D01*
X0120408Y0045037D02*
X0120408Y0041967D01*
X0120408Y0035804D02*
X0122710Y0035804D01*
X0123477Y0035037D01*
X0123477Y0031967D01*
X0122710Y0031200D01*
X0120408Y0031200D01*
X0120408Y0035804D01*
X0118873Y0035804D02*
X0118873Y0031200D01*
X0115804Y0035804D01*
X0115804Y0031200D01*
X0114269Y0031967D02*
X0114269Y0033502D01*
X0112735Y0033502D01*
X0114269Y0035037D02*
X0113502Y0035804D01*
X0111967Y0035804D01*
X0111200Y0035037D01*
X0111200Y0031967D01*
X0111967Y0031200D01*
X0113502Y0031200D01*
X0114269Y0031967D01*
X0113502Y0025804D02*
X0111200Y0025804D01*
X0111200Y0021200D01*
X0113502Y0021200D01*
X0114269Y0021967D01*
X0114269Y0022735D01*
X0113502Y0023502D01*
X0111200Y0023502D01*
X0113502Y0023502D02*
X0114269Y0024269D01*
X0114269Y0025037D01*
X0113502Y0025804D01*
X0115804Y0024269D02*
X0115804Y0021200D01*
X0115804Y0023502D02*
X0118873Y0023502D01*
X0118873Y0024269D02*
X0118873Y0021200D01*
X0118873Y0024269D02*
X0117339Y0025804D01*
X0115804Y0024269D01*
X0120408Y0025804D02*
X0123477Y0025804D01*
X0121942Y0025804D02*
X0121942Y0021200D01*
X0108800Y0026259D02*
X0108800Y0027794D01*
X0108033Y0028561D01*
X0108033Y0030096D02*
X0108800Y0030863D01*
X0108800Y0032398D01*
X0108033Y0033165D01*
X0106498Y0033165D01*
X0105731Y0032398D01*
X0105731Y0031631D01*
X0106498Y0030096D01*
X0104196Y0030096D01*
X0104196Y0033165D01*
X0104963Y0028561D02*
X0104196Y0027794D01*
X0104196Y0026259D01*
X0104963Y0025492D01*
X0108033Y0025492D01*
X0108800Y0026259D01*
X0093300Y0020606D02*
X0093300Y0019071D01*
X0092533Y0018304D01*
X0090998Y0018304D02*
X0090231Y0019839D01*
X0090231Y0020606D01*
X0090998Y0021373D01*
X0092533Y0021373D01*
X0093300Y0020606D01*
X0090998Y0018304D02*
X0088696Y0018304D01*
X0088696Y0021373D01*
X0089463Y0016769D02*
X0090998Y0016769D01*
X0091765Y0016002D01*
X0091765Y0013700D01*
X0091765Y0015235D02*
X0093300Y0016769D01*
X0093300Y0013700D02*
X0088696Y0013700D01*
X0088696Y0016002D01*
X0089463Y0016769D01*
X0083300Y0017561D02*
X0081765Y0016027D01*
X0081765Y0016794D02*
X0081765Y0014492D01*
X0083300Y0014492D02*
X0078696Y0014492D01*
X0078696Y0016794D01*
X0079463Y0017561D01*
X0080998Y0017561D01*
X0081765Y0016794D01*
X0080998Y0019096D02*
X0080998Y0021398D01*
X0081765Y0022165D01*
X0082533Y0022165D01*
X0083300Y0021398D01*
X0083300Y0019863D01*
X0082533Y0019096D01*
X0080998Y0019096D01*
X0079463Y0020631D01*
X0078696Y0022165D01*
X0077685Y0021200D02*
X0074616Y0025804D01*
X0073081Y0025037D02*
X0073081Y0023502D01*
X0072314Y0022735D01*
X0070012Y0022735D01*
X0071546Y0022735D02*
X0073081Y0021200D01*
X0074616Y0021200D02*
X0077685Y0025804D01*
X0073081Y0025037D02*
X0072314Y0025804D01*
X0070012Y0025804D01*
X0070012Y0021200D01*
X0065408Y0021200D02*
X0068477Y0025804D01*
X0063873Y0025037D02*
X0063873Y0021967D01*
X0063106Y0021200D01*
X0061571Y0021200D01*
X0060804Y0021967D01*
X0063873Y0025037D01*
X0063106Y0025804D01*
X0061571Y0025804D01*
X0060804Y0025037D01*
X0060804Y0021967D01*
X0059269Y0021967D02*
X0059269Y0025037D01*
X0058502Y0025804D01*
X0056200Y0025804D01*
X0056200Y0021200D01*
X0058502Y0021200D01*
X0059269Y0021967D01*
X0058502Y0031200D02*
X0056200Y0031200D01*
X0056200Y0035804D01*
X0058502Y0035804D01*
X0059269Y0035037D01*
X0059269Y0031967D01*
X0058502Y0031200D01*
X0060804Y0031200D02*
X0063873Y0031200D01*
X0062339Y0031200D02*
X0062339Y0035804D01*
X0060804Y0034269D01*
X0060804Y0041200D02*
X0063873Y0044269D01*
X0063873Y0045037D01*
X0063106Y0045804D01*
X0061571Y0045804D01*
X0060804Y0045037D01*
X0059269Y0045037D02*
X0059269Y0041967D01*
X0058502Y0041200D01*
X0056200Y0041200D01*
X0056200Y0045804D01*
X0058502Y0045804D01*
X0059269Y0045037D01*
X0060804Y0041200D02*
X0063873Y0041200D01*
X0068477Y0035804D02*
X0065408Y0031200D01*
X0070012Y0035804D02*
X0073081Y0035804D01*
X0071546Y0035804D02*
X0071546Y0031200D01*
X0074616Y0031200D02*
X0077685Y0035804D01*
X0074616Y0035804D02*
X0077685Y0031200D01*
X0081196Y0036992D02*
X0081196Y0039294D01*
X0081963Y0040061D01*
X0083498Y0040061D01*
X0084265Y0039294D01*
X0084265Y0036992D01*
X0084265Y0038527D02*
X0085800Y0040061D01*
X0085033Y0041596D02*
X0084265Y0041596D01*
X0083498Y0042363D01*
X0083498Y0043898D01*
X0084265Y0044665D01*
X0085033Y0044665D01*
X0085800Y0043898D01*
X0085800Y0042363D01*
X0085033Y0041596D01*
X0083498Y0042363D02*
X0082731Y0041596D01*
X0081963Y0041596D01*
X0081196Y0042363D01*
X0081196Y0043898D01*
X0081963Y0044665D01*
X0082731Y0044665D01*
X0083498Y0043898D01*
X0085800Y0036992D02*
X0081196Y0036992D01*
X0088696Y0036200D02*
X0088696Y0038502D01*
X0089463Y0039269D01*
X0090998Y0039269D01*
X0091765Y0038502D01*
X0091765Y0036200D01*
X0091765Y0037735D02*
X0093300Y0039269D01*
X0093300Y0040804D02*
X0092533Y0040804D01*
X0089463Y0043873D01*
X0088696Y0043873D01*
X0088696Y0040804D01*
X0088696Y0036200D02*
X0093300Y0036200D01*
X0085800Y0052388D02*
X0081196Y0052388D01*
X0081196Y0054690D01*
X0081963Y0055457D01*
X0083498Y0055457D01*
X0084265Y0054690D01*
X0084265Y0052388D01*
X0084265Y0053923D02*
X0085800Y0055457D01*
X0085800Y0056992D02*
X0085800Y0060061D01*
X0085800Y0058527D02*
X0081196Y0058527D01*
X0082731Y0056992D01*
X0081963Y0061596D02*
X0081196Y0062363D01*
X0081196Y0063898D01*
X0081963Y0064665D01*
X0085033Y0061596D01*
X0085800Y0062363D01*
X0085800Y0063898D01*
X0085033Y0064665D01*
X0081963Y0064665D01*
X0081963Y0061596D02*
X0085033Y0061596D01*
X0088696Y0061571D02*
X0089463Y0060804D01*
X0090231Y0060804D01*
X0090998Y0061571D01*
X0090998Y0063873D01*
X0089463Y0063873D02*
X0088696Y0063106D01*
X0088696Y0061571D01*
X0089463Y0059269D02*
X0090998Y0059269D01*
X0091765Y0058502D01*
X0091765Y0056200D01*
X0091765Y0057735D02*
X0093300Y0059269D01*
X0092533Y0060804D02*
X0093300Y0061571D01*
X0093300Y0063106D01*
X0092533Y0063873D01*
X0089463Y0063873D01*
X0089463Y0059269D02*
X0088696Y0058502D01*
X0088696Y0056200D01*
X0093300Y0056200D01*
X0104196Y0066259D02*
X0104963Y0065492D01*
X0108033Y0065492D01*
X0108800Y0066259D01*
X0108800Y0067794D01*
X0108033Y0068561D01*
X0108033Y0070096D02*
X0108800Y0070096D01*
X0108033Y0070096D02*
X0104963Y0073165D01*
X0104196Y0073165D01*
X0104196Y0070096D01*
X0104963Y0068561D02*
X0104196Y0067794D01*
X0104196Y0066259D01*
X0104963Y0085492D02*
X0108033Y0085492D01*
X0108800Y0086259D01*
X0108800Y0087794D01*
X0108033Y0088561D01*
X0108033Y0090096D02*
X0107265Y0090096D01*
X0106498Y0090863D01*
X0106498Y0092398D01*
X0107265Y0093165D01*
X0108033Y0093165D01*
X0108800Y0092398D01*
X0108800Y0090863D01*
X0108033Y0090096D01*
X0106498Y0090863D02*
X0105731Y0090096D01*
X0104963Y0090096D01*
X0104196Y0090863D01*
X0104196Y0092398D01*
X0104963Y0093165D01*
X0105731Y0093165D01*
X0106498Y0092398D01*
X0104963Y0088561D02*
X0104196Y0087794D01*
X0104196Y0086259D01*
X0104963Y0085492D01*
X0093300Y0096200D02*
X0088696Y0096200D01*
X0088696Y0098502D01*
X0089463Y0099269D01*
X0090998Y0099269D01*
X0091765Y0098502D01*
X0091765Y0096200D01*
X0091765Y0097735D02*
X0093300Y0099269D01*
X0093300Y0100804D02*
X0093300Y0103873D01*
X0093300Y0102339D02*
X0088696Y0102339D01*
X0090231Y0100804D01*
X0090231Y0105408D02*
X0088696Y0106942D01*
X0093300Y0106942D01*
X0093300Y0105408D02*
X0093300Y0108477D01*
X0083300Y0107165D02*
X0083300Y0104096D01*
X0080231Y0107165D01*
X0079463Y0107165D01*
X0078696Y0106398D01*
X0078696Y0104863D01*
X0079463Y0104096D01*
X0078696Y0101027D02*
X0083300Y0101027D01*
X0083300Y0102561D02*
X0083300Y0099492D01*
X0083300Y0097957D02*
X0081765Y0096423D01*
X0081765Y0097190D02*
X0081765Y0094888D01*
X0083300Y0094888D02*
X0078696Y0094888D01*
X0078696Y0097190D01*
X0079463Y0097957D01*
X0080998Y0097957D01*
X0081765Y0097190D01*
X0080231Y0099492D02*
X0078696Y0101027D01*
X0068477Y0111967D02*
X0068477Y0115037D01*
X0067710Y0115804D01*
X0066175Y0115804D01*
X0065408Y0115037D01*
X0065408Y0114269D01*
X0066175Y0113502D01*
X0068477Y0113502D01*
X0068477Y0111967D02*
X0067710Y0111200D01*
X0066175Y0111200D01*
X0065408Y0111967D01*
X0063873Y0111967D02*
X0063873Y0115037D01*
X0063106Y0115804D01*
X0060804Y0115804D01*
X0060804Y0111200D01*
X0063106Y0111200D01*
X0063873Y0111967D01*
X0063106Y0105804D02*
X0063873Y0105037D01*
X0063873Y0104269D01*
X0063106Y0103502D01*
X0061571Y0103502D01*
X0060804Y0104269D01*
X0060804Y0105037D01*
X0061571Y0105804D01*
X0063106Y0105804D01*
X0063106Y0103502D02*
X0063873Y0102735D01*
X0063873Y0101967D01*
X0063106Y0101200D01*
X0061571Y0101200D01*
X0060804Y0101967D01*
X0060804Y0102735D01*
X0061571Y0103502D01*
X0059269Y0101967D02*
X0059269Y0105037D01*
X0058502Y0105804D01*
X0056200Y0105804D01*
X0056200Y0101200D01*
X0058502Y0101200D01*
X0059269Y0101967D01*
X0058502Y0095804D02*
X0056200Y0095804D01*
X0056200Y0091200D01*
X0058502Y0091200D01*
X0059269Y0091967D01*
X0059269Y0095037D01*
X0058502Y0095804D01*
X0060804Y0095804D02*
X0063873Y0095804D01*
X0063873Y0095037D01*
X0060804Y0091967D01*
X0060804Y0091200D01*
X0060804Y0085804D02*
X0063106Y0085804D01*
X0063873Y0085037D01*
X0063873Y0081967D01*
X0063106Y0081200D01*
X0060804Y0081200D01*
X0060804Y0085804D01*
X0059269Y0085804D02*
X0058502Y0085037D01*
X0056967Y0086571D01*
X0056200Y0085804D01*
X0056967Y0076571D02*
X0058502Y0075037D01*
X0059269Y0075804D01*
X0060804Y0075804D02*
X0060804Y0071200D01*
X0063106Y0071200D01*
X0063873Y0071967D01*
X0063873Y0075037D01*
X0063106Y0075804D01*
X0060804Y0075804D01*
X0056967Y0076571D02*
X0056200Y0075804D01*
X0056200Y0065804D02*
X0058502Y0065804D01*
X0059269Y0065037D01*
X0059269Y0061967D01*
X0058502Y0061200D01*
X0056200Y0061200D01*
X0056200Y0065804D01*
X0060804Y0063502D02*
X0063873Y0063502D01*
X0063106Y0061200D02*
X0063106Y0065804D01*
X0060804Y0063502D01*
X0060804Y0055804D02*
X0063106Y0055804D01*
X0063873Y0055037D01*
X0063873Y0051967D01*
X0063106Y0051200D01*
X0060804Y0051200D01*
X0060804Y0055804D01*
X0059269Y0055804D02*
X0058502Y0055037D01*
X0056967Y0056571D01*
X0056200Y0055804D01*
X0065408Y0055037D02*
X0066175Y0055804D01*
X0067710Y0055804D01*
X0068477Y0055037D01*
X0068477Y0054269D01*
X0067710Y0053502D01*
X0068477Y0052735D01*
X0068477Y0051967D01*
X0067710Y0051200D01*
X0066175Y0051200D01*
X0065408Y0051967D01*
X0066942Y0053502D02*
X0067710Y0053502D01*
X0067710Y0071200D02*
X0066175Y0071200D01*
X0065408Y0071967D01*
X0065408Y0073502D02*
X0066942Y0074269D01*
X0067710Y0074269D01*
X0068477Y0073502D01*
X0068477Y0071967D01*
X0067710Y0071200D01*
X0065408Y0073502D02*
X0065408Y0075804D01*
X0068477Y0075804D01*
X0067710Y0081200D02*
X0066175Y0081200D01*
X0065408Y0081967D01*
X0065408Y0083502D01*
X0067710Y0083502D01*
X0068477Y0082735D01*
X0068477Y0081967D01*
X0067710Y0081200D01*
X0065408Y0083502D02*
X0066942Y0085037D01*
X0068477Y0085804D01*
X0058502Y0115037D02*
X0056967Y0116571D01*
X0056200Y0115804D01*
X0058502Y0115037D02*
X0059269Y0115804D01*
X0058502Y0121200D02*
X0056200Y0121200D01*
X0056200Y0125804D01*
X0058502Y0125804D01*
X0059269Y0125037D01*
X0059269Y0121967D01*
X0058502Y0121200D01*
X0060804Y0121200D02*
X0063873Y0121200D01*
X0062339Y0121200D02*
X0062339Y0125804D01*
X0060804Y0124269D01*
X0060804Y0131200D02*
X0063873Y0131200D01*
X0062339Y0131200D02*
X0062339Y0135804D01*
X0060804Y0134269D01*
X0059269Y0135037D02*
X0059269Y0131967D01*
X0058502Y0131200D01*
X0056200Y0131200D01*
X0056200Y0135804D01*
X0058502Y0135804D01*
X0059269Y0135037D01*
X0058502Y0141200D02*
X0056200Y0141200D01*
X0056200Y0145804D01*
X0058502Y0145804D01*
X0059269Y0145037D01*
X0059269Y0141967D01*
X0058502Y0141200D01*
X0060804Y0141200D02*
X0063873Y0141200D01*
X0062339Y0141200D02*
X0062339Y0145804D01*
X0060804Y0144269D01*
X0060804Y0151200D02*
X0063873Y0151200D01*
X0062339Y0151200D02*
X0062339Y0155804D01*
X0060804Y0154269D01*
X0059269Y0155037D02*
X0059269Y0151967D01*
X0058502Y0151200D01*
X0056200Y0151200D01*
X0056200Y0155804D01*
X0058502Y0155804D01*
X0059269Y0155037D01*
X0065408Y0155037D02*
X0066175Y0155804D01*
X0067710Y0155804D01*
X0068477Y0155037D01*
X0068477Y0154269D01*
X0067710Y0153502D01*
X0068477Y0152735D01*
X0068477Y0151967D01*
X0067710Y0151200D01*
X0066175Y0151200D01*
X0065408Y0151967D01*
X0066942Y0153502D02*
X0067710Y0153502D01*
X0067710Y0145804D02*
X0066175Y0145804D01*
X0065408Y0145037D01*
X0067710Y0145804D02*
X0068477Y0145037D01*
X0068477Y0144269D01*
X0065408Y0141200D01*
X0068477Y0141200D01*
X0066942Y0135804D02*
X0066942Y0131200D01*
X0065408Y0131200D02*
X0068477Y0131200D01*
X0065408Y0134269D02*
X0066942Y0135804D01*
X0066175Y0125804D02*
X0067710Y0125804D01*
X0068477Y0125037D01*
X0065408Y0121967D01*
X0066175Y0121200D01*
X0067710Y0121200D01*
X0068477Y0121967D01*
X0068477Y0125037D01*
X0066175Y0125804D02*
X0065408Y0125037D01*
X0065408Y0121967D01*
X0093696Y0133700D02*
X0093696Y0136002D01*
X0094463Y0136769D01*
X0095998Y0136769D01*
X0096765Y0136002D01*
X0096765Y0133700D01*
X0096765Y0135235D02*
X0098300Y0136769D01*
X0098300Y0138304D02*
X0098300Y0141373D01*
X0098300Y0139839D02*
X0093696Y0139839D01*
X0095231Y0138304D01*
X0095998Y0142908D02*
X0095998Y0145977D01*
X0093696Y0145210D02*
X0095998Y0142908D01*
X0098300Y0145210D02*
X0093696Y0145210D01*
X0093696Y0153700D02*
X0093696Y0156002D01*
X0094463Y0156769D01*
X0095998Y0156769D01*
X0096765Y0156002D01*
X0096765Y0153700D01*
X0096765Y0155235D02*
X0098300Y0156769D01*
X0098300Y0158304D02*
X0098300Y0161373D01*
X0098300Y0159839D02*
X0093696Y0159839D01*
X0095231Y0158304D01*
X0094463Y0162908D02*
X0093696Y0163675D01*
X0093696Y0165210D01*
X0094463Y0165977D01*
X0095231Y0165977D01*
X0095998Y0165210D01*
X0096765Y0165977D01*
X0097533Y0165977D01*
X0098300Y0165210D01*
X0098300Y0163675D01*
X0097533Y0162908D01*
X0095998Y0164442D02*
X0095998Y0165210D01*
X0096150Y0171200D02*
X0093081Y0171200D01*
X0093081Y0175804D01*
X0096150Y0175804D01*
X0094616Y0173502D02*
X0093081Y0173502D01*
X0091546Y0175804D02*
X0090012Y0175804D01*
X0090779Y0175804D02*
X0090779Y0171200D01*
X0090012Y0171200D02*
X0091546Y0171200D01*
X0088477Y0171200D02*
X0086942Y0172735D01*
X0087710Y0172735D02*
X0085408Y0172735D01*
X0085408Y0171200D02*
X0085408Y0175804D01*
X0087710Y0175804D01*
X0088477Y0175037D01*
X0088477Y0173502D01*
X0087710Y0172735D01*
X0083873Y0171967D02*
X0083873Y0175804D01*
X0080804Y0175804D02*
X0080804Y0171967D01*
X0081571Y0171200D01*
X0083106Y0171200D01*
X0083873Y0171967D01*
X0079269Y0171967D02*
X0078502Y0171200D01*
X0076967Y0171200D01*
X0076200Y0171967D01*
X0076200Y0175037D01*
X0076967Y0175804D01*
X0078502Y0175804D01*
X0079269Y0175037D01*
X0093696Y0153700D02*
X0098300Y0153700D01*
X0102289Y0171200D02*
X0102289Y0175804D01*
X0105358Y0171200D01*
X0105358Y0175804D01*
X0106893Y0174269D02*
X0108427Y0175804D01*
X0109962Y0174269D01*
X0109962Y0171200D01*
X0111497Y0171200D02*
X0111497Y0175804D01*
X0114566Y0171200D01*
X0114566Y0175804D01*
X0116101Y0175037D02*
X0116101Y0171967D01*
X0116868Y0171200D01*
X0118403Y0171200D01*
X0119170Y0171967D01*
X0119170Y0175037D01*
X0118403Y0175804D01*
X0116868Y0175804D01*
X0116101Y0175037D01*
X0109962Y0173502D02*
X0106893Y0173502D01*
X0106893Y0174269D02*
X0106893Y0171200D01*
X0098300Y0133700D02*
X0093696Y0133700D01*
X0138696Y0120606D02*
X0140998Y0118304D01*
X0140998Y0121373D01*
X0143300Y0120606D02*
X0138696Y0120606D01*
X0139463Y0116769D02*
X0140998Y0116769D01*
X0141765Y0116002D01*
X0141765Y0113700D01*
X0141765Y0115235D02*
X0143300Y0116769D01*
X0143300Y0113700D02*
X0138696Y0113700D01*
X0138696Y0116002D01*
X0139463Y0116769D01*
X0139463Y0106373D02*
X0140231Y0106373D01*
X0140998Y0105606D01*
X0141765Y0106373D01*
X0142533Y0106373D01*
X0143300Y0105606D01*
X0143300Y0104071D01*
X0142533Y0103304D01*
X0143300Y0101769D02*
X0141765Y0100235D01*
X0141765Y0101002D02*
X0141765Y0098700D01*
X0143300Y0098700D02*
X0138696Y0098700D01*
X0138696Y0101002D01*
X0139463Y0101769D01*
X0140998Y0101769D01*
X0141765Y0101002D01*
X0140998Y0104839D02*
X0140998Y0105606D01*
X0139463Y0106373D02*
X0138696Y0105606D01*
X0138696Y0104071D01*
X0139463Y0103304D01*
X0139463Y0091373D02*
X0138696Y0090606D01*
X0138696Y0089071D01*
X0139463Y0088304D01*
X0139463Y0086769D02*
X0140998Y0086769D01*
X0141765Y0086002D01*
X0141765Y0083700D01*
X0141765Y0085235D02*
X0143300Y0086769D01*
X0143300Y0088304D02*
X0140231Y0091373D01*
X0139463Y0091373D01*
X0139463Y0086769D02*
X0138696Y0086002D01*
X0138696Y0083700D01*
X0143300Y0083700D01*
X0143300Y0088304D02*
X0143300Y0091373D01*
X0143300Y0076373D02*
X0143300Y0073304D01*
X0143300Y0074839D02*
X0138696Y0074839D01*
X0140231Y0073304D01*
X0140998Y0071769D02*
X0141765Y0071002D01*
X0141765Y0068700D01*
X0141765Y0070235D02*
X0143300Y0071769D01*
X0140998Y0071769D02*
X0139463Y0071769D01*
X0138696Y0071002D01*
X0138696Y0068700D01*
X0143300Y0068700D01*
X0159196Y0067794D02*
X0159196Y0066259D01*
X0159963Y0065492D01*
X0163033Y0065492D01*
X0163800Y0066259D01*
X0163800Y0067794D01*
X0163033Y0068561D01*
X0163800Y0070096D02*
X0163800Y0073165D01*
X0163800Y0071631D02*
X0159196Y0071631D01*
X0160731Y0070096D01*
X0159963Y0068561D02*
X0159196Y0067794D01*
X0159963Y0080492D02*
X0163033Y0080492D01*
X0163800Y0081259D01*
X0163800Y0082794D01*
X0163033Y0083561D01*
X0163800Y0085096D02*
X0160731Y0088165D01*
X0159963Y0088165D01*
X0159196Y0087398D01*
X0159196Y0085863D01*
X0159963Y0085096D01*
X0159963Y0083561D02*
X0159196Y0082794D01*
X0159196Y0081259D01*
X0159963Y0080492D01*
X0163800Y0085096D02*
X0163800Y0088165D01*
X0163033Y0095492D02*
X0159963Y0095492D01*
X0159196Y0096259D01*
X0159196Y0097794D01*
X0159963Y0098561D01*
X0159963Y0100096D02*
X0159196Y0100863D01*
X0159196Y0102398D01*
X0159963Y0103165D01*
X0160731Y0103165D01*
X0161498Y0102398D01*
X0162265Y0103165D01*
X0163033Y0103165D01*
X0163800Y0102398D01*
X0163800Y0100863D01*
X0163033Y0100096D01*
X0163033Y0098561D02*
X0163800Y0097794D01*
X0163800Y0096259D01*
X0163033Y0095492D01*
X0161498Y0101631D02*
X0161498Y0102398D01*
X0159963Y0110492D02*
X0163033Y0110492D01*
X0163800Y0111259D01*
X0163800Y0112794D01*
X0163033Y0113561D01*
X0161498Y0115096D02*
X0161498Y0118165D01*
X0159196Y0117398D02*
X0161498Y0115096D01*
X0159963Y0113561D02*
X0159196Y0112794D01*
X0159196Y0111259D01*
X0159963Y0110492D01*
X0159196Y0117398D02*
X0163800Y0117398D01*
X0122710Y0053502D02*
X0121942Y0053502D01*
D12*
X0141250Y0047503D02*
X0142001Y0048254D01*
X0143502Y0048254D01*
X0144253Y0047503D01*
X0144253Y0046753D01*
X0143502Y0046002D01*
X0144253Y0045251D01*
X0144253Y0044501D01*
X0143502Y0043750D01*
X0142001Y0043750D01*
X0141250Y0044501D01*
X0142751Y0046002D02*
X0143502Y0046002D01*
X0143500Y0041000D02*
X0148500Y0041000D01*
X0151000Y0038500D01*
X0151000Y0033500D01*
X0148500Y0031000D01*
X0143500Y0031000D01*
X0141000Y0033500D01*
X0141000Y0038500D01*
X0143500Y0041000D01*
X0147355Y0043750D02*
X0148856Y0045251D01*
X0148856Y0048254D01*
X0150458Y0048254D02*
X0153460Y0048254D01*
X0153460Y0047503D01*
X0150458Y0044501D01*
X0150458Y0043750D01*
X0147355Y0043750D02*
X0145854Y0045251D01*
X0145854Y0048254D01*
X0153500Y0041000D02*
X0151000Y0038500D01*
X0151000Y0033500D02*
X0153500Y0031000D01*
X0158500Y0031000D01*
X0161000Y0033500D01*
X0161000Y0038500D01*
X0158500Y0041000D01*
X0153500Y0041000D01*
X0171000Y0038500D02*
X0171000Y0033500D01*
X0173500Y0031000D01*
X0178500Y0031000D01*
X0181000Y0033500D01*
X0181000Y0038500D01*
X0178500Y0041000D01*
X0173500Y0041000D01*
X0171000Y0043500D01*
X0171000Y0048500D01*
X0173500Y0051000D01*
X0178500Y0051000D01*
X0181000Y0048500D01*
X0181000Y0043500D01*
X0178500Y0041000D01*
X0183746Y0041959D02*
X0188250Y0041959D01*
X0188250Y0040458D02*
X0188250Y0043460D01*
X0185247Y0040458D02*
X0183746Y0041959D01*
X0183746Y0035854D02*
X0188250Y0035854D01*
X0188250Y0038856D01*
X0187499Y0034253D02*
X0188250Y0033502D01*
X0188250Y0031250D01*
X0183746Y0031250D01*
X0183746Y0033502D01*
X0184497Y0034253D01*
X0185247Y0034253D01*
X0185998Y0033502D01*
X0185998Y0031250D01*
X0185998Y0033502D02*
X0186749Y0034253D01*
X0187499Y0034253D01*
X0188250Y0056250D02*
X0183746Y0056250D01*
X0183746Y0058502D01*
X0184497Y0059253D01*
X0185247Y0059253D01*
X0185998Y0058502D01*
X0185998Y0056250D01*
X0185998Y0058502D02*
X0186749Y0059253D01*
X0187499Y0059253D01*
X0188250Y0058502D01*
X0188250Y0056250D01*
X0188250Y0060854D02*
X0188250Y0063856D01*
X0188250Y0065458D02*
X0185247Y0068460D01*
X0184497Y0068460D01*
X0183746Y0067710D01*
X0183746Y0066208D01*
X0184497Y0065458D01*
X0183746Y0060854D02*
X0188250Y0060854D01*
X0188250Y0065458D02*
X0188250Y0068460D01*
X0181000Y0068500D02*
X0178500Y0066000D01*
X0173500Y0066000D01*
X0171000Y0068500D01*
X0171000Y0073500D01*
X0173500Y0076000D01*
X0178500Y0076000D01*
X0181000Y0073500D01*
X0181000Y0068500D01*
X0178500Y0066000D02*
X0181000Y0063500D01*
X0181000Y0058500D01*
X0178500Y0056000D01*
X0173500Y0056000D01*
X0171000Y0058500D01*
X0171000Y0063500D01*
X0173500Y0066000D01*
X0173500Y0081000D02*
X0171000Y0083500D01*
X0171000Y0088500D01*
X0173500Y0091000D01*
X0178500Y0091000D01*
X0181000Y0088500D01*
X0181000Y0083500D01*
X0178500Y0081000D01*
X0173500Y0081000D01*
X0173500Y0091000D02*
X0171000Y0093500D01*
X0171000Y0098500D01*
X0173500Y0101000D01*
X0178500Y0101000D01*
X0181000Y0098500D01*
X0181000Y0093500D01*
X0178500Y0091000D01*
X0183746Y0091208D02*
X0183746Y0092710D01*
X0184497Y0093460D01*
X0185247Y0093460D01*
X0185998Y0092710D01*
X0186749Y0093460D01*
X0187499Y0093460D01*
X0188250Y0092710D01*
X0188250Y0091208D01*
X0187499Y0090458D01*
X0188250Y0088856D02*
X0188250Y0085854D01*
X0183746Y0085854D01*
X0184497Y0084253D02*
X0183746Y0083502D01*
X0183746Y0081250D01*
X0188250Y0081250D01*
X0188250Y0083502D01*
X0187499Y0084253D01*
X0186749Y0084253D01*
X0185998Y0083502D01*
X0185998Y0081250D01*
X0185998Y0083502D02*
X0185247Y0084253D01*
X0184497Y0084253D01*
X0184497Y0090458D02*
X0183746Y0091208D01*
X0185998Y0091959D02*
X0185998Y0092710D01*
X0183746Y0106250D02*
X0183746Y0109253D01*
X0183746Y0107751D02*
X0188250Y0107751D01*
X0188250Y0110854D02*
X0188250Y0113856D01*
X0188250Y0110854D02*
X0183746Y0110854D01*
X0181000Y0108500D02*
X0178500Y0106000D01*
X0173500Y0106000D01*
X0171000Y0108500D01*
X0171000Y0113500D01*
X0173500Y0116000D01*
X0178500Y0116000D01*
X0181000Y0113500D01*
X0181000Y0108500D01*
X0178500Y0116000D02*
X0181000Y0118500D01*
X0181000Y0123500D01*
X0178500Y0126000D01*
X0173500Y0126000D01*
X0171000Y0123500D01*
X0171000Y0118500D01*
X0173500Y0116000D01*
X0173500Y0131000D02*
X0171000Y0133500D01*
X0171000Y0138500D01*
X0173500Y0141000D01*
X0178500Y0141000D01*
X0181000Y0138500D01*
X0181000Y0133500D01*
X0178500Y0131000D01*
X0173500Y0131000D01*
X0178746Y0132751D02*
X0183250Y0132751D01*
X0183250Y0131250D02*
X0183250Y0134253D01*
X0180998Y0135854D02*
X0180998Y0138856D01*
X0181749Y0140458D02*
X0178746Y0140458D01*
X0178500Y0141000D02*
X0181000Y0143500D01*
X0181000Y0148500D01*
X0178500Y0151000D01*
X0173500Y0151000D01*
X0171000Y0148500D01*
X0171000Y0143500D01*
X0173500Y0141000D01*
X0178746Y0143460D02*
X0181749Y0143460D01*
X0183250Y0141959D01*
X0181749Y0140458D01*
X0183250Y0138106D02*
X0178746Y0138106D01*
X0180998Y0135854D01*
X0178746Y0132751D02*
X0180247Y0131250D01*
X0180247Y0145062D02*
X0179497Y0145062D01*
X0178746Y0145812D01*
X0178746Y0147314D01*
X0179497Y0148064D01*
X0180247Y0148064D01*
X0180998Y0147314D01*
X0180998Y0145812D01*
X0180247Y0145062D01*
X0180998Y0145812D02*
X0181749Y0145062D01*
X0182499Y0145062D01*
X0183250Y0145812D01*
X0183250Y0147314D01*
X0182499Y0148064D01*
X0181749Y0148064D01*
X0180998Y0147314D01*
X0173500Y0041000D02*
X0171000Y0038500D01*
X0093500Y0206000D02*
X0088500Y0206000D01*
X0086000Y0208500D01*
X0086000Y0213500D01*
X0088500Y0216000D01*
X0093500Y0216000D01*
X0096000Y0213500D01*
X0096000Y0208500D01*
X0093500Y0206000D01*
X0093250Y0215619D02*
X0088746Y0215619D01*
X0086000Y0213500D02*
X0083500Y0216000D01*
X0078500Y0216000D01*
X0076000Y0213500D01*
X0076000Y0208500D01*
X0073500Y0206000D01*
X0068500Y0206000D01*
X0066000Y0208500D01*
X0066000Y0213500D01*
X0068500Y0216000D01*
X0073500Y0216000D01*
X0076000Y0213500D01*
X0073898Y0218750D02*
X0072397Y0218750D01*
X0071646Y0219501D01*
X0072397Y0221002D02*
X0073898Y0221002D01*
X0074649Y0220251D01*
X0074649Y0219501D01*
X0073898Y0218750D01*
X0072397Y0221002D02*
X0071646Y0221753D01*
X0071646Y0222503D01*
X0072397Y0223254D01*
X0073898Y0223254D01*
X0074649Y0222503D01*
X0070045Y0223254D02*
X0067042Y0223254D01*
X0068543Y0223254D02*
X0068543Y0218750D01*
X0061000Y0213500D02*
X0061000Y0208500D01*
X0058500Y0206000D01*
X0053500Y0206000D01*
X0051000Y0208500D01*
X0051000Y0213500D01*
X0053500Y0216000D01*
X0058500Y0216000D01*
X0061000Y0213500D01*
X0051000Y0213500D02*
X0048500Y0216000D01*
X0043500Y0216000D01*
X0041000Y0213500D01*
X0041000Y0208500D01*
X0038500Y0206000D01*
X0033500Y0206000D01*
X0031000Y0208500D01*
X0031000Y0213500D01*
X0033500Y0216000D01*
X0038500Y0216000D01*
X0041000Y0213500D01*
X0042397Y0218750D02*
X0041646Y0219501D01*
X0042397Y0218750D02*
X0043898Y0218750D01*
X0044649Y0219501D01*
X0044649Y0220251D01*
X0043898Y0221002D01*
X0043147Y0221002D01*
X0043898Y0221002D02*
X0044649Y0221753D01*
X0044649Y0222503D01*
X0043898Y0223254D01*
X0042397Y0223254D01*
X0041646Y0222503D01*
X0040045Y0222503D02*
X0039294Y0223254D01*
X0037793Y0223254D01*
X0037042Y0222503D01*
X0037042Y0221753D01*
X0037793Y0221002D01*
X0039294Y0221002D01*
X0040045Y0220251D01*
X0040045Y0219501D01*
X0039294Y0218750D01*
X0037793Y0218750D01*
X0037042Y0219501D01*
X0035441Y0219501D02*
X0035441Y0220251D01*
X0034690Y0221002D01*
X0032438Y0221002D01*
X0032438Y0223254D02*
X0034690Y0223254D01*
X0035441Y0222503D01*
X0035441Y0221753D01*
X0034690Y0221002D01*
X0035441Y0219501D02*
X0034690Y0218750D01*
X0032438Y0218750D01*
X0032438Y0223254D01*
X0041000Y0208500D02*
X0043500Y0206000D01*
X0048500Y0206000D01*
X0051000Y0208500D01*
X0076000Y0208500D02*
X0078500Y0206000D01*
X0083500Y0206000D01*
X0086000Y0208500D01*
X0093250Y0215619D02*
X0093250Y0218621D01*
X0093250Y0220223D02*
X0093250Y0221724D01*
X0093250Y0220973D02*
X0088746Y0220973D01*
X0088746Y0220223D02*
X0088746Y0221724D01*
X0088746Y0223292D02*
X0088746Y0225544D01*
X0089497Y0226295D01*
X0090998Y0226295D01*
X0091749Y0225544D01*
X0091749Y0223292D01*
X0093250Y0223292D02*
X0088746Y0223292D01*
X0089497Y0227896D02*
X0092499Y0227896D01*
X0093250Y0228647D01*
X0093250Y0230148D01*
X0092499Y0230899D01*
X0089497Y0230899D01*
X0088746Y0230148D01*
X0088746Y0228647D01*
X0089497Y0227896D01*
X0021000Y0193500D02*
X0021000Y0188500D01*
X0018500Y0186000D01*
X0013500Y0186000D01*
X0011000Y0188500D01*
X0011000Y0193500D01*
X0013500Y0196000D01*
X0018500Y0196000D01*
X0021000Y0193500D01*
X0018500Y0186000D02*
X0021000Y0183500D01*
X0021000Y0178500D01*
X0018500Y0176000D01*
X0013500Y0176000D01*
X0011000Y0178500D01*
X0011000Y0183500D01*
X0013500Y0186000D01*
X0008250Y0179649D02*
X0008250Y0176646D01*
X0005247Y0179649D01*
X0004497Y0179649D01*
X0003746Y0178898D01*
X0003746Y0177397D01*
X0004497Y0176646D01*
X0004497Y0175045D02*
X0003746Y0174294D01*
X0003746Y0172793D01*
X0004497Y0172042D01*
X0005247Y0172042D01*
X0005998Y0172793D01*
X0005998Y0174294D01*
X0006749Y0175045D01*
X0007499Y0175045D01*
X0008250Y0174294D01*
X0008250Y0172793D01*
X0007499Y0172042D01*
X0007499Y0170441D02*
X0008250Y0169690D01*
X0008250Y0167438D01*
X0003746Y0167438D01*
X0003746Y0169690D01*
X0004497Y0170441D01*
X0005247Y0170441D01*
X0005998Y0169690D01*
X0005998Y0167438D01*
X0005998Y0169690D02*
X0006749Y0170441D01*
X0007499Y0170441D01*
X0011000Y0168500D02*
X0011000Y0173500D01*
X0013500Y0176000D01*
X0018500Y0176000D02*
X0021000Y0173500D01*
X0021000Y0168500D01*
X0018500Y0166000D01*
X0013500Y0166000D01*
X0011000Y0168500D01*
X0013500Y0161000D02*
X0011000Y0158500D01*
X0011000Y0153500D01*
X0013500Y0151000D01*
X0018500Y0151000D01*
X0021000Y0148500D01*
X0021000Y0143500D01*
X0018500Y0141000D01*
X0013500Y0141000D01*
X0011000Y0143500D01*
X0011000Y0148500D01*
X0013500Y0151000D01*
X0018500Y0151000D02*
X0021000Y0153500D01*
X0021000Y0158500D01*
X0018500Y0161000D01*
X0013500Y0161000D01*
X0008250Y0144649D02*
X0008250Y0141646D01*
X0008250Y0143147D02*
X0003746Y0143147D01*
X0005247Y0141646D01*
X0004497Y0140045D02*
X0003746Y0139294D01*
X0003746Y0137793D01*
X0004497Y0137042D01*
X0005247Y0137042D01*
X0005998Y0137793D01*
X0005998Y0139294D01*
X0006749Y0140045D01*
X0007499Y0140045D01*
X0008250Y0139294D01*
X0008250Y0137793D01*
X0007499Y0137042D01*
X0007499Y0135441D02*
X0008250Y0134690D01*
X0008250Y0132438D01*
X0003746Y0132438D01*
X0003746Y0134690D01*
X0004497Y0135441D01*
X0005247Y0135441D01*
X0005998Y0134690D01*
X0005998Y0132438D01*
X0005998Y0134690D02*
X0006749Y0135441D01*
X0007499Y0135441D01*
X0011000Y0133500D02*
X0011000Y0138500D01*
X0013500Y0141000D01*
X0018500Y0141000D02*
X0021000Y0138500D01*
X0021000Y0133500D01*
X0018500Y0131000D01*
X0013500Y0131000D01*
X0011000Y0133500D01*
X0013500Y0126000D02*
X0011000Y0123500D01*
X0011000Y0118500D01*
X0013500Y0116000D01*
X0018500Y0116000D01*
X0021000Y0113500D01*
X0021000Y0108500D01*
X0018500Y0106000D01*
X0013500Y0106000D01*
X0011000Y0108500D01*
X0011000Y0113500D01*
X0013500Y0116000D01*
X0018500Y0116000D02*
X0021000Y0118500D01*
X0021000Y0123500D01*
X0018500Y0126000D01*
X0013500Y0126000D01*
X0008250Y0122314D02*
X0008250Y0120812D01*
X0007499Y0120062D01*
X0008250Y0118460D02*
X0008250Y0115458D01*
X0003746Y0115458D01*
X0003746Y0113856D02*
X0008250Y0113856D01*
X0005998Y0113856D02*
X0005998Y0110854D01*
X0008250Y0110854D02*
X0003746Y0110854D01*
X0003746Y0109253D02*
X0008250Y0109253D01*
X0006749Y0107751D01*
X0008250Y0106250D01*
X0003746Y0106250D01*
X0004497Y0098064D02*
X0003746Y0097314D01*
X0003746Y0095812D01*
X0004497Y0095062D01*
X0004497Y0098064D02*
X0005247Y0098064D01*
X0008250Y0095062D01*
X0008250Y0098064D01*
X0011000Y0098500D02*
X0011000Y0093500D01*
X0013500Y0091000D01*
X0018500Y0091000D01*
X0021000Y0088500D01*
X0021000Y0083500D01*
X0018500Y0081000D01*
X0013500Y0081000D01*
X0011000Y0083500D01*
X0011000Y0088500D01*
X0013500Y0091000D01*
X0018500Y0091000D02*
X0021000Y0093500D01*
X0021000Y0098500D01*
X0018500Y0101000D01*
X0013500Y0101000D01*
X0011000Y0098500D01*
X0008250Y0093460D02*
X0008250Y0090458D01*
X0003746Y0090458D01*
X0003746Y0088856D02*
X0008250Y0088856D01*
X0005998Y0088856D02*
X0005998Y0085854D01*
X0008250Y0085854D02*
X0003746Y0085854D01*
X0003746Y0084253D02*
X0008250Y0084253D01*
X0006749Y0082751D01*
X0008250Y0081250D01*
X0003746Y0081250D01*
X0008250Y0073064D02*
X0008250Y0070062D01*
X0008250Y0071563D02*
X0003746Y0071563D01*
X0005247Y0070062D01*
X0008250Y0068460D02*
X0008250Y0065458D01*
X0003746Y0065458D01*
X0003746Y0063856D02*
X0008250Y0063856D01*
X0005998Y0063856D02*
X0005998Y0060854D01*
X0008250Y0060854D02*
X0003746Y0060854D01*
X0003746Y0059253D02*
X0008250Y0059253D01*
X0006749Y0057751D01*
X0008250Y0056250D01*
X0003746Y0056250D01*
X0004497Y0052668D02*
X0003746Y0051918D01*
X0003746Y0049666D01*
X0008250Y0049666D01*
X0006749Y0049666D02*
X0006749Y0051918D01*
X0005998Y0052668D01*
X0004497Y0052668D01*
X0006749Y0051167D02*
X0008250Y0052668D01*
X0008250Y0048064D02*
X0008250Y0045062D01*
X0003746Y0045062D01*
X0003746Y0048064D01*
X0003746Y0043460D02*
X0003746Y0040458D01*
X0008250Y0040458D01*
X0008250Y0043460D01*
X0005998Y0041959D02*
X0005998Y0040458D01*
X0008250Y0037355D02*
X0003746Y0037355D01*
X0003746Y0035854D02*
X0003746Y0038856D01*
X0004497Y0034253D02*
X0003746Y0033502D01*
X0003746Y0032001D01*
X0004497Y0031250D01*
X0005247Y0031250D01*
X0005998Y0032001D01*
X0005998Y0033502D01*
X0006749Y0034253D01*
X0007499Y0034253D01*
X0008250Y0033502D01*
X0008250Y0032001D01*
X0007499Y0031250D01*
X0011000Y0033500D02*
X0011000Y0038500D01*
X0013500Y0041000D01*
X0018500Y0041000D01*
X0021000Y0038500D01*
X0021000Y0033500D01*
X0018500Y0031000D01*
X0013500Y0031000D01*
X0011000Y0033500D01*
X0013500Y0041000D02*
X0011000Y0043500D01*
X0011000Y0048500D01*
X0013500Y0051000D01*
X0018500Y0051000D01*
X0021000Y0048500D01*
X0021000Y0043500D01*
X0018500Y0041000D01*
X0018500Y0056000D02*
X0013500Y0056000D01*
X0011000Y0058500D01*
X0011000Y0063500D01*
X0013500Y0066000D01*
X0018500Y0066000D01*
X0021000Y0063500D01*
X0021000Y0058500D01*
X0018500Y0056000D01*
X0018500Y0066000D02*
X0021000Y0068500D01*
X0021000Y0073500D01*
X0018500Y0076000D01*
X0013500Y0076000D01*
X0011000Y0073500D01*
X0011000Y0068500D01*
X0013500Y0066000D01*
X0005998Y0046563D02*
X0005998Y0045062D01*
X0004497Y0120062D02*
X0003746Y0120812D01*
X0003746Y0122314D01*
X0004497Y0123064D01*
X0005247Y0123064D01*
X0005998Y0122314D01*
X0006749Y0123064D01*
X0007499Y0123064D01*
X0008250Y0122314D01*
X0005998Y0122314D02*
X0005998Y0121563D01*
D13*
X0046000Y0181000D02*
X0136000Y0181000D01*
X0136000Y0016000D01*
X0046000Y0016000D01*
X0046000Y0181000D01*
D14*
X0146500Y0172000D02*
X0147800Y0171100D01*
X0147800Y0157200D01*
X0150300Y0154700D01*
X0176700Y0154700D01*
X0179200Y0157200D01*
X0179200Y0171200D01*
X0180500Y0172000D01*
X0180500Y0190000D01*
X0179300Y0190800D01*
X0179300Y0204800D01*
X0176800Y0207300D01*
X0150200Y0207300D01*
X0147700Y0204800D01*
X0147700Y0190800D01*
X0146500Y0190000D01*
X0146500Y0172000D01*
D15*
X0167010Y0150655D02*
X0165959Y0149604D01*
X0165959Y0148554D01*
X0167010Y0147503D01*
X0169112Y0147503D01*
X0170163Y0146452D01*
X0170163Y0145401D01*
X0169112Y0144350D01*
X0167010Y0144350D01*
X0165959Y0145401D01*
X0167010Y0150655D02*
X0169112Y0150655D01*
X0170163Y0149604D01*
X0172404Y0148554D02*
X0174506Y0150655D01*
X0174506Y0144350D01*
X0172404Y0144350D02*
X0176608Y0144350D01*
M02*
