G75*
%MOIN*%
%OFA0B0*%
%FSLAX25Y25*%
%IPPOS*%
%LPD*%
%AMOC8*
5,1,8,0,0,1.08239X$1,22.5*
%
%ADD10R,0.04737X0.05131*%
%ADD11C,0.13300*%
%ADD12C,0.08200*%
%ADD13C,0.13800*%
%ADD14R,0.05131X0.04737*%
%ADD15R,0.05950X0.05950*%
%ADD16C,0.12650*%
%ADD17C,0.04762*%
D10*
X0101000Y0027654D03*
X0101000Y0034346D03*
X0101000Y0047654D03*
X0101000Y0054346D03*
X0101000Y0067654D03*
X0101000Y0074346D03*
X0101000Y0087654D03*
X0101000Y0094346D03*
X0161000Y0097654D03*
X0161000Y0104346D03*
X0161000Y0112654D03*
X0161000Y0119346D03*
X0161000Y0089346D03*
X0161000Y0082654D03*
X0161000Y0074346D03*
X0161000Y0067654D03*
X0296000Y0067654D03*
X0296000Y0074346D03*
X0296000Y0087654D03*
X0296000Y0094346D03*
X0296000Y0054346D03*
X0296000Y0047654D03*
X0296000Y0034346D03*
X0296000Y0027654D03*
X0356000Y0067654D03*
X0356000Y0074346D03*
X0356000Y0082654D03*
X0356000Y0089346D03*
X0356000Y0097654D03*
X0356000Y0104346D03*
X0356000Y0112654D03*
X0356000Y0119346D03*
D11*
X0331500Y0201000D03*
X0300500Y0201000D03*
X0136500Y0201000D03*
X0105500Y0201000D03*
D12*
X0086000Y0206000D03*
X0076000Y0206000D03*
X0066000Y0206000D03*
X0051000Y0206000D03*
X0041000Y0206000D03*
X0031000Y0206000D03*
X0016000Y0191000D03*
X0016000Y0181000D03*
X0016000Y0171000D03*
X0016000Y0156000D03*
X0016000Y0146000D03*
X0016000Y0136000D03*
X0016000Y0121000D03*
X0016000Y0111000D03*
X0016000Y0096000D03*
X0016000Y0086000D03*
X0016000Y0071000D03*
X0016000Y0061000D03*
X0016000Y0046000D03*
X0016000Y0036000D03*
X0151000Y0036000D03*
X0161000Y0036000D03*
X0181000Y0036000D03*
X0181000Y0046000D03*
X0181000Y0061000D03*
X0181000Y0071000D03*
X0181000Y0086000D03*
X0181000Y0096000D03*
X0181000Y0111000D03*
X0181000Y0121000D03*
X0181000Y0136000D03*
X0181000Y0146000D03*
X0211000Y0146000D03*
X0211000Y0136000D03*
X0211000Y0121000D03*
X0211000Y0111000D03*
X0211000Y0096000D03*
X0211000Y0086000D03*
X0211000Y0071000D03*
X0211000Y0061000D03*
X0211000Y0046000D03*
X0211000Y0036000D03*
X0346000Y0036000D03*
X0356000Y0036000D03*
X0376000Y0036000D03*
X0376000Y0046000D03*
X0376000Y0061000D03*
X0376000Y0071000D03*
X0376000Y0086000D03*
X0376000Y0096000D03*
X0376000Y0111000D03*
X0376000Y0121000D03*
X0376000Y0136000D03*
X0376000Y0146000D03*
X0281000Y0206000D03*
X0271000Y0206000D03*
X0261000Y0206000D03*
X0246000Y0206000D03*
X0236000Y0206000D03*
X0226000Y0206000D03*
X0211000Y0191000D03*
X0211000Y0181000D03*
X0211000Y0171000D03*
X0211000Y0156000D03*
D13*
X0016000Y0016000D03*
X0161000Y0016000D03*
X0211000Y0016000D03*
X0356000Y0016000D03*
X0366000Y0221000D03*
X0211000Y0221000D03*
X0176000Y0221000D03*
X0016000Y0221000D03*
D14*
X0101000Y0159346D03*
X0101000Y0152654D03*
X0101000Y0139346D03*
X0101000Y0132654D03*
X0091000Y0094346D03*
X0091000Y0087654D03*
X0081000Y0087654D03*
X0081000Y0094346D03*
X0081000Y0074346D03*
X0081000Y0067654D03*
X0091000Y0067654D03*
X0091000Y0074346D03*
X0091000Y0054346D03*
X0091000Y0047654D03*
X0081000Y0047654D03*
X0081000Y0054346D03*
X0081000Y0034346D03*
X0081000Y0027654D03*
X0091000Y0027654D03*
X0091000Y0034346D03*
X0151000Y0067654D03*
X0151000Y0074346D03*
X0151000Y0082654D03*
X0151000Y0089346D03*
X0151000Y0097654D03*
X0151000Y0104346D03*
X0151000Y0112654D03*
X0151000Y0119346D03*
X0276000Y0094346D03*
X0276000Y0087654D03*
X0286000Y0087654D03*
X0286000Y0094346D03*
X0286000Y0074346D03*
X0286000Y0067654D03*
X0276000Y0067654D03*
X0276000Y0074346D03*
X0276000Y0054346D03*
X0276000Y0047654D03*
X0286000Y0047654D03*
X0286000Y0054346D03*
X0286000Y0034346D03*
X0286000Y0027654D03*
X0276000Y0027654D03*
X0276000Y0034346D03*
X0346000Y0067654D03*
X0346000Y0074346D03*
X0346000Y0082654D03*
X0346000Y0089346D03*
X0346000Y0097654D03*
X0346000Y0104346D03*
X0346000Y0112654D03*
X0346000Y0119346D03*
X0296000Y0132654D03*
X0296000Y0139346D03*
X0296000Y0152654D03*
X0296000Y0159346D03*
D15*
X0326000Y0151000D03*
X0326000Y0141000D03*
X0326000Y0131000D03*
X0326000Y0121000D03*
X0326000Y0111000D03*
X0326000Y0101000D03*
X0326000Y0091000D03*
X0326000Y0081000D03*
X0326000Y0071000D03*
X0326000Y0061000D03*
X0326000Y0051000D03*
X0326000Y0041000D03*
X0326000Y0031000D03*
X0326000Y0021000D03*
X0246000Y0021000D03*
X0246000Y0031000D03*
X0246000Y0041000D03*
X0246000Y0051000D03*
X0246000Y0061000D03*
X0246000Y0071000D03*
X0246000Y0081000D03*
X0246000Y0091000D03*
X0246000Y0101000D03*
X0246000Y0111000D03*
X0246000Y0121000D03*
X0246000Y0131000D03*
X0246000Y0141000D03*
X0246000Y0151000D03*
X0131000Y0151000D03*
X0131000Y0141000D03*
X0131000Y0131000D03*
X0131000Y0121000D03*
X0131000Y0111000D03*
X0131000Y0101000D03*
X0131000Y0091000D03*
X0131000Y0081000D03*
X0131000Y0071000D03*
X0131000Y0061000D03*
X0131000Y0051000D03*
X0131000Y0041000D03*
X0131000Y0031000D03*
X0131000Y0021000D03*
X0051000Y0021000D03*
X0051000Y0031000D03*
X0051000Y0041000D03*
X0051000Y0051000D03*
X0051000Y0061000D03*
X0051000Y0071000D03*
X0051000Y0081000D03*
X0051000Y0091000D03*
X0051000Y0101000D03*
X0051000Y0111000D03*
X0051000Y0121000D03*
X0051000Y0131000D03*
X0051000Y0141000D03*
X0051000Y0151000D03*
D16*
X0160075Y0165200D02*
X0171925Y0165200D01*
X0171925Y0181000D02*
X0160075Y0181000D01*
X0160075Y0196800D02*
X0171925Y0196800D01*
X0355075Y0196800D02*
X0366925Y0196800D01*
X0366925Y0181000D02*
X0355075Y0181000D01*
X0355075Y0165200D02*
X0366925Y0165200D01*
D17*
X0351000Y0113500D03*
X0351000Y0098500D03*
X0338500Y0083500D03*
X0356000Y0061000D03*
X0296000Y0061000D03*
X0296000Y0081000D03*
X0296000Y0041000D03*
X0296000Y0021000D03*
X0306000Y0133500D03*
X0161000Y0061000D03*
X0143500Y0083500D03*
X0156000Y0098500D03*
X0156000Y0113500D03*
X0111000Y0133500D03*
X0101000Y0081000D03*
X0101000Y0061000D03*
X0101000Y0041000D03*
X0101000Y0021000D03*
M02*
